<?xml version="1.0" encoding="UTF-8" standalone="no"?>
<svg
   version="1.1"
   viewBox="0.00 0.00 940.00 940.00"
   id="svg7"
   sodipodi:docname="2.svg"
   inkscape:version="1.3 (0e150ed6c4, 2023-07-21)"
   xmlns:inkscape="http://www.inkscape.org/namespaces/inkscape"
   xmlns:sodipodi="http://sodipodi.sourceforge.net/DTD/sodipodi-0.dtd"
   xmlns="http://www.w3.org/2000/svg"
   xmlns:svg="http://www.w3.org/2000/svg">
  <defs
     id="defs7" />
  <sodipodi:namedview
     id="namedview7"
     pagecolor="#ffffff"
     bordercolor="#000000"
     borderopacity="0.25"
     inkscape:showpageshadow="2"
     inkscape:pageopacity="0.0"
     inkscape:pagecheckerboard="0"
     inkscape:deskcolor="#d1d1d1"
     inkscape:zoom="0.86595745"
     inkscape:cx="646.68305"
     inkscape:cy="470"
     inkscape:window-width="1920"
     inkscape:window-height="1010"
     inkscape:window-x="1913"
     inkscape:window-y="-6"
     inkscape:window-maximized="1"
     inkscape:current-layer="svg7" />
  <g
     stroke-width="1.90"
     fill="none"
     stroke-linecap="butt"
     id="g3">
    <path
       stroke="#84643b"
       vector-effect="non-scaling-stroke"
       d="   M 317.00 803.76   L 622.00 803.29   Q 622.40 803.29 622.29 802.82   L 469.85 151.19   Q 469.50 149.70 469.16 151.19   L 316.62 803.28   A 0.39 0.39 0.0 0 0 317.00 803.76"
       id="path1" />
    <path
       stroke="#84643b"
       vector-effect="non-scaling-stroke"
       d="   M 632.00 803.28   L 849.69 803.19   A 0.45 0.45 0.0 0 0 850.08 802.51   L 483.55 168.93   A 0.14 0.14 0.0 0 0 483.30 169.03   L 631.56 802.86   A 0.54 0.43 81.7 0 0 632.00 803.28"
       id="path2" />
    <path
       stroke="#84643b"
       vector-effect="non-scaling-stroke"
       d="   M 307.34 803.25   L 455.42 170.23   Q 455.56 169.62 455.23 170.19   L 91.14 803.05   A 0.64 0.64 0.0 0 0 91.70 804.01   L 306.83 803.67   A 0.53 0.52 -83.8 0 0 307.34 803.25"
       id="path3" />
  </g>
  <path
     fill="#094065"
     d="   M 75.44 812.71   L 469.14 127.52   A 0.35 0.35 0.0 0 1 469.75 127.52   L 865.83 811.33   A 0.35 0.35 0.0 0 1 865.53 811.86   L 75.75 813.24   A 0.35 0.35 0.0 0 1 75.44 812.71   Z   M 317.00 803.76   L 622.00 803.29   Q 622.40 803.29 622.29 802.82   L 469.85 151.19   Q 469.50 149.70 469.16 151.19   L 316.62 803.28   A 0.39 0.39 0.0 0 0 317.00 803.76   Z   M 632.00 803.28   L 849.69 803.19   A 0.45 0.45 0.0 0 0 850.08 802.51   L 483.55 168.93   A 0.14 0.14 0.0 0 0 483.30 169.03   L 631.56 802.86   A 0.54 0.43 81.7 0 0 632.00 803.28   Z   M 307.34 803.25   L 455.42 170.23   Q 455.56 169.62 455.23 170.19   L 91.14 803.05   A 0.64 0.64 0.0 0 0 91.70 804.01   L 306.83 803.67   A 0.53 0.52 -83.8 0 0 307.34 803.25   Z"
     id="path4"
     style="fill:#333333;fill-opacity:1" />
  <path
     fill="#ff8811"
     d="   M 622.00 803.29   L 317.00 803.76   A 0.39 0.39 0.0 0 1 316.62 803.28   L 469.16 151.19   Q 469.50 149.70 469.85 151.19   L 622.29 802.82   Q 622.40 803.29 622.00 803.29   Z"
     id="path5"
     style="fill:#00784c;fill-opacity:1" />
  <path
     fill="#ff8811"
     d="   M 849.69 803.19   L 632.00 803.28   A 0.54 0.43 81.7 0 1 631.56 802.86   L 483.30 169.03   A 0.14 0.14 0.0 0 1 483.55 168.93   L 850.08 802.51   A 0.45 0.45 0.0 0 1 849.69 803.19   Z"
     id="path6"
     style="fill:#00784c;fill-opacity:1" />
  <path
     fill="#ff8811"
     d="   M 455.42 170.23   L 307.34 803.25   A 0.53 0.52 -83.8 0 1 306.83 803.67   L 91.70 804.01   A 0.64 0.64 0.0 0 1 91.14 803.05   L 455.23 170.19   Q 455.56 169.62 455.42 170.23   Z"
     id="path7"
     style="fill:#00784c;fill-opacity:1" />
</svg>
