<?xml version="1.0" encoding="UTF-8" standalone="no"?>
<svg
   version="1.1"
   viewBox="0.00 0.00 1000.00 1000.00"
   id="svg11"
   sodipodi:docname="question.svg"
   inkscape:version="1.3 (0e150ed6c4, 2023-07-21)"
   xmlns:inkscape="http://www.inkscape.org/namespaces/inkscape"
   xmlns:sodipodi="http://sodipodi.sourceforge.net/DTD/sodipodi-0.dtd"
   xmlns="http://www.w3.org/2000/svg"
   xmlns:svg="http://www.w3.org/2000/svg">
  <defs
     id="defs11" />
  <sodipodi:namedview
     id="namedview11"
     pagecolor="#ffffff"
     bordercolor="#000000"
     borderopacity="0.25"
     inkscape:showpageshadow="2"
     inkscape:pageopacity="0.0"
     inkscape:pagecheckerboard="0"
     inkscape:deskcolor="#d1d1d1"
     inkscape:zoom="0.814"
     inkscape:cx="500.61425"
     inkscape:cy="500"
     inkscape:window-width="1920"
     inkscape:window-height="1010"
     inkscape:window-x="1913"
     inkscape:window-y="-6"
     inkscape:window-maximized="1"
     inkscape:current-layer="svg11" />
  <g
     stroke-width="2.00"
     fill="none"
     stroke-linecap="butt"
     id="g6">
    <path
       stroke="#988418"
       vector-effect="non-scaling-stroke"
       d="   M 492.75 138.63   A 0.62 0.62 0.0 0 0 492.13 138.01   L 261.65 138.01   A 0.62 0.62 0.0 0 0 261.03 138.63   L 261.03 369.13   A 0.62 0.62 0.0 0 0 261.65 369.75   L 492.13 369.75   A 0.62 0.62 0.0 0 0 492.75 369.13   L 492.75 138.63"
       id="path1" />
    <path
       stroke="#777777"
       vector-effect="non-scaling-stroke"
       d="   M 246.76 385.40   A 1.38 1.38 0.0 0 0 245.38 384.02   L 16.38 384.02   A 1.38 1.38 0.0 0 0 15.00 385.40   L 15.00 614.60   A 1.38 1.38 0.0 0 0 16.38 615.98   L 245.38 615.98   A 1.38 1.38 0.0 0 0 246.76 614.60   L 246.76 385.40"
       id="path2" />
    <path
       stroke="#186e94"
       vector-effect="non-scaling-stroke"
       d="   M 492.75 384.61   A 0.38 0.38 0.0 0 0 492.37 384.23   L 261.63 384.23   A 0.38 0.38 0.0 0 0 261.25 384.61   L 261.25 615.39   A 0.38 0.38 0.0 0 0 261.63 615.77   L 492.37 615.77   A 0.38 0.38 0.0 0 0 492.75 615.39   L 492.75 384.61"
       id="path3" />
    <path
       stroke="#18764f"
       vector-effect="non-scaling-stroke"
       d="   M 753.25 614.89   A 0.86 0.86 0.0 0 0 754.11 615.75   L 984.14 615.75   A 0.86 0.86 0.0 0 0 985.00 614.89   L 985.00 384.91   A 0.86 0.86 0.0 0 0 984.14 384.05   L 754.11 383.98   A 0.86 0.86 0.0 0 0 753.25 384.84   L 753.25 614.89"
       id="path4" />
    <path
       stroke="#983331"
       vector-effect="non-scaling-stroke"
       d="   M 738.97 385.57   A 1.32 1.32 0.0 0 0 737.65 384.25   L 508.57 384.25   A 1.32 1.32 0.0 0 0 507.25 385.57   L 507.25 614.67   A 1.32 1.32 0.0 0 0 508.57 615.99   L 737.65 615.99   A 1.32 1.32 0.0 0 0 738.97 614.67   L 738.97 385.57"
       id="path5" />
    <path
       stroke="#6d4a96"
       vector-effect="non-scaling-stroke"
       d="   M 492.75 631.21   A 0.97 0.97 0.0 0 0 491.78 630.24   L 262.04 630.24   A 0.97 0.97 0.0 0 0 261.07 631.21   L 261.07 861.03   A 0.97 0.97 0.0 0 0 262.04 862.00   L 491.78 862.00   A 0.97 0.97 0.0 0 0 492.75 861.03   L 492.75 631.21"
       id="path6" />
  </g>
  <path
     fill="#303030"
     d="   M 245.97 630.45   L 1.37 630.48   A 0.87 0.86 -0.0 0 1 0.50 629.62   L 0.50 370.38   A 0.62 0.61 0.0 0 1 1.12 369.77   L 245.86 369.72   A 0.89 0.88 90.0 0 0 246.74 368.83   L 246.75 125.52   A 1.27 1.27 0.0 0 1 248.00 124.25   C 334.23 122.85 420.52 123.48 506.75 123.51   A 0.50 0.50 0.0 0 1 507.25 124.01   L 507.25 369.19   A 0.31 0.31 0.0 0 0 507.56 369.50   L 998.75 369.50   A 0.75 0.75 0.0 0 1 999.50 370.25   L 999.50 629.25   A 1.00 1.00 0.0 0 1 998.50 630.25   L 508.25 630.25   A 1.00 1.00 0.0 0 0 507.25 631.25   L 507.25 876.00   A 0.50 0.50 0.0 0 1 506.75 876.50   L 247.25 876.50   A 0.50 0.50 0.0 0 1 246.75 876.00   L 246.75 631.22   A 0.78 0.77 0.0 0 0 245.97 630.45   Z   M 492.75 138.63   A 0.62 0.62 0.0 0 0 492.13 138.01   L 261.65 138.01   A 0.62 0.62 0.0 0 0 261.03 138.63   L 261.03 369.13   A 0.62 0.62 0.0 0 0 261.65 369.75   L 492.13 369.75   A 0.62 0.62 0.0 0 0 492.75 369.13   L 492.75 138.63   Z   M 246.76 385.40   A 1.38 1.38 0.0 0 0 245.38 384.02   L 16.38 384.02   A 1.38 1.38 0.0 0 0 15.00 385.40   L 15.00 614.60   A 1.38 1.38 0.0 0 0 16.38 615.98   L 245.38 615.98   A 1.38 1.38 0.0 0 0 246.76 614.60   L 246.76 385.40   Z   M 492.75 384.61   A 0.38 0.38 0.0 0 0 492.37 384.23   L 261.63 384.23   A 0.38 0.38 0.0 0 0 261.25 384.61   L 261.25 615.39   A 0.38 0.38 0.0 0 0 261.63 615.77   L 492.37 615.77   A 0.38 0.38 0.0 0 0 492.75 615.39   L 492.75 384.61   Z   M 753.25 614.89   A 0.86 0.86 0.0 0 0 754.11 615.75   L 984.14 615.75   A 0.86 0.86 0.0 0 0 985.00 614.89   L 985.00 384.91   A 0.86 0.86 0.0 0 0 984.14 384.05   L 754.11 383.98   A 0.86 0.86 0.0 0 0 753.25 384.84   L 753.25 614.89   Z   M 738.97 385.57   A 1.32 1.32 0.0 0 0 737.65 384.25   L 508.57 384.25   A 1.32 1.32 0.0 0 0 507.25 385.57   L 507.25 614.67   A 1.32 1.32 0.0 0 0 508.57 615.99   L 737.65 615.99   A 1.32 1.32 0.0 0 0 738.97 614.67   L 738.97 385.57   Z   M 492.75 631.21   A 0.97 0.97 0.0 0 0 491.78 630.24   L 262.04 630.24   A 0.97 0.97 0.0 0 0 261.07 631.21   L 261.07 861.03   A 0.97 0.97 0.0 0 0 262.04 862.00   L 491.78 862.00   A 0.97 0.97 0.0 0 0 492.75 861.03   L 492.75 631.21   Z"
     id="path7" />
  <rect
     fill="#ffd700"
     x="261.03"
     y="138.01"
     width="231.72"
     height="231.74"
     rx="0.62"
     id="rect7" />
  <rect
     fill="#bebebe"
     x="15.00"
     y="384.02"
     width="231.76"
     height="231.96"
     rx="1.38"
     id="rect8"
     style="fill:#ff32b6;fill-opacity:1" />
  <rect
     fill="#00abf7"
     x="261.25"
     y="384.23"
     width="231.50"
     height="231.54"
     rx="0.38"
     id="rect9" />
  <path
     fill="#00bb6e"
     d="   M 753.25 614.89   L 753.25 384.84   A 0.86 0.86 0.0 0 1 754.11 383.98   L 984.14 384.05   A 0.86 0.86 0.0 0 1 985.00 384.91   L 985.00 614.89   A 0.86 0.86 0.0 0 1 984.14 615.75   L 754.11 615.75   A 0.86 0.86 0.0 0 1 753.25 614.89   Z"
     id="path9" />
  <rect
     fill="#ff3632"
     x="507.25"
     y="384.25"
     width="231.72"
     height="231.74"
     rx="1.32"
     id="rect10" />
  <rect
     fill="#aa64fb"
     x="261.07"
     y="630.24"
     width="231.68"
     height="231.76"
     rx="0.97"
     id="rect11"
     style="fill:#bebebe;fill-opacity:1" />
</svg>
