<?xml version="1.0" encoding="UTF-8" standalone="no"?>
<svg
   version="1.1"
   viewBox="0.00 0.00 574.00 574.00"
   id="svg26"
   sodipodi:docname="question.svg"
   inkscape:version="1.3 (0e150ed6c4, 2023-07-21)"
   xmlns:inkscape="http://www.inkscape.org/namespaces/inkscape"
   xmlns:sodipodi="http://sodipodi.sourceforge.net/DTD/sodipodi-0.dtd"
   xmlns="http://www.w3.org/2000/svg"
   xmlns:svg="http://www.w3.org/2000/svg">
  <defs
     id="defs26" />
  <sodipodi:namedview
     id="namedview26"
     pagecolor="#ffffff"
     bordercolor="#000000"
     borderopacity="0.25"
     inkscape:showpageshadow="2"
     inkscape:pageopacity="0.0"
     inkscape:pagecheckerboard="0"
     inkscape:deskcolor="#d1d1d1"
     inkscape:zoom="1.4181185"
     inkscape:cx="362.0995"
     inkscape:cy="371.61916"
     inkscape:window-width="1920"
     inkscape:window-height="1010"
     inkscape:window-x="1913"
     inkscape:window-y="-6"
     inkscape:window-maximized="1"
     inkscape:current-layer="svg26" />
  <path
     fill="#00784c"
     d="   M 134.95 68.00   A 66.95 66.95 0.0 0 1 68.00 134.95   A 66.95 66.95 0.0 0 1 1.05 68.00   A 66.95 66.95 0.0 0 1 68.00 1.05   A 66.95 66.95 0.0 0 1 134.95 68.00   Z   M 129.00 68.00   A 61.00 61.00 0.0 0 0 68.00 7.00   A 61.00 61.00 0.0 0 0 7.00 68.00   A 61.00 61.00 0.0 0 0 68.00 129.00   A 61.00 61.00 0.0 0 0 129.00 68.00   Z"
     id="path1"
     style="fill:#00a86b;fill-opacity:1" />
  <path
     fill="#00784c"
     d="   M 352.94 69.00   A 66.95 66.95 0.0 0 1 285.99 135.95   A 66.95 66.95 0.0 0 1 219.04 69.00   A 66.95 66.95 0.0 0 1 285.99 2.05   A 66.95 66.95 0.0 0 1 352.94 69.00   Z   M 346.99 69.00   A 61.00 61.00 0.0 0 0 285.99 8.00   A 61.00 61.00 0.0 0 0 224.99 69.00   A 61.00 61.00 0.0 0 0 285.99 130.00   A 61.00 61.00 0.0 0 0 346.99 69.00   Z"
     id="path2"
     style="fill:#00a86b;fill-opacity:1" />
  <path
     fill="#00784c"
     d="   M 571.94 69.00   A 66.94 66.94 0.0 0 1 505.00 135.94   A 66.94 66.94 0.0 0 1 438.06 69.00   A 66.94 66.94 0.0 0 1 505.00 2.06   A 66.94 66.94 0.0 0 1 571.94 69.00   Z   M 565.99 69.00   A 60.99 60.99 0.0 0 0 505.00 8.01   A 60.99 60.99 0.0 0 0 444.01 69.00   A 60.99 60.99 0.0 0 0 505.00 129.99   A 60.99 60.99 0.0 0 0 565.99 69.00   Z"
     id="path3"
     style="fill:#00a86b;fill-opacity:1" />
  <path
     fill="#00784c"
     d="   M 41.84 65.48   C 43.60 63.83 45.21 62.52 47.55 61.87   C 67.87 56.21 71.29 87.66 53.08 89.87   C 33.96 92.18 32.84 73.45 34.72 60.02   Q 36.80 45.16 50.06 45.30   C 57.38 45.39 62.49 49.31 63.55 56.61   A 0.56 0.56 0.0 0 1 63.00 57.25   L 56.24 57.25   Q 55.71 57.25 55.60 56.73   Q 54.75 52.72 51.68 52.32   C 42.70 51.15 41.76 58.57 41.35 65.25   Q 41.30 65.98 41.84 65.48   Z   M 57.15 75.54   A 7.52 7.52 0.0 0 0 49.63 68.02   A 7.52 7.52 0.0 0 0 42.11 75.54   A 7.52 7.52 0.0 0 0 49.63 83.06   A 7.52 7.52 0.0 0 0 57.15 75.54   Z"
     id="path4"
     style="fill:#333333;fill-opacity:1" />
  <path
     fill="#00784c"
     d="   M 81.25 54.00   L 81.25 62.75   Q 81.25 63.55 81.89 63.06   C 89.99 56.75 101.34 61.10 102.92 71.42   C 106.37 94.04 75.81 96.18 72.90 78.23   Q 72.82 77.75 73.31 77.75   L 80.45 77.75   Q 80.93 77.75 81.09 78.21   Q 82.24 81.50 85.49 82.50   C 95.70 85.64 98.75 70.88 91.29 67.83   Q 85.34 65.39 81.55 71.31   Q 81.26 71.75 80.73 71.75   L 74.12 71.75   Q 73.50 71.75 73.50 71.12   L 73.50 46.75   Q 73.50 46.25 74.00 46.25   L 99.87 46.25   Q 100.50 46.25 100.50 46.88   L 100.50 52.75   Q 100.50 53.50 99.75 53.50   L 81.75 53.50   Q 81.25 53.50 81.25 54.00   Z"
     id="path5"
     style="fill:#333333;fill-opacity:1" />
  <path
     fill="#00784c"
     d="   M 258.84 66.48   C 270.15 56.08 285.29 66.25 281.52 80.25   Q 278.56 91.26 266.46 90.99   C 258.16 90.81 253.97 86.69 252.21 78.62   C 249.54 66.37 250.14 45.47 267.79 46.35   C 274.85 46.70 279.60 50.65 280.52 57.66   Q 280.60 58.25 280.00 58.25   L 273.25 58.25   Q 272.74 58.25 272.63 57.75   Q 271.74 53.74 268.28 53.29   C 259.74 52.18 258.71 59.85 258.39 66.26   Q 258.35 66.93 258.84 66.48   Z   M 274.16 76.54   A 7.52 7.52 0.0 0 0 266.64 69.02   A 7.52 7.52 0.0 0 0 259.12 76.54   A 7.52 7.52 0.0 0 0 266.64 84.06   A 7.52 7.52 0.0 0 0 274.16 76.54   Z"
     id="path6"
     style="fill:#333333;fill-opacity:1" />
  <path
     fill="#00784c"
     d="   M 479.84 66.48   C 487.11 59.27 499.08 61.39 502.19 71.26   C 505.29 81.07 500.01 89.99 489.53 90.99   C 472.39 92.61 471.39 75.07 472.43 62.75   C 472.94 56.67 475.40 50.19 481.25 47.53   C 489.66 43.71 500.20 47.56 501.47 57.69   Q 501.54 58.25 500.98 58.25   L 494.46 58.25   Q 493.91 58.25 493.75 57.72   C 491.54 50.43 482.01 52.23 480.44 59.20   Q 479.53 63.25 479.34 66.25   Q 479.30 67.01 479.84 66.48   Z   M 495.15 76.54   A 7.52 7.52 0.0 0 0 487.63 69.02   A 7.52 7.52 0.0 0 0 480.11 76.54   A 7.52 7.52 0.0 0 0 487.63 84.06   A 7.52 7.52 0.0 0 0 495.15 76.54   Z"
     id="path7"
     style="fill:#333333;fill-opacity:1" />
  <path
     fill="#00784c"
     d="   M 522.27 83.53   L 538.74 83.49   Q 539.25 83.49 539.25 83.99   L 539.25 89.75   Q 539.25 90.50 538.50 90.50   L 510.25 90.50   Q 509.75 90.50 509.75 90.00   L 509.75 84.72   A 1.35 1.33 70.3 0 1 510.23 83.69   C 518.03 77.18 524.15 72.76 528.41 65.47   C 535.00 54.18 519.88 47.27 517.86 60.40   A 0.69 0.69 0.0 0 1 517.18 60.99   L 510.75 61.00   A 1.07 1.06 2.4 0 1 509.68 59.84   C 511.40 41.24 539.09 41.77 538.28 60.26   C 537.83 70.43 528.79 76.83 522.09 83.09   Q 521.63 83.53 522.27 83.53   Z"
     id="path8"
     style="fill:#333333;fill-opacity:1" />
  <path
     fill="#00784c"
     d="   M 318.75 75.25   L 323.00 75.25   Q 323.50 75.25 323.50 75.75   L 323.50 81.87   Q 323.50 82.50 322.87 82.50   L 318.75 82.50   Q 318.25 82.50 318.25 83.00   L 318.25 90.25   Q 318.25 91.00 317.50 91.00   L 310.50 91.00   Q 309.75 91.00 309.75 90.25   L 309.75 83.00   Q 309.75 82.50 309.25 82.50   L 289.46 82.50   Q 288.83 82.50 288.79 81.88   C 288.60 79.00 288.24 76.68 290.01 74.15   Q 299.09 61.18 308.16 48.20   A 1.04 1.03 -72.5 0 1 309.01 47.75   L 317.50 47.75   Q 318.25 47.75 318.25 48.50   L 318.25 74.75   Q 318.25 75.25 318.75 75.25   Z   M 309.80 57.59   L 298.40 74.61   Q 297.97 75.25 298.74 75.25   L 309.63 75.25   Q 310.25 75.25 310.25 74.62   L 310.25 57.72   Q 310.25 56.91 309.80 57.59   Z"
     id="path9"
     style="fill:#333333;fill-opacity:1" />
  <path
     fill="#00784c"
     d="   M 134.95 285.99   A 66.95 66.95 0.0 0 1 68.00 352.94   A 66.95 66.95 0.0 0 1 1.05 285.99   A 66.95 66.95 0.0 0 1 68.00 219.04   A 66.95 66.95 0.0 0 1 134.95 285.99   Z   M 129.00 286.00   A 61.00 61.00 0.0 0 0 68.00 225.00   A 61.00 61.00 0.0 0 0 7.00 286.00   A 61.00 61.00 0.0 0 0 68.00 347.00   A 61.00 61.00 0.0 0 0 129.00 286.00   Z"
     id="path10"
     style="fill:#00a86b;fill-opacity:1" />
  <path
     fill="#00784c"
     d="   M 352.94 286.99   A 66.95 66.95 0.0 0 1 285.99 353.94   A 66.95 66.95 0.0 0 1 219.04 286.99   A 66.95 66.95 0.0 0 1 285.99 220.04   A 66.95 66.95 0.0 0 1 352.94 286.99   Z   M 346.99 286.99   A 61.00 61.00 0.0 0 0 285.99 225.99   A 61.00 61.00 0.0 0 0 224.99 286.99   A 61.00 61.00 0.0 0 0 285.99 347.99   A 61.00 61.00 0.0 0 0 346.99 286.99   Z"
     id="path11"
     style="fill:#00a86b;fill-opacity:1" />
  <path
     fill="#00784c"
     d="   M 571.94 286.99   A 66.94 66.94 0.0 0 1 505.00 353.93   A 66.94 66.94 0.0 0 1 438.06 286.99   A 66.94 66.94 0.0 0 1 505.00 220.05   A 66.94 66.94 0.0 0 1 571.94 286.99   Z   M 565.99 286.99   A 60.99 60.99 0.0 0 0 505.00 226.00   A 60.99 60.99 0.0 0 0 444.01 286.99   A 60.99 60.99 0.0 0 0 505.00 347.98   A 60.99 60.99 0.0 0 0 565.99 286.99   Z"
     id="path12"
     style="fill:#00a86b;fill-opacity:1" />
  <path
     fill="#00784c"
     d="   M 56.62 285.14   Q 62.32 287.56 63.24 292.97   C 66.66 312.95 34.02 313.39 33.86 295.20   Q 33.86 294.75 34.31 294.75   L 41.06 294.75   Q 41.68 294.75 41.82 295.35   Q 43.42 302.30 50.84 301.03   C 56.71 300.02 56.77 291.86 52.08 289.46   C 50.02 288.41 47.22 288.44 44.78 288.50   A 0.51 0.51 0.0 0 1 44.25 287.99   L 44.25 282.02   A 0.56 0.56 0.0 0 1 44.86 281.46   C 47.92 281.74 51.68 281.40 53.61 278.83   C 58.64 272.11 45.87 265.48 42.44 275.22   Q 42.25 275.75 41.70 275.75   L 35.02 275.75   Q 34.33 275.75 34.40 275.06   C 35.78 261.40 56.33 258.86 61.73 270.18   C 64.17 275.30 62.09 281.88 56.61 284.45   Q 55.84 284.81 56.62 285.14   Z"
     id="path13"
     style="fill:#333333;fill-opacity:1" />
  <path
     fill="#00784c"
     d="   M 78.75 283.40   C 88.96 274.40 102.61 280.66 101.93 294.33   C 101.43 304.24 93.88 309.31 83.95 307.77   C 70.16 305.62 70.14 288.41 71.80 277.77   Q 74.07 263.15 87.07 263.30   C 94.38 263.39 99.49 267.31 100.55 274.61   A 0.56 0.56 0.0 0 1 100.00 275.25   L 93.25 275.25   Q 92.74 275.25 92.64 274.75   Q 91.91 271.39 89.46 270.58   C 80.70 267.66 78.65 276.49 78.40 283.23   Q 78.39 283.72 78.75 283.40   Z   M 94.16 293.54   A 7.52 7.52 0.0 0 0 86.64 286.02   A 7.52 7.52 0.0 0 0 79.12 293.54   A 7.52 7.52 0.0 0 0 86.64 301.06   A 7.52 7.52 0.0 0 0 94.16 293.54   Z"
     id="path14"
     style="fill:#333333;fill-opacity:1" />
  <path
     fill="#00784c"
     d="   M 276.66 286.18   Q 282.27 288.57 283.24 293.97   C 286.78 313.85 253.98 314.45 253.87 296.19   Q 253.86 295.75 254.31 295.75   L 261.06 295.75   Q 261.69 295.75 261.83 296.36   Q 263.38 303.17 270.71 302.06   C 276.67 301.16 276.84 292.89 272.08 290.46   C 270.02 289.41 267.22 289.44 264.78 289.50   A 0.51 0.51 0.0 0 1 264.25 288.99   L 264.25 283.01   A 0.58 0.58 0.0 0 1 264.90 282.43   C 268.44 282.88 273.03 282.20 274.33 278.40   C 276.75 271.31 265.36 267.92 262.44 276.23   Q 262.26 276.75 261.70 276.75   L 255.01 276.75   Q 254.53 276.75 254.55 276.27   C 255.09 260.10 282.79 260.13 282.65 276.10   Q 282.60 282.27 276.63 285.56   Q 276.01 285.90 276.66 286.18   Z"
     id="path15"
     style="fill:#333333;fill-opacity:1" />
  <path
     fill="#00784c"
     d="   M 302.26 301.53   L 318.74 301.49   Q 319.25 301.49 319.25 301.99   L 319.25 307.75   Q 319.25 308.50 318.50 308.50   L 290.37 308.50   Q 289.75 308.50 289.75 307.87   L 289.75 302.69   Q 289.75 302.06 290.24 301.66   C 297.43 295.78 304.17 290.70 308.41 283.47   C 315.02 272.19 299.88 265.26 297.86 278.40   A 0.69 0.69 0.0 0 1 297.18 278.99   L 290.74 279.00   Q 289.58 279.01 289.69 277.85   Q 290.70 266.92 300.92 264.74   C 308.64 263.09 315.92 266.08 317.98 274.07   C 320.94 285.52 309.35 294.48 302.09 301.07   Q 301.59 301.53 302.26 301.53   Z"
     id="path16"
     style="fill:#333333;fill-opacity:1" />
  <path
     fill="#00784c"
     d="   M 488.27 301.53   L 504.74 301.49   Q 505.25 301.49 505.25 301.99   L 505.25 307.75   Q 505.25 308.50 504.50 308.50   L 476.50 308.50   Q 475.75 308.50 475.75 307.75   L 475.75 302.73   A 1.35 1.33 70.3 0 1 476.23 301.70   C 482.22 296.78 493.18 288.53 495.43 281.44   C 499.35 269.14 483.77 268.33 483.99 277.94   A 1.03 1.03 0.0 0 1 482.96 279.00   L 476.73 279.00   Q 475.57 279.00 475.68 277.84   C 477.48 259.22 505.09 259.78 504.27 278.26   C 503.83 288.43 494.79 294.83 488.09 301.09   Q 487.63 301.53 488.27 301.53   Z"
     id="path17"
     style="fill:#333333;fill-opacity:1" />
  <path
     fill="#00784c"
     d="   M 528.97 272.50   L 509.63 272.50   Q 509.00 272.50 509.00 271.87   L 509.00 266.25   Q 509.00 265.50 509.75 265.50   L 537.23 265.50   Q 537.74 265.50 537.82 266.00   Q 538.57 270.44 537.47 272.98   Q 529.83 290.73 522.26 308.48   Q 522.03 309.00 521.47 309.00   L 514.04 309.00   A 0.33 0.33 0.0 0 1 513.74 308.53   L 529.38 273.13   Q 529.66 272.50 528.97 272.50   Z"
     id="path18"
     style="fill:#333333;fill-opacity:1" />
  <path
     fill="#00784c"
     d="   M 134.94 505.00   A 66.94 66.94 0.0 0 1 68.00 571.94   A 66.94 66.94 0.0 0 1 1.06 505.00   A 66.94 66.94 0.0 0 1 68.00 438.06   A 66.94 66.94 0.0 0 1 134.94 505.00   Z   M 127.98 505.00   A 59.98 59.98 0.0 0 0 68.00 445.02   A 59.98 59.98 0.0 0 0 8.02 505.00   A 59.98 59.98 0.0 0 0 68.00 564.98   A 59.98 59.98 0.0 0 0 127.98 505.00   Z"
     id="path19"
     style="fill:#00a86b;fill-opacity:1" />
  <path
     fill="#00784c"
     d="   M 352.93 506.00   A 66.94 66.94 0.0 0 1 285.99 572.94   A 66.94 66.94 0.0 0 1 219.05 506.00   A 66.94 66.94 0.0 0 1 285.99 439.06   A 66.94 66.94 0.0 0 1 352.93 506.00   Z   M 346.98 506.00   A 60.99 60.99 0.0 0 0 285.99 445.01   A 60.99 60.99 0.0 0 0 225.00 506.00   A 60.99 60.99 0.0 0 0 285.99 566.99   A 60.99 60.99 0.0 0 0 346.98 506.00   Z"
     id="path20"
     style="fill:#00a86b;fill-opacity:1" />
  <path
     fill="#00784c"
     d="   M 571.93 506.00   A 66.93 66.93 0.0 0 1 505.00 572.93   A 66.93 66.93 0.0 0 1 438.07 506.00   A 66.93 66.93 0.0 0 1 505.00 439.07   A 66.93 66.93 0.0 0 1 571.93 506.00   Z   M 565.99 506.00   A 60.99 60.99 0.0 0 0 505.00 445.01   A 60.99 60.99 0.0 0 0 444.01 506.00   A 60.99 60.99 0.0 0 0 505.00 566.99   A 60.99 60.99 0.0 0 0 565.99 506.00   Z"
     id="path21"
     style="fill:#00a86b;fill-opacity:1" />
  <path
     fill="#00784c"
     d="   M 513.92 490.99   C 512.39 481.84 498.52 482.28 497.34 492.26   Q 497.29 492.75 496.79 492.75   L 486.51 492.75   A 0.53 0.53 0.0 0 1 485.98 492.20   C 487.06 468.13 525.37 468.11 525.87 492.74   C 526.11 504.88 517.51 509.21 506.64 510.32   Q 505.95 510.39 505.92 511.07   L 505.68 516.06   A 0.99 0.99 0.0 0 1 504.69 517.00   L 495.50 517.00   A 0.52 0.51 -0.6 0 1 494.98 516.50   L 494.51 502.75   Q 494.50 502.25 495.01 502.26   C 502.45 502.44 515.82 502.43 513.92 490.99   Z"
     id="path22"
     style="fill:#333333;fill-opacity:1" />
  <path
     fill="#00784c"
     d="   M 46.24 518.54   L 62.61 518.48   A 0.64 0.63 -0.0 0 1 63.25 519.11   L 63.25 524.75   Q 63.25 525.50 62.50 525.50   L 34.37 525.50   Q 33.75 525.50 33.75 524.87   L 33.75 519.69   Q 33.75 519.07 34.23 518.67   C 39.95 513.99 59.65 499.41 52.66 490.52   C 48.63 485.39 42.17 489.38 41.90 495.39   A 0.64 0.64 0.0 0 1 41.26 496.00   L 34.73 496.00   Q 33.79 496.00 33.82 495.06   C 34.31 479.00 57.68 475.90 61.84 490.55   C 65.04 501.85 53.75 511.77 46.05 518.03   A 0.29 0.29 0.0 0 0 46.24 518.54   Z"
     id="path23"
     style="fill:#333333;fill-opacity:1" />
  <path
     fill="#00784c"
     d="   M 79.25 490.00   L 79.25 498.74   Q 79.25 499.52 79.87 499.05   C 87.13 493.50 97.76 496.31 100.53 505.26   C 107.68 528.38 74.23 533.54 70.81 514.35   Q 70.70 513.75 71.31 513.75   L 78.45 513.75   Q 78.93 513.75 79.09 514.21   Q 80.24 517.50 83.49 518.50   C 93.70 521.64 96.75 506.88 89.29 503.83   Q 83.34 501.39 79.55 507.31   Q 79.26 507.75 78.73 507.75   L 72.12 507.75   Q 71.50 507.75 71.50 507.12   L 71.50 482.75   Q 71.50 482.25 72.00 482.25   L 97.87 482.25   Q 98.50 482.25 98.50 482.88   L 98.50 488.75   Q 98.50 489.50 97.75 489.50   L 79.75 489.50   Q 79.25 489.50 79.25 490.00   Z"
     id="path24"
     style="fill:#333333;fill-opacity:1" />
  <path
     fill="#00784c"
     d="   M 263.52 492.00   L 258.73 492.00   A 0.48 0.48 0.0 0 1 258.25 491.52   L 258.25 484.73   A 0.48 0.48 0.0 0 1 258.73 484.25   L 272.02 484.25   A 0.48 0.48 0.0 0 1 272.50 484.73   L 272.50 527.52   A 0.48 0.48 0.0 0 1 272.02 528.00   L 264.48 528.00   A 0.48 0.48 0.0 0 1 264.00 527.52   L 264.00 492.48   A 0.48 0.48 0.0 0 0 263.52 492.00   Z"
     id="path25"
     style="fill:#333333;fill-opacity:1" />
  <path
     fill="#00784c"
     d="   M 291.87 501.07   C 293.87 499.64 295.81 498.52 298.30 498.34   C 320.78 496.74 317.62 533.72 293.22 527.52   Q 285.55 525.57 282.67 516.89   A 0.87 0.86 80.8 0 1 283.49 515.75   L 290.48 515.75   Q 290.92 515.75 291.06 516.17   Q 292.18 519.42 295.50 520.46   C 306.25 523.83 308.53 507.78 300.91 505.66   Q 294.60 503.90 291.57 509.38   Q 291.37 509.75 290.94 509.75   L 284.25 509.75   Q 283.50 509.75 283.50 509.00   L 283.50 484.75   Q 283.50 484.25 284.00 484.25   L 310.00 484.25   Q 310.50 484.25 310.50 484.75   L 310.50 490.75   Q 310.50 491.50 309.75 491.50   L 291.75 491.50   Q 291.25 491.50 291.25 492.00   L 291.25 500.76   Q 291.25 501.52 291.87 501.07   Z"
     id="path26"
     style="fill:#333333;fill-opacity:1" />
  <circle
     fill="#00784c"
     cx="500.16"
     cy="530.50"
     r="7.24"
     id="circle26"
     style="fill:#333333;fill-opacity:1" />
</svg>
