<?xml version="1.0" encoding="UTF-8" standalone="no"?>
<svg
   version="1.1"
   viewBox="0.00 0.00 795.00 795.00"
   id="svg1"
   sodipodi:docname="question.svg"
   inkscape:version="1.3 (0e150ed6c4, 2023-07-21)"
   xmlns:inkscape="http://www.inkscape.org/namespaces/inkscape"
   xmlns:sodipodi="http://sodipodi.sourceforge.net/DTD/sodipodi-0.dtd"
   xmlns="http://www.w3.org/2000/svg"
   xmlns:svg="http://www.w3.org/2000/svg">
  <defs
     id="defs1" />
  <sodipodi:namedview
     id="namedview1"
     pagecolor="#ffffff"
     bordercolor="#000000"
     borderopacity="0.25"
     inkscape:showpageshadow="2"
     inkscape:pageopacity="0.0"
     inkscape:pagecheckerboard="0"
     inkscape:deskcolor="#d1d1d1"
     inkscape:zoom="1.0238994"
     inkscape:cx="399.94163"
     inkscape:cy="397.49999"
     inkscape:window-width="1920"
     inkscape:window-height="1010"
     inkscape:window-x="1913"
     inkscape:window-y="-6"
     inkscape:window-maximized="1"
     inkscape:current-layer="svg1" />
  <path
     fill="#003e66"
     d="   M 195.02 0.00   L 795.00 0.00   L 795.00 599.95   L 600.53 599.99   A 0.54 0.53 90.0 0 0 600.00 600.53   L 599.98 795.00   L 195.04 795.00   L 195.03 601.06   A 1.07 1.06 -0.0 0 0 193.96 600.00   L 0.00 599.98   L 0.00 195.02   L 194.48 195.01   Q 194.99 195.01 194.99 194.49   L 195.02 0.00   Z   M 585.00 15.64   A 0.64 0.64 0.0 0 0 584.36 15.00   L 210.64 15.00   A 0.64 0.64 0.0 0 0 210.00 15.64   L 210.00 194.36   A 0.64 0.64 0.0 0 0 210.64 195.00   L 584.36 195.00   A 0.64 0.64 0.0 0 0 585.00 194.36   L 585.00 15.64   Z   M 780.00 15.37   A 0.37 0.37 0.0 0 0 779.63 15.00   L 600.37 15.00   A 0.37 0.37 0.0 0 0 600.00 15.37   L 600.00 194.63   A 0.37 0.37 0.0 0 0 600.37 195.00   L 779.63 195.00   A 0.37 0.37 0.0 0 0 780.00 194.63   L 780.00 15.37   Z   M 195.00 210.26   A 0.26 0.26 0.0 0 0 194.74 210.00   L 15.26 210.00   A 0.26 0.26 0.0 0 0 15.00 210.26   L 15.00 584.74   A 0.26 0.26 0.0 0 0 15.26 585.00   L 194.74 585.00   A 0.26 0.26 0.0 0 0 195.00 584.74   L 195.00 210.26   Z   M 390.00 210.32   A 0.32 0.32 0.0 0 0 389.68 210.00   L 210.32 210.00   A 0.32 0.32 0.0 0 0 210.00 210.32   L 210.00 389.68   A 0.32 0.32 0.0 0 0 210.32 390.00   L 389.68 390.00   A 0.32 0.32 0.0 0 0 390.00 389.68   L 390.00 210.32   Z   M 585.00 210.54   A 0.54 0.54 0.0 0 0 584.46 210.00   L 405.54 210.00   A 0.54 0.54 0.0 0 0 405.00 210.54   L 405.00 389.46   A 0.54 0.54 0.0 0 0 405.54 390.00   L 584.46 390.00   A 0.54 0.54 0.0 0 0 585.00 389.46   L 585.00 210.54   Z   M 780.00 210.26   A 0.26 0.26 0.0 0 0 779.74 210.00   L 600.26 210.00   A 0.26 0.26 0.0 0 0 600.00 210.26   L 600.00 584.74   A 0.26 0.26 0.0 0 0 600.26 585.00   L 779.74 585.00   A 0.26 0.26 0.0 0 0 780.00 584.74   L 780.00 210.26   Z   M 390.00 405.43   A 0.43 0.43 0.0 0 0 389.57 405.00   L 210.43 405.00   A 0.43 0.43 0.0 0 0 210.00 405.43   L 210.00 584.57   A 0.43 0.43 0.0 0 0 210.43 585.00   L 389.57 585.00   A 0.43 0.43 0.0 0 0 390.00 584.57   L 390.00 405.43   Z   M 585.00 405.43   A 0.43 0.43 0.0 0 0 584.57 405.00   L 405.43 405.00   A 0.43 0.43 0.0 0 0 405.00 405.43   L 405.00 584.57   A 0.43 0.43 0.0 0 0 405.43 585.00   L 584.57 585.00   A 0.43 0.43 0.0 0 0 585.00 584.57   L 585.00 405.43   Z   M 585.00 600.64   A 0.64 0.64 0.0 0 0 584.36 600.00   L 210.64 600.00   A 0.64 0.64 0.0 0 0 210.00 600.64   L 210.00 779.36   A 0.64 0.64 0.0 0 0 210.64 780.00   L 584.36 780.00   A 0.64 0.64 0.0 0 0 585.00 779.36   L 585.00 600.64   Z"
     id="path1"
     style="fill:#0a493b;fill-opacity:1" />
</svg>
