<?xml version="1.0" encoding="UTF-8" standalone="no"?>
<svg
   version="1.1"
   viewBox="0.00 0.00 940.00 940.00"
   id="svg15"
   sodipodi:docname="question.svg"
   inkscape:version="1.3 (0e150ed6c4, 2023-07-21)"
   xmlns:inkscape="http://www.inkscape.org/namespaces/inkscape"
   xmlns:sodipodi="http://sodipodi.sourceforge.net/DTD/sodipodi-0.dtd"
   xmlns="http://www.w3.org/2000/svg"
   xmlns:svg="http://www.w3.org/2000/svg">
  <defs
     id="defs15" />
  <sodipodi:namedview
     id="namedview15"
     pagecolor="#ffffff"
     bordercolor="#000000"
     borderopacity="0.25"
     inkscape:showpageshadow="2"
     inkscape:pageopacity="0.0"
     inkscape:pagecheckerboard="0"
     inkscape:deskcolor="#d1d1d1"
     inkscape:zoom="0.61232438"
     inkscape:cx="407.46377"
     inkscape:cy="275.9975"
     inkscape:window-width="1920"
     inkscape:window-height="1010"
     inkscape:window-x="-6"
     inkscape:window-y="-6"
     inkscape:window-maximized="1"
     inkscape:current-layer="svg15" />
  <g
     stroke-width="2.00"
     fill="none"
     stroke-linecap="butt"
     id="g7">
    <path
       stroke="#84643b"
       vector-effect="non-scaling-stroke"
       d="   M 765.74 552.49   L 477.75 227.23   A 0.43 0.43 0.0 0 0 477.00 227.51   L 477.00 553.50   A 0.50 0.50 0.0 0 0 477.50 554.00   L 766.26 554.00   A 0.47 0.47 0.0 0 0 766.64 553.25   Q 766.45 553.00 766.18 552.84   Q 765.93 552.70 765.74 552.49"
       id="path1" />
    <path
       stroke="#84643b"
       vector-effect="non-scaling-stroke"
       d="   M 466.00 227.43   A 0.39 0.39 0.0 0 0 465.32 227.17   L 176.48 553.35   A 0.39 0.39 0.0 0 0 176.78 554.00   L 465.61 554.00   A 0.39 0.39 0.0 0 0 466.00 553.61   L 466.00 227.43"
       id="path2" />
    <path
       stroke="#84643b"
       vector-effect="non-scaling-stroke"
       d="   M 449.34 564.60   A 0.32 0.32 0.0 0 0 449.18 564.00   L 176.32 564.00   A 0.32 0.32 0.0 0 0 176.00 564.32   L 176.00 721.67   A 0.32 0.32 0.0 0 0 176.48 721.94   L 449.34 564.60"
       id="path3" />
    <path
       stroke="#84643b"
       vector-effect="non-scaling-stroke"
       d="   M 193.49 724.47   L 749.95 724.47   Q 750.88 724.47 750.08 724.01   L 472.96 564.22   A 2.93 2.91 -44.8 0 0 470.03 564.22   L 193.31 723.79   A 0.36 0.36 0.0 0 0 193.49 724.47"
       id="path4" />
    <path
       stroke="#84643b"
       vector-effect="non-scaling-stroke"
       d="   M 493.81 564.00   A 0.32 0.32 0.0 0 0 493.65 564.60   L 766.52 721.93   A 0.32 0.32 0.0 0 0 767.00 721.66   L 767.00 564.32   A 0.32 0.32 0.0 0 0 766.68 564.00   L 493.81 564.00"
       id="path5" />
    <path
       stroke="#84643b"
       vector-effect="non-scaling-stroke"
       d="   M 166.00 566.01   A 0.31 0.31 0.0 0 0 165.46 565.80   L 25.62 723.73   A 0.31 0.31 0.0 0 0 25.85 724.25   L 165.69 724.25   A 0.31 0.31 0.0 0 0 166.00 723.94   L 166.00 566.01"
       id="path6" />
    <path
       stroke="#84643b"
       vector-effect="non-scaling-stroke"
       d="   M 916.81 723.12   Q 847.73 644.97 778.52 566.95   Q 778.32 566.72 778.21 566.39   Q 777.80 565.18 777.08 565.89   A 0.27 0.26 -23.3 0 0 777.00 566.08   L 777.00 723.50   Q 777.00 724.25 777.75 724.25   L 916.30 724.25   Q 917.82 724.25 916.81 723.12"
       id="path7" />
  </g>
  <path
     fill="#094065"
     d="   M 939.16 734.34   L 3.84 734.34   A 0.44 0.44 0.0 0 1 3.51 733.60   L 470.61 206.10   Q 471.50 205.10 472.38 206.10   L 939.48 733.61   A 0.44 0.43 69.0 0 1 939.16 734.34   Z   M 765.74 552.49   L 477.75 227.23   A 0.43 0.43 0.0 0 0 477.00 227.51   L 477.00 553.50   A 0.50 0.50 0.0 0 0 477.50 554.00   L 766.26 554.00   A 0.47 0.47 0.0 0 0 766.64 553.25   Q 766.45 553.00 766.18 552.84   Q 765.93 552.70 765.74 552.49   Z   M 466.00 227.43   A 0.39 0.39 0.0 0 0 465.32 227.17   L 176.48 553.35   A 0.39 0.39 0.0 0 0 176.78 554.00   L 465.61 554.00   A 0.39 0.39 0.0 0 0 466.00 553.61   L 466.00 227.43   Z   M 449.34 564.60   A 0.32 0.32 0.0 0 0 449.18 564.00   L 176.32 564.00   A 0.32 0.32 0.0 0 0 176.00 564.32   L 176.00 721.67   A 0.32 0.32 0.0 0 0 176.48 721.94   L 449.34 564.60   Z   M 193.49 724.47   L 749.95 724.47   Q 750.88 724.47 750.08 724.01   L 472.96 564.22   A 2.93 2.91 -44.8 0 0 470.03 564.22   L 193.31 723.79   A 0.36 0.36 0.0 0 0 193.49 724.47   Z   M 493.81 564.00   A 0.32 0.32 0.0 0 0 493.65 564.60   L 766.52 721.93   A 0.32 0.32 0.0 0 0 767.00 721.66   L 767.00 564.32   A 0.32 0.32 0.0 0 0 766.68 564.00   L 493.81 564.00   Z   M 166.00 566.01   A 0.31 0.31 0.0 0 0 165.46 565.80   L 25.62 723.73   A 0.31 0.31 0.0 0 0 25.85 724.25   L 165.69 724.25   A 0.31 0.31 0.0 0 0 166.00 723.94   L 166.00 566.01   Z   M 916.81 723.12   Q 847.73 644.97 778.52 566.95   Q 778.32 566.72 778.21 566.39   Q 777.80 565.18 777.08 565.89   A 0.27 0.26 -23.3 0 0 777.00 566.08   L 777.00 723.50   Q 777.00 724.25 777.75 724.25   L 916.30 724.25   Q 917.82 724.25 916.81 723.12   Z"
     id="path8"
     style="fill:#333333;fill-opacity:1" />
  <path
     fill="#ff8811"
     d="   M 766.18 552.84   Q 766.45 553.00 766.64 553.25   A 0.47 0.47 0.0 0 1 766.26 554.00   L 477.50 554.00   A 0.50 0.50 0.0 0 1 477.00 553.50   L 477.00 227.51   A 0.43 0.43 0.0 0 1 477.75 227.23   L 765.74 552.49   Q 765.93 552.70 766.18 552.84   Z"
     id="path9"
     style="fill:#00a86b;fill-opacity:1" />
  <path
     fill="#ff8811"
     d="   M 466.00 227.43   L 466.00 553.61   A 0.39 0.39 0.0 0 1 465.61 554.00   L 176.78 554.00   A 0.39 0.39 0.0 0 1 176.48 553.35   L 465.32 227.17   A 0.39 0.39 0.0 0 1 466.00 227.43   Z"
     id="path10"
     style="fill:#00a86b;fill-opacity:1" />
  <path
     fill="#ff8811"
     d="   M 449.34 564.60   L 176.48 721.94   A 0.32 0.32 0.0 0 1 176.00 721.67   L 176.00 564.32   A 0.32 0.32 0.0 0 1 176.32 564.00   L 449.18 564.00   A 0.32 0.32 0.0 0 1 449.34 564.60   Z"
     id="path11"
     style="fill:#00a86b;fill-opacity:1" />
  <path
     fill="#ff8811"
     d="   M 749.95 724.47   L 193.49 724.47   A 0.36 0.36 0.0 0 1 193.31 723.79   L 470.03 564.22   A 2.93 2.91 -44.8 0 1 472.96 564.22   L 750.08 724.01   Q 750.88 724.47 749.95 724.47   Z"
     id="path12"
     style="fill:#00a86b;fill-opacity:1" />
  <path
     fill="#ff8811"
     d="   M 493.81 564.00   L 766.68 564.00   A 0.32 0.32 0.0 0 1 767.00 564.32   L 767.00 721.66   A 0.32 0.32 0.0 0 1 766.52 721.93   L 493.65 564.60   A 0.32 0.32 0.0 0 1 493.81 564.00   Z"
     id="path13"
     style="fill:#00a86b;fill-opacity:1" />
  <path
     fill="#ff8811"
     d="   M 166.00 566.01   L 166.00 723.94   A 0.31 0.31 0.0 0 1 165.69 724.25   L 25.85 724.25   A 0.31 0.31 0.0 0 1 25.62 723.73   L 165.46 565.80   A 0.31 0.31 0.0 0 1 166.00 566.01   Z"
     id="path14"
     style="fill:#00a86b;fill-opacity:1" />
  <path
     fill="#ff8811"
     d="   M 916.30 724.25   L 777.75 724.25   Q 777.00 724.25 777.00 723.50   L 777.00 566.08   A 0.27 0.26 -23.3 0 1 777.08 565.89   Q 777.80 565.18 778.21 566.39   Q 778.32 566.72 778.52 566.95   Q 847.73 644.97 916.81 723.12   Q 917.82 724.25 916.30 724.25   Z"
     id="path15"
     style="fill:#00a86b;fill-opacity:1" />
</svg>
