<?xml version="1.0" encoding="UTF-8" standalone="no"?>
<!DOCTYPE svg PUBLIC "-//W3C//DTD SVG 1.1//EN" "http://www.w3.org/Graphics/SVG/1.1/DTD/svg11.dtd">
<svg xmlns="http://www.w3.org/2000/svg" version="1.1" viewBox="0.00 0.00 1254.00 1254.00">
<g stroke-width="2.00" fill="none" stroke-linecap="butt">
<path stroke="#1a5640" vector-effect="non-scaling-stroke" d="
  M 1233.24 968.63
  A 1.13 1.13 0.0 0 0 1232.11 967.50
  L 968.63 967.50
  A 1.13 1.13 0.0 0 0 967.50 968.63
  L 967.50 1232.11
  A 1.13 1.13 0.0 0 0 968.63 1233.24
  L 1232.11 1233.24
  A 1.13 1.13 0.0 0 0 1233.24 1232.11
  L 1233.24 968.63"
/>
<path stroke="#80bca6" vector-effect="non-scaling-stroke" d="
  M 1110.28 1114.51
  C 1144.10 1113.59 1167.00 1094.05 1159.79 1057.99
  C 1153.64 1027.29 1120.76 1018.24 1094.08 1024.19
  C 1072.06 1029.10 1058.02 1046.17 1058.66 1069.13
  Q 1058.67 1069.50 1059.04 1069.50
  L 1087.51 1069.50
  Q 1088.11 1069.50 1088.12 1068.89
  Q 1088.18 1057.88 1096.04 1052.47
  C 1106.21 1045.47 1123.70 1048.00 1128.64 1060.32
  C 1132.10 1068.92 1130.98 1082.00 1121.99 1087.24
  C 1110.71 1093.81 1093.81 1094.03 1080.83 1093.40
  Q 1080.22 1093.37 1080.24 1093.97
  L 1081.34 1130.93
  Q 1081.36 1131.50 1081.93 1131.50
  L 1108.47 1131.50
  Q 1108.94 1131.50 1108.96 1131.03
  L 1109.77 1115.01
  Q 1109.80 1114.52 1110.28 1114.51"
/>
<path stroke="#80bca6" vector-effect="non-scaling-stroke" d="
  M 1114.1800 1166.3538
  A 19.34 18.47 0.1 0 0 1094.8722 1147.8500
  A 19.34 18.47 0.1 0 0 1075.5000 1166.2862
  A 19.34 18.47 0.1 0 0 1094.8078 1184.7900
  A 19.34 18.47 0.1 0 0 1114.1800 1166.3538"
/>
</g>
<path fill="#333333" d="
  M 304.02 302.71
  A 1.54 1.54 0.0 0 1 302.48 304.25
  L 2.50 304.25
  A 0.50 0.50 0.0 0 1 2.00 303.75
  L 2.00 2.50
  A 0.50 0.50 0.0 0 1 2.50 2.00
  L 303.50 2.00
  A 0.50 0.49 90.0 0 1 303.99 2.50
  L 304.02 302.71
  Z
  M 285.25 21.24
  A 1.25 1.25 0.0 0 0 284.00 19.99
  L 21.00 19.99
  A 1.25 1.25 0.0 0 0 19.75 21.24
  L 19.75 284.00
  A 1.25 1.25 0.0 0 0 21.00 285.25
  L 284.00 285.25
  A 1.25 1.25 0.0 0 0 285.25 284.00
  L 285.25 21.24
  Z"
/>
<path fill="#333333" d="
  M 476.92 304.03
  Q 476.03 303.43 476.02 302.69
  Q 475.44 152.60 475.47 2.53
  A 0.53 0.53 0.0 0 1 476.00 2.00
  L 778.50 2.00
  A 0.50 0.50 0.0 0 1 779.00 2.50
  L 779.00 302.25
  A 2.00 2.00 0.0 0 1 777.00 304.25
  L 477.64 304.25
  A 1.32 1.28 61.1 0 1 476.92 304.03
  Z
  M 760.25 22.38
  A 2.63 2.63 0.0 0 0 757.62 19.75
  L 496.38 19.75
  A 2.63 2.63 0.0 0 0 493.75 22.38
  L 493.75 282.62
  A 2.63 2.63 0.0 0 0 496.38 285.25
  L 757.62 285.25
  A 2.63 2.63 0.0 0 0 760.25 282.62
  L 760.25 22.38
  Z"
/>
<path fill="#333333" d="
  M 948.75 303.25
  L 948.75 2.78
  A 0.78 0.78 0.0 0 1 949.53 2.00
  L 1251.22 2.00
  A 0.78 0.78 0.0 0 1 1252.00 2.78
  L 1252.00 303.20
  A 0.78 0.78 0.0 0 1 1251.22 303.98
  L 949.53 304.03
  A 0.78 0.78 0.0 0 1 948.75 303.25
  Z
  M 1233.00 20.61
  A 0.61 0.61 0.0 0 0 1232.39 20.00
  L 968.37 20.00
  A 0.61 0.61 0.0 0 0 967.76 20.61
  L 967.76 284.63
  A 0.61 0.61 0.0 0 0 968.37 285.24
  L 1232.39 285.24
  A 0.61 0.61 0.0 0 0 1233.00 284.63
  L 1233.00 20.61
  Z"
/>
<path fill="#00784c" d="
  M 519.57 54.03
  L 735.45 54.00
  A 0.34 0.34 0.0 0 1 735.74 54.51
  L 627.78 241.45
  A 0.34 0.34 0.0 0 1 627.19 241.45
  L 519.28 54.54
  A 0.34 0.34 0.0 0 1 519.57 54.03
  Z
  M 627.25 217.59
  A 0.31 0.31 0.0 0 0 627.78 217.59
  L 715.02 66.49
  A 0.31 0.31 0.0 0 0 714.75 66.02
  L 540.23 66.00
  A 0.31 0.31 0.0 0 0 539.97 66.46
  L 627.25 217.59
  Z"
/>
<path fill="#00784c" d="
  M 44.37 241.35
  L 152.13 54.64
  A 0.43 0.43 0.0 0 1 152.87 54.64
  L 260.63 241.35
  A 0.43 0.43 0.0 0 1 260.26 242.00
  L 44.74 242.00
  A 0.43 0.43 0.0 0 1 44.37 241.35
  Z
  M 65.00 229.52
  A 0.32 0.32 0.0 0 0 65.28 230.00
  L 239.72 230.00
  A 0.32 0.32 0.0 0 0 240.00 229.52
  L 152.78 78.39
  A 0.32 0.32 0.0 0 0 152.22 78.39
  L 65.00 229.52
  Z"
/>
<path fill="#00784c" d="
  M 1046.13 148.80
  L 992.35 55.61
  A 0.41 0.41 0.0 0 1 992.71 55.00
  L 1208.30 55.00
  A 0.41 0.41 0.0 0 1 1208.65 55.62
  L 1154.86 148.79
  A 0.41 0.41 0.0 0 0 1154.86 149.19
  L 1208.65 242.39
  A 0.41 0.41 0.0 0 1 1208.29 243.00
  L 992.71 243.00
  A 0.41 0.41 0.0 0 1 992.35 242.39
  L 1046.13 149.20
  A 0.41 0.41 0.0 0 0 1046.13 148.80
  Z
  M 1093.26 67.55
  A 0.37 0.37 0.0 0 0 1092.94 67.00
  L 1013.38 67.00
  A 0.37 0.37 0.0 0 0 1013.06 67.55
  L 1052.84 136.49
  A 0.37 0.37 0.0 0 0 1053.48 136.49
  L 1093.26 67.55
  Z
  M 1108.06 67.02
  A 0.37 0.37 0.0 0 0 1107.74 67.57
  L 1147.52 136.48
  A 0.37 0.37 0.0 0 0 1148.16 136.48
  L 1187.97 67.56
  A 0.37 0.37 0.0 0 0 1187.65 67.00
  L 1108.06 67.02
  Z
  M 1100.78 79.36
  A 0.31 0.31 0.0 0 0 1100.24 79.36
  L 1060.15 148.84
  A 0.31 0.31 0.0 0 0 1060.15 149.14
  L 1100.23 218.65
  A 0.31 0.31 0.0 0 0 1100.77 218.65
  L 1140.86 149.16
  A 0.31 0.31 0.0 0 0 1140.86 148.86
  L 1100.78 79.36
  Z
  M 1053.47 161.48
  A 0.36 0.36 0.0 0 0 1052.85 161.48
  L 1013.03 230.46
  A 0.36 0.36 0.0 0 0 1013.34 231.00
  L 1092.95 231.00
  A 0.36 0.36 0.0 0 0 1093.26 230.46
  L 1053.47 161.48
  Z
  M 1107.76 230.42
  A 0.39 0.39 0.0 0 0 1108.10 231.00
  L 1187.60 231.00
  A 0.39 0.39 0.0 0 0 1187.94 230.42
  L 1148.19 161.53
  A 0.39 0.39 0.0 0 0 1147.51 161.53
  L 1107.76 230.42
  Z"
/>
<path fill="#00784c" d="
  M 982.06 155.77
  A 0.12 0.12 0.0 0 1 981.95 155.89
  L 981.92 155.89
  A 2.47 1.71 88.1 0 1 980.12 153.48
  L 980.12 153.22
  A 2.47 1.71 88.1 0 1 981.74 150.70
  L 981.77 150.69
  A 0.12 0.12 0.0 0 1 981.90 150.81
  L 982.06 155.77
  Z"
/>
<path fill="#333333" d="
  M 779.3599 775.7450
  A 3.09 3.09 0.0 0 1 776.2753 778.8404
  L 479.0758 779.3591
  A 3.09 3.09 0.0 0 1 475.9804 776.2745
  L 475.4601 478.1550
  A 3.09 3.09 0.0 0 1 478.5447 475.0596
  L 775.7442 474.5409
  A 3.09 3.09 0.0 0 1 778.8396 477.6255
  L 779.3599 775.7450
  Z
  M 760.25 496.88
  A 3.13 3.13 0.0 0 0 757.12 493.75
  L 496.88 493.75
  A 3.13 3.13 0.0 0 0 493.75 496.88
  L 493.75 757.12
  A 3.13 3.13 0.0 0 0 496.88 760.25
  L 757.12 760.25
  A 3.13 3.13 0.0 0 0 760.25 757.12
  L 760.25 496.88
  Z"
/>
<path fill="#333333" d="
  M 950.24 778.35
  C 949.63 777.82 948.75 777.54 948.75 776.54
  Q 948.75 626.83 948.75 477.98
  A 3.19 3.19 0.0 0 1 951.94 474.79
  L 1251.54 475.08
  Q 1252.00 475.08 1252.00 475.54
  L 1252.00 778.24
  A 0.51 0.51 0.0 0 1 1251.49 778.75
  Q 1101.36 778.75 951.00 778.75
  Q 950.69 778.75 950.24 778.35
  Z
  M 1233.01 496.32
  A 2.57 2.57 0.0 0 0 1230.44 493.75
  L 970.32 493.75
  A 2.57 2.57 0.0 0 0 967.75 496.32
  L 967.75 757.68
  A 2.57 2.57 0.0 0 0 970.32 760.25
  L 1230.44 760.25
  A 2.57 2.57 0.0 0 0 1233.01 757.68
  L 1233.01 496.32
  Z"
/>
<path fill="#333333" d="
  M 303.65 475.12
  C 304.62 475.74 305.25 476.28 305.25 477.55
  Q 305.25 627.49 305.25 776.77
  A 2.44 2.44 0.0 0 1 302.81 779.21
  L 2.46 778.92
  A 0.46 0.46 0.0 0 1 2.00 778.46
  L 2.00 475.50
  A 0.50 0.50 0.0 0 1 2.50 475.00
  L 303.24 475.00
  A 0.77 0.69 -25.5 0 1 303.65 475.12
  Z
  M 286.25 495.89
  A 2.14 2.14 0.0 0 0 284.11 493.75
  L 23.13 493.75
  A 2.14 2.14 0.0 0 0 20.99 495.89
  L 20.99 758.11
  A 2.14 2.14 0.0 0 0 23.13 760.25
  L 284.11 760.25
  A 2.14 2.14 0.0 0 0 286.25 758.11
  L 286.25 495.89
  Z"
/>
<path fill="#00784c" d="
  M 520.16 648.14
  L 559.94 525.46
  A 0.66 0.66 0.0 0 1 560.57 525.00
  L 689.42 525.00
  A 0.66 0.66 0.0 0 1 690.05 525.46
  L 729.85 648.15
  A 0.66 0.66 0.0 0 1 729.61 648.89
  L 625.39 724.71
  A 0.66 0.66 0.0 0 1 624.61 724.71
  L 520.40 648.88
  A 0.66 0.66 0.0 0 1 520.16 648.14
  Z
  M 534.20 644.19
  L 623.69 709.31
  A 2.23 2.23 0.0 0 0 626.31 709.31
  L 715.63 644.32
  Q 716.06 644.01 715.90 643.51
  L 681.44 537.32
  A 0.46 0.45 81.2 0 0 681.01 537.00
  L 569.19 537.00
  Q 568.65 537.00 568.48 537.51
  L 534.05 643.71
  A 0.43 0.42 -63.1 0 0 534.20 644.19
  Z"
/>
<path fill="#00784c" d="
  M 997.17 648.04
  L 1004.60 625.23
  A 0.78 0.78 0.0 0 0 1004.60 624.75
  L 997.18 601.93
  A 0.78 0.78 0.0 0 1 997.46 601.06
  L 1016.88 586.93
  A 0.78 0.78 0.0 0 0 1017.16 586.54
  L 1036.93 525.54
  A 0.78 0.78 0.0 0 1 1037.67 525.00
  L 1166.32 525.00
  A 0.78 0.78 0.0 0 1 1167.07 525.54
  L 1186.88 586.58
  A 0.78 0.78 0.0 0 0 1187.17 586.97
  L 1206.52 601.04
  A 0.78 0.78 0.0 0 1 1206.81 601.91
  L 1199.43 624.81
  A 0.78 0.78 0.0 0 0 1199.43 625.29
  L 1206.83 648.06
  A 0.78 0.78 0.0 0 1 1206.55 648.93
  L 1187.14 663.05
  A 0.78 0.78 0.0 0 0 1186.86 663.44
  L 1167.06 724.46
  A 0.78 0.78 0.0 0 1 1166.32 725.00
  L 1037.69 725.00
  A 0.78 0.78 0.0 0 1 1036.94 724.46
  L 1017.13 663.43
  A 0.78 0.78 0.0 0 0 1016.85 663.04
  L 997.45 648.91
  A 0.78 0.78 0.0 0 1 997.17 648.04
  Z
  M 1045.48 537.58
  L 1033.58 574.22
  Q 1033.34 574.94 1033.96 574.49
  L 1084.92 537.45
  A 0.25 0.25 0.0 0 0 1084.77 537.00
  L 1046.29 537.00
  Q 1045.67 537.00 1045.48 537.58
  Z
  M 1119.50 537.02
  A 0.33 0.33 0.0 0 0 1119.30 537.62
  L 1169.81 574.31
  A 0.33 0.33 0.0 0 0 1170.32 573.94
  L 1158.41 537.22
  A 0.33 0.33 0.0 0 0 1158.10 536.99
  L 1119.50 537.02
  Z
  M 1026.99 655.31
  A 1.64 1.64 0.0 0 0 1027.58 656.12
  L 1101.06 709.56
  A 1.64 1.64 0.0 0 0 1102.98 709.56
  L 1176.43 656.10
  A 1.64 1.64 0.0 0 0 1177.02 655.29
  L 1186.74 625.50
  A 1.64 1.64 0.0 0 0 1186.74 624.48
  L 1177.04 594.73
  A 1.64 1.64 0.0 0 0 1176.45 593.91
  L 1102.97 540.44
  A 1.64 1.64 0.0 0 0 1101.05 540.44
  L 1027.56 593.91
  A 1.64 1.64 0.0 0 0 1026.97 594.72
  L 1017.25 624.48
  A 1.64 1.64 0.0 0 0 1017.25 625.50
  L 1026.99 655.31
  Z
  M 1084.52 712.99
  A 0.33 0.33 0.0 0 0 1084.72 712.39
  L 1034.19 675.68
  A 0.33 0.33 0.0 0 0 1033.68 676.05
  L 1045.60 712.78
  A 0.33 0.33 0.0 0 0 1045.91 713.01
  L 1084.52 712.99
  Z
  M 1170.34 676.01
  A 0.32 0.32 0.0 0 0 1169.85 675.65
  L 1119.26 712.40
  A 0.32 0.32 0.0 0 0 1119.45 712.98
  L 1158.11 713.00
  A 0.32 0.32 0.0 0 0 1158.41 712.78
  L 1170.34 676.01
  Z"
/>
<path fill="#00784c" d="
  M 254.78 602.06
  L 215.11 724.33
  A 0.97 0.97 0.0 0 1 214.18 725.00
  L 85.82 725.00
  A 0.97 0.97 0.0 0 1 84.90 724.33
  L 45.22 602.06
  A 0.97 0.97 0.0 0 1 45.57 600.98
  L 149.42 525.42
  A 0.97 0.97 0.0 0 1 150.56 525.42
  L 254.43 600.98
  A 0.97 0.97 0.0 0 1 254.78 602.06
  Z
  M 240.91 606.47
  A 0.69 0.69 0.0 0 0 240.65 605.70
  L 150.42 540.05
  A 0.69 0.69 0.0 0 0 149.60 540.05
  L 59.36 605.69
  A 0.69 0.69 0.0 0 0 59.10 606.46
  L 93.52 712.52
  A 0.69 0.69 0.0 0 0 94.17 713.00
  L 205.82 713.00
  A 0.69 0.69 0.0 0 0 206.47 712.52
  L 240.91 606.47
  Z"
/>
<path fill="#333333" d="
  M 303.50 948.75
  A 1.75 1.75 0.0 0 1 305.25 950.50
  L 305.25 1251.50
  A 0.50 0.50 0.0 0 1 304.75 1252.00
  L 2.50 1252.00
  A 0.50 0.50 0.0 0 1 2.00 1251.50
  L 2.00 949.25
  A 0.50 0.50 0.0 0 1 2.50 948.75
  L 303.50 948.75
  Z
  M 286.24 969.53
  A 1.78 1.78 0.0 0 0 284.46 967.75
  L 22.78 967.75
  A 1.78 1.78 0.0 0 0 21.00 969.53
  L 21.00 1231.21
  A 1.78 1.78 0.0 0 0 22.78 1232.99
  L 284.46 1232.99
  A 1.78 1.78 0.0 0 0 286.24 1231.21
  L 286.24 969.53
  Z"
/>
<path fill="#333333" d="
  M 779.06 1250.71
  A 1.29 1.29 0.0 0 1 777.77 1252.00
  L 476.79 1252.00
  A 1.29 1.29 0.0 0 1 475.50 1250.71
  L 475.50 950.05
  A 1.29 1.29 0.0 0 1 476.79 948.76
  L 777.77 948.76
  A 1.29 1.29 0.0 0 1 779.06 950.05
  L 779.06 1250.71
  Z
  M 760.25 970.57
  A 2.82 2.82 0.0 0 0 757.43 967.75
  L 496.57 967.75
  A 2.82 2.82 0.0 0 0 493.75 970.57
  L 493.75 1230.19
  A 2.82 2.82 0.0 0 0 496.57 1233.01
  L 757.43 1233.01
  A 2.82 2.82 0.0 0 0 760.25 1230.19
  L 760.25 970.57
  Z"
/>
<path fill="#333333" d="
  M 948.75 950.50
  A 1.75 1.75 0.0 0 1 950.50 948.75
  L 1251.50 948.75
  A 0.50 0.50 0.0 0 1 1252.00 949.25
  L 1252.00 1251.50
  A 0.50 0.50 0.0 0 1 1251.50 1252.00
  L 949.25 1252.00
  A 0.50 0.50 0.0 0 1 948.75 1251.50
  L 948.75 950.50
  Z
  M 1233.24 968.63
  A 1.13 1.13 0.0 0 0 1232.11 967.50
  L 968.63 967.50
  A 1.13 1.13 0.0 0 0 967.50 968.63
  L 967.50 1232.11
  A 1.13 1.13 0.0 0 0 968.63 1233.24
  L 1232.11 1233.24
  A 1.13 1.13 0.0 0 0 1233.24 1232.11
  L 1233.24 968.63
  Z"
/>
<path fill="#00784c" d="
  M 1233.24 1232.11
  A 1.13 1.13 0.0 0 1 1232.11 1233.24
  L 968.63 1233.24
  A 1.13 1.13 0.0 0 1 967.50 1232.11
  L 967.50 968.63
  A 1.13 1.13 0.0 0 1 968.63 967.50
  L 1232.11 967.50
  A 1.13 1.13 0.0 0 1 1233.24 968.63
  L 1233.24 1232.11
  Z
  M 1110.28 1114.51
  C 1144.10 1113.59 1167.00 1094.05 1159.79 1057.99
  C 1153.64 1027.29 1120.76 1018.24 1094.08 1024.19
  C 1072.06 1029.10 1058.02 1046.17 1058.66 1069.13
  Q 1058.67 1069.50 1059.04 1069.50
  L 1087.51 1069.50
  Q 1088.11 1069.50 1088.12 1068.89
  Q 1088.18 1057.88 1096.04 1052.47
  C 1106.21 1045.47 1123.70 1048.00 1128.64 1060.32
  C 1132.10 1068.92 1130.98 1082.00 1121.99 1087.24
  C 1110.71 1093.81 1093.81 1094.03 1080.83 1093.40
  Q 1080.22 1093.37 1080.24 1093.97
  L 1081.34 1130.93
  Q 1081.36 1131.50 1081.93 1131.50
  L 1108.47 1131.50
  Q 1108.94 1131.50 1108.96 1131.03
  L 1109.77 1115.01
  Q 1109.80 1114.52 1110.28 1114.51
  Z
  M 1114.1800 1166.3538
  A 19.34 18.47 0.1 0 0 1094.8722 1147.8500
  A 19.34 18.47 0.1 0 0 1075.5000 1166.2862
  A 19.34 18.47 0.1 0 0 1094.8078 1184.7900
  A 19.34 18.47 0.1 0 0 1114.1800 1166.3538
  Z"
/>
<path fill="#00784c" d="
  M 62.24 1177.75
  A 0.27 0.26 67.9 0 0 62.69 1177.94
  L 242.25 998.38
  A 1.05 1.05 0.0 0 1 243.74 998.38
  L 251.67 1006.36
  A 0.96 0.95 45.2 0 1 251.67 1007.71
  L 72.06 1187.31
  A 0.27 0.26 22.1 0 0 72.25 1187.76
  L 157.50 1187.75
  A 0.50 0.50 0.0 0 1 158.00 1188.25
  L 158.00 1200.20
  Q 158.00 1200.74 157.47 1200.74
  Q 107.54 1200.78 57.66 1200.74
  C 52.44 1200.74 49.26 1198.69 49.26 1193.32
  Q 49.24 1146.32 49.25 1099.51
  A 0.94 0.94 0.0 0 1 50.17 1098.57
  L 61.03 1098.34
  A 1.19 1.19 0.0 0 1 62.25 1099.53
  L 62.24 1177.75
  Z"
/>
<path fill="#00784c" d="
  M 698.75 1011.24
  L 613.75 1011.25
  Q 613.00 1011.25 613.00 1010.50
  L 613.00 998.80
  Q 613.00 998.26 613.53 998.26
  Q 663.46 998.22 713.34 998.26
  C 718.56 998.26 721.73 1000.31 721.74 1005.69
  Q 721.77 1052.84 721.74 1099.38
  Q 721.74 1100.75 720.38 1100.74
  L 709.70 1100.67
  Q 708.75 1100.66 708.75 1099.70
  L 708.76 1021.22
  A 0.25 0.25 0.0 0 0 708.33 1021.04
  L 529.18 1200.19
  Q 527.99 1201.38 526.80 1200.19
  L 519.82 1193.17
  A 1.68 1.66 45.2 0 1 519.82 1190.81
  L 698.94 1011.69
  A 0.27 0.26 22.1 0 0 698.75 1011.24
  Z"
/>
<path fill="#ffffff" d="
  M 1109.77 1115.01
  L 1108.96 1131.03
  Q 1108.94 1131.50 1108.47 1131.50
  L 1081.93 1131.50
  Q 1081.36 1131.50 1081.34 1130.93
  L 1080.24 1093.97
  Q 1080.22 1093.37 1080.83 1093.40
  C 1093.81 1094.03 1110.71 1093.81 1121.99 1087.24
  C 1130.98 1082.00 1132.10 1068.92 1128.64 1060.32
  C 1123.70 1048.00 1106.21 1045.47 1096.04 1052.47
  Q 1088.18 1057.88 1088.12 1068.89
  Q 1088.11 1069.50 1087.51 1069.50
  L 1059.04 1069.50
  Q 1058.67 1069.50 1058.66 1069.13
  C 1058.02 1046.17 1072.06 1029.10 1094.08 1024.19
  C 1120.76 1018.24 1153.64 1027.29 1159.79 1057.99
  C 1167.00 1094.05 1144.10 1113.59 1110.28 1114.51
  Q 1109.80 1114.52 1109.77 1115.01
  Z"
/>
<ellipse fill="#ffffff" cx="0.00" cy="0.00" transform="translate(1094.84,1166.32) rotate(0.1)" rx="19.34" ry="18.47"/>
</svg>
