<?xml version="1.0" encoding="UTF-8" standalone="no"?>
<svg
   version="1.1"
   viewBox="0.00 0.00 1000.00 1000.00"
   id="svg35"
   sodipodi:docname="question.svg"
   inkscape:version="1.3 (0e150ed6c4, 2023-07-21)"
   xmlns:inkscape="http://www.inkscape.org/namespaces/inkscape"
   xmlns:sodipodi="http://sodipodi.sourceforge.net/DTD/sodipodi-0.dtd"
   xmlns="http://www.w3.org/2000/svg"
   xmlns:svg="http://www.w3.org/2000/svg">
  <defs
     id="defs35" />
  <sodipodi:namedview
     id="namedview35"
     pagecolor="#ffffff"
     bordercolor="#000000"
     borderopacity="0.25"
     inkscape:showpageshadow="2"
     inkscape:pageopacity="0.0"
     inkscape:pagecheckerboard="0"
     inkscape:deskcolor="#d1d1d1"
     inkscape:zoom="0.814"
     inkscape:cx="499.38575"
     inkscape:cy="500"
     inkscape:window-width="1920"
     inkscape:window-height="1010"
     inkscape:window-x="-6"
     inkscape:window-y="-6"
     inkscape:window-maximized="1"
     inkscape:current-layer="svg35" />
  <g
     stroke-width="2.00"
     fill="none"
     stroke-linecap="butt"
     id="g23">
    <path
       stroke="#38282f"
       vector-effect="non-scaling-stroke"
       d="   M 264.40 332.25   L 264.31 158.98   Q 264.31 158.55 263.92 158.73   Q 263.57 158.89 263.60 159.25   C 264.08 164.90 263.14 171.09 263.12 175.25   Q 262.74 268.14 263.29 361.03   C 263.30 363.27 262.14 366.55 264.43 368.66"
       id="path1" />
    <path
       stroke="#1a7753"
       vector-effect="non-scaling-stroke"
       d="   M 264.43 368.66   L 268.25 368.64"
       id="path2" />
    <path
       stroke="#38282f"
       vector-effect="non-scaling-stroke"
       d="   M 268.25 368.64   L 264.85 368.73   A 0.43 0.43 0.0 0 0 264.61 369.50   L 264.97 369.76   A 1.26 1.23 -25.9 0 0 265.72 370.01   L 484.91 369.98   Q 485.65 369.98 485.40 369.28   L 485.20 368.71"
       id="path3" />
    <path
       stroke="#1a7753"
       vector-effect="non-scaling-stroke"
       d="   M 485.20 368.71   L 490.00 368.50   Q 490.50 368.48 490.50 367.98   L 490.50 143.25   Q 490.50 142.50 489.75 142.50   L 265.01 142.50   Q 264.49 142.50 264.49 143.02   L 264.40 332.25"
       id="path4" />
    <path
       stroke="#1e6b4e"
       vector-effect="non-scaling-stroke"
       d="   M 485.20 368.71   L 268.25 368.64"
       id="path5" />
    <path
       stroke="#1e6b4e"
       vector-effect="non-scaling-stroke"
       d="   M 264.43 368.66   L 264.40 332.25"
       id="path6" />
    <path
       stroke="#1a7753"
       vector-effect="non-scaling-stroke"
       d="   M 513.49 387.50   L 509.99 387.51   A 0.49 0.49 0.0 0 0 509.50 388.00   L 509.50 612.50   Q 509.50 612.97 509.93 613.16   L 510.75 613.53"
       id="path7" />
    <path
       stroke="#38282f"
       vector-effect="non-scaling-stroke"
       d="   M 510.75 613.53   L 536.96 613.69   Q 537.43 613.69 537.60 614.13   Q 537.94 615.00 539.00 615.00   Q 636.86 615.00 734.01 615.00   A 2.99 2.99 0.0 0 0 737.00 612.01   L 737.00 388.93   A 1.50 1.26 40.1 0 0 736.92 388.47   Q 736.75 387.97 736.51 387.50   Q 736.37 387.24 736.18 387.45   Q 735.88 387.78 735.50 387.79"
       id="path8" />
    <path
       stroke="#1a7753"
       vector-effect="non-scaling-stroke"
       d="   M 735.50 387.79   Q 735.07 387.40 734.50 387.50"
       id="path9" />
    <path
       stroke="#38282f"
       vector-effect="non-scaling-stroke"
       d="   M 734.50 387.50   Q 734.93 387.08 735.03 386.45   Q 735.09 386.00 734.64 386.00   L 516.50 385.99   Q 515.96 385.99 515.52 386.26   L 513.49 387.50"
       id="path10" />
    <path
       stroke="#1e6b4e"
       vector-effect="non-scaling-stroke"
       d="   M 734.50 387.50   L 513.49 387.50"
       id="path11" />
    <path
       stroke="#1e6b4e"
       vector-effect="non-scaling-stroke"
       d="   M 510.75 613.53   L 734.96 613.51   A 0.54 0.54 0.0 0 0 735.50 612.97   L 735.50 387.79"
       id="path12" />
    <path
       stroke="#1a7753"
       vector-effect="non-scaling-stroke"
       d="   M 22.51 387.50   Q 20.98 387.26 20.02 387.56   Q 19.50 387.72 19.50 388.26   L 19.50 612.81   Q 19.50 613.40 20.10 613.41   L 25.74 613.52"
       id="path13" />
    <path
       stroke="#38282f"
       vector-effect="non-scaling-stroke"
       d="   M 25.74 613.52   L 43.22 613.69   Q 44.00 613.70 44.00 614.47   Q 44.00 614.65 44.23 614.76   Q 44.70 615.00 45.00 615.00   L 218.03 615.00   Q 218.20 615.00 218.30 614.85   Q 218.45 614.63 218.39 614.44   Q 218.29 614.17 218.58 614.13   Q 220.01 613.92 219.00 613.51"
       id="path14" />
    <path
       stroke="#1a7753"
       vector-effect="non-scaling-stroke"
       d="   M 219.00 613.51   L 244.98 613.48   Q 245.50 613.48 245.50 612.96   L 245.33 387.50"
       id="path15" />
    <path
       stroke="#38282f"
       vector-effect="non-scaling-stroke"
       d="   M 245.33 387.50   L 245.54 387.06   A 0.74 0.74 0.0 0 0 244.88 386.00   Q 132.80 386.00 20.63 386.00   Q 20.25 386.00 20.04 386.16   Q 19.72 386.40 19.74 386.76   Q 19.77 387.30 20.31 387.25   Q 21.53 387.16 22.51 387.50"
       id="path16" />
    <path
       stroke="#1e6b4e"
       vector-effect="non-scaling-stroke"
       d="   M 245.33 387.50   L 22.51 387.50"
       id="path17" />
    <path
       stroke="#1e6b4e"
       vector-effect="non-scaling-stroke"
       d="   M 219.00 613.51   L 25.74 613.52"
       id="path18" />
    <path
       stroke="#949897"
       vector-effect="non-scaling-stroke"
       d="   M 490.75 388.46   A 1.17 1.17 0.0 0 0 489.58 387.29   L 265.42 387.29   A 1.17 1.17 0.0 0 0 264.25 388.46   L 264.25 612.54   A 1.17 1.17 0.0 0 0 265.42 613.71   L 489.58 613.71   A 1.17 1.17 0.0 0 0 490.75 612.54   L 490.75 388.46"
       id="path19" />
    <path
       stroke="#949897"
       vector-effect="non-scaling-stroke"
       d="   M 980.73 388.38   A 1.12 1.12 0.0 0 0 979.61 387.26   L 755.37 387.26   A 1.12 1.12 0.0 0 0 754.25 388.38   L 754.25 612.62   A 1.12 1.12 0.0 0 0 755.37 613.74   L 979.61 613.74   A 1.12 1.12 0.0 0 0 980.73 612.62   L 980.73 388.38"
       id="path20" />
    <path
       stroke="#1a7753"
       vector-effect="non-scaling-stroke"
       d="   M 264.50 846.25   L 264.53 857.52   Q 264.53 858.78 265.78 858.78   L 489.66 858.68   A 0.84 0.84 0.0 0 0 490.50 857.84   L 490.50 633.01   A 0.51 0.51 0.0 0 0 489.99 632.50   L 269.02 632.49"
       id="path21" />
    <path
       stroke="#38282f"
       vector-effect="non-scaling-stroke"
       d="   M 269.02 632.49   Q 269.04 631.67 268.54 631.51   C 260.54 628.95 263.71 638.49 263.75 642.09   C 263.93 655.42 263.00 670.14 263.00 681.96   Q 262.99 763.44 263.01 844.80   A 1.91 1.90 -73.9 0 0 263.89 846.41   Q 264.13 846.56 264.50 846.25"
       id="path22" />
    <path
       stroke="#1e6b4e"
       vector-effect="non-scaling-stroke"
       d="   M 269.02 632.49   Q 266.58 631.76 264.97 632.59   Q 264.50 632.83 264.50 633.35   L 264.50 846.25"
       id="path23" />
  </g>
  <path
     fill="#333333"
     d="   M 999.00 369.16   L 999.00 631.84   A 0.66 0.66 0.0 0 1 998.34 632.50   L 510.19 632.50   A 0.66 0.66 0.0 0 0 509.53 633.16   L 509.43 876.34   A 0.66 0.66 0.0 0 1 508.77 877.00   L 246.16 877.00   A 0.66 0.66 0.0 0 1 245.50 876.34   L 245.50 633.16   A 0.66 0.66 0.0 0 0 244.84 632.50   L 1.66 632.50   A 0.66 0.66 0.0 0 1 1.00 631.84   L 1.00 369.16   A 0.66 0.66 0.0 0 1 1.66 368.50   L 244.84 368.50   A 0.66 0.66 0.0 0 0 245.50 367.84   L 245.50 124.66   A 0.66 0.66 0.0 0 1 246.16 124.00   L 508.78 124.00   A 0.66 0.66 0.0 0 1 509.44 124.66   L 509.53 367.84   A 0.66 0.66 0.0 0 0 510.19 368.50   L 998.34 368.50   A 0.66 0.66 0.0 0 1 999.00 369.16   Z   M 264.40 332.25   L 264.31 158.98   Q 264.31 158.55 263.92 158.73   Q 263.57 158.89 263.60 159.25   C 264.08 164.90 263.14 171.09 263.12 175.25   Q 262.74 268.14 263.29 361.03   C 263.30 363.27 262.14 366.55 264.43 368.66   L 268.25 368.64   L 264.85 368.73   A 0.43 0.43 0.0 0 0 264.61 369.50   L 264.97 369.76   A 1.26 1.23 -25.9 0 0 265.72 370.01   L 484.91 369.98   Q 485.65 369.98 485.40 369.28   L 485.20 368.71   L 490.00 368.50   Q 490.50 368.48 490.50 367.98   L 490.50 143.25   Q 490.50 142.50 489.75 142.50   L 265.01 142.50   Q 264.49 142.50 264.49 143.02   L 264.40 332.25   Z   M 513.49 387.50   L 509.99 387.51   A 0.49 0.49 0.0 0 0 509.50 388.00   L 509.50 612.50   Q 509.50 612.97 509.93 613.16   L 510.75 613.53   L 536.96 613.69   Q 537.43 613.69 537.60 614.13   Q 537.94 615.00 539.00 615.00   Q 636.86 615.00 734.01 615.00   A 2.99 2.99 0.0 0 0 737.00 612.01   L 737.00 388.93   A 1.50 1.26 40.1 0 0 736.92 388.47   Q 736.75 387.97 736.51 387.50   Q 736.37 387.24 736.18 387.45   Q 735.88 387.78 735.50 387.79   Q 735.07 387.40 734.50 387.50   Q 734.93 387.08 735.03 386.45   Q 735.09 386.00 734.64 386.00   L 516.50 385.99   Q 515.96 385.99 515.52 386.26   L 513.49 387.50   Z   M 22.51 387.50   Q 20.98 387.26 20.02 387.56   Q 19.50 387.72 19.50 388.26   L 19.50 612.81   Q 19.50 613.40 20.10 613.41   L 25.74 613.52   L 43.22 613.69   Q 44.00 613.70 44.00 614.47   Q 44.00 614.65 44.23 614.76   Q 44.70 615.00 45.00 615.00   L 218.03 615.00   Q 218.20 615.00 218.30 614.85   Q 218.45 614.63 218.39 614.44   Q 218.29 614.17 218.58 614.13   Q 220.01 613.92 219.00 613.51   L 244.98 613.48   Q 245.50 613.48 245.50 612.96   L 245.33 387.50   L 245.54 387.06   A 0.74 0.74 0.0 0 0 244.88 386.00   Q 132.80 386.00 20.63 386.00   Q 20.25 386.00 20.04 386.16   Q 19.72 386.40 19.74 386.76   Q 19.77 387.30 20.31 387.25   Q 21.53 387.16 22.51 387.50   Z   M 490.75 388.46   A 1.17 1.17 0.0 0 0 489.58 387.29   L 265.42 387.29   A 1.17 1.17 0.0 0 0 264.25 388.46   L 264.25 612.54   A 1.17 1.17 0.0 0 0 265.42 613.71   L 489.58 613.71   A 1.17 1.17 0.0 0 0 490.75 612.54   L 490.75 388.46   Z   M 980.73 388.38   A 1.12 1.12 0.0 0 0 979.61 387.26   L 755.37 387.26   A 1.12 1.12 0.0 0 0 754.25 388.38   L 754.25 612.62   A 1.12 1.12 0.0 0 0 755.37 613.74   L 979.61 613.74   A 1.12 1.12 0.0 0 0 980.73 612.62   L 980.73 388.38   Z   M 264.50 846.25   L 264.53 857.52   Q 264.53 858.78 265.78 858.78   L 489.66 858.68   A 0.84 0.84 0.0 0 0 490.50 857.84   L 490.50 633.01   A 0.51 0.51 0.0 0 0 489.99 632.50   L 269.02 632.49   Q 269.04 631.67 268.54 631.51   C 260.54 628.95 263.71 638.49 263.75 642.09   C 263.93 655.42 263.00 670.14 263.00 681.96   Q 262.99 763.44 263.01 844.80   A 1.91 1.90 -73.9 0 0 263.89 846.41   Q 264.13 846.56 264.50 846.25   Z"
     id="path24" />
  <path
     fill="#00ba72"
     d="   M 485.20 368.71   L 268.25 368.64   L 264.43 368.66   L 264.40 332.25   L 264.49 143.02   Q 264.49 142.50 265.01 142.50   L 489.75 142.50   Q 490.50 142.50 490.50 143.25   L 490.50 367.98   Q 490.50 368.48 490.00 368.50   L 485.20 368.71   Z"
     id="path25"
     style="fill:#00a86b;fill-opacity:1" />
  <path
     fill="#3c1c2a"
     d="   M 264.40 332.25   L 264.43 368.66   C 262.14 366.55 263.30 363.27 263.29 361.03   Q 262.74 268.14 263.12 175.25   C 263.14 171.09 264.08 164.90 263.60 159.25   Q 263.57 158.89 263.92 158.73   Q 264.31 158.55 264.31 158.98   L 264.40 332.25   Z"
     id="path26" />
  <path
     fill="#3c1c2a"
     d="   M 268.25 368.64   L 485.20 368.71   L 485.40 369.28   Q 485.65 369.98 484.91 369.98   L 265.72 370.01   A 1.26 1.23 -25.9 0 1 264.97 369.76   L 264.61 369.50   A 0.43 0.43 0.0 0 1 264.85 368.73   L 268.25 368.64   Z"
     id="path27" />
  <path
     fill="#3c1c2a"
     d="   M 734.50 387.50   L 513.49 387.50   L 515.52 386.26   Q 515.96 385.99 516.50 385.99   L 734.64 386.00   Q 735.09 386.00 735.03 386.45   Q 734.93 387.08 734.50 387.50   Z"
     id="path28" />
  <path
     fill="#3c1c2a"
     d="   M 245.33 387.50   L 22.51 387.50   Q 21.53 387.16 20.31 387.25   Q 19.77 387.30 19.74 386.76   Q 19.72 386.40 20.04 386.16   Q 20.25 386.00 20.63 386.00   Q 132.80 386.00 244.88 386.00   A 0.74 0.74 0.0 0 1 245.54 387.06   L 245.33 387.50   Z"
     id="path29" />
  <path
     fill="#3c1c2a"
     d="   M 510.75 613.53   L 734.96 613.51   A 0.54 0.54 0.0 0 0 735.50 612.97   L 735.50 387.79   Q 735.88 387.78 736.18 387.45   Q 736.37 387.24 736.51 387.50   Q 736.75 387.97 736.92 388.47   A 1.50 1.26 40.1 0 1 737.00 388.93   L 737.00 612.01   A 2.99 2.99 0.0 0 1 734.01 615.00   Q 636.86 615.00 539.00 615.00   Q 537.94 615.00 537.60 614.13   Q 537.43 613.69 536.96 613.69   L 510.75 613.53   Z"
     id="path30" />
  <rect
     fill="#f4fdfa"
     x="264.25"
     y="387.29"
     width="226.50"
     height="226.42"
     rx="1.17"
     id="rect30" />
  <rect
     fill="#f4fdfa"
     x="754.25"
     y="387.26"
     width="226.48"
     height="226.48"
     rx="1.12"
     id="rect31" />
  <path
     fill="#00ba72"
     d="   M 22.51 387.50   L 245.33 387.50   L 245.50 612.96   Q 245.50 613.48 244.98 613.48   L 219.00 613.51   L 25.74 613.52   L 20.10 613.41   Q 19.50 613.40 19.50 612.81   L 19.50 388.26   Q 19.50 387.72 20.02 387.56   Q 20.98 387.26 22.51 387.50   Z"
     id="path31"
     style="fill:#00a86b;fill-opacity:1" />
  <path
     fill="#00ba72"
     d="   M 513.49 387.50   L 734.50 387.50   Q 735.07 387.40 735.50 387.79   L 735.50 612.97   A 0.54 0.54 0.0 0 1 734.96 613.51   L 510.75 613.53   L 509.93 613.16   Q 509.50 612.97 509.50 612.50   L 509.50 388.00   A 0.49 0.49 0.0 0 1 509.99 387.51   L 513.49 387.50   Z"
     id="path32"
     style="fill:#00a86b;fill-opacity:1" />
  <path
     fill="#3c1c2a"
     d="   M 25.74 613.52   L 219.00 613.51   Q 220.01 613.92 218.58 614.13   Q 218.29 614.17 218.39 614.44   Q 218.45 614.63 218.30 614.85   Q 218.20 615.00 218.03 615.00   L 45.00 615.00   Q 44.70 615.00 44.23 614.76   Q 44.00 614.65 44.00 614.47   Q 44.00 613.70 43.22 613.69   L 25.74 613.52   Z"
     id="path33" />
  <path
     fill="#3c1c2a"
     d="   M 269.02 632.49   Q 266.58 631.76 264.97 632.59   Q 264.50 632.83 264.50 633.35   L 264.50 846.25   Q 264.13 846.56 263.89 846.41   A 1.91 1.90 -73.9 0 1 263.01 844.80   Q 262.99 763.44 263.00 681.96   C 263.00 670.14 263.93 655.42 263.75 642.09   C 263.71 638.49 260.54 628.95 268.54 631.51   Q 269.04 631.67 269.02 632.49   Z"
     id="path34" />
  <path
     fill="#00ba72"
     d="   M 269.02 632.49   L 489.99 632.50   A 0.51 0.51 0.0 0 1 490.50 633.01   L 490.50 857.84   A 0.84 0.84 0.0 0 1 489.66 858.68   L 265.78 858.78   Q 264.53 858.78 264.53 857.52   L 264.50 846.25   L 264.50 633.35   Q 264.50 632.83 264.97 632.59   Q 266.58 631.76 269.02 632.49   Z"
     id="path35"
     style="fill:#00a86b;fill-opacity:1" />
</svg>
