<?xml version="1.0" encoding="UTF-8" standalone="no"?>
<svg
   version="1.1"
   viewBox="0.00 0.00 1448.00 1448.00"
   id="svg20"
   sodipodi:docname="question.svg"
   inkscape:version="1.3 (0e150ed6c4, 2023-07-21)"
   xmlns:inkscape="http://www.inkscape.org/namespaces/inkscape"
   xmlns:sodipodi="http://sodipodi.sourceforge.net/DTD/sodipodi-0.dtd"
   xmlns="http://www.w3.org/2000/svg"
   xmlns:svg="http://www.w3.org/2000/svg">
  <defs
     id="defs20" />
  <sodipodi:namedview
     id="namedview20"
     pagecolor="#ffffff"
     bordercolor="#000000"
     borderopacity="0.25"
     inkscape:showpageshadow="2"
     inkscape:pageopacity="0.0"
     inkscape:pagecheckerboard="0"
     inkscape:deskcolor="#d1d1d1"
     inkscape:zoom="0.5621547"
     inkscape:cx="723.11057"
     inkscape:cy="724"
     inkscape:window-width="1920"
     inkscape:window-height="1010"
     inkscape:window-x="1913"
     inkscape:window-y="-6"
     inkscape:window-maximized="1"
     inkscape:current-layer="svg20" />
  <g
     stroke-width="2.00"
     fill="none"
     stroke-linecap="butt"
     id="g3">
    <path
       stroke="#18553c"
       vector-effect="non-scaling-stroke"
       d="   M 1424.76 1119.57   A 0.57 0.57 0.0 0 0 1424.19 1119.00   L 1119.07 1119.00   A 0.57 0.57 0.0 0 0 1118.50 1119.57   L 1118.50 1424.43   A 0.57 0.57 0.0 0 0 1119.07 1425.00   L 1424.19 1425.00   A 0.57 0.57 0.0 0 0 1424.76 1424.43   L 1424.76 1119.57"
       id="path1" />
    <path
       stroke="#80bca4"
       vector-effect="non-scaling-stroke"
       d="   M 1278.14 1276.67   C 1302.41 1276.98 1325.33 1266.23 1329.71 1240.16   C 1337.03 1196.56 1300.46 1174.80 1261.84 1183.16   C 1238.98 1188.11 1224.14 1206.00 1224.62 1229.64   Q 1224.63 1230.25 1225.25 1230.25   L 1254.52 1230.25   Q 1255.16 1230.25 1255.16 1229.61   C 1254.99 1203.16 1294.05 1200.83 1298.68 1225.26   C 1304.59 1256.44 1266.86 1256.17 1247.72 1255.12   Q 1247.12 1255.09 1247.14 1255.69   L 1248.30 1294.03   Q 1248.31 1294.50 1248.78 1294.50   L 1276.23 1294.50   Q 1276.71 1294.50 1276.74 1294.02   L 1277.56 1277.21   Q 1277.59 1276.66 1278.14 1276.67"
       id="path2" />
    <path
       stroke="#80bca4"
       vector-effect="non-scaling-stroke"
       d="   M 1282.13 1330.80   A 19.94 19.04 0.0 0 0 1262.19 1311.76   A 19.94 19.04 0.0 0 0 1242.25 1330.80   A 19.94 19.04 0.0 0 0 1262.19 1349.84   A 19.94 19.04 0.0 0 0 1282.13 1330.80"
       id="path3" />
  </g>
  <path
     fill="#303030"
     d="   M 899.50 350.31   A 0.44 0.44 0.0 0 1 899.06 350.75   L 549.68 350.75   A 0.44 0.44 0.0 0 1 549.24 350.31   L 549.24 0.71   A 0.44 0.44 0.0 0 1 549.68 0.27   L 899.06 0.27   A 0.44 0.44 0.0 0 1 899.50 0.71   L 899.50 350.31   Z   M 877.49 22.76   A 0.26 0.26 0.0 0 0 877.23 22.50   L 571.51 22.50   A 0.26 0.26 0.0 0 0 571.25 22.76   L 571.25 328.48   A 0.26 0.26 0.0 0 0 571.51 328.74   L 877.23 328.74   A 0.26 0.26 0.0 0 0 877.49 328.48   L 877.49 22.76   Z"
     id="path4" />
  <path
     fill="#303030"
     d="   M 352.75 350.44   A 0.81 0.81 0.0 0 1 351.94 351.25   L 3.06 351.25   A 0.81 0.81 0.0 0 1 2.25 350.44   L 2.25 1.56   A 0.81 0.81 0.0 0 1 3.06 0.75   L 351.94 0.75   A 0.81 0.81 0.0 0 1 352.75 1.56   L 352.75 350.44   Z   M 330.50 23.74   A 0.74 0.74 0.0 0 0 329.76 23.00   L 25.00 23.00   A 0.74 0.74 0.0 0 0 24.26 23.74   L 24.26 328.26   A 0.74 0.74 0.0 0 0 25.00 329.00   L 329.76 329.00   A 0.74 0.74 0.0 0 0 330.50 328.26   L 330.50 23.74   Z"
     id="path5" />
  <path
     fill="#303030"
     d="   M 1447.00 350.99   A 0.26 0.26 0.0 0 1 1446.74 351.25   L 1096.76 351.25   A 0.26 0.26 0.0 0 1 1096.50 350.99   L 1096.50 1.01   A 0.26 0.26 0.0 0 1 1096.76 0.75   L 1446.74 0.75   A 0.26 0.26 0.0 0 1 1447.00 1.01   L 1447.00 350.99   Z   M 1424.75 23.58   A 0.58 0.58 0.0 0 0 1424.17 23.00   L 1119.09 23.00   A 0.58 0.58 0.0 0 0 1118.51 23.58   L 1118.51 328.42   A 0.58 0.58 0.0 0 0 1119.09 329.00   L 1424.17 329.00   A 0.58 0.58 0.0 0 0 1424.75 328.42   L 1424.75 23.58   Z"
     id="path6" />
  <path
     fill="#007948"
     d="   M 118.18 74.78   A 43.76 43.76 0.0 0 1 74.42 118.54   A 43.76 43.76 0.0 0 1 30.66 74.78   A 43.76 43.76 0.0 0 1 74.42 31.02   A 43.76 43.76 0.0 0 1 118.18 74.78   Z   M 108.99 74.78   A 34.58 34.58 0.0 0 0 74.41 40.20   A 34.58 34.58 0.0 0 0 39.83 74.78   A 34.58 34.58 0.0 0 0 74.41 109.36   A 34.58 34.58 0.0 0 0 108.99 74.78   Z"
     id="path7"
     style="fill:#00a86b;fill-opacity:1" />
  <path
     fill="#007948"
     d="   M 1414.77 75.89   A 43.76 43.76 0.0 0 1 1371.01 119.65   A 43.76 43.76 0.0 0 1 1327.25 75.89   A 43.76 43.76 0.0 0 1 1371.01 32.13   A 43.76 43.76 0.0 0 1 1414.77 75.89   Z   M 1405.57 75.89   A 34.57 34.57 0.0 0 0 1371.00 41.32   A 34.57 34.57 0.0 0 0 1336.43 75.89   A 34.57 34.57 0.0 0 0 1371.00 110.46   A 34.57 34.57 0.0 0 0 1405.57 75.89   Z"
     id="path8"
     style="fill:#00a86b;fill-opacity:1" />
  <path
     fill="#007948"
     d="   M 867.11 271.62   A 43.76 43.76 0.0 0 1 823.35 315.38   A 43.76 43.76 0.0 0 1 779.59 271.62   A 43.76 43.76 0.0 0 1 823.35 227.86   A 43.76 43.76 0.0 0 1 867.11 271.62   Z   M 857.90 271.61   A 34.57 34.57 0.0 0 0 823.33 237.04   A 34.57 34.57 0.0 0 0 788.76 271.61   A 34.57 34.57 0.0 0 0 823.33 306.18   A 34.57 34.57 0.0 0 0 857.90 271.61   Z"
     id="path9"
     style="fill:#00a86b;fill-opacity:1" />
  <path
     fill="#007948"
     d="   M 1216.46 272.72   A 43.76 43.76 0.0 0 1 1172.70 316.48   A 43.76 43.76 0.0 0 1 1128.94 272.72   A 43.76 43.76 0.0 0 1 1172.70 228.96   A 43.76 43.76 0.0 0 1 1216.46 272.72   Z   M 1207.27 272.72   A 34.58 34.58 0.0 0 0 1172.69 238.14   A 34.58 34.58 0.0 0 0 1138.11 272.72   A 34.58 34.58 0.0 0 0 1172.69 307.30   A 34.58 34.58 0.0 0 0 1207.27 272.72   Z"
     id="path10"
     style="fill:#00a86b;fill-opacity:1" />
  <path
     fill="#303030"
     d="   M 899.50 898.98   A 0.27 0.27 0.0 0 1 899.23 899.25   L 549.51 899.25   A 0.27 0.27 0.0 0 1 549.24 898.98   L 549.24 549.02   A 0.27 0.27 0.0 0 1 549.51 548.75   L 899.23 548.75   A 0.27 0.27 0.0 0 1 899.50 549.02   L 899.50 898.98   Z   M 877.49 571.26   A 0.26 0.26 0.0 0 0 877.23 571.00   L 571.51 571.00   A 0.26 0.26 0.0 0 0 571.25 571.26   L 571.25 876.74   A 0.26 0.26 0.0 0 0 571.51 877.00   L 877.23 877.00   A 0.26 0.26 0.0 0 0 877.49 876.74   L 877.49 571.26   Z"
     id="path11" />
  <path
     fill="#303030"
     d="   M 352.75 899.07   A 0.43 0.43 0.0 0 1 352.32 899.50   L 2.68 899.50   A 0.43 0.43 0.0 0 1 2.25 899.07   L 2.25 549.67   A 0.43 0.43 0.0 0 1 2.68 549.24   L 352.32 549.24   A 0.43 0.43 0.0 0 1 352.75 549.67   L 352.75 899.07   Z   M 330.50 571.84   A 0.58 0.58 0.0 0 0 329.92 571.26   L 24.84 571.26   A 0.58 0.58 0.0 0 0 24.26 571.84   L 24.26 876.92   A 0.58 0.58 0.0 0 0 24.84 877.50   L 329.92 877.50   A 0.58 0.58 0.0 0 0 330.50 876.92   L 330.50 571.84   Z"
     id="path12" />
  <path
     fill="#303030"
     d="   M 1447.00 899.24   A 0.26 0.26 0.0 0 1 1446.74 899.50   L 1096.76 899.50   A 0.26 0.26 0.0 0 1 1096.50 899.24   L 1096.50 549.50   A 0.26 0.26 0.0 0 1 1096.76 549.24   L 1446.74 549.24   A 0.26 0.26 0.0 0 1 1447.00 549.50   L 1447.00 899.24   Z   M 1424.75 571.83   A 0.57 0.57 0.0 0 0 1424.18 571.26   L 1119.08 571.26   A 0.57 0.57 0.0 0 0 1118.51 571.83   L 1118.51 876.93   A 0.57 0.57 0.0 0 0 1119.08 877.50   L 1424.18 877.50   A 0.57 0.57 0.0 0 0 1424.75 876.93   L 1424.75 571.83   Z"
     id="path13" />
  <rect
     fill="#007948"
     x="1330.24"
     y="578.74"
     width="87.50"
     height="87.50"
     rx="7.86"
     id="rect13"
     style="fill:#00a86b;fill-opacity:1" />
  <rect
     fill="#007948"
     x="34.00"
     y="579.49"
     width="87.50"
     height="87.50"
     rx="7.87"
     id="rect14"
     style="fill:#00a86b;fill-opacity:1" />
  <rect
     fill="#007948"
     x="782.51"
     y="781.49"
     width="87.50"
     height="87.50"
     rx="7.86"
     id="rect15"
     style="fill:#00a86b;fill-opacity:1" />
  <rect
     fill="#007948"
     x="1128.24"
     y="782.24"
     width="87.50"
     height="87.50"
     rx="7.86"
     id="rect16"
     style="fill:#00a86b;fill-opacity:1" />
  <path
     fill="#303030"
     d="   M 899.50 1446.53   A 0.27 0.27 0.0 0 1 899.23 1446.80   L 549.51 1446.80   A 0.27 0.27 0.0 0 1 549.24 1446.53   L 549.24 1096.77   A 0.27 0.27 0.0 0 1 549.51 1096.50   L 899.23 1096.50   A 0.27 0.27 0.0 0 1 899.50 1096.77   L 899.50 1446.53   Z   M 877.51 1119.08   A 0.57 0.57 0.0 0 0 876.94 1118.51   L 571.82 1118.51   A 0.57 0.57 0.0 0 0 571.25 1119.08   L 571.25 1424.18   A 0.57 0.57 0.0 0 0 571.82 1424.75   L 876.94 1424.75   A 0.57 0.57 0.0 0 0 877.51 1424.18   L 877.51 1119.08   Z"
     id="path16" />
  <path
     fill="#303030"
     d="   M 1447.00 1446.55   A 0.70 0.70 0.0 0 1 1446.30 1447.25   L 1097.20 1447.25   A 0.70 0.70 0.0 0 1 1096.50 1446.55   L 1096.50 1097.21   A 0.70 0.70 0.0 0 1 1097.20 1096.51   L 1446.30 1096.51   A 0.70 0.70 0.0 0 1 1447.00 1097.21   L 1447.00 1446.55   Z   M 1424.76 1119.57   A 0.57 0.57 0.0 0 0 1424.19 1119.00   L 1119.07 1119.00   A 0.57 0.57 0.0 0 0 1118.50 1119.57   L 1118.50 1424.43   A 0.57 0.57 0.0 0 0 1119.07 1425.00   L 1424.19 1425.00   A 0.57 0.57 0.0 0 0 1424.76 1424.43   L 1424.76 1119.57   Z"
     id="path17" />
  <path
     fill="#303030"
     d="   M 352.75 1446.68   A 0.57 0.57 0.0 0 1 352.18 1447.25   L 2.82 1447.25   A 0.57 0.57 0.0 0 1 2.25 1446.68   L 2.25 1097.32   A 0.57 0.57 0.0 0 1 2.82 1096.75   L 352.18 1096.75   A 0.57 0.57 0.0 0 1 352.75 1097.32   L 352.75 1446.68   Z   M 330.50 1119.51   A 0.51 0.51 0.0 0 0 329.99 1119.00   L 24.77 1119.00   A 0.51 0.51 0.0 0 0 24.26 1119.51   L 24.26 1424.49   A 0.51 0.51 0.0 0 0 24.77 1425.00   L 329.99 1425.00   A 0.51 0.51 0.0 0 0 330.50 1424.49   L 330.50 1119.51   Z"
     id="path18" />
  <path
     fill="#007948"
     d="   M 1424.76 1424.43   A 0.57 0.57 0.0 0 1 1424.19 1425.00   L 1119.07 1425.00   A 0.57 0.57 0.0 0 1 1118.50 1424.43   L 1118.50 1119.57   A 0.57 0.57 0.0 0 1 1119.07 1119.00   L 1424.19 1119.00   A 0.57 0.57 0.0 0 1 1424.76 1119.57   L 1424.76 1424.43   Z   M 1278.14 1276.67   C 1302.41 1276.98 1325.33 1266.23 1329.71 1240.16   C 1337.03 1196.56 1300.46 1174.80 1261.84 1183.16   C 1238.98 1188.11 1224.14 1206.00 1224.62 1229.64   Q 1224.63 1230.25 1225.25 1230.25   L 1254.52 1230.25   Q 1255.16 1230.25 1255.16 1229.61   C 1254.99 1203.16 1294.05 1200.83 1298.68 1225.26   C 1304.59 1256.44 1266.86 1256.17 1247.72 1255.12   Q 1247.12 1255.09 1247.14 1255.69   L 1248.30 1294.03   Q 1248.31 1294.50 1248.78 1294.50   L 1276.23 1294.50   Q 1276.71 1294.50 1276.74 1294.02   L 1277.56 1277.21   Q 1277.59 1276.66 1278.14 1276.67   Z   M 1282.13 1330.80   A 19.94 19.04 0.0 0 0 1262.19 1311.76   A 19.94 19.04 0.0 0 0 1242.25 1330.80   A 19.94 19.04 0.0 0 0 1262.19 1349.84   A 19.94 19.04 0.0 0 0 1282.13 1330.80   Z"
     id="path19"
     style="fill:#00a86b;fill-opacity:1" />
  <circle
     fill="#007948"
     cx="76.26"
     cy="1171.21"
     r="43.77"
     id="circle19"
     style="fill:#00a86b;fill-opacity:1" />
  <path
     fill="#ffffff"
     d="   M 1277.56 1277.21   L 1276.74 1294.02   Q 1276.71 1294.50 1276.23 1294.50   L 1248.78 1294.50   Q 1248.31 1294.50 1248.30 1294.03   L 1247.14 1255.69   Q 1247.12 1255.09 1247.72 1255.12   C 1266.86 1256.17 1304.59 1256.44 1298.68 1225.26   C 1294.05 1200.83 1254.99 1203.16 1255.16 1229.61   Q 1255.16 1230.25 1254.52 1230.25   L 1225.25 1230.25   Q 1224.63 1230.25 1224.62 1229.64   C 1224.14 1206.00 1238.98 1188.11 1261.84 1183.16   C 1300.46 1174.80 1337.03 1196.56 1329.71 1240.16   C 1325.33 1266.23 1302.41 1276.98 1278.14 1276.67   Q 1277.59 1276.66 1277.56 1277.21   Z"
     id="path20" />
  <ellipse
     fill="#ffffff"
     cx="1262.19"
     cy="1330.80"
     rx="19.94"
     ry="19.04"
     id="ellipse20" />
  <rect
     fill="#007948"
     x="-43.75"
     y="-43.75"
     transform="translate(826.74,1373.51) rotate(0.1)"
     width="87.50"
     height="87.50"
     rx="7.88"
     id="rect20"
     style="fill:#00a86b;fill-opacity:1" />
</svg>
