<?xml version="1.0" encoding="UTF-8" standalone="no"?>
<svg
   version="1.1"
   viewBox="0.00 0.00 150.00 150.00"
   id="svg1"
   sodipodi:docname="question.svg"
   inkscape:version="1.3 (0e150ed6c4, 2023-07-21)"
   xmlns:inkscape="http://www.inkscape.org/namespaces/inkscape"
   xmlns:sodipodi="http://sodipodi.sourceforge.net/DTD/sodipodi-0.dtd"
   xmlns="http://www.w3.org/2000/svg"
   xmlns:svg="http://www.w3.org/2000/svg">
  <defs
     id="defs1" />
  <sodipodi:namedview
     id="namedview1"
     pagecolor="#ffffff"
     bordercolor="#000000"
     borderopacity="0.25"
     inkscape:showpageshadow="2"
     inkscape:pageopacity="0.0"
     inkscape:pagecheckerboard="0"
     inkscape:deskcolor="#d1d1d1"
     inkscape:zoom="5.4266667"
     inkscape:cx="74.907862"
     inkscape:cy="75"
     inkscape:window-width="1920"
     inkscape:window-height="1010"
     inkscape:window-x="1913"
     inkscape:window-y="-6"
     inkscape:window-maximized="1"
     inkscape:current-layer="svg1" />
  <path
     fill="#007948"
     d="   M 0.00 0.00   L 150.00 0.00   L 150.00 150.00   L 0.00 150.00   L 0.00 0.00   Z   M 47.3635 5.2630   A 0.30 0.30 0.0 0 0 47.0630 4.9636   L 5.2631 5.0365   A 0.30 0.30 0.0 0 0 4.9636 5.3370   L 5.0365 47.0970   A 0.30 0.30 0.0 0 0 5.3370 47.3964   L 47.1369 47.3235   A 0.30 0.30 0.0 0 0 47.4364 47.0230   L 47.3635 5.2630   Z   M 97.7862 5.4997   A 0.46 0.46 0.0 0 0 97.3270 5.0389   L 52.8071 4.9612   A 0.46 0.46 0.0 0 0 52.3463 5.4204   L 52.2738 46.9403   A 0.46 0.46 0.0 0 0 52.7330 47.4011   L 97.2529 47.4788   A 0.46 0.46 0.0 0 0 97.7137 47.0196   L 97.7862 5.4997   Z   M 145.00 5.26   A 0.26 0.26 0.0 0 0 144.74 5.00   L 103.00 5.00   A 0.26 0.26 0.0 0 0 102.74 5.26   L 102.74 47.12   A 0.26 0.26 0.0 0 0 103.00 47.38   L 144.74 47.38   A 0.26 0.26 0.0 0 0 145.00 47.12   L 145.00 5.26   Z   M 47.44 52.80   A 0.38 0.38 0.0 0 0 47.06 52.42   L 5.38 52.42   A 0.38 0.38 0.0 0 0 5.00 52.80   L 5.00 97.12   A 0.38 0.38 0.0 0 0 5.38 97.50   L 47.06 97.50   A 0.38 0.38 0.0 0 0 47.44 97.12   L 47.44 52.80   Z   M 97.7779 53.2297   A 0.85 0.85 0.0 0 0 96.9294 52.3782   L 53.1494 52.3018   A 0.85 0.85 0.0 0 0 52.2980 53.1503   L 52.2221 96.6103   A 0.85 0.85 0.0 0 0 53.0706 97.4618   L 96.8506 97.5382   A 0.85 0.85 0.0 0 0 97.7020 96.6897   L 97.7779 53.2297   Z   M 144.9611 52.6930   A 0.27 0.27 0.0 0 0 144.6907 52.4235   L 102.8307 52.4966   A 0.27 0.27 0.0 0 0 102.5612 52.7670   L 102.6389 97.2670   A 0.27 0.27 0.0 0 0 102.9093 97.5365   L 144.7693 97.4634   A 0.27 0.27 0.0 0 0 145.0388 97.1930   L 144.9611 52.6930   Z   M 46.83 144.81   A 0.49 0.49 0.0 0 0 47.32 144.32   L 47.48 103.00   A 0.49 0.49 0.0 0 0 46.99 102.51   L 5.49 102.48   A 0.49 0.49 0.0 0 0 5.00 102.97   L 5.00 144.33   A 0.49 0.49 0.0 0 0 5.49 144.82   L 46.83 144.81   Z   M 97.7039 102.9104   A 0.46 0.46 0.0 0 0 97.2431 102.4512   L 52.7031 102.5289   A 0.46 0.46 0.0 0 0 52.2439 102.9897   L 52.3161 144.3696   A 0.46 0.46 0.0 0 0 52.7769 144.8288   L 97.3169 144.7511   A 0.46 0.46 0.0 0 0 97.7761 144.2903   L 97.7039 102.9104   Z   M 144.99 102.81   A 0.31 0.31 0.0 0 0 144.68 102.50   L 102.98 102.50   A 0.31 0.31 0.0 0 0 102.67 102.81   L 102.67 144.47   A 0.31 0.31 0.0 0 0 102.98 144.78   L 144.68 144.78   A 0.31 0.31 0.0 0 0 144.99 144.47   L 144.99 102.81   Z"
     id="path1"
     style="fill:#2c4a3e;fill-opacity:1" />
</svg>
