<?xml version="1.0" encoding="UTF-8" standalone="no"?>
<svg
   version="1.1"
   viewBox="0.00 0.00 574.00 574.00"
   id="svg21"
   sodipodi:docname="question.svg"
   inkscape:version="1.3 (0e150ed6c4, 2023-07-21)"
   xmlns:inkscape="http://www.inkscape.org/namespaces/inkscape"
   xmlns:sodipodi="http://sodipodi.sourceforge.net/DTD/sodipodi-0.dtd"
   xmlns="http://www.w3.org/2000/svg"
   xmlns:svg="http://www.w3.org/2000/svg">
  <defs
     id="defs21" />
  <sodipodi:namedview
     id="namedview21"
     pagecolor="#ffffff"
     bordercolor="#000000"
     borderopacity="0.25"
     inkscape:showpageshadow="2"
     inkscape:pageopacity="0.0"
     inkscape:pagecheckerboard="0"
     inkscape:deskcolor="#d1d1d1"
     inkscape:zoom="1.4181185"
     inkscape:cx="286.64741"
     inkscape:cy="149.49385"
     inkscape:window-width="1920"
     inkscape:window-height="1010"
     inkscape:window-x="1913"
     inkscape:window-y="-6"
     inkscape:window-maximized="1"
     inkscape:current-layer="svg21" />
  <path
     fill="#00784c"
     d="   M 134.95 68.00   A 66.95 66.95 0.0 0 1 68.00 134.95   A 66.95 66.95 0.0 0 1 1.05 68.00   A 66.95 66.95 0.0 0 1 68.00 1.05   A 66.95 66.95 0.0 0 1 134.95 68.00   Z   M 129.00 68.00   A 61.00 61.00 0.0 0 0 68.00 7.00   A 61.00 61.00 0.0 0 0 7.00 68.00   A 61.00 61.00 0.0 0 0 68.00 129.00   A 61.00 61.00 0.0 0 0 129.00 68.00   Z"
     id="path1"
     style="fill:#00a86b;fill-opacity:1" />
  <path
     fill="#00784c"
     d="   M 352.94 69.00   A 66.95 66.95 0.0 0 1 285.99 135.95   A 66.95 66.95 0.0 0 1 219.04 69.00   A 66.95 66.95 0.0 0 1 285.99 2.05   A 66.95 66.95 0.0 0 1 352.94 69.00   Z   M 346.99 69.00   A 61.00 61.00 0.0 0 0 285.99 8.00   A 61.00 61.00 0.0 0 0 224.99 69.00   A 61.00 61.00 0.0 0 0 285.99 130.00   A 61.00 61.00 0.0 0 0 346.99 69.00   Z"
     id="path2"
     style="fill:#00a86b;fill-opacity:1" />
  <path
     fill="#00784c"
     d="   M 571.94 69.00   A 66.94 66.94 0.0 0 1 505.00 135.94   A 66.94 66.94 0.0 0 1 438.06 69.00   A 66.94 66.94 0.0 0 1 505.00 2.06   A 66.94 66.94 0.0 0 1 571.94 69.00   Z   M 565.99 69.00   A 60.99 60.99 0.0 0 0 505.00 8.01   A 60.99 60.99 0.0 0 0 444.01 69.00   A 60.99 60.99 0.0 0 0 505.00 129.99   A 60.99 60.99 0.0 0 0 565.99 69.00   Z"
     id="path3"
     style="fill:#00a86b;fill-opacity:1" />
  <path
     fill="#00784c"
     d="   M 64.52 54.00   L 59.73 54.00   A 0.48 0.48 0.0 0 1 59.25 53.52   L 59.25 46.73   A 0.48 0.48 0.0 0 1 59.73 46.25   L 73.02 46.25   A 0.48 0.48 0.0 0 1 73.50 46.73   L 73.50 89.52   A 0.48 0.48 0.0 0 1 73.02 90.00   L 65.48 90.00   A 0.48 0.48 0.0 0 1 65.00 89.52   L 65.00 54.48   A 0.48 0.48 0.0 0 0 64.52 54.00   Z"
     id="path4"
     style="fill:#333333;fill-opacity:1" />
  <path
     fill="#00784c"
     d="   M 278.84 66.48   C 288.89 57.54 303.35 63.83 301.93 77.58   C 301.00 86.57 295.51 91.43 285.97 90.97   C 277.94 90.58 274.03 86.58 272.22 78.78   C 270.44 71.12 270.49 60.34 274.17 53.16   C 279.93 41.93 299.05 44.48 300.43 57.77   Q 300.48 58.25 300.00 58.25   L 293.24 58.25   A 0.63 0.62 83.6 0 1 292.63 57.76   Q 291.74 53.74 288.28 53.29   C 279.74 52.18 278.71 59.85 278.39 66.26   Q 278.35 66.90 278.84 66.48   Z   M 294.16 76.54   A 7.52 7.52 0.0 0 0 286.64 69.02   A 7.52 7.52 0.0 0 0 279.12 76.54   A 7.52 7.52 0.0 0 0 286.64 84.06   A 7.52 7.52 0.0 0 0 294.16 76.54   Z"
     id="path5"
     style="fill:#333333;fill-opacity:1" />
  <path
     fill="#00784c"
     d="   M 506.25 82.50   L 486.45 82.50   Q 485.83 82.50 485.79 81.87   C 485.61 78.97 485.22 76.70 487.01 74.15   Q 496.10 61.20 505.13 48.22   Q 505.46 47.75 506.02 47.75   L 514.50 47.75   Q 515.25 47.75 515.25 48.50   L 515.25 74.63   Q 515.25 75.25 515.88 75.25   L 519.87 75.25   Q 520.50 75.25 520.50 75.88   L 520.50 81.75   Q 520.50 82.50 519.75 82.50   L 515.75 82.50   Q 515.25 82.50 515.25 83.00   L 515.25 90.25   Q 515.25 91.00 514.50 91.00   L 507.50 91.00   Q 506.75 91.00 506.75 90.25   L 506.75 83.00   Q 506.75 82.50 506.25 82.50   Z   M 507.25 58.08   A 0.34 0.34 0.0 0 0 506.63 57.89   L 495.29 74.76   A 0.34 0.34 0.0 0 0 495.57 75.29   L 506.91 75.23   A 0.34 0.34 0.0 0 0 507.25 74.89   L 507.25 58.08   Z"
     id="path6"
     style="fill:#333333;fill-opacity:1" />
  <path
     fill="#00784c"
     d="   M 134.95 285.99   A 66.95 66.95 0.0 0 1 68.00 352.94   A 66.95 66.95 0.0 0 1 1.05 285.99   A 66.95 66.95 0.0 0 1 68.00 219.04   A 66.95 66.95 0.0 0 1 134.95 285.99   Z   M 129.00 286.00   A 61.00 61.00 0.0 0 0 68.00 225.00   A 61.00 61.00 0.0 0 0 7.00 286.00   A 61.00 61.00 0.0 0 0 68.00 347.00   A 61.00 61.00 0.0 0 0 129.00 286.00   Z"
     id="path7"
     style="fill:#00a86b;fill-opacity:1" />
  <path
     fill="#00784c"
     d="   M 352.94 286.99   A 66.95 66.95 0.0 0 1 285.99 353.94   A 66.95 66.95 0.0 0 1 219.04 286.99   A 66.95 66.95 0.0 0 1 285.99 220.04   A 66.95 66.95 0.0 0 1 352.94 286.99   Z   M 346.99 286.99   A 61.00 61.00 0.0 0 0 285.99 225.99   A 61.00 61.00 0.0 0 0 224.99 286.99   A 61.00 61.00 0.0 0 0 285.99 347.99   A 61.00 61.00 0.0 0 0 346.99 286.99   Z"
     id="path8"
     style="fill:#00a86b;fill-opacity:1" />
  <path
     fill="#00784c"
     d="   M 571.94 286.99   A 66.94 66.94 0.0 0 1 505.00 353.93   A 66.94 66.94 0.0 0 1 438.06 286.99   A 66.94 66.94 0.0 0 1 505.00 220.05   A 66.94 66.94 0.0 0 1 571.94 286.99   Z   M 565.99 286.99   A 60.99 60.99 0.0 0 0 505.00 226.00   A 60.99 60.99 0.0 0 0 444.01 286.99   A 60.99 60.99 0.0 0 0 505.00 347.98   A 60.99 60.99 0.0 0 0 565.99 286.99   Z"
     id="path9"
     style="fill:#00a86b;fill-opacity:1" />
  <path
     fill="#00784c"
     d="   M 75.13 288.37   C 71.24 293.52 61.61 291.93 57.88 288.87   C 51.01 283.24 51.12 270.95 58.72 265.84   Q 66.24 260.80 75.11 264.70   C 85.38 269.23 83.79 290.13 81.58 298.57   C 77.88 312.68 55.84 310.67 54.20 296.35   Q 54.13 295.75 54.74 295.75   L 61.25 295.75   Q 61.85 295.75 62.02 296.33   Q 63.12 300.13 66.98 300.97   C 74.79 302.67 76.01 293.89 75.70 288.55   A 0.32 0.32 0.0 0 0 75.13 288.37   Z   M 75.24 277.66   A 7.25 7.25 0.0 0 0 67.99 270.41   A 7.25 7.25 0.0 0 0 60.74 277.66   A 7.25 7.25 0.0 0 0 67.99 284.91   A 7.25 7.25 0.0 0 0 75.24 277.66   Z"
     id="path10"
     style="fill:#333333;fill-opacity:1" />
  <path
     fill="#00784c"
     d="   M 515.29 301.50   L 531.63 301.50   Q 532.25 301.50 532.25 302.13   L 532.25 307.88   Q 532.25 308.50 531.63 308.50   L 503.50 308.50   Q 502.75 308.50 502.75 307.75   L 502.75 302.72   A 1.35 1.33 70.7 0 1 503.24 301.68   C 509.60 296.46 517.17 290.66 521.41 283.67   C 529.06 271.07 510.81 266.59 511.00 277.97   A 1.02 1.01 -0.6 0 1 509.98 279.00   L 503.95 279.00   Q 502.43 279.00 502.63 277.50   Q 504.03 266.81 513.94 264.87   Q 524.33 262.83 528.98 269.74   C 537.05 281.73 523.53 294.35 515.09 300.89   A 0.34 0.34 0.0 0 0 515.29 301.50   Z"
     id="path11"
     style="fill:#333333;fill-opacity:1" />
  <path
     fill="#00784c"
     d="   M 486.57 273.00   L 481.68 273.00   A 0.43 0.43 0.0 0 1 481.25 272.57   L 481.25 265.68   A 0.43 0.43 0.0 0 1 481.68 265.25   L 495.07 265.25   A 0.43 0.43 0.0 0 1 495.50 265.68   L 495.50 308.57   A 0.43 0.43 0.0 0 1 495.07 309.00   L 487.43 309.00   A 0.43 0.43 0.0 0 1 487.00 308.57   L 487.00 273.43   A 0.43 0.43 0.0 0 0 486.57 273.00   Z"
     id="path12"
     style="fill:#333333;fill-opacity:1" />
  <path
     fill="#00784c"
     d="   M 291.97 272.50   L 272.63 272.50   Q 272.00 272.50 272.00 271.88   L 272.00 266.25   Q 272.00 265.50 272.75 265.50   L 300.29 265.50   Q 300.96 265.50 300.98 266.17   C 301.07 268.74 301.28 270.97 300.24 273.42   Q 292.87 290.74 285.32 308.30   A 1.16 1.15 -78.4 0 1 284.26 309.00   L 277.28 309.00   A 0.49 0.48 11.8 0 1 276.83 308.32   L 292.38 273.13   Q 292.66 272.50 291.97 272.50   Z"
     id="path13"
     style="fill:#333333;fill-opacity:1" />
  <path
     fill="#00784c"
     d="   M 134.94 505.00   A 66.94 66.94 0.0 0 1 68.00 571.94   A 66.94 66.94 0.0 0 1 1.06 505.00   A 66.94 66.94 0.0 0 1 68.00 438.06   A 66.94 66.94 0.0 0 1 134.94 505.00   Z   M 127.98 505.00   A 59.98 59.98 0.0 0 0 68.00 445.02   A 59.98 59.98 0.0 0 0 8.02 505.00   A 59.98 59.98 0.0 0 0 68.00 564.98   A 59.98 59.98 0.0 0 0 127.98 505.00   Z"
     id="path14"
     style="fill:#00a86b;fill-opacity:1" />
  <path
     fill="#00784c"
     d="   M 352.93 506.00   A 66.94 66.94 0.0 0 1 285.99 572.94   A 66.94 66.94 0.0 0 1 219.05 506.00   A 66.94 66.94 0.0 0 1 285.99 439.06   A 66.94 66.94 0.0 0 1 352.93 506.00   Z   M 346.98 506.00   A 60.99 60.99 0.0 0 0 285.99 445.01   A 60.99 60.99 0.0 0 0 225.00 506.00   A 60.99 60.99 0.0 0 0 285.99 566.99   A 60.99 60.99 0.0 0 0 346.98 506.00   Z"
     id="path15"
     style="fill:#00a86b;fill-opacity:1" />
  <path
     fill="#00784c"
     d="   M 571.93 506.00   A 66.93 66.93 0.0 0 1 505.00 572.93   A 66.93 66.93 0.0 0 1 438.07 506.00   A 66.93 66.93 0.0 0 1 505.00 439.07   A 66.93 66.93 0.0 0 1 571.93 506.00   Z   M 565.99 506.00   A 60.99 60.99 0.0 0 0 505.00 445.01   A 60.99 60.99 0.0 0 0 444.01 506.00   A 60.99 60.99 0.0 0 0 505.00 566.99   A 60.99 60.99 0.0 0 0 565.99 506.00   Z"
     id="path16"
     style="fill:#00a86b;fill-opacity:1" />
  <path
     fill="#00784c"
     d="   M 513.92 490.99   C 512.39 481.84 498.52 482.28 497.34 492.26   Q 497.29 492.75 496.79 492.75   L 486.51 492.75   A 0.53 0.53 0.0 0 1 485.98 492.20   C 487.06 468.13 525.37 468.11 525.87 492.74   C 526.11 504.88 517.51 509.21 506.64 510.32   Q 505.95 510.39 505.92 511.07   L 505.68 516.06   A 0.99 0.99 0.0 0 1 504.69 517.00   L 495.50 517.00   A 0.52 0.51 -0.6 0 1 494.98 516.50   L 494.51 502.75   Q 494.50 502.25 495.01 502.26   C 502.45 502.44 515.82 502.43 513.92 490.99   Z"
     id="path17"
     style="fill:#333333;fill-opacity:1" />
  <path
     fill="#00784c"
     d="   M 69.69 522.81   C 63.97 517.92 63.12 509.60 63.17 501.99   C 63.25 489.54 69.33 478.69 83.74 481.86   C 99.35 485.29 99.38 519.33 86.14 524.65   C 81.30 526.59 73.83 526.36 69.69 522.81   Z   M 75.44 517.06   Q 84.06 520.73 86.40 512.60   C 87.92 507.29 89.32 489.60 79.78 489.20   C 75.06 489.00 72.69 492.09 72.06 496.52   C 71.39 501.32 70.32 514.88 75.44 517.06   Z"
     id="path18"
     style="fill:#333333;fill-opacity:1" />
  <path
     fill="#00784c"
     d="   M 45.52 490.00   L 40.73 490.00   A 0.48 0.48 0.0 0 1 40.25 489.52   L 40.25 482.73   A 0.48 0.48 0.0 0 1 40.73 482.25   L 54.02 482.25   A 0.48 0.48 0.0 0 1 54.50 482.73   L 54.50 525.52   A 0.48 0.48 0.0 0 1 54.02 526.00   L 46.48 526.00   A 0.48 0.48 0.0 0 1 46.00 525.52   L 46.00 490.48   A 0.48 0.48 0.0 0 0 45.52 490.00   Z"
     id="path19"
     style="fill:#333333;fill-opacity:1" />
  <path
     fill="#00784c"
     d="   M 263.52 492.00   L 258.73 492.00   A 0.48 0.48 0.0 0 1 258.25 491.52   L 258.25 484.73   A 0.48 0.48 0.0 0 1 258.73 484.25   L 272.02 484.25   A 0.48 0.48 0.0 0 1 272.50 484.73   L 272.50 527.52   A 0.48 0.48 0.0 0 1 272.02 528.00   L 264.48 528.00   A 0.48 0.48 0.0 0 1 264.00 527.52   L 264.00 492.48   A 0.48 0.48 0.0 0 0 263.52 492.00   Z"
     id="path20"
     style="fill:#333333;fill-opacity:1" />
  <path
     fill="#00784c"
     d="   M 291.87 501.07   C 293.87 499.64 295.81 498.52 298.30 498.34   C 320.78 496.74 317.62 533.72 293.22 527.52   Q 285.55 525.57 282.67 516.89   A 0.87 0.86 80.8 0 1 283.49 515.75   L 290.48 515.75   Q 290.92 515.75 291.06 516.17   Q 292.18 519.42 295.50 520.46   C 306.25 523.83 308.53 507.78 300.91 505.66   Q 294.60 503.90 291.57 509.38   Q 291.37 509.75 290.94 509.75   L 284.25 509.75   Q 283.50 509.75 283.50 509.00   L 283.50 484.75   Q 283.50 484.25 284.00 484.25   L 310.00 484.25   Q 310.50 484.25 310.50 484.75   L 310.50 490.75   Q 310.50 491.50 309.75 491.50   L 291.75 491.50   Q 291.25 491.50 291.25 492.00   L 291.25 500.76   Q 291.25 501.52 291.87 501.07   Z"
     id="path21"
     style="fill:#333333;fill-opacity:1" />
  <circle
     fill="#00784c"
     cx="500.16"
     cy="530.50"
     r="7.24"
     id="circle21"
     style="fill:#333333;fill-opacity:1" />
</svg>
