<?xml version="1.0" encoding="UTF-8" standalone="no"?>
<svg
   version="1.1"
   viewBox="0.00 0.00 574.00 574.00"
   id="svg22"
   sodipodi:docname="question.svg"
   inkscape:version="1.3 (0e150ed6c4, 2023-07-21)"
   xmlns:inkscape="http://www.inkscape.org/namespaces/inkscape"
   xmlns:sodipodi="http://sodipodi.sourceforge.net/DTD/sodipodi-0.dtd"
   xmlns="http://www.w3.org/2000/svg"
   xmlns:svg="http://www.w3.org/2000/svg">
  <defs
     id="defs22" />
  <sodipodi:namedview
     id="namedview22"
     pagecolor="#ffffff"
     bordercolor="#000000"
     borderopacity="0.25"
     inkscape:showpageshadow="2"
     inkscape:pageopacity="0.0"
     inkscape:pagecheckerboard="0"
     inkscape:deskcolor="#d1d1d1"
     inkscape:zoom="1.4181185"
     inkscape:cx="286.64741"
     inkscape:cy="286.99999"
     inkscape:window-width="1920"
     inkscape:window-height="1010"
     inkscape:window-x="1913"
     inkscape:window-y="-6"
     inkscape:window-maximized="1"
     inkscape:current-layer="svg22" />
  <path
     fill="#00784c"
     d="   M 134.95 68.00   A 66.95 66.95 0.0 0 1 68.00 134.95   A 66.95 66.95 0.0 0 1 1.05 68.00   A 66.95 66.95 0.0 0 1 68.00 1.05   A 66.95 66.95 0.0 0 1 134.95 68.00   Z   M 129.00 68.00   A 61.00 61.00 0.0 0 0 68.00 7.00   A 61.00 61.00 0.0 0 0 7.00 68.00   A 61.00 61.00 0.0 0 0 68.00 129.00   A 61.00 61.00 0.0 0 0 129.00 68.00   Z"
     id="path1"
     style="fill:#00a86b;fill-opacity:1" />
  <path
     fill="#00784c"
     d="   M 352.94 69.00   A 66.95 66.95 0.0 0 1 285.99 135.95   A 66.95 66.95 0.0 0 1 219.04 69.00   A 66.95 66.95 0.0 0 1 285.99 2.05   A 66.95 66.95 0.0 0 1 352.94 69.00   Z   M 346.99 69.00   A 61.00 61.00 0.0 0 0 285.99 8.00   A 61.00 61.00 0.0 0 0 224.99 69.00   A 61.00 61.00 0.0 0 0 285.99 130.00   A 61.00 61.00 0.0 0 0 346.99 69.00   Z"
     id="path2"
     style="fill:#00a86b;fill-opacity:1" />
  <path
     fill="#00784c"
     d="   M 571.94 69.00   A 66.94 66.94 0.0 0 1 505.00 135.94   A 66.94 66.94 0.0 0 1 438.06 69.00   A 66.94 66.94 0.0 0 1 505.00 2.06   A 66.94 66.94 0.0 0 1 571.94 69.00   Z   M 565.99 69.00   A 60.99 60.99 0.0 0 0 505.00 8.01   A 60.99 60.99 0.0 0 0 444.01 69.00   A 60.99 60.99 0.0 0 0 505.00 129.99   A 60.99 60.99 0.0 0 0 565.99 69.00   Z"
     id="path3"
     style="fill:#00a86b;fill-opacity:1" />
  <path
     fill="#00784c"
     d="   M 62.25 54.00   L 62.25 62.74   Q 62.25 63.50 62.86 63.04   C 70.04 57.69 80.59 60.12 83.48 69.01   C 90.57 90.89 60.22 98.44 53.66 78.88   A 0.86 0.86 0.0 0 1 54.48 77.75   L 61.31 77.75   Q 61.89 77.75 62.10 78.29   C 65.12 85.85 75.28 84.01 76.28 75.77   C 77.37 66.77 67.18 64.06 62.55 71.29   Q 62.26 71.75 61.71 71.75   L 55.13 71.75   Q 54.50 71.75 54.50 71.12   L 54.50 46.75   Q 54.50 46.25 55.00 46.25   L 80.87 46.25   Q 81.50 46.25 81.50 46.88   L 81.50 52.87   Q 81.50 53.50 80.88 53.50   L 62.75 53.50   Q 62.25 53.50 62.25 54.00   Z"
     id="path4"
     style="fill:#333333;fill-opacity:1" />
  <path
     fill="#00784c"
     d="   M 497.76 66.66   C 504.73 59.13 517.14 61.37 520.20 71.27   C 526.69 92.26 495.79 100.00 491.16 78.45   C 488.62 66.63 489.19 45.92 506.07 46.28   C 513.39 46.44 518.49 50.27 519.55 57.61   A 0.56 0.56 0.0 0 1 519.00 58.25   L 512.24 58.25   Q 511.69 58.25 511.59 57.71   Q 510.89 53.87 507.50 53.32   C 498.77 51.91 497.66 59.99 497.37 66.50   Q 497.34 67.10 497.76 66.66   Z   M 513.14 76.54   A 7.51 7.51 0.0 0 0 505.63 69.03   A 7.51 7.51 0.0 0 0 498.12 76.54   A 7.51 7.51 0.0 0 0 505.63 84.05   A 7.51 7.51 0.0 0 0 513.14 76.54   Z"
     id="path5"
     style="fill:#333333;fill-opacity:1" />
  <path
     fill="#00784c"
     d="   M 276.84 67.28   C 268.25 62.37 270.61 50.87 279.19 47.69   C 287.38 44.66 300.71 46.82 300.95 58.10   Q 301.08 63.81 295.75 67.49   A 0.40 0.40 0.0 0 0 295.79 68.17   Q 301.16 71.15 301.95 76.48   C 304.65 94.65 274.38 97.44 270.91 81.71   Q 268.98 72.96 276.85 67.93   Q 277.38 67.59 276.84 67.28   Z   M 292.9171 59.0827   A 6.65 6.16 -1.7 0 0 286.0873 53.1227   A 6.65 6.16 -1.7 0 0 279.6229 59.4773   A 6.65 6.16 -1.7 0 0 286.4527 65.4373   A 6.65 6.16 -1.7 0 0 292.9171 59.0827   Z   M 293.9597 78.2775   A 7.74 6.84 0.5 0 0 286.2797 71.3703   A 7.74 6.84 0.5 0 0 278.4803 78.1425   A 7.74 6.84 0.5 0 0 286.1603 85.0497   A 7.74 6.84 0.5 0 0 293.9597 78.2775   Z"
     id="path6"
     style="fill:#333333;fill-opacity:1" />
  <path
     fill="#00784c"
     d="   M 134.95 285.99   A 66.95 66.95 0.0 0 1 68.00 352.94   A 66.95 66.95 0.0 0 1 1.05 285.99   A 66.95 66.95 0.0 0 1 68.00 219.04   A 66.95 66.95 0.0 0 1 134.95 285.99   Z   M 129.00 286.00   A 61.00 61.00 0.0 0 0 68.00 225.00   A 61.00 61.00 0.0 0 0 7.00 286.00   A 61.00 61.00 0.0 0 0 68.00 347.00   A 61.00 61.00 0.0 0 0 129.00 286.00   Z"
     id="path7"
     style="fill:#00a86b;fill-opacity:1" />
  <path
     fill="#00784c"
     d="   M 352.94 286.99   A 66.95 66.95 0.0 0 1 285.99 353.94   A 66.95 66.95 0.0 0 1 219.04 286.99   A 66.95 66.95 0.0 0 1 285.99 220.04   A 66.95 66.95 0.0 0 1 352.94 286.99   Z   M 346.99 286.99   A 61.00 61.00 0.0 0 0 285.99 225.99   A 61.00 61.00 0.0 0 0 224.99 286.99   A 61.00 61.00 0.0 0 0 285.99 347.99   A 61.00 61.00 0.0 0 0 346.99 286.99   Z"
     id="path8"
     style="fill:#00a86b;fill-opacity:1" />
  <path
     fill="#00784c"
     d="   M 571.94 286.99   A 66.94 66.94 0.0 0 1 505.00 353.93   A 66.94 66.94 0.0 0 1 438.06 286.99   A 66.94 66.94 0.0 0 1 505.00 220.05   A 66.94 66.94 0.0 0 1 571.94 286.99   Z   M 565.99 286.99   A 60.99 60.99 0.0 0 0 505.00 226.00   A 60.99 60.99 0.0 0 0 444.01 286.99   A 60.99 60.99 0.0 0 0 505.00 347.98   A 60.99 60.99 0.0 0 0 565.99 286.99   Z"
     id="path9"
     style="fill:#00a86b;fill-opacity:1" />
  <path
     fill="#00784c"
     d="   M 45.52 272.00   L 40.73 272.00   A 0.48 0.48 0.0 0 1 40.25 271.52   L 40.25 264.73   A 0.48 0.48 0.0 0 1 40.73 264.25   L 54.02 264.25   A 0.48 0.48 0.0 0 1 54.50 264.73   L 54.50 307.52   A 0.48 0.48 0.0 0 1 54.02 308.00   L 46.48 308.00   A 0.48 0.48 0.0 0 1 46.00 307.52   L 46.00 272.48   A 0.48 0.48 0.0 0 0 45.52 272.00   Z"
     id="path10"
     style="fill:#333333;fill-opacity:1" />
  <path
     fill="#00784c"
     d="   M 73.25 272.00   L 73.25 280.74   Q 73.25 281.48 73.84 281.04   C 81.11 275.64 91.81 278.19 94.56 287.23   C 101.24 309.13 71.15 316.25 64.66 296.90   A 0.87 0.87 0.0 0 1 65.49 295.75   L 72.48 295.75   Q 72.92 295.75 73.06 296.17   Q 74.18 299.42 77.50 300.46   C 87.74 303.67 90.72 288.83 83.29 285.83   Q 77.34 283.43 73.53 289.30   Q 73.24 289.75 72.71 289.75   L 66.13 289.75   Q 65.50 289.75 65.50 289.12   L 65.50 264.75   Q 65.50 264.25 66.00 264.25   L 91.87 264.25   Q 92.50 264.25 92.50 264.88   L 92.50 270.87   Q 92.50 271.50 91.88 271.50   L 73.75 271.50   Q 73.25 271.50 73.25 272.00   Z"
     id="path11"
     style="fill:#333333;fill-opacity:1" />
  <path
     fill="#00784c"
     d="   M 304.62 286.16   Q 310.35 288.60 311.26 293.95   C 314.63 313.88 282.16 314.46 281.83 296.19   Q 281.83 295.75 282.27 295.75   L 289.06 295.75   Q 289.68 295.75 289.82 296.35   Q 291.42 303.30 298.85 302.03   C 304.71 301.03 304.77 292.86 300.08 290.46   C 298.02 289.41 295.21 289.44 292.78 289.50   A 0.51 0.51 0.0 0 1 292.25 288.99   L 292.25 283.01   A 0.58 0.58 0.0 0 1 292.90 282.43   C 296.44 282.88 301.03 282.20 302.33 278.40   C 304.75 271.31 293.36 267.92 290.44 276.23   Q 290.26 276.75 289.70 276.75   L 283.00 276.75   Q 282.52 276.75 282.53 276.26   C 282.93 262.29 304.59 260.04 309.79 271.29   C 312.14 276.36 310.02 282.95 304.61 285.45   Q 303.80 285.82 304.62 286.16   Z"
     id="path12"
     style="fill:#333333;fill-opacity:1" />
  <path
     fill="#00784c"
     d="   M 509.72 284.63   C 517.88 276.16 531.81 280.43 532.90 292.43   C 533.90 303.36 526.56 310.40 515.14 308.88   C 503.20 307.29 501.69 294.32 502.19 284.75   C 502.75 274.07 505.50 263.72 518.87 264.28   C 525.70 264.57 530.62 268.76 531.54 275.65   Q 531.62 276.25 531.01 276.25   L 524.29 276.25   Q 523.84 276.25 523.73 275.82   Q 522.36 270.48 516.50 271.37   C 510.00 272.35 509.65 279.46 509.32 284.45   Q 509.28 285.08 509.72 284.63   Z   M 525.15 294.54   A 7.52 7.52 0.0 0 0 517.63 287.02   A 7.52 7.52 0.0 0 0 510.11 294.54   A 7.52 7.52 0.0 0 0 517.63 302.06   A 7.52 7.52 0.0 0 0 525.15 294.54   Z"
     id="path13"
     style="fill:#333333;fill-opacity:1" />
  <path
     fill="#00784c"
     d="   M 265.52 273.00   L 260.73 273.00   A 0.48 0.48 0.0 0 1 260.25 272.52   L 260.25 265.73   A 0.48 0.48 0.0 0 1 260.73 265.25   L 274.02 265.25   A 0.48 0.48 0.0 0 1 274.50 265.73   L 274.50 308.52   A 0.48 0.48 0.0 0 1 274.02 309.00   L 266.48 309.00   A 0.48 0.48 0.0 0 1 266.00 308.52   L 266.00 273.48   A 0.48 0.48 0.0 0 0 265.52 273.00   Z"
     id="path14"
     style="fill:#333333;fill-opacity:1" />
  <path
     fill="#00784c"
     d="   M 484.57 273.00   L 479.68 273.00   A 0.43 0.43 0.0 0 1 479.25 272.57   L 479.25 265.68   A 0.43 0.43 0.0 0 1 479.68 265.25   L 493.07 265.25   A 0.43 0.43 0.0 0 1 493.50 265.68   L 493.50 308.57   A 0.43 0.43 0.0 0 1 493.07 309.00   L 485.43 309.00   A 0.43 0.43 0.0 0 1 485.00 308.57   L 485.00 273.43   A 0.43 0.43 0.0 0 0 484.57 273.00   Z"
     id="path15"
     style="fill:#333333;fill-opacity:1" />
  <path
     fill="#00784c"
     d="   M 134.94 505.00   A 66.94 66.94 0.0 0 1 68.00 571.94   A 66.94 66.94 0.0 0 1 1.06 505.00   A 66.94 66.94 0.0 0 1 68.00 438.06   A 66.94 66.94 0.0 0 1 134.94 505.00   Z   M 127.98 505.00   A 59.98 59.98 0.0 0 0 68.00 445.02   A 59.98 59.98 0.0 0 0 8.02 505.00   A 59.98 59.98 0.0 0 0 68.00 564.98   A 59.98 59.98 0.0 0 0 127.98 505.00   Z"
     id="path16"
     style="fill:#00a86b;fill-opacity:1" />
  <path
     fill="#00784c"
     d="   M 352.93 506.00   A 66.94 66.94 0.0 0 1 285.99 572.94   A 66.94 66.94 0.0 0 1 219.05 506.00   A 66.94 66.94 0.0 0 1 285.99 439.06   A 66.94 66.94 0.0 0 1 352.93 506.00   Z   M 346.98 506.00   A 60.99 60.99 0.0 0 0 285.99 445.01   A 60.99 60.99 0.0 0 0 225.00 506.00   A 60.99 60.99 0.0 0 0 285.99 566.99   A 60.99 60.99 0.0 0 0 346.98 506.00   Z"
     id="path17"
     style="fill:#00a86b;fill-opacity:1" />
  <path
     fill="#00784c"
     d="   M 571.93 506.00   A 66.93 66.93 0.0 0 1 505.00 572.93   A 66.93 66.93 0.0 0 1 438.07 506.00   A 66.93 66.93 0.0 0 1 505.00 439.07   A 66.93 66.93 0.0 0 1 571.93 506.00   Z   M 565.99 506.00   A 60.99 60.99 0.0 0 0 505.00 445.01   A 60.99 60.99 0.0 0 0 444.01 506.00   A 60.99 60.99 0.0 0 0 505.00 566.99   A 60.99 60.99 0.0 0 0 565.99 506.00   Z"
     id="path18"
     style="fill:#00a86b;fill-opacity:1" />
  <path
     fill="#00784c"
     d="   M 513.92 490.99   C 512.39 481.84 498.52 482.28 497.34 492.26   Q 497.29 492.75 496.79 492.75   L 486.51 492.75   A 0.53 0.53 0.0 0 1 485.98 492.20   C 487.06 468.13 525.37 468.11 525.87 492.74   C 526.11 504.88 517.51 509.21 506.64 510.32   Q 505.95 510.39 505.92 511.07   L 505.68 516.06   A 0.99 0.99 0.0 0 1 504.69 517.00   L 495.50 517.00   A 0.52 0.51 -0.6 0 1 494.98 516.50   L 494.51 502.75   Q 494.50 502.25 495.01 502.26   C 502.45 502.44 515.82 502.43 513.92 490.99   Z"
     id="path19"
     style="fill:#333333;fill-opacity:1" />
  <path
     fill="#00784c"
     d="   M 75.11 506.37   Q 74.25 507.61 72.74 508.25   C 48.67 518.54 44.60 476.28 71.69 481.71   C 85.87 484.56 84.19 506.62 81.58 516.56   C 77.94 530.44 55.67 528.93 54.28 514.26   Q 54.24 513.75 54.75 513.75   L 61.25 513.75   Q 61.85 513.75 62.02 514.33   Q 63.12 518.13 66.98 518.97   C 74.79 520.67 76.01 511.88 75.70 506.54   A 0.33 0.32 60.8 0 0 75.11 506.37   Z   M 68.6195 502.9931   A 7.37 7.12 85.1 0 0 75.0840 495.0418   A 7.37 7.12 85.1 0 0 67.3605 488.3069   A 7.37 7.12 85.1 0 0 60.8960 496.2582   A 7.37 7.12 85.1 0 0 68.6195 502.9931   Z"
     id="path20"
     style="fill:#333333;fill-opacity:1" />
  <path
     fill="#00784c"
     d="   M 266.52 492.00   L 261.73 492.00   A 0.48 0.48 0.0 0 1 261.25 491.52   L 261.25 484.73   A 0.48 0.48 0.0 0 1 261.73 484.25   L 275.02 484.25   A 0.48 0.48 0.0 0 1 275.50 484.73   L 275.50 527.52   A 0.48 0.48 0.0 0 1 275.02 528.00   L 267.48 528.00   A 0.48 0.48 0.0 0 1 267.00 527.52   L 267.00 492.48   A 0.48 0.48 0.0 0 0 266.52 492.00   Z"
     id="path21"
     style="fill:#333333;fill-opacity:1" />
  <path
     fill="#00784c"
     d="   M 302.98 491.50   L 283.62 491.50   Q 283.00 491.50 283.00 490.87   L 283.00 485.25   Q 283.00 484.50 283.75 484.50   L 311.29 484.50   Q 311.94 484.50 311.97 485.15   C 312.11 487.91 312.27 490.08 311.13 492.72   Q 303.68 510.10 296.25 527.48   Q 296.03 528.00 295.47 528.00   L 288.04 528.00   A 0.34 0.34 0.0 0 1 287.73 527.53   L 303.39 492.14   Q 303.67 491.50 302.98 491.50   Z"
     id="path22"
     style="fill:#333333;fill-opacity:1" />
  <circle
     fill="#00784c"
     cx="500.16"
     cy="530.50"
     r="7.24"
     id="circle22"
     style="fill:#333333;fill-opacity:1" />
</svg>
