<?xml version="1.0" encoding="UTF-8" standalone="no"?>
<svg
   version="1.1"
   viewBox="0.00 0.00 1448.00 1448.00"
   id="svg43"
   sodipodi:docname="question.svg"
   inkscape:version="1.3 (0e150ed6c4, 2023-07-21)"
   xmlns:inkscape="http://www.inkscape.org/namespaces/inkscape"
   xmlns:sodipodi="http://sodipodi.sourceforge.net/DTD/sodipodi-0.dtd"
   xmlns="http://www.w3.org/2000/svg"
   xmlns:svg="http://www.w3.org/2000/svg">
  <defs
     id="defs43" />
  <sodipodi:namedview
     id="namedview43"
     pagecolor="#ffffff"
     bordercolor="#000000"
     borderopacity="0.25"
     inkscape:showpageshadow="2"
     inkscape:pageopacity="0.0"
     inkscape:pagecheckerboard="0"
     inkscape:deskcolor="#d1d1d1"
     inkscape:zoom="0.5621547"
     inkscape:cx="723.11057"
     inkscape:cy="724"
     inkscape:window-width="1920"
     inkscape:window-height="1010"
     inkscape:window-x="1913"
     inkscape:window-y="-6"
     inkscape:window-maximized="1"
     inkscape:current-layer="svg43" />
  <g
     stroke-width="2.00"
     fill="none"
     stroke-linecap="butt"
     id="g17">
    <path
       stroke="#18764f"
       vector-effect="non-scaling-stroke"
       d="   M 202.87 178.38   L 330.46 231.08   A 0.85 0.84 35.0 0 0 331.34 230.93   C 332.31 230.05 332.66 228.08 333.01 226.95   Q 347.43 179.82 335.02 132.12   Q 334.61 130.53 333.04 131.02   L 202.81 171.46   Q 202.14 171.67 202.18 172.38   L 202.48 177.84   A 0.63 0.61 9.9 0 0 202.87 178.38"
       id="path1" />
    <path
       stroke="#18764f"
       vector-effect="non-scaling-stroke"
       d="   M 879.59 230.72   Q 895.77 181.98 882.88 132.32   Q 882.35 130.28 880.34 131.08   Q 879.05 131.60 878.96 131.63   Q 814.58 151.54 750.22 171.61   A 0.62 0.62 0.0 0 0 749.79 172.25   L 750.29 177.76   Q 750.34 178.28 750.82 178.48   L 878.56 231.20   A 0.78 0.77 -69.7 0 0 879.59 230.72"
       id="path2" />
    <path
       stroke="#18764f"
       vector-effect="non-scaling-stroke"
       d="   M 810.14 316.29   Q 810.51 316.18 810.93 315.91   Q 853.92 288.73 874.71 242.41   A 1.18 1.17 -66.7 0 0 874.09 240.84   L 747.61 188.58   A 0.69 0.68 -62.5 0 0 746.77 188.85   L 743.93 193.42   Q 743.67 193.84 743.90 194.27   L 808.42 315.56   A 1.47 1.47 0.0 0 0 810.14 316.29"
       id="path3" />
    <path
       stroke="#18764f"
       vector-effect="non-scaling-stroke"
       d="   M 1308.73 168.18   C 1305.70 169.12 1293.50 171.48 1298.09 177.54   Q 1298.83 178.52 1301.22 179.51   Q 1363.82 205.43 1425.80 230.95   Q 1427.17 231.51 1427.63 230.10   Q 1443.56 181.24 1430.47 131.48   A 0.92 0.92 0.0 0 0 1429.30 130.83   Q 1369.11 149.49 1308.73 168.18"
       id="path4" />
    <path
       stroke="#18764f"
       vector-effect="non-scaling-stroke"
       d="   M 1358.10 316.26   A 1.39 1.29 20.6 0 0 1358.49 316.10   Q 1401.67 288.88 1422.56 242.27   Q 1422.98 241.32 1422.02 240.92   L 1295.64 188.66   Q 1294.98 188.38 1294.58 188.98   L 1291.74 193.27   Q 1291.40 193.79 1291.69 194.34   Q 1323.95 255.04 1356.38 315.65   Q 1356.88 316.59 1358.10 316.26"
       id="path5" />
    <path
       stroke="#18764f"
       vector-effect="non-scaling-stroke"
       d="   M 1245.99 338.75   Q 1299.10 346.83 1346.70 322.80   A 1.07 1.06 62.6 0 0 1347.16 321.34   L 1283.28 201.13   A 1.22 1.21 -20.0 0 0 1281.94 200.51   L 1271.50 202.75   A 0.86 0.85 89.6 0 0 1270.85 203.42   L 1244.91 337.22   Q 1244.66 338.54 1245.99 338.75"
       id="path6" />
    <path
       stroke="#18764f"
       vector-effect="non-scaling-stroke"
       d="   M 326.47 788.73   L 199.99 736.46   A 0.95 0.94 -63.3 0 0 198.81 736.85   L 196.22 741.21   Q 195.91 741.72 196.19 742.25   L 260.70 863.55   A 1.35 1.35 0.0 0 0 262.60 864.06   Q 306.02 836.82 326.98 790.01   A 0.96 0.96 0.0 0 0 326.47 788.73"
       id="path7" />
    <path
       stroke="#18764f"
       vector-effect="non-scaling-stroke"
       d="   M 874.08 788.64   L 747.69 736.42   A 0.73 0.72 27.0 0 0 746.81 736.70   L 743.86 741.22   Q 743.60 741.62 743.83 742.04   L 808.45 863.47   A 1.47 1.47 0.0 0 0 810.52 864.02   Q 853.74 836.82 874.71 790.21   A 1.18 1.17 23.2 0 0 874.08 788.64"
       id="path8" />
    <path
       stroke="#18764f"
       vector-effect="non-scaling-stroke"
       d="   M 697.93 886.51   Q 751.20 894.67 798.94 870.57   A 1.02 1.02 0.0 0 0 799.38 869.18   L 735.32 748.68   A 0.77 0.76 70.0 0 0 734.50 748.29   L 723.90 750.48   A 1.15 1.14 -89.9 0 0 723.01 751.38   L 697.07 885.28   Q 696.86 886.35 697.93 886.51"
       id="path9" />
    <path
       stroke="#18764f"
       vector-effect="non-scaling-stroke"
       d="   M 1356.94 864.06   Q 1357.48 864.49 1357.95 864.20   Q 1400.92 837.39 1422.54 790.41   A 1.33 1.33 0.0 0 0 1421.84 788.62   L 1295.48 736.41   A 0.72 0.71 27.2 0 0 1294.60 736.69   L 1291.74 741.15   A 0.99 0.99 0.0 0 0 1291.70 742.13   Q 1324.03 802.98 1356.48 863.76   Q 1356.64 864.04 1356.94 864.06"
       id="path10" />
    <path
       stroke="#18764f"
       vector-effect="non-scaling-stroke"
       d="   M 1148.69 833.08   C 1170.19 858.39 1201.51 876.34 1233.43 884.08   Q 1234.09 884.24 1234.22 883.58   Q 1247.13 817.31 1259.69 752.32   C 1261.07 745.20 1256.45 742.41 1250.82 747.07   Q 1199.68 789.41 1148.81 831.65   A 1.01 1.01 0.0 0 0 1148.69 833.08"
       id="path11" />
    <path
       stroke="#18764f"
       vector-effect="non-scaling-stroke"
       d="   M 1245.52 886.49   Q 1298.92 894.71 1346.81 870.56   A 0.95 0.95 0.0 0 0 1347.22 869.27   L 1283.24 748.85   A 1.07 1.07 0.0 0 0 1282.07 748.31   L 1271.49 750.56   Q 1270.96 750.67 1270.86 751.20   L 1244.83 885.51   Q 1244.67 886.36 1245.52 886.49"
       id="path12" />
    <path
       stroke="#80bca4"
       vector-effect="non-scaling-stroke"
       d="   M 1279.59 1292.17   C 1306.05 1292.16 1335.13 1281.56 1342.72 1253.24   C 1352.79 1215.63 1333.07 1180.45 1293.51 1174.68   C 1253.24 1168.81 1212.59 1187.27 1213.03 1233.56   Q 1213.04 1234.25 1213.72 1234.25   L 1250.49 1234.25   Q 1250.99 1234.25 1251.00 1233.75   C 1251.13 1217.98 1260.66 1208.50 1275.71 1207.33   C 1297.29 1205.66 1309.62 1221.97 1305.09 1242.68   C 1299.65 1267.53 1260.75 1265.85 1241.67 1265.48   A 0.51 0.51 0.0 0 0 1241.15 1266.01   L 1242.55 1313.83   Q 1242.56 1314.34 1243.08 1314.34   L 1277.44 1314.29   Q 1277.92 1314.29 1277.95 1313.81   L 1279.00 1292.74   Q 1279.03 1292.17 1279.59 1292.17"
       id="path13" />
    <path
       stroke="#80bca4"
       vector-effect="non-scaling-stroke"
       d="   M 1237.77 1348.56   C 1228.40 1366.29 1243.52 1384.81 1262.41 1382.95   C 1273.21 1381.88 1282.52 1374.74 1284.18 1363.67   C 1288.42 1335.48 1249.96 1325.50 1237.77 1348.56"
       id="path14" />
    <path
       stroke="#18764f"
       vector-effect="non-scaling-stroke"
       d="   M 149.82 1434.32   Q 203.19 1442.54 251.09 1418.42   A 1.06 1.05 -27.5 0 0 251.55 1416.98   L 187.75 1296.96   Q 187.25 1296.02 186.21 1296.23   L 175.98 1298.28   A 0.95 0.95 0.0 0 0 175.24 1299.03   L 149.19 1433.43   A 0.76 0.75 9.9 0 0 149.82 1434.32"
       id="path15" />
    <path
       stroke="#18764f"
       vector-effect="non-scaling-stroke"
       d="   M 600.81 1380.93   C 623.22 1406.04 652.45 1423.64 685.07 1431.82   A 1.17 1.16 12.4 0 0 686.50 1430.91   Q 699.16 1365.93 711.77 1300.84   Q 712.44 1297.38 712.17 1296.11   C 711.45 1292.66 707.24 1291.39 704.45 1293.69   Q 652.62 1336.62 600.92 1379.48   A 1.02 1.01 -40.7 0 0 600.81 1380.93"
       id="path16" />
    <path
       stroke="#18764f"
       vector-effect="non-scaling-stroke"
       d="   M 697.55 1434.30   Q 751.03 1442.57 799.02 1418.36   A 0.94 0.93 62.6 0 0 799.42 1417.09   L 735.37 1296.58   Q 735.08 1296.02 734.46 1296.14   L 723.79 1298.26   A 0.98 0.98 0.0 0 0 723.03 1299.02   L 697.00 1433.51   A 0.67 0.67 0.0 0 0 697.55 1434.30"
       id="path17" />
  </g>
  <path
     fill="#303030"
     d="   M 351.55 176.18   A 175.32 175.32 0.0 0 1 176.23 351.50   A 175.32 175.32 0.0 0 1 0.91 176.18   A 175.32 175.32 0.0 0 1 176.23 0.86   A 175.32 175.32 0.0 0 1 351.55 176.18   Z   M 176.82 149.84   L 183.50 150.97   Q 183.92 151.04 184.15 150.67   L 256.73 33.49   A 0.55 0.55 0.0 0 0 256.53 32.72   Q 209.36 6.30 155.25 13.03   A 0.64 0.64 0.0 0 0 154.69 13.76   L 176.32 149.33   Q 176.39 149.77 176.82 149.84   Z   M 63.78 56.17   C 62.43 57.42 60.20 59.14 58.71 60.95   Q 58.34 61.39 58.76 61.78   L 158.79 155.20   A 1.26 1.26 0.0 0 0 160.32 155.34   L 164.92 152.40   A 1.41 1.40 -21.1 0 0 165.55 150.99   L 143.96 15.76   A 1.07 1.07 0.0 0 0 142.68 14.89   Q 97.66 24.80 63.78 56.17   Z   M 330.64 119.73   C 318.60 87.23 296.17 57.90 266.94 39.06   A 0.66 0.65 32.4 0 0 266.03 39.26   L 193.86 155.71   A 1.12 1.11 39.4 0 0 194.00 157.07   L 197.80 161.05   A 1.05 1.04 -30.3 0 0 198.88 161.33   L 330.26 120.51   A 0.60 0.60 0.0 0 0 330.64 119.73   Z   M 152.28 164.05   L 51.41 69.85   A 0.65 0.65 0.0 0 0 50.47 69.91   C 29.08 96.00 15.25 127.30 12.34 161.06   Q 12.15 163.20 12.28 165.25   A 0.47 0.46 0.0 0 0 12.73 165.69   L 149.80 170.63   Q 150.44 170.65 150.65 170.05   L 152.48 164.86   Q 152.64 164.39 152.28 164.05   Z   M 202.87 178.38   L 330.46 231.08   A 0.85 0.84 35.0 0 0 331.34 230.93   C 332.31 230.05 332.66 228.08 333.01 226.95   Q 347.43 179.82 335.02 132.12   Q 334.61 130.53 333.04 131.02   L 202.81 171.46   Q 202.14 171.67 202.18 172.38   L 202.48 177.84   A 0.63 0.61 9.9 0 0 202.87 178.38   Z   M 149.87 181.94   A 3.26 3.19 61.7 0 0 148.24 181.43   L 12.50 176.57   A 0.93 0.93 0.0 0 0 11.54 177.51   Q 12.52 232.40 45.32 275.90   A 0.38 0.38 0.0 0 0 45.86 275.96   Q 97.74 232.95 149.70 189.83   C 152.59 187.42 153.39 184.19 149.87 181.94   Z   M 326.54 241.10   C 285.38 223.96 244.07 206.88 202.77 189.92   C 196.91 187.51 195.24 192.53 197.67 197.10   Q 229.33 256.61 261.07 316.29   A 0.71 0.71 0.0 0 0 262.08 316.56   Q 305.75 289.18 326.97 242.18   A 0.81 0.81 0.0 0 0 326.54 241.10   Z   M 164.04 199.49   L 159.51 196.52   A 0.77 0.76 -47.9 0 0 158.60 196.57   L 52.92 284.17   A 0.72 0.72 0.0 0 0 52.86 285.22   C 77.08 310.44 103.76 327.98 137.90 336.39   Q 138.41 336.52 138.51 336.00   L 164.68 201.00   Q 164.87 200.03 164.04 199.49   Z   M 149.93 338.65   Q 203.11 346.88 250.82 322.86   A 1.22 1.21 -27.4 0 0 251.35 321.21   L 187.40 200.87   A 0.60 0.60 0.0 0 0 186.75 200.56   L 175.94 202.85   A 0.82 0.82 0.0 0 0 175.30 203.49   L 149.31 337.76   A 0.76 0.75 -80.1 0 0 149.93 338.65   Z"
     id="path18" />
  <path
     fill="#303030"
     d="   M 719.76 351.51   C 657.29 350.00 601.68 315.80 570.72 261.80   C 528.18 187.61 548.79 90.04 616.28 37.96   C 685.10 -15.14 780.39 -10.86 844.05 48.43   C 901.56 102.00 915.15 186.04 880.09 255.82   C 849.90 315.91 787.07 353.13 719.76 351.51   Z   M 732.08 150.47   L 804.60 33.39   A 0.44 0.44 0.0 0 0 804.44 32.77   Q 757.21 6.29 703.02 13.02   A 0.63 0.63 0.0 0 0 702.48 13.75   L 724.07 148.92   A 1.17 1.17 0.0 0 0 725.05 149.90   L 731.17 150.89   Q 731.77 150.98 732.08 150.47   Z   M 606.75 60.67   Q 606.08 61.33 606.77 61.96   L 706.95 155.53   A 0.64 0.63 -39.6 0 0 707.73 155.60   L 712.62 152.46   A 1.64 1.64 0.0 0 0 713.35 150.82   L 691.71 15.52   Q 691.55 14.52 690.57 14.75   Q 642.06 25.84 606.75 60.67   Z   M 814.02 38.97   L 741.48 156.00   Q 741.17 156.50 741.59 156.92   L 745.74 161.13   A 0.87 0.86 -30.7 0 0 746.62 161.35   L 877.76 120.60   Q 878.81 120.28 878.41 119.26   Q 859.10 69.00 814.64 38.83   A 0.44 0.44 0.0 0 0 814.02 38.97   Z   M 697.63 161.80   C 665.06 131.12 632.30 100.52 599.49 70.18   A 0.98 0.98 0.0 0 0 598.07 70.28   Q 563.94 111.41 559.75 164.98   A 0.68 0.67 2.8 0 0 560.41 165.70   Q 627.45 168.09 694.84 170.51   C 700.81 170.73 701.56 165.50 697.63 161.80   Z   M 879.59 230.72   Q 895.77 181.98 882.88 132.32   Q 882.35 130.28 880.34 131.08   Q 879.05 131.60 878.96 131.63   Q 814.58 151.54 750.22 171.61   A 0.62 0.62 0.0 0 0 749.79 172.25   L 750.29 177.76   Q 750.34 178.28 750.82 178.48   L 878.56 231.20   A 0.78 0.77 -69.7 0 0 879.59 230.72   Z   M 697.93 189.42   C 702.50 185.62 699.40 181.59 694.51 181.41   Q 627.31 178.95 560.30 176.58   A 0.88 0.88 0.0 0 0 559.38 177.47   Q 560.27 232.30 593.06 275.74   A 0.55 0.54 51.7 0 0 593.85 275.84   Q 645.84 232.69 697.93 189.42   Z   M 810.14 316.29   Q 810.51 316.18 810.93 315.91   Q 853.92 288.73 874.71 242.41   A 1.18 1.17 -66.7 0 0 874.09 240.84   L 747.61 188.58   A 0.69 0.68 -62.5 0 0 746.77 188.85   L 743.93 193.42   Q 743.67 193.84 743.90 194.27   L 808.42 315.56   A 1.47 1.47 0.0 0 0 810.14 316.29   Z   M 600.65 285.16   C 624.09 310.33 652.38 328.01 685.76 336.41   A 0.44 0.44 0.0 0 0 686.30 336.07   L 712.56 200.65   A 0.94 0.92 22.9 0 0 712.16 199.70   L 707.37 196.50   Q 706.88 196.18 706.43 196.55   L 600.71 284.21   A 0.65 0.65 0.0 0 0 600.65 285.16   Z   M 697.49 338.61   Q 750.88 346.95 798.75 322.80   Q 799.76 322.29 799.23 321.29   L 735.19 200.82   A 0.62 0.62 0.0 0 0 734.51 200.50   L 724.10 202.86   A 1.42 1.41 -1.3 0 0 723.03 203.97   L 697.07 338.01   A 0.51 0.51 0.0 0 0 697.49 338.61   Z"
     id="path19" />
  <path
     fill="#303030"
     d="   M 1200.68 336.61   C 1144.52 312.35 1103.99 257.15 1097.46 196.31   C 1086.43 93.52 1164.64 3.07 1268.73 0.77   Q 1278.59 0.55 1288.69 1.71   C 1360.79 10.03 1420.40 57.80 1440.50 128.24   C 1461.34 201.26 1432.37 279.21 1370.01 321.51   C 1320.40 355.16 1255.70 360.39 1200.68 336.61   Z   M 1279.95 150.39   L 1352.34 33.51   A 0.55 0.55 0.0 0 0 1352.14 32.74   Q 1304.84 6.20 1250.56 13.10   A 0.35 0.34 82.1 0 0 1250.26 13.50   L 1271.88 148.95   A 1.17 1.15 89.6 0 0 1272.84 149.91   L 1278.88 150.88   A 1.07 1.06 20.2 0 0 1279.95 150.39   Z   M 1154.18 61.06   A 0.38 0.37 44.5 0 0 1154.19 61.60   L 1254.68 155.45   Q 1255.13 155.87 1255.64 155.53   L 1260.84 152.12   Q 1261.30 151.82 1261.22 151.27   L 1239.53 15.49   A 0.87 0.87 0.0 0 0 1238.48 14.77   Q 1189.61 25.82 1154.18 61.06   Z   M 1361.68 39.20   L 1289.34 155.95   Q 1289.03 156.45 1289.44 156.89   L 1293.42 161.11   Q 1293.82 161.53 1294.38 161.36   L 1426.02 120.47   Q 1426.64 120.28 1426.41 119.67   Q 1409.92 76.18 1373.56 47.22   Q 1368.19 42.94 1363.02 38.95   Q 1362.22 38.33 1361.68 39.20   Z   M 1145.92 70.24   Q 1111.87 111.24 1107.58 164.70   Q 1107.50 165.69 1108.49 165.72   Q 1175.27 168.07 1242.75 170.54   Q 1248.70 170.76 1247.80 164.40   Q 1247.73 163.90 1247.36 163.56   L 1147.36 70.15   A 0.99 0.99 0.0 0 0 1145.92 70.24   Z   M 1308.73 168.18   C 1305.70 169.12 1293.50 171.48 1298.09 177.54   Q 1298.83 178.52 1301.22 179.51   Q 1363.82 205.43 1425.80 230.95   Q 1427.17 231.51 1427.63 230.10   Q 1443.56 181.24 1430.47 131.48   A 0.92 0.92 0.0 0 0 1429.30 130.83   Q 1369.11 149.49 1308.73 168.18   Z   M 1244.57 190.58   C 1249.09 186.84 1249.14 181.65 1242.27 181.40   Q 1175.28 178.97 1108.65 176.59   Q 1107.15 176.54 1107.18 178.04   Q 1108.28 232.53 1140.83 275.72   Q 1141.19 276.20 1141.65 275.81   Q 1193.40 232.88 1244.57 190.58   Z   M 1358.10 316.26   A 1.39 1.29 20.6 0 0 1358.49 316.10   Q 1401.67 288.88 1422.56 242.27   Q 1422.98 241.32 1422.02 240.92   L 1295.64 188.66   Q 1294.98 188.38 1294.58 188.98   L 1291.74 193.27   Q 1291.40 193.79 1291.69 194.34   Q 1323.95 255.04 1356.38 315.65   Q 1356.88 316.59 1358.10 316.26   Z   M 1157.07 293.67   Q 1189.35 324.97 1233.43 336.56   A 0.53 0.52 13.0 0 0 1234.08 336.16   L 1260.32 200.93   A 1.43 1.43 0.0 0 0 1259.69 199.46   L 1255.25 196.61   A 0.99 0.98 41.3 0 0 1254.09 196.68   L 1148.60 284.11   A 0.83 0.82 -40.9 0 0 1148.51 285.29   C 1151.14 288.28 1154.94 291.60 1157.07 293.67   Z   M 1245.99 338.75   Q 1299.10 346.83 1346.70 322.80   A 1.07 1.06 62.6 0 0 1347.16 321.34   L 1283.28 201.13   A 1.22 1.21 -20.0 0 0 1281.94 200.51   L 1271.50 202.75   A 0.86 0.85 89.6 0 0 1270.85 203.42   L 1244.91 337.22   Q 1244.66 338.54 1245.99 338.75   Z"
     id="path20" />
  <path
     fill="#00bb6e"
     d="   M 1298.09 177.54   C 1293.50 171.48 1305.70 169.12 1308.73 168.18   Q 1369.11 149.49 1429.30 130.83   A 0.92 0.92 0.0 0 1 1430.47 131.48   Q 1443.56 181.24 1427.63 230.10   Q 1427.17 231.51 1425.80 230.95   Q 1363.82 205.43 1301.22 179.51   Q 1298.83 178.52 1298.09 177.54   Z"
     id="path21"
     style="fill:#00a86b;fill-opacity:1" />
  <path
     fill="#00bb6e"
     d="   M 202.87 178.38   A 0.63 0.61 9.9 0 1 202.48 177.84   L 202.18 172.38   Q 202.14 171.67 202.81 171.46   L 333.04 131.02   Q 334.61 130.53 335.02 132.12   Q 347.43 179.82 333.01 226.95   C 332.66 228.08 332.31 230.05 331.34 230.93   A 0.85 0.84 35.0 0 1 330.46 231.08   L 202.87 178.38   Z"
     id="path22"
     style="fill:#00a86b;fill-opacity:1" />
  <path
     fill="#00bb6e"
     d="   M 879.59 230.72   A 0.78 0.77 -69.7 0 1 878.56 231.20   L 750.82 178.48   Q 750.34 178.28 750.29 177.76   L 749.79 172.25   A 0.62 0.62 0.0 0 1 750.22 171.61   Q 814.58 151.54 878.96 131.63   Q 879.05 131.60 880.34 131.08   Q 882.35 130.28 882.88 132.32   Q 895.77 181.98 879.59 230.72   Z"
     id="path23"
     style="fill:#00a86b;fill-opacity:1" />
  <path
     fill="#00bb6e"
     d="   M 810.14 316.29   A 1.47 1.47 0.0 0 1 808.42 315.56   L 743.90 194.27   Q 743.67 193.84 743.93 193.42   L 746.77 188.85   A 0.69 0.68 -62.5 0 1 747.61 188.58   L 874.09 240.84   A 1.18 1.17 -66.7 0 1 874.71 242.41   Q 853.92 288.73 810.93 315.91   Q 810.51 316.18 810.14 316.29   Z"
     id="path24"
     style="fill:#00a86b;fill-opacity:1" />
  <path
     fill="#00bb6e"
     d="   M 1358.10 316.26   Q 1356.88 316.59 1356.38 315.65   Q 1323.95 255.04 1291.69 194.34   Q 1291.40 193.79 1291.74 193.27   L 1294.58 188.98   Q 1294.98 188.38 1295.64 188.66   L 1422.02 240.92   Q 1422.98 241.32 1422.56 242.27   Q 1401.67 288.88 1358.49 316.10   A 1.39 1.29 20.6 0 1 1358.10 316.26   Z"
     id="path25"
     style="fill:#00a86b;fill-opacity:1" />
  <path
     fill="#00bb6e"
     d="   M 1245.99 338.75   Q 1244.66 338.54 1244.91 337.22   L 1270.85 203.42   A 0.86 0.85 89.6 0 1 1271.50 202.75   L 1281.94 200.51   A 1.22 1.21 -20.0 0 1 1283.28 201.13   L 1347.16 321.34   A 1.07 1.06 62.6 0 1 1346.70 322.80   Q 1299.10 346.83 1245.99 338.75   Z"
     id="path26"
     style="fill:#00a86b;fill-opacity:1" />
  <path
     fill="#303030"
     d="   M 322.9236 820.0090   A 175.43 175.34 33.2 0 1 80.1203 870.6683   A 175.43 175.34 33.2 0 1 29.3364 627.8910   A 175.43 175.34 33.2 0 1 272.1397 577.2317   A 175.43 175.34 33.2 0 1 322.9236 820.0090   Z   M 256.56 580.54   Q 209.36 554.13 155.22 560.80   A 0.62 0.62 0.0 0 0 154.68 561.52   L 176.32 697.02   Q 176.41 697.57 176.95 697.66   L 183.46 698.78   A 0.70 0.68 -68.6 0 0 184.16 698.46   L 256.76 581.28   Q 257.05 580.81 256.56 580.54   Z   M 64.69 603.19   Q 60.41 607.10 58.72 608.54   Q 58.16 609.02 58.70 609.52   L 159.05 703.24   A 0.84 0.84 0.0 0 0 160.08 703.33   L 164.93 700.18   A 1.44 1.44 0.0 0 0 165.57 698.74   L 143.96 563.57   A 1.09 1.09 0.0 0 0 142.65 562.68   Q 98.34 572.46 64.69 603.19   Z   M 330.71 667.46   C 318.36 634.63 296.23 606.17 267.05 586.85   A 0.73 0.72 -56.9 0 0 266.03 587.07   L 193.84 703.55   A 1.01 1.01 0.0 0 0 193.95 704.76   L 197.77 708.94   Q 198.16 709.36 198.70 709.19   L 330.29 668.32   Q 330.96 668.12 330.71 667.46   Z   M 51.50 617.70   Q 51.46 617.36 50.87 617.63   Q 50.39 617.86 50.05 618.27   C 28.22 644.89 14.14 677.73 12.16 712.33   A 1.14 1.14 0.0 0 0 13.25 713.53   Q 79.40 715.90 145.80 718.26   C 148.19 718.35 150.50 718.44 151.76 716.28   Q 153.60 713.16 151.41 711.09   Q 128.20 689.07 51.65 618.01   Q 51.52 617.88 51.50 617.70   Z   M 203.15 726.19   L 330.43 778.78   A 1.06 1.05 -69.5 0 0 331.83 778.14   Q 348.03 729.26 334.84 679.37   A 0.88 0.88 0.0 0 0 333.72 678.75   L 202.62 719.42   Q 202.15 719.57 202.19 720.06   L 202.54 725.33   Q 202.58 725.95 203.15 726.19   Z   M 26.57 724.79   Q 19.93 724.54 12.75 724.50   A 1.19 1.19 0.0 0 0 11.55 725.72   Q 12.66 780.24 45.18 823.53   A 0.62 0.61 -38.0 0 0 46.06 823.63   Q 97.58 780.88 149.22 738.05   C 153.50 734.49 153.33 729.47 146.96 729.23   Q 86.76 726.99 26.57 724.79   Z   M 326.47 788.73   L 199.99 736.46   A 0.95 0.94 -63.3 0 0 198.81 736.85   L 196.22 741.21   Q 195.91 741.72 196.19 742.25   L 260.70 863.55   A 1.35 1.35 0.0 0 0 262.60 864.06   Q 306.02 836.82 326.98 790.01   A 0.96 0.96 0.0 0 0 326.47 788.73   Z   M 52.89 833.08   C 76.58 857.72 104.40 875.96 137.68 884.14   A 0.71 0.71 0.0 0 0 138.55 883.58   L 164.75 748.41   Q 164.86 747.83 164.36 747.51   L 159.53 744.35   Q 159.02 744.01 158.54 744.41   L 52.95 831.97   Q 52.32 832.49 52.89 833.08   Z   M 149.94 886.45   Q 203.42 894.72 251.30 870.43   A 0.72 0.72 0.0 0 0 251.61 869.45   L 187.64 749.15   A 1.28 1.27 70.1 0 0 186.26 748.50   L 176.03 750.62   A 0.94 0.93 -0.5 0 0 175.31 751.35   L 149.30 885.54   A 0.78 0.77 10.1 0 0 149.94 886.45   Z"
     id="path27" />
  <path
     fill="#303030"
     d="   M 899.38 724.00   A 175.38 175.38 0.0 0 1 724.00 899.38   A 175.38 175.38 0.0 0 1 548.62 724.00   A 175.38 175.38 0.0 0 1 724.00 548.62   A 175.38 175.38 0.0 0 1 899.38 724.00   Z   M 724.70 697.66   L 731.17 698.77   Q 731.73 698.87 732.03 698.38   L 804.46 581.45   A 0.72 0.71 -59.8 0 0 804.20 580.45   Q 757.04 554.13 703.00 560.81   A 0.61 0.61 0.0 0 0 702.47 561.51   L 724.14 697.09   Q 724.22 697.58 724.70 697.66   Z   M 607.39 610.26   Q 657.07 656.85 706.92 703.28   Q 707.33 703.65 707.79 703.36   L 712.80 700.17   A 1.31 1.30 -20.8 0 0 713.39 698.87   L 691.69 563.09   A 0.71 0.70 -11.1 0 0 690.83 562.52   Q 641.96 573.57 606.49 608.74   A 0.68 0.61 -18.9 0 0 606.34 609.01   Q 606.20 609.66 606.91 609.96   Q 607.23 610.10 607.39 610.26   Z   M 878.59 667.62   C 866.35 634.66 843.93 606.19 814.60 586.64   A 0.42 0.41 -57.1 0 0 814.02 586.77   L 741.57 703.72   A 0.84 0.82 -51.1 0 0 741.67 704.73   L 745.68 708.95   Q 746.05 709.34 746.56 709.18   L 878.26 668.28   A 0.51 0.51 0.0 0 0 878.59 667.62   Z   M 563.94 713.54   Q 626.43 715.93 688.93 718.09   C 692.33 718.21 696.95 719.15 699.17 716.82   C 701.27 714.62 700.18 711.95 698.11 710.02   Q 648.76 663.93 599.15 617.58   A 0.55 0.55 0.0 0 0 598.36 617.63   C 576.05 644.69 562.29 677.11 559.85 712.49   Q 559.78 713.53 560.82 713.50   Q 562.17 713.47 563.94 713.54   Z   M 750.70 726.08   L 878.07 778.72   A 1.26 1.26 0.0 0 0 879.75 777.95   Q 895.66 729.42 882.78 679.91   Q 882.41 678.48 881.00 678.92   L 750.57 719.39   A 0.86 0.85 79.4 0 0 749.97 720.27   L 750.36 725.60   A 0.57 0.55 10.5 0 0 750.70 726.08   Z   M 697.84 729.84   A 3.51 3.46 -26.6 0 0 696.05 729.26   L 560.74 724.39   A 1.33 1.33 0.0 0 0 559.36 725.75   Q 560.44 780.17 592.89 823.37   Q 593.38 824.02 594.00 823.50   Q 645.82 780.53 697.22 737.88   C 700.08 735.51 701.46 732.30 697.84 729.84   Z   M 874.08 788.64   L 747.69 736.42   A 0.73 0.72 27.0 0 0 746.81 736.70   L 743.86 741.22   Q 743.60 741.62 743.83 742.04   L 808.45 863.47   A 1.47 1.47 0.0 0 0 810.52 864.02   Q 853.74 836.82 874.71 790.21   A 1.18 1.17 23.2 0 0 874.08 788.64   Z   M 600.66 832.96   C 623.37 857.87 652.91 875.86 685.49 884.17   Q 686.21 884.36 686.35 883.63   L 712.57 748.37   A 0.84 0.82 22.3 0 0 712.20 747.51   L 707.37 744.34   A 0.86 0.85 41.4 0 0 706.36 744.40   L 600.73 831.98   A 0.68 0.68 0.0 0 0 600.66 832.96   Z   M 697.93 886.51   Q 751.20 894.67 798.94 870.57   A 1.02 1.02 0.0 0 0 799.38 869.18   L 735.32 748.68   A 0.77 0.76 70.0 0 0 734.50 748.29   L 723.90 750.48   A 1.15 1.14 -89.9 0 0 723.01 751.38   L 697.07 885.28   Q 696.86 886.35 697.93 886.51   Z"
     id="path28" />
  <path
     fill="#303030"
     d="   M 1246.50 897.52   C 1174.49 886.86 1117.43 833.86 1100.96 763.25   C 1086.31 700.42 1108.13 632.17 1158.17 590.31   C 1222.78 536.27 1317.57 534.32 1383.11 588.41   C 1437.06 632.93 1460.16 704.83 1440.08 772.57   C 1415.19 856.53 1333.99 910.47 1246.50 897.52   Z   M 1272.72 697.65   L 1278.96 698.77   A 0.85 0.84 20.6 0 0 1279.83 698.38   L 1352.14 581.64   A 0.94 0.94 0.0 0 0 1351.80 580.32   Q 1304.85 554.21 1251.05 560.76   Q 1250.19 560.87 1250.33 561.72   L 1271.90 696.81   Q 1272.01 697.52 1272.72 697.65   Z   M 1154.26 609.48   L 1254.71 703.29   A 0.72 0.71 -40.2 0 0 1255.59 703.36   L 1260.77 700.04   Q 1261.33 699.68 1261.23 699.02   L 1239.56 563.48   A 1.09 1.09 0.0 0 0 1238.24 562.59   Q 1189.60 573.73 1154.25 608.77   A 0.50 0.50 0.0 0 0 1154.26 609.48   Z   M 1426.33 667.62   C 1414.15 634.68 1391.83 606.20 1362.59 586.79   A 0.63 0.62 32.7 0 0 1361.71 586.98   L 1289.33 703.78   Q 1288.99 704.31 1289.43 704.76   L 1293.57 709.02   Q 1293.87 709.33 1294.29 709.20   L 1426.00 668.28   Q 1426.51 668.12 1426.33 667.62   Z   M 1111.44 713.53   Q 1174.18 715.92 1236.94 718.09   C 1240.27 718.21 1244.77 719.13 1246.96 716.86   C 1249.11 714.64 1247.96 711.92 1245.87 709.97   Q 1196.36 663.69 1147.02 617.65   A 0.70 0.70 0.0 0 0 1146.00 617.72   C 1123.89 644.87 1110.18 677.00 1107.59 712.37   A 1.06 1.06 0.0 0 0 1108.68 713.51   Q 1109.79 713.47 1111.44 713.53   Z   M 1299.11 726.33   L 1426.16 778.83   A 0.75 0.75 0.0 0 0 1427.15 778.38   C 1438.56 746.61 1439.12 711.54 1430.35 679.02   A 0.55 0.54 73.8 0 0 1429.67 678.64   L 1298.48 719.35   A 1.06 1.06 0.0 0 0 1297.74 720.44   L 1298.09 724.93   A 1.66 1.65 9.1 0 0 1299.11 726.33   Z   M 1245.99 729.89   A 2.60 2.59 -23.7 0 0 1244.39 729.27   L 1108.18 724.39   Q 1107.15 724.35 1107.17 725.39   Q 1108.17 780.20 1140.88 823.62   A 0.49 0.49 0.0 0 0 1141.58 823.70   Q 1193.25 780.84 1245.00 737.91   C 1247.90 735.50 1249.31 732.72 1245.99 729.89   Z   M 1356.94 864.06   Q 1357.48 864.49 1357.95 864.20   Q 1400.92 837.39 1422.54 790.41   A 1.33 1.33 0.0 0 0 1421.84 788.62   L 1295.48 736.41   A 0.72 0.71 27.2 0 0 1294.60 736.69   L 1291.74 741.15   A 0.99 0.99 0.0 0 0 1291.70 742.13   Q 1324.03 802.98 1356.48 863.76   Q 1356.64 864.04 1356.94 864.06   Z   M 1148.69 833.08   C 1170.19 858.39 1201.51 876.34 1233.43 884.08   Q 1234.09 884.24 1234.22 883.58   Q 1247.13 817.31 1259.69 752.32   C 1261.07 745.20 1256.45 742.41 1250.82 747.07   Q 1199.68 789.41 1148.81 831.65   A 1.01 1.01 0.0 0 0 1148.69 833.08   Z   M 1245.52 886.49   Q 1298.92 894.71 1346.81 870.56   A 0.95 0.95 0.0 0 0 1347.22 869.27   L 1283.24 748.85   A 1.07 1.07 0.0 0 0 1282.07 748.31   L 1271.49 750.56   Q 1270.96 750.67 1270.86 751.20   L 1244.83 885.51   Q 1244.67 886.36 1245.52 886.49   Z"
     id="path29" />
  <path
     fill="#00bb6e"
     d="   M 326.47 788.73   A 0.96 0.96 0.0 0 1 326.98 790.01   Q 306.02 836.82 262.60 864.06   A 1.35 1.35 0.0 0 1 260.70 863.55   L 196.19 742.25   Q 195.91 741.72 196.22 741.21   L 198.81 736.85   A 0.95 0.94 -63.3 0 1 199.99 736.46   L 326.47 788.73   Z"
     id="path30"
     style="fill:#00a86b;fill-opacity:1" />
  <path
     fill="#00bb6e"
     d="   M 874.08 788.64   A 1.18 1.17 23.2 0 1 874.71 790.21   Q 853.74 836.82 810.52 864.02   A 1.47 1.47 0.0 0 1 808.45 863.47   L 743.83 742.04   Q 743.60 741.62 743.86 741.22   L 746.81 736.70   A 0.73 0.72 27.0 0 1 747.69 736.42   L 874.08 788.64   Z"
     id="path31"
     style="fill:#00a86b;fill-opacity:1" />
  <path
     fill="#00bb6e"
     d="   M 1356.94 864.06   Q 1356.64 864.04 1356.48 863.76   Q 1324.03 802.98 1291.70 742.13   A 0.99 0.99 0.0 0 1 1291.74 741.15   L 1294.60 736.69   A 0.72 0.71 27.2 0 1 1295.48 736.41   L 1421.84 788.62   A 1.33 1.33 0.0 0 1 1422.54 790.41   Q 1400.92 837.39 1357.95 864.20   Q 1357.48 864.49 1356.94 864.06   Z"
     id="path32"
     style="fill:#00a86b;fill-opacity:1" />
  <path
     fill="#00bb6e"
     d="   M 1233.43 884.08   C 1201.51 876.34 1170.19 858.39 1148.69 833.08   A 1.01 1.01 0.0 0 1 1148.81 831.65   Q 1199.68 789.41 1250.82 747.07   C 1256.45 742.41 1261.07 745.20 1259.69 752.32   Q 1247.13 817.31 1234.22 883.58   Q 1234.09 884.24 1233.43 884.08   Z"
     id="path33"
     style="fill:#00a86b;fill-opacity:1" />
  <path
     fill="#00bb6e"
     d="   M 697.93 886.51   Q 696.86 886.35 697.07 885.28   L 723.01 751.38   A 1.15 1.14 -89.9 0 1 723.90 750.48   L 734.50 748.29   A 0.77 0.76 70.0 0 1 735.32 748.68   L 799.38 869.18   A 1.02 1.02 0.0 0 1 798.94 870.57   Q 751.20 894.67 697.93 886.51   Z"
     id="path34"
     style="fill:#00a86b;fill-opacity:1" />
  <path
     fill="#00bb6e"
     d="   M 1245.52 886.49   Q 1244.67 886.36 1244.83 885.51   L 1270.86 751.20   Q 1270.96 750.67 1271.49 750.56   L 1282.07 748.31   A 1.07 1.07 0.0 0 1 1283.24 748.85   L 1347.22 869.27   A 0.95 0.95 0.0 0 1 1346.81 870.56   Q 1298.92 894.71 1245.52 886.49   Z"
     id="path35"
     style="fill:#00a86b;fill-opacity:1" />
  <path
     fill="#007948"
     d="   M 1446.51 1271.48   A 175.40 175.40 0.0 0 1 1271.11 1446.88   A 175.40 175.40 0.0 0 1 1095.71 1271.48   A 175.40 175.40 0.0 0 1 1271.11 1096.08   A 175.40 175.40 0.0 0 1 1446.51 1271.48   Z   M 1279.59 1292.17   C 1306.05 1292.16 1335.13 1281.56 1342.72 1253.24   C 1352.79 1215.63 1333.07 1180.45 1293.51 1174.68   C 1253.24 1168.81 1212.59 1187.27 1213.03 1233.56   Q 1213.04 1234.25 1213.72 1234.25   L 1250.49 1234.25   Q 1250.99 1234.25 1251.00 1233.75   C 1251.13 1217.98 1260.66 1208.50 1275.71 1207.33   C 1297.29 1205.66 1309.62 1221.97 1305.09 1242.68   C 1299.65 1267.53 1260.75 1265.85 1241.67 1265.48   A 0.51 0.51 0.0 0 0 1241.15 1266.01   L 1242.55 1313.83   Q 1242.56 1314.34 1243.08 1314.34   L 1277.44 1314.29   Q 1277.92 1314.29 1277.95 1313.81   L 1279.00 1292.74   Q 1279.03 1292.17 1279.59 1292.17   Z   M 1237.77 1348.56   C 1228.40 1366.29 1243.52 1384.81 1262.41 1382.95   C 1273.21 1381.88 1282.52 1374.74 1284.18 1363.67   C 1288.42 1335.48 1249.96 1325.50 1237.77 1348.56   Z"
     id="path36"
     style="fill:#00a86b;fill-opacity:1" />
  <path
     fill="#303030"
     d="   M 224.07 1103.19   C 327.45 1132.40 379.94 1247.44 335.98 1344.71   C 305.48 1412.20 229.63 1455.95 155.26 1445.83   C 83.85 1436.11 25.76 1387.37 6.85 1317.43   C -9.83 1255.76 8.58 1188.84 54.80 1145.04   C 100.04 1102.18 163.92 1086.19 224.07 1103.19   Z   M 177.23 1245.49   L 183.18 1246.58   A 1.05 1.04 -68.7 0 0 184.26 1246.10   L 256.69 1129.21   A 0.66 0.66 0.0 0 0 256.45 1128.29   Q 209.20 1101.87 155.07 1108.62   A 0.49 0.48 82.0 0 0 154.65 1109.18   L 176.25 1244.48   Q 176.38 1245.33 177.23 1245.49   Z   M 58.59 1157.23   L 158.99 1251.01   Q 159.35 1251.34 159.79 1251.13   C 161.95 1250.10 165.84 1248.41 165.39 1245.57   Q 154.66 1178.35 143.96 1111.41   A 1.17 1.16 -10.7 0 0 142.55 1110.46   Q 93.85 1121.55 58.58 1156.66   A 0.40 0.40 0.0 0 0 58.59 1157.23   Z   M 330.74 1215.09   C 317.89 1181.97 296.11 1153.80 266.82 1134.54   A 0.47 0.46 32.4 0 0 266.16 1134.68   L 193.73 1251.56   A 0.79 0.77 39.6 0 0 193.83 1252.50   L 197.77 1256.73   Q 198.18 1257.17 198.75 1256.99   L 330.22 1216.16   Q 331.05 1215.90 330.74 1215.09   Z   M 150.14 1257.73   C 117.48 1226.75 84.40 1196.14 51.37 1165.54   A 0.67 0.67 0.0 0 0 50.40 1165.61   C 28.96 1191.89 15.36 1222.90 12.23 1256.80   Q 12.05 1258.75 12.34 1260.79   Q 12.42 1261.31 12.94 1261.33   Q 80.28 1263.72 147.61 1266.18   C 153.10 1266.38 153.54 1260.96 150.14 1257.73   Z   M 203.13 1274.00   L 330.20 1326.50   A 1.29 1.29 0.0 0 0 331.92 1325.71   Q 348.01 1276.88 334.79 1227.09   A 0.79 0.79 0.0 0 0 333.79 1226.54   L 202.81 1267.19   Q 202.12 1267.40 202.18 1268.13   L 202.56 1273.21   Q 202.61 1273.78 203.13 1274.00   Z   M 19.32 1272.48   C 17.39 1272.42 15.14 1272.15 12.80 1272.28   Q 11.52 1272.35 11.55 1273.63   Q 12.68 1328.10 45.20 1371.34   Q 45.55 1371.81 46.00 1371.44   Q 97.60 1328.73 149.12 1285.91   Q 151.44 1283.98 151.94 1282.73   C 152.80 1280.57 151.22 1277.22 148.43 1277.11   Q 108.85 1275.54 19.32 1272.48   Z   M 326.41 1336.65   Q 264.82 1311.09 203.75 1285.97   C 201.66 1285.11 200.25 1284.14 198.09 1285.58   C 196.02 1286.96 195.81 1289.17 196.98 1291.38   Q 229.06 1351.75 261.04 1411.83   Q 261.44 1412.60 262.17 1412.14   Q 305.72 1384.81 326.91 1337.91   A 0.94 0.94 0.0 0 0 326.41 1336.65   Z   M 53.30 1381.39   C 76.67 1406.30 104.56 1423.73 137.90 1431.94   A 0.48 0.47 12.4 0 0 138.49 1431.57   L 164.62 1296.94   A 2.04 2.03 -68.6 0 0 163.70 1294.82   L 159.36 1292.11   A 0.63 0.62 -48.6 0 0 158.63 1292.16   L 53.42 1379.38   Q 52.29 1380.32 53.30 1381.39   Z   M 149.82 1434.32   Q 203.19 1442.54 251.09 1418.42   A 1.06 1.05 -27.5 0 0 251.55 1416.98   L 187.75 1296.96   Q 187.25 1296.02 186.21 1296.23   L 175.98 1298.28   A 0.95 0.95 0.0 0 0 175.24 1299.03   L 149.19 1433.43   A 0.76 0.75 9.9 0 0 149.82 1434.32   Z"
     id="path37" />
  <path
     fill="#303030"
     d="   M 708.95 1446.50   C 606.60 1436.32 532.12 1343.16 551.68 1240.04   Q 565.95 1164.86 628.77 1124.52   Q 660.72 1104.01 699.87 1098.49   C 773.46 1088.11 842.14 1123.42 877.96 1187.79   C 912.27 1249.43 904.70 1328.59 859.12 1383.42   Q 815.77 1435.57 747.29 1445.60   C 734.78 1447.43 721.77 1447.78 708.95 1446.50   Z   M 724.95 1245.51   L 731.18 1246.55   A 0.85 0.84 -69.5 0 0 732.05 1246.15   L 804.49 1129.21   Q 804.80 1128.71 804.28 1128.41   C 772.81 1110.46 739.11 1104.63 702.99 1108.56   A 0.60 0.60 0.0 0 0 702.46 1109.25   L 724.09 1244.64   A 1.06 1.05 0.4 0 0 724.95 1245.51   Z   M 606.51 1157.33   L 706.85 1251.06   Q 707.29 1251.48 707.79 1251.15   L 712.91 1247.86   A 1.11 1.10 69.1 0 0 713.40 1246.75   L 691.70 1111.08   A 0.88 0.87 -10.7 0 0 690.64 1110.36   Q 641.88 1121.44 606.50 1156.57   Q 606.11 1156.96 606.51 1157.33   Z   M 878.46 1215.14   C 865.99 1182.06 844.07 1154.34 814.88 1134.64   Q 814.26 1134.22 813.86 1134.86   L 741.57 1251.49   A 0.81 0.81 0.0 0 0 741.66 1252.47   L 745.63 1256.80   Q 745.97 1257.18 746.46 1257.03   L 877.96 1216.18   A 0.80 0.79 70.9 0 0 878.46 1215.14   Z   M 698.83 1258.55   C 665.79 1227.49 632.72 1196.39 599.36 1165.69   A 0.90 0.90 0.0 0 0 598.06 1165.78   C 575.89 1192.84 562.35 1225.11 559.88 1260.29   A 0.96 0.96 0.0 0 0 560.81 1261.32   Q 627.38 1263.69 694.28 1266.13   C 698.65 1266.29 702.98 1262.45 698.83 1258.55   Z   M 750.93 1273.97   L 877.86 1326.45   A 1.46 1.45 20.1 0 0 879.79 1325.56   Q 895.77 1276.67 882.55 1226.90   A 0.61 0.60 74.3 0 0 881.79 1226.47   L 750.66 1267.19   Q 749.91 1267.42 749.97 1268.20   L 750.33 1273.13   A 0.98 0.97 -80.8 0 0 750.93 1273.97   Z   M 696.96 1285.92   C 701.58 1282.09 701.00 1277.24 694.25 1277.00   Q 628.09 1274.62 560.55 1272.20   Q 559.38 1272.15 559.40 1273.33   Q 560.34 1328.06 593.07 1371.39   Q 593.39 1371.81 593.80 1371.47   Q 645.44 1328.63 696.96 1285.92   Z   M 874.71 1336.82   Q 813.57 1311.48 752.77 1286.46   C 750.48 1285.52 748.54 1284.14 746.23 1285.41   C 743.49 1286.92 743.78 1289.50 745.13 1292.04   Q 777.05 1352.11 808.88 1411.91   A 0.73 0.73 0.0 0 0 809.91 1412.18   Q 853.76 1384.70 874.95 1337.44   A 0.47 0.46 -66.6 0 0 874.71 1336.82   Z   M 600.81 1380.93   C 623.22 1406.04 652.45 1423.64 685.07 1431.82   A 1.17 1.16 12.4 0 0 686.50 1430.91   Q 699.16 1365.93 711.77 1300.84   Q 712.44 1297.38 712.17 1296.11   C 711.45 1292.66 707.24 1291.39 704.45 1293.69   Q 652.62 1336.62 600.92 1379.48   A 1.02 1.01 -40.7 0 0 600.81 1380.93   Z   M 697.55 1434.30   Q 751.03 1442.57 799.02 1418.36   A 0.94 0.93 62.6 0 0 799.42 1417.09   L 735.37 1296.58   Q 735.08 1296.02 734.46 1296.14   L 723.79 1298.26   A 0.98 0.98 0.0 0 0 723.03 1299.02   L 697.00 1433.51   A 0.67 0.67 0.0 0 0 697.55 1434.30   Z"
     id="path38" />
  <path
     fill="#ffffff"
     d="   M 1279.00 1292.74   L 1277.95 1313.81   Q 1277.92 1314.29 1277.44 1314.29   L 1243.08 1314.34   Q 1242.56 1314.34 1242.55 1313.83   L 1241.15 1266.01   A 0.51 0.51 0.0 0 1 1241.67 1265.48   C 1260.75 1265.85 1299.65 1267.53 1305.09 1242.68   C 1309.62 1221.97 1297.29 1205.66 1275.71 1207.33   C 1260.66 1208.50 1251.13 1217.98 1251.00 1233.75   Q 1250.99 1234.25 1250.49 1234.25   L 1213.72 1234.25   Q 1213.04 1234.25 1213.03 1233.56   C 1212.59 1187.27 1253.24 1168.81 1293.51 1174.68   C 1333.07 1180.45 1352.79 1215.63 1342.72 1253.24   C 1335.13 1281.56 1306.05 1292.16 1279.59 1292.17   Q 1279.03 1292.17 1279.00 1292.74   Z"
     id="path39" />
  <path
     fill="#00bb6e"
     d="   M 685.07 1431.82   C 652.45 1423.64 623.22 1406.04 600.81 1380.93   A 1.02 1.01 -40.7 0 1 600.92 1379.48   Q 652.62 1336.62 704.45 1293.69   C 707.24 1291.39 711.45 1292.66 712.17 1296.11   Q 712.44 1297.38 711.77 1300.84   Q 699.16 1365.93 686.50 1430.91   A 1.17 1.16 12.4 0 1 685.07 1431.82   Z"
     id="path40"
     style="fill:#00a86b;fill-opacity:1" />
  <path
     fill="#00bb6e"
     d="   M 149.82 1434.32   A 0.76 0.75 9.9 0 1 149.19 1433.43   L 175.24 1299.03   A 0.95 0.95 0.0 0 1 175.98 1298.28   L 186.21 1296.23   Q 187.25 1296.02 187.75 1296.96   L 251.55 1416.98   A 1.06 1.05 -27.5 0 1 251.09 1418.42   Q 203.19 1442.54 149.82 1434.32   Z"
     id="path41"
     style="fill:#00a86b;fill-opacity:1" />
  <path
     fill="#00bb6e"
     d="   M 697.55 1434.30   A 0.67 0.67 0.0 0 1 697.00 1433.51   L 723.03 1299.02   A 0.98 0.98 0.0 0 1 723.79 1298.26   L 734.46 1296.14   Q 735.08 1296.02 735.37 1296.58   L 799.42 1417.09   A 0.94 0.93 62.6 0 1 799.02 1418.36   Q 751.03 1442.57 697.55 1434.30   Z"
     id="path42"
     style="fill:#00a86b;fill-opacity:1" />
  <path
     fill="#ffffff"
     d="   M 1262.41 1382.95   C 1243.52 1384.81 1228.40 1366.29 1237.77 1348.56   C 1249.96 1325.50 1288.42 1335.48 1284.18 1363.67   C 1282.52 1374.74 1273.21 1381.88 1262.41 1382.95   Z"
     id="path43" />
</svg>
