<?xml version="1.0" encoding="UTF-8" standalone="no"?>
<!DOCTYPE svg PUBLIC "-//W3C//DTD SVG 1.1//EN" "http://www.w3.org/Graphics/SVG/1.1/DTD/svg11.dtd">
<svg xmlns="http://www.w3.org/2000/svg" version="1.1" viewBox="0.00 0.00 1448.00 1448.00">
<path fill="#0a493b" d="
  M 0.00 0.00
  L 1448.00 0.00
  L 1448.00 1446.81
  Q 1447.22 1446.58 1446.69 1446.94
  Q 1445.90 1447.46 1446.19 1448.00
  L 0.00 1448.00
  L 0.00 0.00
  Z
  M 36.50 471.58
  A 0.42 0.42 0.0 0 0 36.92 472.00
  L 471.58 472.00
  A 0.42 0.42 0.0 0 0 472.00 471.58
  L 472.00 36.92
  A 0.42 0.42 0.0 0 0 471.58 36.50
  L 36.92 36.50
  A 0.42 0.42 0.0 0 0 36.50 36.92
  L 36.50 471.58
  Z
  M 1411.50 37.07
  A 0.57 0.57 0.0 0 0 1410.93 36.50
  L 509.07 36.50
  A 0.57 0.57 0.0 0 0 508.50 37.07
  L 508.50 471.43
  A 0.57 0.57 0.0 0 0 509.07 472.00
  L 1410.93 472.00
  A 0.57 0.57 0.0 0 0 1411.50 471.43
  L 1411.50 37.07
  Z
  M 473.27 980.75
  A 1.27 1.27 0.0 0 1 472.00 979.48
  L 472.00 509.77
  A 1.27 1.27 0.0 0 0 470.73 508.50
  L 37.77 508.50
  A 1.27 1.27 0.0 0 0 36.50 509.77
  L 36.50 1410.23
  A 1.27 1.27 0.0 0 0 37.77 1411.50
  L 942.98 1411.50
  A 1.27 1.27 0.0 0 0 944.25 1410.23
  L 944.25 982.02
  A 1.27 1.27 0.0 0 0 942.98 980.75
  L 473.27 980.75
  Z
  M 944.25 509.37
  A 0.87 0.87 0.0 0 0 943.38 508.50
  L 509.38 508.50
  A 0.87 0.87 0.0 0 0 508.51 509.37
  L 508.51 943.39
  A 0.87 0.87 0.0 0 0 509.38 944.26
  L 943.38 944.26
  A 0.87 0.87 0.0 0 0 944.25 943.39
  L 944.25 509.37
  Z
  M 1411.49 509.08
  A 0.57 0.57 0.0 0 0 1410.92 508.51
  L 981.32 508.51
  A 0.57 0.57 0.0 0 0 980.75 509.08
  L 980.75 943.68
  A 0.57 0.57 0.0 0 0 981.32 944.25
  L 1410.92 944.25
  A 0.57 0.57 0.0 0 0 1411.49 943.68
  L 1411.49 509.08
  Z
  M 1411.50 981.27
  A 0.51 0.51 0.0 0 0 1410.99 980.76
  L 981.27 980.76
  A 0.51 0.51 0.0 0 0 980.76 981.27
  L 980.76 1410.99
  A 0.51 0.51 0.0 0 0 981.27 1411.50
  L 1410.99 1411.50
  A 0.51 0.51 0.0 0 0 1411.50 1410.99
  L 1411.50 981.27
  Z"
/>
</svg>
