<?xml version="1.0" encoding="UTF-8" standalone="no"?>
<svg
   version="1.1"
   viewBox="0.00 0.00 940.00 940.00"
   id="svg12"
   sodipodi:docname="question.svg"
   inkscape:version="1.3 (0e150ed6c4, 2023-07-21)"
   xmlns:inkscape="http://www.inkscape.org/namespaces/inkscape"
   xmlns:sodipodi="http://sodipodi.sourceforge.net/DTD/sodipodi-0.dtd"
   xmlns="http://www.w3.org/2000/svg"
   xmlns:svg="http://www.w3.org/2000/svg">
  <defs
     id="defs12" />
  <sodipodi:namedview
     id="namedview12"
     pagecolor="#ffffff"
     bordercolor="#000000"
     borderopacity="0.25"
     inkscape:showpageshadow="2"
     inkscape:pageopacity="0.0"
     inkscape:pagecheckerboard="0"
     inkscape:deskcolor="#d1d1d1"
     inkscape:zoom="0.86595745"
     inkscape:cx="467.11302"
     inkscape:cy="470"
     inkscape:window-width="1920"
     inkscape:window-height="1010"
     inkscape:window-x="1913"
     inkscape:window-y="-6"
     inkscape:window-maximized="1"
     inkscape:current-layer="svg12" />
  <g
     stroke-width="2.00"
     fill="none"
     stroke-linecap="butt"
     id="g2">
    <path
       stroke="#9ca5a0"
       vector-effect="non-scaling-stroke"
       d="   M 832.39 835.34   C 847.91 835.39 865.19 829.06 870.72 813.80   C 874.54 803.26 873.95 789.40 868.17 779.33   C 859.24 763.78 841.51 759.89 824.94 761.44   C 804.67 763.34 789.99 777.64 790.32 798.55   Q 790.33 798.98 790.76 798.98   L 813.90 799.04   Q 814.32 799.04 814.32 798.62   C 814.30 777.52 845.29 776.24 848.19 796.25   C 851.58 819.63 823.32 819.04 808.55 818.42   Q 807.87 818.39 807.89 819.08   L 808.79 848.78   Q 808.80 849.25 809.28 849.25   L 830.51 849.25   Q 831.02 849.25 831.05 848.74   L 831.74 835.96   Q 831.77 835.34 832.39 835.34"
       id="path1" />
    <path
       stroke="#9ca5a0"
       vector-effect="non-scaling-stroke"
       d="   M 835.2598 877.5816   A 15.59 14.91 0.3 0 0 819.7481 862.5902   A 15.59 14.91 0.3 0 0 804.0802 877.4184   A 15.59 14.91 0.3 0 0 819.5919 892.4098   A 15.59 14.91 0.3 0 0 835.2598 877.5816"
       id="path2" />
  </g>
  <path
     fill="#094065"
     d="   M 109.81 0.00   L 118.55 0.00   Q 160.13 2.48 190.12 29.23   C 246.57 79.57 238.37 170.20 174.60 210.51   C 123.93 242.54 57.74 229.20 22.21 181.55   Q 1.66 153.99 0.00 117.93   L 0.00 110.68   C 2.68 49.71 48.97 3.41 109.81 0.00   Z   M 220.99 114.01   A 106.99 106.99 0.0 0 0 114.00 7.02   A 106.99 106.99 0.0 0 0 7.01 114.01   A 106.99 106.99 0.0 0 0 114.00 221.00   A 106.99 106.99 0.0 0 0 220.99 114.01   Z"
     id="path3"
     style="fill:#2c4a3e;fill-opacity:1" />
  <path
     fill="#094065"
     d="   M 465.54 0.00   L 474.54 0.00   C 540.82 3.56 590.87 60.79 583.22 127.06   C 573.92 207.67 484.60 253.62 413.55 212.99   C 354.00 178.94 337.23 99.14 379.63 44.70   Q 411.55 3.71 465.54 0.00   Z   M 575.3643 117.6499   A 5.22 5.22 0.0 0 0 575.3643 110.2677   L 473.6823 8.5857   A 5.22 5.22 0.0 0 0 466.3001 8.5857   L 364.5757 110.3101   A 5.22 5.22 0.0 0 0 364.5757 117.6923   L 466.2577 219.3743   A 5.22 5.22 0.0 0 0 473.6399 219.3743   L 575.3643 117.6499   Z   M 364.08 100.81   L 456.84 8.05   A 0.22 0.22 0.0 0 0 456.66 7.67   C 419.45 12.86 387.91 35.95 372.47 70.23   Q 365.47 85.78 363.73 100.65   Q 363.66 101.23 364.08 100.81   Z   M 576.29 100.31   C 569.62 52.91 531.71 13.23 483.29 7.73   Q 482.52 7.64 483.07 8.19   L 575.55 100.68   Q 576.48 101.60 576.29 100.31   Z   M 456.82 219.93   L 364.10 127.15   Q 363.75 126.80 363.80 127.29   C 369.04 175.71 409.28 214.10 456.68 220.21   Q 457.16 220.27 456.82 219.93   Z   M 483.27 220.24   C 532.08 213.74 569.73 176.02 576.29 127.29   A 0.28 0.28 0.0 0 0 575.82 127.06   L 483.06 219.81   Q 482.53 220.34 483.27 220.24   Z"
     id="path4"
     style="fill:#2c4a3e;fill-opacity:1" />
  <path
     fill="#094065"
     d="   M 824.57 0.00   L 827.54 0.00   Q 831.85 0.98 833.43 2.56   Q 885.44 54.56 937.43 106.56   Q 939.25 108.38 940.00 113.07   L 940.00 115.31   Q 939.12 119.75 937.19 121.69   Q 887.15 171.73 837.10 221.78   C 830.40 228.47 824.02 230.79 816.78 223.62   Q 766.82 174.13 717.33 124.17   C 711.13 117.91 709.61 111.34 716.47 104.46   Q 767.50 53.25 818.75 2.24   Q 819.95 1.05 824.57 0.00   Z   M 829.6187 8.5562   A 5.16 5.16 0.0 0 0 822.3213 8.5562   L 720.5262 110.3513   A 5.16 5.16 0.0 0 0 720.5262 117.6487   L 822.3213 219.4438   A 5.16 5.16 0.0 0 0 829.6187 219.4438   L 931.4138 117.6487   A 5.16 5.16 0.0 0 0 931.4138 110.3513   L 829.6187 8.5562   Z"
     id="path5"
     style="fill:#2c4a3e;fill-opacity:1" />
  <path
     fill="#094065"
     d="   M 0.00 583.99   L 0.00 356.03   L 227.51 356.03   Q 228.00 356.03 228.00 356.52   L 228.00 583.49   A 0.51 0.51 0.0 0 1 227.49 584.00   L 0.00 583.99   Z   M 7.63 428.89   Q 26.70 382.18 73.51 363.43   A 0.22 0.22 0.0 0 0 73.43 363.00   L 7.50 363.00   A 0.50 0.50 0.0 0 0 7.00 363.50   L 7.00 428.76   Q 7.00 430.43 7.63 428.89   Z   M 220.99 470.00   A 106.99 106.99 0.0 0 0 114.00 363.01   A 106.99 106.99 0.0 0 0 7.01 470.00   A 106.99 106.99 0.0 0 0 114.00 576.99   A 106.99 106.99 0.0 0 0 220.99 470.00   Z   M 155.97 364.17   Q 196.66 380.61 216.46 419.90   Q 218.85 424.63 220.34 429.51   A 0.34 0.33 36.8 0 0 221.00 429.42   L 221.00 363.50   Q 221.00 363.00 220.50 363.00   L 155.25 363.00   A 0.51 0.51 0.0 0 0 154.79 363.29   Q 154.42 364.06 155.38 364.07   Q 155.73 364.08 155.97 364.17   Z   M 36.70 553.55   Q 18.01 536.19 7.36 510.74   A 0.19 0.19 0.0 0 0 7.00 510.81   L 7.00 576.50   A 0.50 0.50 0.0 0 0 7.50 577.00   L 72.24 577.00   Q 74.89 577.00 72.42 576.05   Q 52.91 568.61 36.70 553.55   Z   M 220.43 510.68   Q 201.56 557.77 154.41 576.61   A 0.20 0.20 0.0 0 0 154.49 577.00   L 220.50 577.00   Q 221.00 577.00 221.00 576.50   L 221.00 510.56   A 0.26 0.23 57.7 0 0 220.53 510.42   Q 220.50 510.50 220.43 510.68   Z"
     id="path6"
     style="fill:#2c4a3e;fill-opacity:1" />
  <path
     fill="#094065"
     d="   M 584.00 583.49   A 0.51 0.51 0.0 0 1 583.49 584.00   L 356.51 584.00   A 0.51 0.51 0.0 0 1 356.00 583.49   L 356.00 356.51   A 0.51 0.51 0.0 0 1 356.51 356.00   L 583.49 356.00   A 0.51 0.51 0.0 0 1 584.00 356.51   L 584.00 583.49   Z   M 363.86 428.83   Q 382.70 382.00 429.52 363.47   A 0.24 0.24 0.0 0 0 429.43 363.00   L 363.50 363.00   A 0.50 0.50 0.0 0 0 363.00 363.50   L 363.00 429.24   A 0.36 0.36 0.0 0 0 363.72 429.30   Q 363.74 429.13 363.86 428.83   Z   M 575.3643 473.6882   A 5.23 5.23 0.0 0 0 575.3643 466.2918   L 473.6682 364.5957   A 5.23 5.23 0.0 0 0 466.2718 364.5957   L 364.5757 466.2918   A 5.23 5.23 0.0 0 0 364.5757 473.6882   L 466.2718 575.3843   A 5.23 5.23 0.0 0 0 473.6682 575.3843   L 575.3643 473.6882   Z   M 511.96 364.17   Q 558.19 383.09 576.51 429.53   A 0.25 0.25 0.0 0 0 577.00 429.44   L 577.00 363.50   Q 577.00 363.00 576.50 363.00   L 511.25 363.00   A 0.51 0.51 0.0 0 0 510.79 363.29   Q 510.42 364.06 511.38 364.07   Q 511.73 364.08 511.96 364.17   Z   M 364.07 456.82   L 456.89 364.00   A 0.20 0.19 18.4 0 0 456.72 363.67   C 415.63 369.41 382.13 396.60 368.39 436.20   Q 364.92 446.20 363.81 456.70   Q 363.76 457.13 364.07 456.82   Z   M 576.35 456.31   C 569.04 407.74 532.17 370.17 483.28 363.75   Q 482.53 363.65 483.06 364.19   L 575.57 456.70   Q 576.55 457.68 576.35 456.31   Z   M 456.90 575.82   L 364.03 482.97   A 0.26 0.25 -72.9 0 0 363.61 483.20   C 370.84 531.93 407.31 569.84 456.72 576.19   Q 457.35 576.27 456.90 575.82   Z   M 483.60 576.13   Q 487.22 575.91 491.82 574.85   C 537.07 564.41 569.61 529.74 576.31 483.51   A 0.37 0.37 0.0 0 0 575.68 483.19   L 483.33 575.54   Q 482.69 576.19 483.60 576.13   Z   M 576.43 510.68   Q 557.51 557.85 510.41 576.59   A 0.21 0.21 0.0 0 0 510.49 577.00   L 576.50 577.00   Q 577.00 577.00 577.00 576.50   L 577.00 510.56   A 0.26 0.23 57.7 0 0 576.53 510.42   Q 576.50 510.50 576.43 510.68   Z   M 429.63 576.27   Q 427.12 575.67 425.01 574.72   Q 382.29 555.58 364.18 512.46   A 2.12 2.08 -55.7 0 1 364.02 511.56   Q 364.04 511.36 364.02 511.19   A 0.51 0.51 0.0 0 0 363.00 511.25   L 363.00 576.50   A 0.50 0.50 0.0 0 0 363.50 577.00   L 428.55 577.00   A 1.26 1.22 -62.2 0 0 429.28 576.76   L 429.67 576.47   A 0.11 0.11 0.0 0 0 429.63 576.27   Z"
     id="path7"
     style="fill:#2c4a3e;fill-opacity:1" />
  <path
     fill="#094065"
     d="   M 940.00 469.06   L 940.00 471.31   Q 939.07 475.80 937.44 477.44   Q 887.29 527.59 837.13 577.74   C 829.68 585.19 823.69 586.48 815.97 578.84   Q 766.69 530.03 717.89 480.73   C 710.95 473.71 709.48 467.53 716.75 460.23   Q 763.82 412.95 811.08 365.83   C 819.02 357.92 825.54 350.68 835.91 361.04   Q 886.68 411.79 937.43 462.56   Q 939.24 464.37 940.00 469.06   Z   M 829.6228 364.5362   A 5.15 5.15 0.0 0 0 822.3396 364.5362   L 720.5162 466.3596   A 5.15 5.15 0.0 0 0 720.5162 473.6428   L 822.2972 575.4238   A 5.15 5.15 0.0 0 0 829.5804 575.4238   L 931.4038 473.6004   A 5.15 5.15 0.0 0 0 931.4038 466.3172   L 829.6228 364.5362   Z"
     id="path8"
     style="fill:#2c4a3e;fill-opacity:1" />
  <circle
     fill="#094065"
     cx="470.00"
     cy="469.99"
     r="19.93"
     id="circle8"
     style="fill:#2c4a3e;fill-opacity:1" />
  <circle
     fill="#094065"
     cx="825.99"
     cy="469.99"
     r="19.93"
     id="circle9"
     style="fill:#2c4a3e;fill-opacity:1" />
  <path
     fill="#094065"
     d="   M 227.99 940.00   L 0.00 940.00   L 0.00 712.03   L 227.57 712.03   A 0.43 0.42 -0.0 0 1 228.00 712.45   L 227.99 940.00   Z   M 221.00 719.58   A 0.58 0.58 0.0 0 0 220.42 719.00   L 7.58 719.00   A 0.58 0.58 0.0 0 0 7.00 719.58   L 7.00 932.42   A 0.58 0.58 0.0 0 0 7.58 933.00   L 220.42 933.00   A 0.58 0.58 0.0 0 0 221.00 932.42   L 221.00 719.58   Z"
     id="path9"
     style="fill:#2c4a3e;fill-opacity:1" />
  <path
     fill="#094065"
     d="   M 583.98 940.00   L 356.03 940.00   L 356.03 712.48   A 0.48 0.48 0.0 0 1 356.51 712.00   L 583.49 712.00   Q 583.98 712.00 583.98 712.50   L 583.98 940.00   Z   M 577.00 719.58   A 0.58 0.58 0.0 0 0 576.42 719.00   L 363.58 719.00   A 0.58 0.58 0.0 0 0 363.00 719.58   L 363.00 932.42   A 0.58 0.58 0.0 0 0 363.58 933.00   L 576.42 933.00   A 0.58 0.58 0.0 0 0 577.00 932.42   L 577.00 719.58   Z"
     id="path10"
     style="fill:#2c4a3e;fill-opacity:1" />
  <path
     fill="#394b41"
     d="   M 940.00 712.01   L 940.00 940.00   L 712.03 940.00   L 712.03 712.51   Q 712.03 712.01 712.53 712.01   L 940.00 712.01   Z   M 832.39 835.34   C 847.91 835.39 865.19 829.06 870.72 813.80   C 874.54 803.26 873.95 789.40 868.17 779.33   C 859.24 763.78 841.51 759.89 824.94 761.44   C 804.67 763.34 789.99 777.64 790.32 798.55   Q 790.33 798.98 790.76 798.98   L 813.90 799.04   Q 814.32 799.04 814.32 798.62   C 814.30 777.52 845.29 776.24 848.19 796.25   C 851.58 819.63 823.32 819.04 808.55 818.42   Q 807.87 818.39 807.89 819.08   L 808.79 848.78   Q 808.80 849.25 809.28 849.25   L 830.51 849.25   Q 831.02 849.25 831.05 848.74   L 831.74 835.96   Q 831.77 835.34 832.39 835.34   Z   M 835.2598 877.5816   A 15.59 14.91 0.3 0 0 819.7481 862.5902   A 15.59 14.91 0.3 0 0 804.0802 877.4184   A 15.59 14.91 0.3 0 0 819.5919 892.4098   A 15.59 14.91 0.3 0 0 835.2598 877.5816   Z"
     id="path11"
     style="fill:#00784c;fill-opacity:1" />
  <path
     fill="#ffffff"
     d="   M 831.74 835.96   L 831.05 848.74   Q 831.02 849.25 830.51 849.25   L 809.28 849.25   Q 808.80 849.25 808.79 848.78   L 807.89 819.08   Q 807.87 818.39 808.55 818.42   C 823.32 819.04 851.58 819.63 848.19 796.25   C 845.29 776.24 814.30 777.52 814.32 798.62   Q 814.32 799.04 813.90 799.04   L 790.76 798.98   Q 790.33 798.98 790.32 798.55   C 789.99 777.64 804.67 763.34 824.94 761.44   C 841.51 759.89 859.24 763.78 868.17 779.33   C 873.95 789.40 874.54 803.26 870.72 813.80   C 865.19 829.06 847.91 835.39 832.39 835.34   Q 831.77 835.34 831.74 835.96   Z"
     id="path12" />
  <circle
     fill="#094065"
     cx="469.99"
     cy="825.99"
     r="19.92"
     id="circle12"
     style="fill:#2c4a3e;fill-opacity:1" />
  <ellipse
     fill="#ffffff"
     cx="0.00"
     cy="0.00"
     transform="translate(819.67,877.50) rotate(0.3)"
     rx="15.59"
     ry="14.91"
     id="ellipse12" />
</svg>
