<?xml version="1.0" encoding="UTF-8" standalone="no"?>
<svg
   version="1.1"
   viewBox="0.00 0.00 300.00 300.00"
   id="svg32"
   sodipodi:docname="15-300x300-1.svg"
   inkscape:version="1.3 (0e150ed6c4, 2023-07-21)"
   xmlns:inkscape="http://www.inkscape.org/namespaces/inkscape"
   xmlns:sodipodi="http://sodipodi.sourceforge.net/DTD/sodipodi-0.dtd"
   xmlns="http://www.w3.org/2000/svg"
   xmlns:svg="http://www.w3.org/2000/svg">
  <defs
     id="defs32" />
  <sodipodi:namedview
     id="namedview32"
     pagecolor="#ffffff"
     bordercolor="#000000"
     borderopacity="0.25"
     inkscape:showpageshadow="2"
     inkscape:pageopacity="0.0"
     inkscape:pagecheckerboard="0"
     inkscape:deskcolor="#d1d1d1"
     inkscape:zoom="1.9186164"
     inkscape:cx="200.92604"
     inkscape:cy="95.902443"
     inkscape:window-width="1920"
     inkscape:window-height="1010"
     inkscape:window-x="-6"
     inkscape:window-y="-6"
     inkscape:window-maximized="1"
     inkscape:current-layer="svg32" />
  <g
     stroke-width="2.00"
     fill="none"
     stroke-linecap="butt"
     id="g3">
    <path
       stroke="#84643b"
       vector-effect="non-scaling-stroke"
       d="   M 295.49 232.07   A 0.32 0.32 0.0 0 0 295.17 231.75   L 232.07 231.75   A 0.32 0.32 0.0 0 0 231.75 232.07   L 231.75 295.17   A 0.32 0.32 0.0 0 0 232.07 295.49   L 295.17 295.49   A 0.32 0.32 0.0 0 0 295.49 295.17   L 295.49 232.07"
       id="path1" />
    <path
       stroke="#ffc488"
       vector-effect="non-scaling-stroke"
       d="   M 250.84 252.62   L 255.91 255.60   Q 256.29 255.83 256.58 255.48   C 262.13 248.82 273.75 254.11 266.82 259.78   Q 263.18 262.77 261.38 267.11   A 1.18 1.18 0.0 0 0 262.46 268.75   L 267.73 268.76   Q 268.24 268.76 268.46 268.31   Q 270.14 264.94 272.83 262.36   C 278.36 257.08 278.14 249.52 270.27 246.83   C 263.83 244.63 255.05 245.85 250.69 251.88   A 0.52 0.52 0.0 0 0 250.84 252.62"
       id="path2" />
    <path
       stroke="#ffc488"
       vector-effect="non-scaling-stroke"
       d="   M 269.6286 277.0658   A 4.67 4.37 4.0 0 0 265.2748 272.3806   A 4.67 4.37 4.0 0 0 260.3114 276.4142   A 4.67 4.37 4.0 0 0 264.6652 281.0994   A 4.67 4.37 4.0 0 0 269.6286 277.0658"
       id="path3" />
  </g>
  <path
     fill="#094065"
     d="   M 0.00 0.00   L 72.46 0.00   L 72.47 72.00   A 0.50 0.49 0.0 0 1 71.97 72.49   L 0.00 72.47   L 0.00 0.00   Z   M 68.00 4.57   A 0.33 0.33 0.0 0 0 67.67 4.24   L 4.57 4.25   A 0.33 0.33 0.0 0 0 4.24 4.58   L 4.24 67.67   A 0.33 0.33 0.0 0 0 4.57 68.00   L 67.67 68.00   A 0.33 0.33 0.0 0 0 68.00 67.67   L 68.00 4.57   Z"
     id="path4"
     style="fill:#333333;fill-opacity:1" />
  <path
     fill="#094065"
     d="   M 113.67 0.00   L 186.46 0.00   L 186.47 72.03   A 0.47 0.47 0.0 0 1 186.00 72.50   L 114.23 72.50   A 0.52 0.52 0.0 0 1 113.71 71.98   L 113.67 0.00   Z   M 182.00 4.79   A 0.55 0.55 0.0 0 0 181.45 4.24   L 118.55 4.24   A 0.55 0.55 0.0 0 0 118.00 4.79   L 118.00 67.45   A 0.55 0.55 0.0 0 0 118.55 68.00   L 181.45 68.00   A 0.55 0.55 0.0 0 0 182.00 67.45   L 182.00 4.79   Z"
     id="path5"
     style="fill:#333333;fill-opacity:1" />
  <path
     fill="#094065"
     d="   M 227.28 0.00   L 300.00 0.00   L 300.00 72.46   L 227.68 72.47   A 0.42 0.42 0.0 0 1 227.26 72.05   L 227.28 0.00   Z   M 295.51 4.51   A 0.26 0.26 0.0 0 0 295.25 4.25   L 232.01 4.25   A 0.26 0.26 0.0 0 0 231.75 4.51   L 231.75 67.73   A 0.26 0.26 0.0 0 0 232.01 67.99   L 295.25 67.99   A 0.26 0.26 0.0 0 0 295.51 67.73   L 295.51 4.51   Z"
     id="path6"
     style="fill:#333333;fill-opacity:1" />
  <path
     fill="#ff8811"
     d="   M 175.49 36.37   A 25.49 25.49 0.0 0 1 150.00 61.86   A 25.49 25.49 0.0 0 1 124.51 36.37   A 25.49 25.49 0.0 0 1 150.00 10.88   A 25.49 25.49 0.0 0 1 175.49 36.37   Z   M 172.94 36.37   A 22.93 22.93 0.0 0 0 150.01 13.44   A 22.93 22.93 0.0 0 0 127.08 36.37   A 22.93 22.93 0.0 0 0 150.01 59.30   A 22.93 22.93 0.0 0 0 172.94 36.37   Z"
     id="path7"
     style="fill:#00784c;fill-opacity:1" />
  <path
     fill="#ff8811"
     d="   M 288.29 35.75   L 291.81 35.75   Q 292.38 35.75 292.41 36.32   Q 292.44 37.07 291.74 37.02   Q 290.00 36.88 288.25 37.05   Q 287.74 37.10 287.67 37.61   C 283.69 68.10 241.98 67.35 239.74 37.48   Q 239.71 37.00 239.22 37.00   L 235.51 37.00   Q 234.96 37.00 234.83 36.46   Q 234.64 35.68 235.25 35.73   Q 237.20 35.87 239.18 35.71   Q 239.70 35.67 239.74 35.15   C 242.10 5.36 284.20 4.79 287.62 35.15   Q 287.69 35.75 288.29 35.75   Z   M 285.06 35.11   C 281.66 8.35 244.82 8.58 242.27 35.19   A 0.51 0.50 -86.9 0 0 242.77 35.75   L 284.49 35.75   A 0.57 0.57 0.0 0 0 285.06 35.11   Z   M 284.82 36.92   L 242.46 37.00   A 0.08 0.08 0.0 0 0 242.38 37.08   L 242.38 37.09   A 21.17 20.63 -0.1 0 0 263.59 57.68   L 263.77 57.68   A 21.17 20.63 -0.1 0 0 284.90 37.01   L 284.90 37.00   A 0.08 0.08 0.0 0 0 284.82 36.92   Z"
     id="path8"
     style="fill:#00784c;fill-opacity:1" />
  <circle
     fill="#ff8811"
     cx="145.36"
     cy="29.84"
     r="2.37"
     id="circle8"
     style="fill:#00784c;fill-opacity:1" />
  <circle
     fill="#ff8811"
     cx="154.65"
     cy="29.84"
     r="2.36"
     id="circle9"
     style="fill:#00784c;fill-opacity:1" />
  <circle
     fill="#ff8811"
     cx="31.75"
     cy="31.75"
     r="2.35"
     id="circle10"
     style="fill:#00784c;fill-opacity:1" />
  <circle
     fill="#ff8811"
     cx="40.37"
     cy="31.75"
     r="2.35"
     id="circle11"
     style="fill:#00784c;fill-opacity:1" />
  <rect
     fill="#ff8811"
     x="10.05"
     y="35.75"
     width="52.94"
     height="1.24"
     rx="0.61"
     id="rect11"
     style="fill:#00784c;fill-opacity:1" />
  <circle
     fill="#ff8811"
     cx="31.75"
     cy="41.00"
     r="2.35"
     id="circle12"
     style="fill:#00784c;fill-opacity:1" />
  <circle
     fill="#ff8811"
     cx="40.39"
     cy="40.99"
     r="2.36"
     id="circle13"
     style="fill:#00784c;fill-opacity:1" />
  <circle
     fill="#ff8811"
     cx="145.39"
     cy="42.61"
     r="2.37"
     id="circle14"
     style="fill:#00784c;fill-opacity:1" />
  <circle
     fill="#ff8811"
     cx="154.64"
     cy="42.61"
     r="2.37"
     id="circle15"
     style="fill:#00784c;fill-opacity:1" />
  <path
     fill="#094065"
     d="   M 0.00 186.47   L 0.00 113.57   L 72.04 113.54   Q 72.75 113.54 72.75 114.25   L 72.75 185.99   A 0.50 0.50 0.0 0 1 72.25 186.49   L 0.00 186.47   Z   M 68.24 118.48   A 0.48 0.48 0.0 0 0 67.76 118.00   L 4.98 118.00   A 0.48 0.48 0.0 0 0 4.50 118.48   L 4.50 181.52   A 0.48 0.48 0.0 0 0 4.98 182.00   L 67.76 182.00   A 0.48 0.48 0.0 0 0 68.24 181.52   L 68.24 118.48   Z"
     id="path15"
     style="fill:#333333;fill-opacity:1" />
  <path
     fill="#094065"
     d="   M 186.5424 185.6865   A 0.73 0.73 0.0 0 1 185.8136 186.4177   L 114.5137 186.5422   A 0.73 0.73 0.0 0 1 113.7825 185.8134   L 113.6576 114.2935   A 0.73 0.73 0.0 0 1 114.3864 113.5623   L 185.6863 113.4378   A 0.73 0.73 0.0 0 1 186.4175 114.1666   L 186.5424 185.6865   Z   M 182.00 118.69   A 0.69 0.69 0.0 0 0 181.31 118.00   L 118.69 118.00   A 0.69 0.69 0.0 0 0 118.00 118.69   L 118.00 181.31   A 0.69 0.69 0.0 0 0 118.69 182.00   L 181.31 182.00   A 0.69 0.69 0.0 0 0 182.00 181.31   L 182.00 118.69   Z"
     id="path16"
     style="fill:#333333;fill-opacity:1" />
  <path
     fill="#094065"
     d="   M 300.00 113.53   L 300.00 186.42   L 227.86 186.37   A 0.61 0.61 0.0 0 1 227.25 185.76   L 227.25 114.25   A 0.75 0.74 0.0 0 1 228.00 113.51   L 300.00 113.53   Z   M 295.51 118.59   A 0.59 0.59 0.0 0 0 294.92 118.00   L 232.34 118.00   A 0.59 0.59 0.0 0 0 231.75 118.59   L 231.75 181.41   A 0.59 0.59 0.0 0 0 232.34 182.00   L 294.92 182.00   A 0.59 0.59 0.0 0 0 295.51 181.41   L 295.51 118.59   Z"
     id="path17"
     style="fill:#333333;fill-opacity:1" />
  <path
     fill="#ff8811"
     d="   M 175.50 150.00   A 25.50 25.50 0.0 0 1 150.00 175.50   A 25.50 25.50 0.0 0 1 124.50 150.00   A 25.50 25.50 0.0 0 1 150.00 124.50   A 25.50 25.50 0.0 0 1 175.50 150.00   Z   M 163.16 131.10   Q 149.62 122.79 136.32 131.50   A 0.32 0.32 0.0 0 0 136.50 132.08   L 162.99 131.74   Q 164.18 131.73 163.16 131.10   Z   M 132.65 134.90   C 120.88 149.55 129.19 171.79 148.74 172.92   A 0.41 0.41 0.0 0 0 149.14 172.35   L 133.66 135.04   Q 133.27 134.12 132.65 134.90   Z   M 163.54 134.93   A 0.36 0.36 0.0 0 0 163.20 134.43   L 136.76 134.57   A 0.36 0.36 0.0 0 0 136.43 135.07   L 149.82 167.29   A 0.36 0.36 0.0 0 0 150.49 167.28   L 163.54 134.93   Z   M 166.34 134.81   L 151.21 172.47   A 0.35 0.35 0.0 0 0 151.57 172.95   C 170.87 171.02 179.35 149.91 167.14 134.70   A 0.47 0.47 0.0 0 0 166.34 134.81   Z"
     id="path18"
     style="fill:#00784c;fill-opacity:1" />
  <path
     fill="#ff8811"
     d="   M 61.04 149.75   L 64.57 149.75   Q 65.14 149.75 65.16 150.33   Q 65.19 151.07 64.49 151.02   Q 62.68 150.89 60.86 151.06   Q 60.34 151.10 60.28 151.63   C 57.25 181.33 15.30 181.48 12.62 152.47   Q 12.51 151.23 11.28 151.12   L 7.69 150.78   A 0.52 0.52 0.0 0 1 7.74 149.75   L 11.98 149.75   Q 12.45 149.75 12.48 149.28   C 14.57 119.43 56.64 118.50 60.38 149.16   Q 60.45 149.75 61.04 149.75   Z   M 15.18 149.74   L 57.60 149.82   A 0.07 0.07 0.0 0 0 57.67 149.75   L 57.67 149.74   A 21.18 20.64 0.1 0 0 36.53 129.06   L 36.33 129.06   A 21.18 20.64 0.1 0 0 15.11 149.66   L 15.11 149.67   A 0.07 0.07 0.0 0 0 15.18 149.74   Z   M 57.53 150.94   L 15.15 150.86   A 0.12 0.12 0.0 0 0 15.03 150.98   L 15.03 150.98   A 21.18 20.66 0.1 0 0 36.17 171.68   L 36.43 171.68   A 21.18 20.66 0.1 0 0 57.65 151.06   L 57.65 151.06   A 0.12 0.12 0.0 0 0 57.53 150.94   Z"
     id="path19"
     style="fill:#00784c;fill-opacity:1" />
  <path
     fill="#ff8811"
     d="   M 275.79 145.75   L 285.25 145.75   A 0.47 0.46 2.2 0 1 285.72 146.25   Q 285.67 146.82 285.25 146.81   Q 279.22 146.64 275.21 146.80   Q 274.63 146.82 274.41 147.35   L 264.08 171.86   A 0.25 0.24 44.7 0 1 263.63 171.86   L 252.97 147.42   Q 252.74 146.89 252.17 146.88   L 241.55 146.66   A 0.50 0.41 -38.4 0 1 241.75 145.77   L 251.34 145.77   A 0.59 0.58 -11.8 0 0 251.88 144.96   L 244.74 128.62   Q 244.47 127.99 245.15 127.98   L 281.96 127.67   Q 282.75 127.66 282.44 128.39   L 275.38 145.13   Q 275.12 145.75 275.79 145.75   Z   M 254.97 145.60   A 0.31 0.31 0.0 0 0 255.25 145.79   L 272.14 145.73   A 0.31 0.31 0.0 0 0 272.42 145.54   L 278.73 130.62   A 0.31 0.31 0.0 0 0 278.44 130.19   L 248.84 130.56   A 0.31 0.31 0.0 0 0 248.56 131.00   L 254.97 145.60   Z   M 263.49 165.18   A 0.34 0.34 0.0 0 0 264.12 165.18   L 271.69 147.22   A 0.34 0.34 0.0 0 0 271.38 146.75   L 255.99 146.75   A 0.34 0.34 0.0 0 0 255.68 147.23   L 263.49 165.18   Z"
     id="path20"
     style="fill:#00784c;fill-opacity:1" />
  <path
     fill="#094065"
     d="   M 72.74 300.00   L 0.00 300.00   L 0.00 227.29   L 72.32 227.28   A 0.43 0.42 -0.0 0 1 72.75 227.70   L 72.74 300.00   Z   M 68.24 232.18   A 0.43 0.43 0.0 0 0 67.81 231.75   L 4.93 231.75   A 0.43 0.43 0.0 0 0 4.50 232.18   L 4.50 295.06   A 0.43 0.43 0.0 0 0 4.93 295.49   L 67.81 295.49   A 0.43 0.43 0.0 0 0 68.24 295.06   L 68.24 232.18   Z"
     id="path21"
     style="fill:#333333;fill-opacity:1" />
  <path
     fill="#094065"
     d="   M 186.47 300.00   L 113.69 300.00   L 113.65 227.85   Q 113.65 227.25 114.25 227.25   L 186.01 227.25   A 0.49 0.48 90.0 0 1 186.49 227.74   L 186.47 300.00   Z   M 182.00 232.40   A 0.65 0.65 0.0 0 0 181.35 231.75   L 118.65 231.75   A 0.65 0.65 0.0 0 0 118.00 232.40   L 118.00 294.86   A 0.65 0.65 0.0 0 0 118.65 295.51   L 181.35 295.51   A 0.65 0.65 0.0 0 0 182.00 294.86   L 182.00 232.40   Z"
     id="path22"
     style="fill:#333333;fill-opacity:1" />
  <path
     fill="#094065"
     d="   M 300.00 227.28   L 300.00 300.00   L 227.29 300.00   L 227.28 227.68   A 0.42 0.42 0.0 0 1 227.70 227.26   L 300.00 227.28   Z   M 295.49 232.07   A 0.32 0.32 0.0 0 0 295.17 231.75   L 232.07 231.75   A 0.32 0.32 0.0 0 0 231.75 232.07   L 231.75 295.17   A 0.32 0.32 0.0 0 0 232.07 295.49   L 295.17 295.49   A 0.32 0.32 0.0 0 0 295.49 295.17   L 295.49 232.07   Z"
     id="path23"
     style="fill:#333333;fill-opacity:1" />
  <path
     fill="#ff8811"
     d="   M 295.49 295.17   A 0.32 0.32 0.0 0 1 295.17 295.49   L 232.07 295.49   A 0.32 0.32 0.0 0 1 231.75 295.17   L 231.75 232.07   A 0.32 0.32 0.0 0 1 232.07 231.75   L 295.17 231.75   A 0.32 0.32 0.0 0 1 295.49 232.07   L 295.49 295.17   Z   M 250.84 252.62   L 255.91 255.60   Q 256.29 255.83 256.58 255.48   C 262.13 248.82 273.75 254.11 266.82 259.78   Q 263.18 262.77 261.38 267.11   A 1.18 1.18 0.0 0 0 262.46 268.75   L 267.73 268.76   Q 268.24 268.76 268.46 268.31   Q 270.14 264.94 272.83 262.36   C 278.36 257.08 278.14 249.52 270.27 246.83   C 263.83 244.63 255.05 245.85 250.69 251.88   A 0.52 0.52 0.0 0 0 250.84 252.62   Z   M 269.6286 277.0658   A 4.67 4.37 4.0 0 0 265.2748 272.3806   A 4.67 4.37 4.0 0 0 260.3114 276.4142   A 4.67 4.37 4.0 0 0 264.6652 281.0994   A 4.67 4.37 4.0 0 0 269.6286 277.0658   Z"
     id="path24"
     style="fill:#00784c;fill-opacity:1" />
  <path
     fill="#ff8811"
     d="   M 62.20 263.30   A 25.50 25.50 0.0 0 1 36.70 288.80   A 25.50 25.50 0.0 0 1 11.20 263.30   A 25.50 25.50 0.0 0 1 36.70 237.80   A 25.50 25.50 0.0 0 1 62.20 263.30   Z   M 59.62 263.30   A 22.92 22.92 0.0 0 0 36.70 240.38   A 22.92 22.92 0.0 0 0 13.78 263.30   A 22.92 22.92 0.0 0 0 36.70 286.22   A 22.92 22.92 0.0 0 0 59.62 263.30   Z"
     id="path25"
     style="fill:#00784c;fill-opacity:1" />
  <path
     fill="#ff8811"
     d="   M 172.13 241.76   L 150.63 285.40   A 0.32 0.32 0.0 0 1 150.06 285.41   L 127.95 242.06   A 0.32 0.32 0.0 0 1 128.23 241.60   L 171.84 241.29   A 0.32 0.32 0.0 0 1 172.13 241.76   Z   M 146.02 268.25   L 144.77 268.25   Q 144.06 268.25 144.39 268.88   L 149.94 279.61   A 0.38 0.38 0.0 0 0 150.62 279.60   L 156.03 268.52   Q 156.34 267.90 155.67 268.06   C 151.22 269.14 151.50 263.67 154.45 263.71   Q 154.81 263.72 155.16 263.82   Q 156.55 264.24 156.94 265.39   Q 157.21 266.19 157.59 265.43   L 167.96 244.35   Q 168.16 243.93 167.70 243.93   L 132.56 244.10   Q 131.82 244.10 132.16 244.76   L 142.32 264.76   Q 142.67 265.45 143.22 264.90   L 143.93 264.19   Q 144.33 263.80 144.89 263.73   Q 147.22 263.46 147.85 265.87   A 1.90 1.89 82.6 0 1 146.02 268.25   Z"
     id="path26"
     style="fill:#00784c;fill-opacity:1" />
  <circle
     fill="#ff8811"
     cx="145.39"
     cy="253.23"
     r="2.37"
     id="circle27"
     style="fill:#00784c;fill-opacity:1" />
  <circle
     fill="#ff8811"
     cx="154.62"
     cy="253.24"
     r="2.35"
     id="circle28"
     style="fill:#00784c;fill-opacity:1" />
  <circle
     fill="#ff8811"
     cx="32.09"
     cy="256.77"
     r="2.35"
     id="circle29"
     style="fill:#00784c;fill-opacity:1" />
  <circle
     fill="#ff8811"
     cx="41.32"
     cy="256.75"
     r="2.36"
     id="circle30"
     style="fill:#00784c;fill-opacity:1" />
  <circle
     fill="#ff8811"
     cx="32.10"
     cy="269.55"
     r="2.35"
     id="circle31"
     style="fill:#00784c;fill-opacity:1" />
  <circle
     fill="#ff8811"
     cx="41.34"
     cy="269.52"
     r="2.35"
     id="circle32"
     style="fill:#00784c;fill-opacity:1" />
  <rect
     style="opacity:1;fill:#00784c;fill-opacity:1;stroke:#000000;stroke-width:0;paint-order:fill markers stroke"
     id="rect32"
     width="50.557266"
     height="52.381496"
     x="239.23489"
     y="238.45308" />
  <text
     xml:space="preserve"
     style="font-weight:600;font-size:53.3333px;line-height:170.8;font-family:Poppins;-inkscape-font-specification:'Poppins Semi-Bold';text-align:center;text-anchor:middle;opacity:1;fill:#00784c;fill-opacity:1;stroke:#000000;stroke-width:0;paint-order:fill markers stroke"
     x="266.07718"
     y="283.45282"
     id="text32"><tspan
       sodipodi:role="line"
       id="tspan32"
       x="266.07718"
       y="283.45282"
       style="font-size:53.3333px;fill:#ffffff;fill-opacity:1">?</tspan></text>
</svg>
