<?xml version="1.0" encoding="UTF-8" standalone="no"?>
<svg
   version="1.1"
   viewBox="0.00 0.00 574.00 574.00"
   id="svg22"
   sodipodi:docname="question.svg"
   inkscape:version="1.3 (0e150ed6c4, 2023-07-21)"
   xmlns:inkscape="http://www.inkscape.org/namespaces/inkscape"
   xmlns:sodipodi="http://sodipodi.sourceforge.net/DTD/sodipodi-0.dtd"
   xmlns="http://www.w3.org/2000/svg"
   xmlns:svg="http://www.w3.org/2000/svg">
  <defs
     id="defs22" />
  <sodipodi:namedview
     id="namedview22"
     pagecolor="#ffffff"
     bordercolor="#000000"
     borderopacity="0.25"
     inkscape:showpageshadow="2"
     inkscape:pageopacity="0.0"
     inkscape:pagecheckerboard="0"
     inkscape:deskcolor="#d1d1d1"
     inkscape:zoom="1.4181185"
     inkscape:cx="286.64741"
     inkscape:cy="286.99999"
     inkscape:window-width="1920"
     inkscape:window-height="1010"
     inkscape:window-x="1913"
     inkscape:window-y="-6"
     inkscape:window-maximized="1"
     inkscape:current-layer="svg22" />
  <path
     fill="#00784c"
     d="   M 134.95 68.00   A 66.95 66.95 0.0 0 1 68.00 134.95   A 66.95 66.95 0.0 0 1 1.05 68.00   A 66.95 66.95 0.0 0 1 68.00 1.05   A 66.95 66.95 0.0 0 1 134.95 68.00   Z   M 129.00 68.00   A 61.00 61.00 0.0 0 0 68.00 7.00   A 61.00 61.00 0.0 0 0 7.00 68.00   A 61.00 61.00 0.0 0 0 68.00 129.00   A 61.00 61.00 0.0 0 0 129.00 68.00   Z"
     id="path1"
     style="fill:#00a86b;fill-opacity:1" />
  <path
     fill="#00784c"
     d="   M 352.94 69.00   A 66.95 66.95 0.0 0 1 285.99 135.95   A 66.95 66.95 0.0 0 1 219.04 69.00   A 66.95 66.95 0.0 0 1 285.99 2.05   A 66.95 66.95 0.0 0 1 352.94 69.00   Z   M 346.99 69.00   A 61.00 61.00 0.0 0 0 285.99 8.00   A 61.00 61.00 0.0 0 0 224.99 69.00   A 61.00 61.00 0.0 0 0 285.99 130.00   A 61.00 61.00 0.0 0 0 346.99 69.00   Z"
     id="path2"
     style="fill:#00a86b;fill-opacity:1" />
  <path
     fill="#00784c"
     d="   M 571.94 69.00   A 66.94 66.94 0.0 0 1 505.00 135.94   A 66.94 66.94 0.0 0 1 438.06 69.00   A 66.94 66.94 0.0 0 1 505.00 2.06   A 66.94 66.94 0.0 0 1 571.94 69.00   Z   M 565.99 69.00   A 60.99 60.99 0.0 0 0 505.00 8.01   A 60.99 60.99 0.0 0 0 444.01 69.00   A 60.99 60.99 0.0 0 0 505.00 129.99   A 60.99 60.99 0.0 0 0 565.99 69.00   Z"
     id="path3"
     style="fill:#00a86b;fill-opacity:1" />
  <path
     fill="#00784c"
     d="   M 62.25 54.00   L 62.25 62.74   Q 62.25 63.50 62.86 63.04   C 70.04 57.69 80.59 60.12 83.48 69.01   C 90.57 90.89 60.22 98.44 53.66 78.88   A 0.86 0.86 0.0 0 1 54.48 77.75   L 61.31 77.75   Q 61.89 77.75 62.10 78.29   C 65.12 85.85 75.28 84.01 76.28 75.77   C 77.37 66.77 67.18 64.06 62.55 71.29   Q 62.26 71.75 61.71 71.75   L 55.13 71.75   Q 54.50 71.75 54.50 71.12   L 54.50 46.75   Q 54.50 46.25 55.00 46.25   L 80.87 46.25   Q 81.50 46.25 81.50 46.88   L 81.50 52.87   Q 81.50 53.50 80.88 53.50   L 62.75 53.50   Q 62.25 53.50 62.25 54.00   Z"
     id="path4"
     style="fill:#333333;fill-opacity:1" />
  <path
     fill="#00784c"
     d="   M 492.67 68.11   Q 499.51 71.23 499.47 78.73   C 499.39 96.11 469.96 95.34 469.87 78.19   Q 469.86 77.75 470.31 77.75   L 477.06 77.75   Q 477.69 77.75 477.83 78.36   Q 479.38 85.17 486.71 84.06   C 492.67 83.16 492.84 74.89 488.08 72.46   C 486.02 71.41 483.22 71.44 480.78 71.50   A 0.51 0.51 0.0 0 1 480.25 70.99   L 480.25 65.01   A 0.58 0.57 3.1 0 1 480.89 64.44   C 484.36 64.85 488.85 64.23 490.26 60.62   C 493.01 53.56 481.44 49.71 478.44 58.23   Q 478.26 58.75 477.70 58.75   L 471.01 58.75   Q 470.54 58.75 470.56 58.29   C 470.97 41.39 500.90 42.47 498.52 59.59   Q 497.80 64.77 492.65 67.53   Q 492.07 67.84 492.67 68.11   Z"
     id="path5"
     style="fill:#333333;fill-opacity:1" />
  <path
     fill="#00784c"
     d="   M 281.69 62.19   C 283.24 50.63 290.86 43.51 302.92 47.25   C 312.10 50.09 313.41 60.60 313.57 68.65   C 313.74 77.47 311.21 88.87 300.82 90.70   C 282.52 93.92 279.96 75.05 281.69 62.19   Z   M 295.75 54.29   C 287.80 56.19 288.67 72.41 290.50 78.26   C 292.75 85.45 303.10 84.53 304.54 76.76   C 305.66 70.66 307.23 51.54 295.75 54.29   Z"
     id="path6"
     style="fill:#333333;fill-opacity:1" />
  <path
     fill="#00784c"
     d="   M 506.69 62.19   C 507.78 54.68 510.86 47.86 519.13 46.52   C 529.83 44.80 536.05 50.66 537.78 60.88   C 540.02 74.11 538.29 92.71 519.54 90.68   C 506.39 89.26 505.21 72.29 506.69 62.19   Z   M 514.51 66.11   C 514.15 71.79 513.90 83.45 522.61 83.08   C 526.46 82.92 528.80 80.73 529.51 77.00   C 530.55 71.57 532.08 54.98 523.71 54.21   C 516.02 53.51 514.91 59.81 514.51 66.11   Z"
     id="path7"
     style="fill:#333333;fill-opacity:1" />
  <path
     fill="#00784c"
     d="   M 263.52 55.00   L 258.73 55.00   A 0.48 0.48 0.0 0 1 258.25 54.52   L 258.25 47.73   A 0.48 0.48 0.0 0 1 258.73 47.25   L 272.02 47.25   A 0.48 0.48 0.0 0 1 272.50 47.73   L 272.50 90.52   A 0.48 0.48 0.0 0 1 272.02 91.00   L 264.48 91.00   A 0.48 0.48 0.0 0 1 264.00 90.52   L 264.00 55.48   A 0.48 0.48 0.0 0 0 263.52 55.00   Z"
     id="path8"
     style="fill:#333333;fill-opacity:1" />
  <path
     fill="#00784c"
     d="   M 134.95 285.99   A 66.95 66.95 0.0 0 1 68.00 352.94   A 66.95 66.95 0.0 0 1 1.05 285.99   A 66.95 66.95 0.0 0 1 68.00 219.04   A 66.95 66.95 0.0 0 1 134.95 285.99   Z   M 129.00 286.00   A 61.00 61.00 0.0 0 0 68.00 225.00   A 61.00 61.00 0.0 0 0 7.00 286.00   A 61.00 61.00 0.0 0 0 68.00 347.00   A 61.00 61.00 0.0 0 0 129.00 286.00   Z"
     id="path9"
     style="fill:#00a86b;fill-opacity:1" />
  <path
     fill="#00784c"
     d="   M 352.94 286.99   A 66.95 66.95 0.0 0 1 285.99 353.94   A 66.95 66.95 0.0 0 1 219.04 286.99   A 66.95 66.95 0.0 0 1 285.99 220.04   A 66.95 66.95 0.0 0 1 352.94 286.99   Z   M 346.99 286.99   A 61.00 61.00 0.0 0 0 285.99 225.99   A 61.00 61.00 0.0 0 0 224.99 286.99   A 61.00 61.00 0.0 0 0 285.99 347.99   A 61.00 61.00 0.0 0 0 346.99 286.99   Z"
     id="path10"
     style="fill:#00a86b;fill-opacity:1" />
  <path
     fill="#00784c"
     d="   M 571.94 286.99   A 66.94 66.94 0.0 0 1 505.00 353.93   A 66.94 66.94 0.0 0 1 438.06 286.99   A 66.94 66.94 0.0 0 1 505.00 220.05   A 66.94 66.94 0.0 0 1 571.94 286.99   Z   M 565.99 286.99   A 60.99 60.99 0.0 0 0 505.00 226.00   A 60.99 60.99 0.0 0 0 444.01 286.99   A 60.99 60.99 0.0 0 0 505.00 347.98   A 60.99 60.99 0.0 0 0 565.99 286.99   Z"
     id="path11"
     style="fill:#00a86b;fill-opacity:1" />
  <path
     fill="#00784c"
     d="   M 60.79 283.47   C 66.26 278.81 73.77 277.24 79.18 282.08   C 87.79 289.81 84.50 306.37 72.06 307.90   C 52.97 310.24 51.88 291.33 53.65 278.18   C 54.82 269.55 59.54 263.00 69.00 263.26   Q 80.55 263.57 82.60 274.60   Q 82.72 275.25 82.06 275.25   L 75.24 275.25   Q 74.71 275.25 74.60 274.74   Q 73.75 270.72 70.68 270.32   C 61.66 269.13 60.85 276.56 60.30 283.22   Q 60.25 283.92 60.79 283.47   Z   M 76.16 293.54   A 7.52 7.52 0.0 0 0 68.64 286.02   A 7.52 7.52 0.0 0 0 61.12 293.54   A 7.52 7.52 0.0 0 0 68.64 301.06   A 7.52 7.52 0.0 0 0 76.16 293.54   Z"
     id="path12"
     style="fill:#333333;fill-opacity:1" />
  <path
     fill="#00784c"
     d="   M 295.26 301.50   L 311.63 301.50   Q 312.25 301.50 312.25 302.13   L 312.25 307.75   Q 312.25 308.50 311.50 308.50   L 283.37 308.50   Q 282.75 308.50 282.75 307.87   L 282.75 302.68   Q 282.75 302.05 283.24 301.65   C 290.86 295.42 296.91 290.72 301.49 283.50   C 304.29 279.08 303.21 269.25 295.57 271.58   Q 291.19 272.92 290.92 277.88   Q 290.85 279.00 289.73 279.00   L 283.74 279.00   Q 282.55 279.00 282.67 277.82   C 284.54 259.24 312.09 259.78 311.27 278.26   C 310.83 288.43 301.80 294.82 295.10 301.08   Q 294.65 301.50 295.26 301.50   Z"
     id="path13"
     style="fill:#333333;fill-opacity:1" />
  <path
     fill="#00784c"
     d="   M 495.69 286.08   C 506.13 290.89 504.21 305.63 493.26 308.61   C 483.94 311.15 473.76 307.25 472.67 296.44   Q 472.60 295.75 473.29 295.75   L 480.45 295.75   Q 480.88 295.75 480.93 296.18   C 481.78 304.12 493.33 304.49 494.45 296.94   C 495.45 290.17 488.84 289.48 483.76 289.48   Q 483.24 289.48 483.25 288.97   L 483.26 282.84   A 0.48 0.48 0.0 0 1 483.82 282.37   C 487.78 283.06 493.00 282.01 493.59 277.29   C 494.46 270.37 483.67 268.83 481.52 276.18   Q 481.35 276.75 480.76 276.75   L 474.02 276.75   Q 473.46 276.75 473.49 276.18   C 474.50 260.06 501.68 260.22 501.64 276.02   Q 501.63 282.22 495.67 285.54   Q 495.15 285.83 495.69 286.08   Z"
     id="path14"
     style="fill:#333333;fill-opacity:1" />
  <path
     fill="#00784c"
     d="   M 516.85 284.46   C 526.68 275.73 541.14 281.63 539.94 295.26   C 539.15 304.21 534.00 309.19 524.47 308.99   C 509.96 308.68 509.07 295.46 509.34 284.50   C 509.51 277.32 510.88 269.21 517.73 265.77   C 526.16 261.54 537.22 265.39 538.46 275.73   Q 538.53 276.25 538.00 276.25   L 531.49 276.25   A 0.81 0.81 0.0 0 1 530.72 275.69   C 529.29 271.44 525.65 270.13 521.65 271.74   C 517.29 273.51 516.34 280.20 516.42 284.28   Q 516.43 284.83 516.85 284.46   Z   M 532.15 294.54   A 7.52 7.52 0.0 0 0 524.63 287.02   A 7.52 7.52 0.0 0 0 517.11 294.54   A 7.52 7.52 0.0 0 0 524.63 302.06   A 7.52 7.52 0.0 0 0 532.15 294.54   Z"
     id="path15"
     style="fill:#333333;fill-opacity:1" />
  <path
     fill="#00784c"
     d="   M 265.52 273.00   L 260.73 273.00   A 0.48 0.48 0.0 0 1 260.25 272.52   L 260.25 265.73   A 0.48 0.48 0.0 0 1 260.73 265.25   L 274.02 265.25   A 0.48 0.48 0.0 0 1 274.50 265.73   L 274.50 308.52   A 0.48 0.48 0.0 0 1 274.02 309.00   L 266.48 309.00   A 0.48 0.48 0.0 0 1 266.00 308.52   L 266.00 273.48   A 0.48 0.48 0.0 0 0 265.52 273.00   Z"
     id="path16"
     style="fill:#333333;fill-opacity:1" />
  <path
     fill="#00784c"
     d="   M 134.94 505.00   A 66.94 66.94 0.0 0 1 68.00 571.94   A 66.94 66.94 0.0 0 1 1.06 505.00   A 66.94 66.94 0.0 0 1 68.00 438.06   A 66.94 66.94 0.0 0 1 134.94 505.00   Z   M 127.98 505.00   A 59.98 59.98 0.0 0 0 68.00 445.02   A 59.98 59.98 0.0 0 0 8.02 505.00   A 59.98 59.98 0.0 0 0 68.00 564.98   A 59.98 59.98 0.0 0 0 127.98 505.00   Z"
     id="path17"
     style="fill:#00a86b;fill-opacity:1" />
  <path
     fill="#00784c"
     d="   M 352.93 506.00   A 66.94 66.94 0.0 0 1 285.99 572.94   A 66.94 66.94 0.0 0 1 219.05 506.00   A 66.94 66.94 0.0 0 1 285.99 439.06   A 66.94 66.94 0.0 0 1 352.93 506.00   Z   M 346.98 506.00   A 60.99 60.99 0.0 0 0 285.99 445.01   A 60.99 60.99 0.0 0 0 225.00 506.00   A 60.99 60.99 0.0 0 0 285.99 566.99   A 60.99 60.99 0.0 0 0 346.98 506.00   Z"
     id="path18"
     style="fill:#00a86b;fill-opacity:1" />
  <path
     fill="#00784c"
     d="   M 571.93 506.00   A 66.93 66.93 0.0 0 1 505.00 572.93   A 66.93 66.93 0.0 0 1 438.07 506.00   A 66.93 66.93 0.0 0 1 505.00 439.07   A 66.93 66.93 0.0 0 1 571.93 506.00   Z   M 565.99 506.00   A 60.99 60.99 0.0 0 0 505.00 445.01   A 60.99 60.99 0.0 0 0 444.01 506.00   A 60.99 60.99 0.0 0 0 505.00 566.99   A 60.99 60.99 0.0 0 0 565.99 506.00   Z"
     id="path19"
     style="fill:#00a86b;fill-opacity:1" />
  <path
     fill="#00784c"
     d="   M 513.92 490.99   C 512.39 481.84 498.52 482.28 497.34 492.26   Q 497.29 492.75 496.79 492.75   L 486.51 492.75   A 0.53 0.53 0.0 0 1 485.98 492.20   C 487.06 468.13 525.37 468.11 525.87 492.74   C 526.11 504.88 517.51 509.21 506.64 510.32   Q 505.95 510.39 505.92 511.07   L 505.68 516.06   A 0.99 0.99 0.0 0 1 504.69 517.00   L 495.50 517.00   A 0.52 0.51 -0.6 0 1 494.98 516.50   L 494.51 502.75   Q 494.50 502.25 495.01 502.26   C 502.45 502.44 515.82 502.43 513.92 490.99   Z"
     id="path20"
     style="fill:#333333;fill-opacity:1" />
  <path
     fill="#00784c"
     d="   M 80.25 518.00   L 80.25 525.50   A 0.50 0.50 0.0 0 1 79.75 526.00   L 72.25 526.00   Q 71.75 526.00 71.75 525.50   L 71.75 518.00   Q 71.75 517.50 71.25 517.50   L 51.45 517.50   Q 50.82 517.50 50.79 516.87   C 50.61 513.99 50.22 511.68 52.00 509.14   Q 61.10 496.20 70.13 483.21   Q 70.46 482.75 71.02 482.75   L 79.75 482.75   Q 80.25 482.75 80.25 483.25   L 80.25 509.63   Q 80.25 510.25 80.88 510.25   L 84.87 510.25   Q 85.50 510.25 85.50 510.88   L 85.50 516.75   Q 85.50 517.50 84.75 517.50   L 80.75 517.50   Q 80.25 517.50 80.25 518.00   Z   M 72.29 492.99   A 0.34 0.34 0.0 0 0 71.66 492.80   L 60.31 509.76   A 0.34 0.34 0.0 0 0 60.59 510.29   L 71.89 510.23   A 0.34 0.34 0.0 0 0 72.23 509.89   L 72.29 492.99   Z"
     id="path21"
     style="fill:#333333;fill-opacity:1" />
  <path
     fill="#00784c"
     d="   M 276.64 504.44   Q 269.23 498.90 272.45 490.93   C 276.75 480.24 298.46 480.75 300.74 493.03   Q 302.05 500.10 295.75 504.52   Q 295.27 504.86 295.78 505.16   Q 303.28 509.52 301.95 517.74   C 299.78 531.18 277.47 532.84 271.81 521.30   C 268.83 515.23 270.75 508.70 276.61 505.14   Q 277.15 504.81 276.64 504.44   Z   M 292.8915 495.9541   A 6.64 6.17 -2.9 0 0 285.9478 490.1279   A 6.64 6.17 -2.9 0 0 279.6285 496.6259   A 6.64 6.17 -2.9 0 0 286.5722 502.4521   A 6.64 6.17 -2.9 0 0 292.8915 495.9541   Z   M 293.9488 515.3551   A 7.74 6.84 1.0 0 0 286.3294 508.3810   A 7.74 6.84 1.0 0 0 278.4712 515.0849   A 7.74 6.84 1.0 0 0 286.0906 522.0590   A 7.74 6.84 1.0 0 0 293.9488 515.3551   Z"
     id="path22"
     style="fill:#333333;fill-opacity:1" />
  <circle
     fill="#00784c"
     cx="500.16"
     cy="530.50"
     r="7.24"
     id="circle22"
     style="fill:#333333;fill-opacity:1" />
</svg>
