<?xml version="1.0" encoding="UTF-8" standalone="no"?>
<!DOCTYPE svg PUBLIC "-//W3C//DTD SVG 1.1//EN" "http://www.w3.org/Graphics/SVG/1.1/DTD/svg11.dtd">
<svg xmlns="http://www.w3.org/2000/svg" version="1.1" viewBox="0.00 0.00 1445.00 1450.00">
<g stroke-width="2.00" fill="none" stroke-linecap="butt">
<path stroke="#186d4c" vector-effect="non-scaling-stroke" d="
  M 1423.75 1088.68
  A 0.43 0.43 0.0 0 0 1423.32 1088.25
  L 1083.68 1088.25
  A 0.43 0.43 0.0 0 0 1083.25 1088.68
  L 1083.25 1428.32
  A 0.43 0.43 0.0 0 0 1083.68 1428.75
  L 1423.32 1428.75
  A 0.43 0.43 0.0 0 0 1423.75 1428.32
  L 1423.75 1088.68"
/>
<path stroke="#80d5b4" vector-effect="non-scaling-stroke" d="
  M 1253.38 1276.38
  Q 1259.06 1276.16 1264.67 1275.61
  C 1302.15 1271.91 1321.06 1242.86 1313.07 1206.94
  C 1308.56 1186.65 1292.63 1172.35 1273.17 1167.61
  C 1234.12 1158.11 1190.44 1175.59 1191.08 1221.57
  Q 1191.09 1222.00 1191.51 1222.00
  L 1226.01 1222.00
  A 0.58 0.57 -0.0 0 0 1226.59 1221.43
  C 1226.80 1189.43 1273.92 1188.00 1277.78 1217.91
  C 1282.35 1253.34 1240.82 1251.68 1218.17 1251.18
  A 0.79 0.78 -0.3 0 0 1217.37 1251.98
  L 1218.67 1296.61
  Q 1218.69 1297.27 1219.35 1297.26
  L 1251.06 1296.99
  Q 1251.84 1296.99 1251.88 1296.20
  L 1252.79 1276.97
  Q 1252.82 1276.40 1253.38 1276.38"
/>
<path stroke="#80d5b4" vector-effect="non-scaling-stroke" d="
  M 1258.1397 1339.4818
  A 23.26 22.19 0.3 0 0 1234.9962 1317.1703
  A 23.26 22.19 0.3 0 0 1211.6203 1339.2382
  A 23.26 22.19 0.3 0 0 1234.7638 1361.5497
  A 23.26 22.19 0.3 0 0 1258.1397 1339.4818"
/>
</g>
<path fill="#303030" d="
  M 0.00 0.00
  L 382.97 0.00
  L 382.97 382.50
  A 0.50 0.50 0.0 0 1 382.47 383.00
  L 0.00 382.99
  L 0.00 0.00
  Z
  M 361.75 21.68
  A 0.43 0.43 0.0 0 0 361.32 21.25
  L 21.68 21.25
  A 0.43 0.43 0.0 0 0 21.25 21.68
  L 21.25 361.32
  A 0.43 0.43 0.0 0 0 21.68 361.75
  L 361.32 361.75
  A 0.43 0.43 0.0 0 0 361.75 361.32
  L 361.75 21.68
  Z"
/>
<path fill="#303030" d="
  M 531.01 0.00
  L 913.97 0.00
  L 913.97 382.54
  A 0.46 0.46 0.0 0 1 913.51 383.00
  L 531.51 383.00
  A 0.51 0.51 0.0 0 1 531.00 382.49
  L 531.01 0.00
  Z
  M 892.75 21.52
  A 0.27 0.27 0.0 0 0 892.48 21.25
  L 552.52 21.25
  A 0.27 0.27 0.0 0 0 552.25 21.52
  L 552.25 361.48
  A 0.27 0.27 0.0 0 0 552.52 361.75
  L 892.48 361.75
  A 0.27 0.27 0.0 0 0 892.75 361.48
  L 892.75 21.52
  Z"
/>
<path fill="#303030" d="
  M 1062.01 0.00
  L 1445.00 0.00
  L 1445.00 382.97
  L 1062.43 382.97
  A 0.43 0.43 0.0 0 1 1062.00 382.54
  L 1062.01 0.00
  Z
  M 1423.75 21.83
  A 0.58 0.58 0.0 0 0 1423.17 21.25
  L 1083.83 21.25
  A 0.58 0.58 0.0 0 0 1083.25 21.83
  L 1083.25 361.17
  A 0.58 0.58 0.0 0 0 1083.83 361.75
  L 1423.17 361.75
  A 0.58 0.58 0.0 0 0 1423.75 361.17
  L 1423.75 21.83
  Z"
/>
<path fill="#00aa68" d="
  M 1119.45 345.22
  L 1254.10 31.27
  A 0.38 0.38 0.0 0 1 1254.80 31.27
  L 1389.45 345.22
  A 0.38 0.38 0.0 0 1 1389.10 345.75
  L 1119.80 345.75
  A 0.38 0.38 0.0 0 1 1119.45 345.22
  Z
  M 1151.59 323.98
  A 0.37 0.37 0.0 0 0 1151.93 324.50
  L 1356.97 324.50
  A 0.37 0.37 0.0 0 0 1357.31 323.98
  L 1254.79 84.94
  A 0.37 0.37 0.0 0 0 1254.11 84.94
  L 1151.59 323.98
  Z"
/>
<rect fill="#00aa68" x="711.00" y="63.76" width="23.00" height="253.24" rx="0.26"/>
<path fill="#00aa68" d="
  M 66.29 297.55
  L 190.74 81.66
  A 0.30 0.30 0.0 0 1 191.26 81.66
  L 315.71 297.55
  A 0.30 0.30 0.0 0 1 315.45 298.00
  L 66.55 298.00
  A 0.30 0.30 0.0 0 1 66.29 297.55
  Z
  M 102.96 276.34
  A 0.44 0.44 0.0 0 0 103.34 277.00
  L 278.66 277.00
  A 0.44 0.44 0.0 0 0 279.04 276.34
  L 191.38 124.26
  A 0.44 0.44 0.0 0 0 190.62 124.26
  L 102.96 276.34
  Z"
/>
<path fill="#303030" d="
  M 0.00 913.74
  L 0.00 530.78
  L 382.29 530.78
  A 0.71 0.71 0.0 0 1 383.00 531.49
  L 383.00 913.24
  A 0.51 0.51 0.0 0 1 382.49 913.75
  L 0.00 913.74
  Z
  M 361.75 552.26
  A 0.26 0.26 0.0 0 0 361.49 552.00
  L 21.51 552.00
  A 0.26 0.26 0.0 0 0 21.25 552.26
  L 21.25 892.24
  A 0.26 0.26 0.0 0 0 21.51 892.50
  L 361.49 892.50
  A 0.26 0.26 0.0 0 0 361.75 892.24
  L 361.75 552.26
  Z"
/>
<path fill="#303030" d="
  M 914.00 913.18
  A 0.57 0.57 0.0 0 1 913.43 913.75
  L 531.57 913.75
  A 0.57 0.57 0.0 0 1 531.00 913.18
  L 531.00 531.32
  A 0.57 0.57 0.0 0 1 531.57 530.75
  L 913.43 530.75
  A 0.57 0.57 0.0 0 1 914.00 531.32
  L 914.00 913.18
  Z
  M 892.75 552.26
  A 0.26 0.26 0.0 0 0 892.49 552.00
  L 552.51 552.00
  A 0.26 0.26 0.0 0 0 552.25 552.26
  L 552.25 892.24
  A 0.26 0.26 0.0 0 0 552.51 892.50
  L 892.49 892.50
  A 0.26 0.26 0.0 0 0 892.75 892.24
  L 892.75 552.26
  Z"
/>
<path fill="#303030" d="
  M 1445.00 530.76
  L 1445.00 913.72
  L 1062.71 913.72
  A 0.71 0.71 0.0 0 1 1062.00 913.01
  L 1062.00 531.26
  A 0.51 0.51 0.0 0 1 1062.51 530.75
  L 1445.00 530.76
  Z
  M 1423.75 552.26
  A 0.26 0.26 0.0 0 0 1423.49 552.00
  L 1083.51 552.00
  A 0.26 0.26 0.0 0 0 1083.25 552.26
  L 1083.25 892.24
  A 0.26 0.26 0.0 0 0 1083.51 892.50
  L 1423.49 892.50
  A 0.26 0.26 0.0 0 0 1423.75 892.24
  L 1423.75 552.26
  Z"
/>
<path fill="#00aa68" d="
  M 1414.50 723.85
  A 160.28 118.81 0.0 0 1 1254.22 842.66
  A 160.28 118.81 0.0 0 1 1093.94 723.85
  A 160.28 118.81 0.0 0 1 1254.22 605.04
  A 160.28 118.81 0.0 0 1 1414.50 723.85
  Z
  M 1388.82 699.29
  C 1374.52 663.71 1339.56 642.82 1304.35 632.58
  C 1277.89 624.88 1247.18 624.69 1220.16 629.03
  C 1180.49 635.39 1135.38 659.78 1119.77 698.74
  C 1113.84 713.53 1113.42 731.61 1118.83 746.57
  C 1134.06 788.71 1182.61 813.23 1223.36 819.21
  C 1267.35 825.66 1311.74 819.15 1349.33 794.80
  C 1380.50 774.61 1404.12 737.39 1388.82 699.29
  Z"
/>
<path fill="#00aa68" d="
  M 306.31 724.77
  A 114.62 114.62 0.0 0 1 191.69 839.39
  A 114.62 114.62 0.0 0 1 77.07 724.77
  A 114.62 114.62 0.0 0 1 191.69 610.15
  A 114.62 114.62 0.0 0 1 306.31 724.77
  Z
  M 171.27 633.25
  C 143.39 639.18 117.64 660.58 106.01 687.10
  C 83.85 737.65 109.83 794.79 161.16 813.29
  C 179.93 820.05 203.98 820.11 222.68 813.07
  Q 264.15 797.45 279.88 755.99
  C 284.94 742.66 285.80 728.49 284.57 714.41
  C 280.97 673.47 246.30 637.70 205.67 632.23
  Q 187.56 629.79 171.27 633.25
  Z"
/>
<path fill="#00aa68" d="
  M 852.65 734.25
  L 600.62 734.25
  A 0.37 0.37 0.0 0 1 600.25 733.88
  L 600.25 711.62
  A 0.37 0.37 0.0 0 1 600.62 711.25
  L 852.69 711.25
  A 0.37 0.37 0.0 0 1 853.06 711.62
  L 853.02 733.88
  A 0.37 0.37 0.0 0 1 852.65 734.25
  Z"
/>
<path fill="#303030" d="
  M 382.99 1450.00
  L 0.00 1450.00
  L 0.00 1067.03
  L 382.57 1067.03
  A 0.43 0.43 0.0 0 1 383.00 1067.46
  L 382.99 1450.00
  Z
  M 361.75 1088.68
  A 0.43 0.43 0.0 0 0 361.32 1088.25
  L 21.68 1088.25
  A 0.43 0.43 0.0 0 0 21.25 1088.68
  L 21.25 1428.32
  A 0.43 0.43 0.0 0 0 21.68 1428.75
  L 361.32 1428.75
  A 0.43 0.43 0.0 0 0 361.75 1428.32
  L 361.75 1088.68
  Z"
/>
<path fill="#303030" d="
  M 913.98 1450.00
  L 531.03 1450.00
  L 531.03 1067.48
  A 0.48 0.47 90.0 0 1 531.50 1067.00
  L 913.49 1067.00
  Q 913.98 1067.00 913.98 1067.49
  L 913.98 1450.00
  Z
  M 892.75 1088.68
  A 0.43 0.43 0.0 0 0 892.32 1088.25
  L 552.68 1088.25
  A 0.43 0.43 0.0 0 0 552.25 1088.68
  L 552.25 1428.32
  A 0.43 0.43 0.0 0 0 552.68 1428.75
  L 892.32 1428.75
  A 0.43 0.43 0.0 0 0 892.75 1428.32
  L 892.75 1088.68
  Z"
/>
<path fill="#303030" d="
  M 1445.00 1067.01
  L 1445.00 1450.00
  L 1062.03 1450.00
  L 1062.03 1067.51
  Q 1062.03 1067.01 1062.53 1067.01
  L 1445.00 1067.01
  Z
  M 1423.75 1088.68
  A 0.43 0.43 0.0 0 0 1423.32 1088.25
  L 1083.68 1088.25
  A 0.43 0.43 0.0 0 0 1083.25 1088.68
  L 1083.25 1428.32
  A 0.43 0.43 0.0 0 0 1083.68 1428.75
  L 1423.32 1428.75
  A 0.43 0.43 0.0 0 0 1423.75 1428.32
  L 1423.75 1088.68
  Z"
/>
<path fill="#00aa68" d="
  M 1423.75 1428.32
  A 0.43 0.43 0.0 0 1 1423.32 1428.75
  L 1083.68 1428.75
  A 0.43 0.43 0.0 0 1 1083.25 1428.32
  L 1083.25 1088.68
  A 0.43 0.43 0.0 0 1 1083.68 1088.25
  L 1423.32 1088.25
  A 0.43 0.43 0.0 0 1 1423.75 1088.68
  L 1423.75 1428.32
  Z
  M 1253.38 1276.38
  Q 1259.06 1276.16 1264.67 1275.61
  C 1302.15 1271.91 1321.06 1242.86 1313.07 1206.94
  C 1308.56 1186.65 1292.63 1172.35 1273.17 1167.61
  C 1234.12 1158.11 1190.44 1175.59 1191.08 1221.57
  Q 1191.09 1222.00 1191.51 1222.00
  L 1226.01 1222.00
  A 0.58 0.57 -0.0 0 0 1226.59 1221.43
  C 1226.80 1189.43 1273.92 1188.00 1277.78 1217.91
  C 1282.35 1253.34 1240.82 1251.68 1218.17 1251.18
  A 0.79 0.78 -0.3 0 0 1217.37 1251.98
  L 1218.67 1296.61
  Q 1218.69 1297.27 1219.35 1297.26
  L 1251.06 1296.99
  Q 1251.84 1296.99 1251.88 1296.20
  L 1252.79 1276.97
  Q 1252.82 1276.40 1253.38 1276.38
  Z
  M 1258.1397 1339.4818
  A 23.26 22.19 0.3 0 0 1234.9962 1317.1703
  A 23.26 22.19 0.3 0 0 1211.6203 1339.2382
  A 23.26 22.19 0.3 0 0 1234.7638 1361.5497
  A 23.26 22.19 0.3 0 0 1258.1397 1339.4818
  Z"
/>
<path fill="#00aa68" d="
  M 710.45 1270.00
  L 596.55 1270.00
  A 0.55 0.55 0.0 0 1 596.00 1269.45
  L 596.00 1247.55
  A 0.55 0.55 0.0 0 1 596.55 1247.00
  L 710.45 1247.00
  A 0.55 0.55 0.0 0 0 711.00 1246.45
  L 711.00 1132.05
  A 0.55 0.55 0.0 0 1 711.55 1131.50
  L 733.45 1131.50
  A 0.55 0.55 0.0 0 1 734.00 1132.05
  L 734.00 1246.45
  A 0.55 0.55 0.0 0 0 734.55 1247.00
  L 848.45 1247.00
  A 0.55 0.55 0.0 0 1 849.00 1247.55
  L 848.90 1269.45
  A 0.55 0.55 0.0 0 1 848.35 1270.00
  L 734.55 1270.00
  A 0.55 0.55 0.0 0 0 734.00 1270.55
  L 734.00 1384.45
  A 0.55 0.55 0.0 0 1 733.45 1385.00
  L 711.55 1385.00
  A 0.55 0.55 0.0 0 1 711.00 1384.45
  L 711.00 1270.55
  A 0.55 0.55 0.0 0 0 710.45 1270.00
  Z"
/>
<path fill="#00aa68" d="
  M 297.01 1363.60
  A 0.65 0.65 0.0 0 1 296.36 1364.25
  L 85.90 1364.25
  A 0.65 0.65 0.0 0 1 85.25 1363.60
  L 85.25 1152.90
  A 0.65 0.65 0.0 0 1 85.90 1152.25
  L 296.36 1152.25
  A 0.65 0.65 0.0 0 1 297.01 1152.90
  L 297.01 1363.60
  Z
  M 275.96 1174.05
  A 0.55 0.55 0.0 0 0 275.41 1173.50
  L 107.05 1173.50
  A 0.55 0.55 0.0 0 0 106.50 1174.05
  L 106.50 1342.45
  A 0.55 0.55 0.0 0 0 107.05 1343.00
  L 275.41 1343.00
  A 0.55 0.55 0.0 0 0 275.96 1342.45
  L 275.96 1174.05
  Z"
/>
<path fill="#ffffff" d="
  M 1252.79 1276.97
  L 1251.88 1296.20
  Q 1251.84 1296.99 1251.06 1296.99
  L 1219.35 1297.26
  Q 1218.69 1297.27 1218.67 1296.61
  L 1217.37 1251.98
  A 0.79 0.78 -0.3 0 1 1218.17 1251.18
  C 1240.82 1251.68 1282.35 1253.34 1277.78 1217.91
  C 1273.92 1188.00 1226.80 1189.43 1226.59 1221.43
  A 0.58 0.57 0.0 0 1 1226.01 1222.00
  L 1191.51 1222.00
  Q 1191.09 1222.00 1191.08 1221.57
  C 1190.44 1175.59 1234.12 1158.11 1273.17 1167.61
  C 1292.63 1172.35 1308.56 1186.65 1313.07 1206.94
  C 1321.06 1242.86 1302.15 1271.91 1264.67 1275.61
  Q 1259.06 1276.16 1253.38 1276.38
  Q 1252.82 1276.40 1252.79 1276.97
  Z"
/>
<ellipse fill="#ffffff" cx="0.00" cy="0.00" transform="translate(1234.88,1339.36) rotate(0.3)" rx="23.26" ry="22.19"/>
</svg>
