<?xml version="1.0" encoding="UTF-8" standalone="no"?>
<svg
   version="1.1"
   viewBox="0.00 0.00 300.00 300.00"
   id="svg16"
   sodipodi:docname="question (1).svg"
   inkscape:version="1.3 (0e150ed6c4, 2023-07-21)"
   xmlns:inkscape="http://www.inkscape.org/namespaces/inkscape"
   xmlns:sodipodi="http://sodipodi.sourceforge.net/DTD/sodipodi-0.dtd"
   xmlns="http://www.w3.org/2000/svg"
   xmlns:svg="http://www.w3.org/2000/svg">
  <defs
     id="defs16" />
  <sodipodi:namedview
     id="namedview16"
     pagecolor="#ffffff"
     bordercolor="#000000"
     borderopacity="0.25"
     inkscape:showpageshadow="2"
     inkscape:pageopacity="0.0"
     inkscape:pagecheckerboard="0"
     inkscape:deskcolor="#d1d1d1"
     inkscape:zoom="2.7133333"
     inkscape:cx="149.81572"
     inkscape:cy="155.15971"
     inkscape:window-width="1920"
     inkscape:window-height="1010"
     inkscape:window-x="-6"
     inkscape:window-y="-6"
     inkscape:window-maximized="1"
     inkscape:current-layer="svg16" />
  <g
     stroke-width="2.00"
     fill="none"
     stroke-linecap="butt"
     id="g2">
    <path
       stroke="#ffc488"
       vector-effect="non-scaling-stroke"
       d="   M 250.85 252.62   L 255.91 255.60   Q 256.29 255.83 256.58 255.48   C 262.13 248.82 273.75 254.11 266.82 259.78   Q 263.18 262.77 261.38 267.11   A 1.18 1.18 0.0 0 0 262.46 268.75   L 267.73 268.76   Q 268.24 268.76 268.47 268.31   Q 270.14 264.93 272.83 262.37   C 278.32 257.12 278.16 249.43 270.28 246.83   C 263.58 244.62 255.13 245.82 250.70 251.91   A 0.49 0.49 0.0 0 0 250.85 252.62"
       id="path1" />
    <path
       stroke="#ffc488"
       vector-effect="non-scaling-stroke"
       d="   M 269.6286 277.0658   A 4.67 4.37 4.0 0 0 265.2748 272.3806   A 4.67 4.37 4.0 0 0 260.3114 276.4142   A 4.67 4.37 4.0 0 0 264.6652 281.0994   A 4.67 4.37 4.0 0 0 269.6286 277.0658"
       id="path2" />
  </g>
  <path
     fill="#094065"
     d="   M 35.07 0.00   L 37.70 0.00   L 71.81 33.97   A 3.44 3.43 44.9 0 1 71.82 38.83   L 38.83 71.82   A 3.44 3.44 0.0 0 1 33.96 71.81   L 0.00 37.66   L 0.00 35.71   Q 0.41 34.47 2.06 32.81   Q 18.63 16.14 35.07 0.00   Z   M 69.9251 37.6994   A 1.88 1.88 0.0 0 0 69.9251 35.0406   L 37.7094 2.8249   A 1.88 1.88 0.0 0 0 35.0506 2.8249   L 2.8349 35.0406   A 1.88 1.88 0.0 0 0 2.8349 37.6994   L 35.0506 69.9151   A 1.88 1.88 0.0 0 0 37.7094 69.9151   L 69.9251 37.6994   Z"
     id="path3"
     style="fill:#2c4a3e;fill-opacity:1" />
  <path
     fill="#094065"
     d="   M 148.70 0.00   L 151.32 0.00   L 185.29 33.72   A 3.78 3.77 44.8 0 1 185.31 39.07   L 152.81 71.56   A 3.97 3.97 0.0 0 1 147.19 71.56   L 114.81 39.18   A 3.92 3.92 0.0 0 1 114.82 33.61   L 148.70 0.00   Z   M 183.7290 37.3882   A 1.44 1.44 0.0 0 0 183.7290 35.3518   L 151.0182 2.6410   A 1.44 1.44 0.0 0 0 148.9818 2.6410   L 116.2710 35.3518   A 1.44 1.44 0.0 0 0 116.2710 37.3882   L 148.9818 70.0990   A 1.44 1.44 0.0 0 0 151.0182 70.0990   L 183.7290 37.3882   Z"
     id="path4"
     style="fill:#2c4a3e;fill-opacity:1" />
  <path
     fill="#094065"
     d="   M 137.52 45.15   L 149.78 25.98   A 0.35 0.35 0.0 0 1 150.37 25.98   L 162.49 45.24   A 0.35 0.35 0.0 0 1 162.19 45.77   L 137.82 45.69   A 0.35 0.35 0.0 0 1 137.52 45.15   Z"
     id="path5"
     style="fill:#2c4a3e;fill-opacity:1" />
  <path
     fill="#094065"
     d="   M 251.15 45.17   L 263.38 26.00   A 0.35 0.35 0.0 0 1 263.97 26.01   L 276.13 45.21   A 0.35 0.35 0.0 0 1 275.84 45.75   L 251.44 45.71   A 0.35 0.35 0.0 0 1 251.15 45.17   Z"
     id="path6"
     style="fill:#2c4a3e;fill-opacity:1" />
  <path
     fill="#094065"
     d="   M 0.00 152.45   L 0.00 147.17   Q 3.05 125.23 21.57 116.87   C 43.24 107.08 67.71 120.46 72.24 143.37   Q 73.89 151.73 71.53 159.51   C 59.55 198.87 4.98 193.53 0.00 152.45   Z   M 70.1061 151.0112   A 1.43 1.43 0.0 0 0 70.1061 148.9888   L 37.3812 116.2639   A 1.43 1.43 0.0 0 0 35.3588 116.2639   L 2.6339 148.9888   A 1.43 1.43 0.0 0 0 2.6339 151.0112   L 35.3588 183.7361   A 1.43 1.43 0.0 0 0 37.3812 183.7361   L 70.1061 151.0112   Z   M 31.43 116.16   C 16.50 118.66 4.75 130.07 2.57 145.09   A 0.28 0.28 0.0 0 0 3.05 145.33   L 31.70 116.68   A 0.31 0.31 0.0 0 0 31.43 116.16   Z   M 70.28 145.20   C 67.72 129.99 56.66 118.96 41.53 116.13   A 0.39 0.39 0.0 0 0 41.18 116.79   L 69.80 145.44   A 0.28 0.28 0.0 0 0 70.28 145.20   Z   M 2.59 154.93   C 4.38 169.87 17.01 181.41 31.35 183.91   A 0.37 0.37 0.0 0 0 31.67 183.28   L 3.07 154.69   Q 2.49 154.11 2.59 154.93   Z   M 41.58 183.74   C 56.46 182.08 68.17 168.73 70.23 154.77   A 0.26 0.25 71.8 0 0 69.80 154.55   L 41.27 183.10   Q 40.52 183.86 41.58 183.74   Z"
     id="path7"
     style="fill:#2c4a3e;fill-opacity:1" />
  <path
     fill="#094065"
     d="   M 186.35 150.00   A 36.35 36.35 0.0 0 1 150.00 186.35   A 36.35 36.35 0.0 0 1 113.65 150.00   A 36.35 36.35 0.0 0 1 150.00 113.65   A 36.35 36.35 0.0 0 1 186.35 150.00   Z   M 148.95 116.20   L 134.21 130.90   Q 133.61 131.50 134.46 131.50   L 165.45 131.50   A 0.39 0.39 0.0 0 0 165.72 130.84   L 151.05 116.20   Q 150.00 115.15 148.95 116.20   Z   M 116.78 145.26   L 145.16 116.91   A 0.49 0.49 0.0 0 0 144.71 116.08   Q 121.17 121.37 116.05 144.86   A 0.43 0.43 0.0 0 0 116.78 145.26   Z   M 183.94 145.10   C 181.17 130.00 170.12 118.63 154.89 116.12   A 0.34 0.34 0.0 0 0 154.59 116.69   L 183.32 145.43   A 0.37 0.37 0.0 0 0 183.94 145.10   Z   M 116.62 151.52   L 131.47 166.22   A 0.18 0.18 0.0 0 0 131.78 166.09   L 131.76 133.82   A 0.19 0.19 0.0 0 0 131.44 133.69   L 116.62 148.51   Q 115.11 150.01 116.62 151.52   Z   M 166.26 134.34   A 0.59 0.59 0.0 0 0 165.67 133.75   L 134.59 133.75   A 0.59 0.59 0.0 0 0 134.00 134.34   L 134.00 165.42   A 0.59 0.59 0.0 0 0 134.59 166.01   L 165.67 166.01   A 0.59 0.59 0.0 0 0 166.26 165.42   L 166.26 134.34   Z   M 168.44 164.94   Q 168.15 165.25 168.26 165.75   A 0.40 0.40 0.0 0 0 168.94 165.95   L 183.37 151.48   A 2.13 2.12 -45.1 0 0 183.37 148.49   L 169.19 134.31   A 0.44 0.44 0.0 0 0 168.44 134.63   Q 168.59 149.68 168.44 164.94   Z   M 145.20 183.10   L 116.83 154.73   Q 116.23 154.13 116.28 154.98   C 117.12 169.76 131.14 180.95 144.73 183.96   A 0.51 0.51 0.0 0 0 145.20 183.10   Z   M 154.54 183.32   A 0.26 0.25 19.2 0 0 154.75 183.75   Q 155.05 183.72 155.41 183.78   Q 155.79 183.84 156.13 183.75   Q 179.12 178.10 183.95 154.93   A 0.39 0.39 0.0 0 0 183.30 154.58   L 154.54 183.32   Z   M 151.25 183.62   L 165.90 168.97   Q 166.62 168.25 165.61 168.25   L 134.14 168.22   A 0.32 0.32 0.0 0 0 133.91 168.77   L 148.75 183.62   A 1.77 1.77 0.0 0 0 151.25 183.62   Z"
     id="path8"
     style="fill:#2c4a3e;fill-opacity:1" />
  <path
     fill="#094065"
     d="   M 282.1411 167.6780   A 0.53 0.53 0.0 0 1 281.6120 168.2089   L 246.0521 168.2710   A 0.53 0.53 0.0 0 1 245.5212 167.7419   L 245.4589 132.0620   A 0.53 0.53 0.0 0 1 245.9880 131.5311   L 281.5479 131.4690   A 0.53 0.53 0.0 0 1 282.0788 131.9981   L 282.1411 167.6780   Z   M 280.00 134.23   A 0.48 0.48 0.0 0 0 279.52 133.75   L 248.22 133.75   A 0.48 0.48 0.0 0 0 247.74 134.23   L 247.74 165.51   A 0.48 0.48 0.0 0 0 248.22 165.99   L 279.52 165.99   A 0.48 0.48 0.0 0 0 280.00 165.51   L 280.00 134.23   Z"
     id="path9"
     style="fill:#2c4a3e;fill-opacity:1" />
  <path
     fill="#094065"
     d="   M 137.53 158.69   L 149.72 139.61   A 0.35 0.35 0.0 0 1 150.31 139.61   L 162.43 158.74   A 0.35 0.35 0.0 0 1 162.13 159.27   L 137.83 159.23   A 0.35 0.35 0.0 0 1 137.53 158.69   Z"
     id="path10"
     style="fill:#2c4a3e;fill-opacity:1" />
  <path
     fill="#094065"
     d="   M 251.17 158.71   L 263.36 139.57   A 0.34 0.34 0.0 0 1 263.93 139.57   L 276.05 158.75   A 0.34 0.34 0.0 0 1 275.76 159.27   L 251.45 159.23   A 0.34 0.34 0.0 0 1 251.17 158.71   Z"
     id="path11"
     style="fill:#2c4a3e;fill-opacity:1" />
  <path
     fill="#094065"
     d="   M 38.72 300.00   L 33.93 300.00   Q 4.54 295.85 0.00 266.43   L 0.00 260.95   C 3.80 227.68 44.70 214.54 65.47 241.87   C 74.68 253.98 75.09 270.41 66.95 283.22   Q 57.71 297.77 38.72 300.00   Z   M 70.50 263.62   A 34.12 34.12 0.0 0 0 36.38 229.50   A 34.12 34.12 0.0 0 0 2.26 263.62   A 34.12 34.12 0.0 0 0 36.38 297.74   A 34.12 34.12 0.0 0 0 70.50 263.62   Z"
     id="path12"
     style="fill:#2c4a3e;fill-opacity:1" />
  <path
     fill="#094065"
     d="   M 152.23 300.00   L 147.39 300.00   Q 122.35 296.44 115.23 273.96   C 110.05 257.59 117.71 240.13 132.05 232.10   C 162.73 214.92 197.23 246.17 183.12 278.34   Q 174.89 297.09 152.23 300.00   Z   M 184.13 263.61   A 34.13 34.13 0.0 0 0 150.00 229.48   A 34.13 34.13 0.0 0 0 115.87 263.61   A 34.13 34.13 0.0 0 0 150.00 297.74   A 34.13 34.13 0.0 0 0 184.13 263.61   Z"
     id="path13"
     style="fill:#2c4a3e;fill-opacity:1" />
  <path
     fill="#ff8811"
     d="   M 300.00 227.28   L 300.00 300.00   L 227.29 300.00   L 227.28 227.81   Q 227.28 227.28 227.81 227.28   L 300.00 227.28   Z   M 250.85 252.62   L 255.91 255.60   Q 256.29 255.83 256.58 255.48   C 262.13 248.82 273.75 254.11 266.82 259.78   Q 263.18 262.77 261.38 267.11   A 1.18 1.18 0.0 0 0 262.46 268.75   L 267.73 268.76   Q 268.24 268.76 268.47 268.31   Q 270.14 264.93 272.83 262.37   C 278.32 257.12 278.16 249.43 270.28 246.83   C 263.58 244.62 255.13 245.82 250.70 251.91   A 0.49 0.49 0.0 0 0 250.85 252.62   Z   M 269.6286 277.0658   A 4.67 4.37 4.0 0 0 265.2748 272.3806   A 4.67 4.37 4.0 0 0 260.3114 276.4142   A 4.67 4.37 4.0 0 0 264.6652 281.0994   A 4.67 4.37 4.0 0 0 269.6286 277.0658   Z"
     id="path14"
     style="fill:#00784c;fill-opacity:1" />
  <path
     fill="#094065"
     d="   M 168.50 281.24   A 0.51 0.51 0.0 0 1 167.99 281.75   L 132.27 281.75   A 0.51 0.51 0.0 0 1 131.76 281.24   L 131.76 245.52   A 0.51 0.51 0.0 0 1 132.27 245.01   L 167.99 245.01   A 0.51 0.51 0.0 0 1 168.50 245.52   L 168.50 281.24   Z   M 166.25 247.81   A 0.56 0.56 0.0 0 0 165.69 247.25   L 134.57 247.25   A 0.56 0.56 0.0 0 0 134.01 247.81   L 134.01 278.95   A 0.56 0.56 0.0 0 0 134.57 279.51   L 165.69 279.51   A 0.56 0.56 0.0 0 0 166.25 278.95   L 166.25 247.81   Z"
     id="path15"
     style="fill:#2c4a3e;fill-opacity:1" />
  <path
     fill="#ffffff"
     d="   M 250.85 252.62   A 0.49 0.49 0.0 0 1 250.70 251.91   C 255.13 245.82 263.58 244.62 270.28 246.83   C 278.16 249.43 278.32 257.12 272.83 262.37   Q 270.14 264.93 268.47 268.31   Q 268.24 268.76 267.73 268.76   L 262.46 268.75   A 1.18 1.18 0.0 0 1 261.38 267.11   Q 263.18 262.77 266.82 259.78   C 273.75 254.11 262.13 248.82 256.58 255.48   Q 256.29 255.83 255.91 255.60   L 250.85 252.62   Z"
     id="path16" />
  <ellipse
     fill="#ffffff"
     cx="0.00"
     cy="0.00"
     transform="translate(264.97,276.74) rotate(4.0)"
     rx="4.67"
     ry="4.37"
     id="ellipse16" />
  <rect
     style="opacity:1;fill:#00784c;fill-opacity:1;stroke:#000000;stroke-width:0;paint-order:fill markers stroke"
     id="rect16"
     width="37.96069"
     height="46.437347"
     x="243.24324"
     y="237.71498"
     rx="0.25999999" />
  <text
     xml:space="preserve"
     style="font-weight:600;font-size:53.3333px;line-height:60.8;font-family:Poppins;-inkscape-font-specification:'Poppins Semi-Bold';text-align:center;text-anchor:middle;opacity:1;fill:#00784c;fill-opacity:1;stroke:#000000;stroke-width:0;paint-order:fill markers stroke"
     x="265.72482"
     y="284.52087"
     id="text16"><tspan
       sodipodi:role="line"
       id="tspan16"
       x="265.72482"
       y="284.52087"
       style="font-size:53.3333px;line-height:60.8;fill:#ffffff;fill-opacity:1">?</tspan></text>
</svg>
