<?xml version="1.0" encoding="UTF-8" standalone="no"?>
<!DOCTYPE svg PUBLIC "-//W3C//DTD SVG 1.1//EN" "http://www.w3.org/Graphics/SVG/1.1/DTD/svg11.dtd">
<svg xmlns="http://www.w3.org/2000/svg" version="1.1" viewBox="0.00 0.00 1448.00 1448.00">
<g stroke-width="2.00" fill="none" stroke-linecap="butt">
<path stroke="#186d4c" vector-effect="non-scaling-stroke" d="
  M 340.79 165.18
  C 336.59 82.49 268.05 14.68 185.93 10.41
  A 0.42 0.41 -83.8 0 0 185.50 10.76
  Q 185.46 11.03 185.60 11.25
  Q 185.75 11.49 185.75 11.76
  L 185.75 165.44
  A 0.31 0.31 0.0 0 0 186.06 165.75
  L 340.25 165.75
  Q 340.82 165.75 340.79 165.18"
/>
<path stroke="#186d4c" vector-effect="non-scaling-stroke" d="
  M 1106.52 186.30
  C 1109.35 238.35 1138.20 287.04 1182.74 315.29
  Q 1231.87 346.46 1290.31 340.48
  C 1360.16 333.34 1418.01 279.12 1433.41 211.49
  C 1455.84 112.91 1382.76 16.69 1282.23 10.28
  Q 1281.71 10.24 1281.71 10.77
  Q 1281.83 89.82 1281.72 168.88
  C 1281.71 178.25 1280.28 185.75 1269.49 185.75
  Q 1188.29 185.73 1107.03 185.76
  Q 1106.49 185.76 1106.52 186.30"
/>
<path stroke="#186d4c" vector-effect="non-scaling-stroke" d="
  M 868.53 255.80
  C 888.57 220.06 894.14 176.82 885.07 137.46
  C 869.08 68.07 806.12 14.04 734.22 10.56
  Q 733.75 10.53 733.75 11.00
  L 733.75 340.03
  Q 733.75 340.59 734.32 340.57
  C 790.87 338.08 841.16 304.60 868.53 255.80"
/>
<path stroke="#186d4c" vector-effect="non-scaling-stroke" d="
  M 278.52 593.89
  C 252.09 573.24 219.65 560.07 186.14 558.39
  Q 185.74 558.37 185.74 558.76
  L 185.75 697.51
  A 0.27 0.26 66.2 0 0 186.21 697.69
  L 278.55 594.22
  A 0.23 0.23 0.0 0 0 278.52 593.89"
/>
<path stroke="#186d4c" vector-effect="non-scaling-stroke" d="
  M 734.34 713.68
  L 888.21 713.61
  Q 888.82 713.61 888.79 713.00
  C 884.92 630.92 815.64 562.70 734.22 558.55
  Q 733.75 558.52 733.75 559.00
  L 733.75 713.09
  Q 733.75 713.68 734.34 713.68"
/>
<path stroke="#186d4c" vector-effect="non-scaling-stroke" d="
  M 1430.60 770.37
  C 1460.81 671.37 1386.56 562.22 1282.26 558.48
  Q 1281.75 558.46 1281.75 558.98
  L 1281.75 721.44
  Q 1281.75 721.95 1282.04 722.37
  L 1372.45 854.30
  A 0.52 0.52 0.0 0 0 1373.21 854.41
  Q 1415.17 820.95 1430.60 770.37"
/>
<path stroke="#186d4c" vector-effect="non-scaling-stroke" d="
  M 1437.97 1270.93
  A 167.04 167.04 0.0 0 0 1270.93 1103.89
  A 167.04 167.04 0.0 0 0 1103.89 1270.93
  A 167.04 167.04 0.0 0 0 1270.93 1437.97
  A 167.04 167.04 0.0 0 0 1437.97 1270.93"
/>
<path stroke="#186d4c" vector-effect="non-scaling-stroke" d="
  M 186.06 1273.75
  L 301.76 1378.21
  Q 302.13 1378.55 302.45 1378.17
  C 352.52 1318.28 354.01 1233.08 307.21 1171.34
  C 279.24 1134.45 233.15 1107.89 186.37 1106.37
  Q 185.75 1106.35 185.75 1106.98
  L 185.75 1273.06
  A 0.94 0.92 21.5 0 0 186.06 1273.75"
/>
<path stroke="#186d4c" vector-effect="non-scaling-stroke" d="
  M 626.81 1405.96
  Q 679.57 1443.00 742.57 1436.33
  C 816.09 1428.56 878.45 1367.77 887.79 1294.38
  C 900.13 1197.39 831.38 1113.49 734.30 1106.75
  Q 733.77 1106.71 733.77 1107.25
  Q 733.72 1188.94 733.76 1270.64
  C 733.76 1277.95 733.24 1280.85 728.80 1286.05
  Q 677.68 1345.82 626.73 1405.30
  Q 626.41 1405.67 626.81 1405.96"
/>
<path stroke="#80d5b4" vector-effect="non-scaling-stroke" d="
  M 1297.83 1241.85
  C 1289.36 1254.90 1261.42 1253.80 1247.98 1253.78
  A 0.48 0.47 90.0 0 0 1247.50 1254.27
  L 1248.74 1294.04
  Q 1248.75 1294.52 1249.23 1294.52
  L 1277.75 1294.49
  Q 1278.25 1294.49 1278.27 1294.00
  L 1279.18 1277.15
  A 1.33 1.33 0.0 0 1 1280.54 1275.89
  C 1313.65 1276.65 1337.15 1256.39 1334.15 1222.05
  C 1332.24 1200.22 1318.79 1185.02 1298.21 1179.54
  C 1263.54 1170.28 1223.24 1185.85 1224.19 1227.16
  Q 1224.20 1227.49 1224.53 1227.49
  L 1255.28 1227.52
  Q 1255.80 1227.52 1255.80 1227.00
  C 1255.54 1199.97 1295.10 1197.03 1301.00 1221.47
  Q 1303.73 1232.77 1297.83 1241.85"
/>
<path stroke="#80d5b4" vector-effect="non-scaling-stroke" d="
  M 1283.8999 1332.2076
  A 20.74 19.77 -0.2 0 0 1263.0910 1312.5101
  A 20.74 19.77 -0.2 0 0 1242.4201 1332.3524
  A 20.74 19.77 -0.2 0 0 1263.2290 1352.0499
  A 20.74 19.77 -0.2 0 0 1283.8999 1332.2076"
/>
</g>
<path fill="#303030" d="
  M 170.34 0.00
  L 182.07 0.00
  Q 251.93 3.72 300.31 51.82
  C 335.40 86.72 354.27 136.94 350.84 186.49
  C 344.27 281.56 264.51 354.59 168.46 350.91
  C 64.85 346.94 -12.38 253.66 2.00 151.00
  C 13.91 65.98 85.13 3.54 170.34 0.00
  Z
  M 340.79 165.18
  C 336.59 82.49 268.05 14.68 185.93 10.41
  A 0.42 0.41 -83.8 0 0 185.50 10.76
  Q 185.46 11.03 185.60 11.25
  Q 185.75 11.49 185.75 11.76
  L 185.75 165.44
  A 0.31 0.31 0.0 0 0 186.06 165.75
  L 340.25 165.75
  Q 340.82 165.75 340.79 165.18
  Z
  M 166.44 11.33
  C 90.60 15.56 28.75 70.85 14.24 144.52
  C -13.34 284.58 140.98 390.81 262.00 315.49
  C 310.64 285.22 339.29 233.76 340.20 176.70
  A 0.94 0.94 0.0 0 0 339.26 175.75
  L 176.25 175.75
  A 0.50 0.49 90.0 0 1 175.76 175.25
  L 175.74 12.75
  Q 175.74 11.40 174.39 11.31
  Q 170.82 11.08 166.44 11.33
  Z"
/>
<path fill="#303030" d="
  M 1269.33 0.00
  L 1280.05 0.00
  C 1359.58 4.99 1424.38 58.91 1442.75 136.24
  C 1448.14 158.96 1449.08 182.21 1444.87 205.06
  C 1426.61 304.19 1331.55 370.26 1231.68 346.79
  C 1160.37 330.04 1105.77 269.41 1097.30 197.19
  C 1089.94 134.44 1118.13 68.69 1170.63 32.38
  Q 1214.55 2.00 1269.33 0.00
  Z
  M 1106.52 186.30
  C 1109.35 238.35 1138.20 287.04 1182.74 315.29
  Q 1231.87 346.46 1290.31 340.48
  C 1360.16 333.34 1418.01 279.12 1433.41 211.49
  C 1455.84 112.91 1382.76 16.69 1282.23 10.28
  Q 1281.71 10.24 1281.71 10.77
  Q 1281.83 89.82 1281.72 168.88
  C 1281.71 178.25 1280.28 185.75 1269.49 185.75
  Q 1188.29 185.73 1107.03 185.76
  Q 1106.49 185.76 1106.52 186.30
  Z
  M 1270.80 10.82
  C 1179.70 14.22 1108.34 82.87 1107.13 175.13
  A 0.61 0.61 0.0 0 0 1107.74 175.75
  L 1270.75 175.75
  A 0.75 0.75 0.0 0 0 1271.50 175.00
  L 1271.50 11.50
  A 0.68 0.68 0.0 0 0 1270.80 10.82
  Z"
/>
<path fill="#303030" d="
  M 850.18 53.82
  C 891.48 95.91 907.56 156.11 895.17 213.43
  C 880.31 282.13 824.36 336.63 754.45 348.44
  C 628.56 369.71 522.53 256.68 553.73 132.23
  C 571.86 59.94 633.34 9.51 706.60 1.16
  C 760.50 -4.98 812.38 15.29 850.18 53.82
  Z
  M 868.53 255.80
  C 888.57 220.06 894.14 176.82 885.07 137.46
  C 869.08 68.07 806.12 14.04 734.22 10.56
  Q 733.75 10.53 733.75 11.00
  L 733.75 340.03
  Q 733.75 340.59 734.32 340.57
  C 790.87 338.08 841.16 304.60 868.53 255.80
  Z
  M 621.26 47.65
  C 577.60 83.27 554.36 134.17 559.78 190.57
  C 563.42 228.46 580.96 266.26 608.25 292.88
  Q 655.20 338.69 722.80 340.18
  A 0.93 0.92 0.6 0 0 723.75 339.26
  L 723.75 12.26
  A 1.41 1.40 -0.6 0 0 722.31 10.86
  Q 664.41 12.43 621.26 47.65
  Z"
/>
<path fill="#00aa68" d="
  M 185.93 10.41
  C 268.05 14.68 336.59 82.49 340.79 165.18
  Q 340.82 165.75 340.25 165.75
  L 186.06 165.75
  A 0.31 0.31 0.0 0 1 185.75 165.44
  L 185.75 11.76
  Q 185.75 11.49 185.60 11.25
  Q 185.46 11.03 185.50 10.76
  A 0.42 0.41 -83.8 0 1 185.93 10.41
  Z"
/>
<path fill="#00aa68" d="
  M 1182.74 315.29
  C 1138.20 287.04 1109.35 238.35 1106.52 186.30
  Q 1106.49 185.76 1107.03 185.76
  Q 1188.29 185.73 1269.49 185.75
  C 1280.28 185.75 1281.71 178.25 1281.72 168.88
  Q 1281.83 89.82 1281.71 10.77
  Q 1281.71 10.24 1282.23 10.28
  C 1382.76 16.69 1455.84 112.91 1433.41 211.49
  C 1418.01 279.12 1360.16 333.34 1290.31 340.48
  Q 1231.87 346.46 1182.74 315.29
  Z"
/>
<path fill="#00aa68" d="
  M 868.53 255.80
  C 841.16 304.60 790.87 338.08 734.32 340.57
  Q 733.75 340.59 733.75 340.03
  L 733.75 11.00
  Q 733.75 10.53 734.22 10.56
  C 806.12 14.04 869.08 68.07 885.07 137.46
  C 894.14 176.82 888.57 220.06 868.53 255.80
  Z"
/>
<path fill="#303030" d="
  M 0.00 729.95
  L 0.00 719.69
  Q 2.50 664.67 33.09 621.83
  C 103.96 522.57 248.82 524.16 318.95 622.45
  C 352.28 669.16 359.88 730.69 340.04 784.38
  C 307.24 873.10 213.04 918.28 122.93 890.85
  C 52.12 869.29 3.76 804.29 0.00 729.95
  Z
  M 278.52 593.89
  C 252.09 573.24 219.65 560.07 186.14 558.39
  Q 185.74 558.37 185.74 558.76
  L 185.75 697.51
  A 0.27 0.26 66.2 0 0 186.21 697.69
  L 278.55 594.22
  A 0.23 0.23 0.0 0 0 278.52 593.89
  Z
  M 175.76 723.47
  L 175.73 560.76
  Q 175.73 559.23 174.20 559.22
  C 105.81 558.79 43.04 605.13 20.50 668.50
  C -23.89 793.29 91.18 917.35 218.89 882.35
  C 290.76 862.64 340.38 797.21 340.30 722.97
  C 340.24 676.78 319.62 633.48 286.06 602.14
  A 0.80 0.79 42.3 0 0 284.92 602.19
  L 176.45 723.73
  A 0.39 0.39 0.0 0 1 175.76 723.47
  Z"
/>
<path fill="#303030" d="
  M 899.26 723.59
  A 175.53 175.53 0.0 0 1 723.73 899.12
  A 175.53 175.53 0.0 0 1 548.20 723.59
  A 175.53 175.53 0.0 0 1 723.73 548.06
  A 175.53 175.53 0.0 0 1 899.26 723.59
  Z
  M 734.34 713.68
  L 888.21 713.61
  Q 888.82 713.61 888.79 713.00
  C 884.92 630.92 815.64 562.70 734.22 558.55
  Q 733.75 558.52 733.75 559.00
  L 733.75 713.09
  Q 733.75 713.68 734.34 713.68
  Z
  M 560.26 742.89
  C 568.95 811.18 619.43 868.80 686.82 883.92
  C 790.91 907.28 886.37 829.99 888.20 724.46
  A 0.70 0.70 0.0 0 0 887.50 723.75
  L 724.73 723.75
  A 0.98 0.98 0.0 0 1 723.75 722.77
  Q 723.76 642.75 723.71 562.56
  Q 723.71 561.05 723.37 559.60
  Q 723.24 559.04 722.67 559.05
  C 662.43 559.85 608.25 592.23 579.16 644.92
  C 563.18 673.86 556.01 709.49 560.26 742.89
  Z"
/>
<path fill="#303030" d="
  M 1281.04 898.77
  C 1155.94 905.07 1064.52 783.03 1106.55 664.06
  C 1144.89 555.55 1281.18 513.31 1374.17 580.83
  C 1426.18 618.59 1456.29 686.71 1445.33 750.63
  C 1431.30 832.48 1364.95 894.54 1281.04 898.77
  Z
  M 1430.60 770.37
  C 1460.81 671.37 1386.56 562.22 1282.26 558.48
  Q 1281.75 558.46 1281.75 558.98
  L 1281.75 721.44
  Q 1281.75 721.95 1282.04 722.37
  L 1372.45 854.30
  A 0.52 0.52 0.0 0 0 1373.21 854.41
  Q 1415.17 820.95 1430.60 770.37
  Z
  M 1109.61 753.44
  C 1122.75 826.69 1183.80 880.18 1257.28 887.33
  C 1294.90 890.99 1332.24 880.89 1363.72 860.05
  Q 1364.10 859.80 1363.85 859.43
  L 1271.96 725.34
  A 2.68 2.67 28.0 0 1 1271.50 723.84
  L 1271.50 559.77
  A 0.77 0.76 89.3 0 0 1270.72 559.00
  C 1168.55 561.26 1091.35 651.64 1109.61 753.44
  Z"
/>
<path fill="#00aa68" d="
  M 278.52 593.89
  A 0.23 0.23 0.0 0 1 278.55 594.22
  L 186.21 697.69
  A 0.27 0.26 66.2 0 1 185.75 697.51
  L 185.74 558.76
  Q 185.74 558.37 186.14 558.39
  C 219.65 560.07 252.09 573.24 278.52 593.89
  Z"
/>
<path fill="#00aa68" d="
  M 1282.26 558.48
  C 1386.56 562.22 1460.81 671.37 1430.60 770.37
  Q 1415.17 820.95 1373.21 854.41
  A 0.52 0.52 0.0 0 1 1372.45 854.30
  L 1282.04 722.37
  Q 1281.75 721.95 1281.75 721.44
  L 1281.75 558.98
  Q 1281.75 558.46 1282.26 558.48
  Z"
/>
<path fill="#00aa68" d="
  M 888.21 713.61
  L 734.34 713.68
  Q 733.75 713.68 733.75 713.09
  L 733.75 559.00
  Q 733.75 558.52 734.22 558.55
  C 815.64 562.70 884.92 630.92 888.79 713.00
  Q 888.82 713.61 888.21 713.61
  Z"
/>
<path fill="#303030" d="
  M 1448.00 1266.07
  L 1448.00 1275.82
  C 1446.39 1318.77 1430.47 1359.33 1401.31 1390.67
  Q 1351.54 1444.17 1276.47 1448.00
  L 1266.18 1448.00
  Q 1191.29 1444.82 1141.22 1391.53
  C 1070.86 1316.65 1080.33 1195.05 1161.40 1131.82
  C 1275.99 1042.44 1442.97 1120.08 1448.00 1266.07
  Z
  M 1437.97 1270.93
  A 167.04 167.04 0.0 0 0 1270.93 1103.89
  A 167.04 167.04 0.0 0 0 1103.89 1270.93
  A 167.04 167.04 0.0 0 0 1270.93 1437.97
  A 167.04 167.04 0.0 0 0 1437.97 1270.93
  Z"
/>
<path fill="#303030" d="
  M 0.00 1277.47
  L 0.00 1268.19
  C 3.98 1165.18 88.66 1089.81 191.01 1096.51
  C 238.35 1099.61 284.47 1126.11 313.31 1162.68
  C 380.72 1248.16 355.30 1373.33 260.20 1425.38
  C 193.67 1461.79 109.42 1451.42 54.30 1398.09
  Q 3.94 1349.38 0.00 1277.47
  Z
  M 186.06 1273.75
  L 301.76 1378.21
  Q 302.13 1378.55 302.45 1378.17
  C 352.52 1318.28 354.01 1233.08 307.21 1171.34
  C 279.24 1134.45 233.15 1107.89 186.37 1106.37
  Q 185.75 1106.35 185.75 1106.98
  L 185.75 1273.06
  A 0.94 0.92 21.5 0 0 186.06 1273.75
  Z
  M 175.58 1122.61
  C 175.56 1118.81 175.97 1112.77 175.44 1107.76
  Q 175.38 1107.19 174.80 1107.20
  C 116.70 1108.31 61.27 1139.61 32.33 1190.31
  C -8.39 1261.65 10.80 1354.89 77.51 1403.72
  C 145.15 1453.24 235.11 1444.89 294.25 1385.86
  A 0.60 0.59 43.7 0 0 294.23 1385.00
  Q 235.26 1331.74 177.71 1279.79
  C 176.37 1278.58 175.68 1278.16 175.69 1276.17
  Q 175.93 1199.39 175.58 1122.61
  Z"
/>
<path fill="#303030" d="
  M 895.47 1308.34
  C 873.76 1409.96 767.88 1471.29 668.50 1438.50
  C 585.60 1411.16 533.90 1323.18 551.47 1236.97
  C 562.98 1180.51 603.11 1130.95 656.73 1109.34
  C 728.93 1080.24 815.16 1101.49 862.97 1164.09
  C 894.07 1204.82 906.23 1258.00 895.47 1308.34
  Z
  M 626.81 1405.96
  Q 679.57 1443.00 742.57 1436.33
  C 816.09 1428.56 878.45 1367.77 887.79 1294.38
  C 900.13 1197.39 831.38 1113.49 734.30 1106.75
  Q 733.77 1106.71 733.77 1107.25
  Q 733.72 1188.94 733.76 1270.64
  C 733.76 1277.95 733.24 1280.85 728.80 1286.05
  Q 677.68 1345.82 626.73 1405.30
  Q 626.41 1405.67 626.81 1405.96
  Z
  M 560.52 1249.26
  C 552.79 1303.68 574.69 1363.30 618.22 1398.00
  A 1.18 1.18 0.0 0 0 619.85 1397.85
  L 722.94 1277.45
  A 3.37 3.33 65.6 0 0 723.75 1275.26
  L 723.75 1108.23
  A 0.98 0.98 0.0 0 0 722.77 1107.25
  C 641.11 1107.41 571.98 1168.64 560.52 1249.26
  Z"
/>
<path fill="#00aa68" d="
  M 1437.97 1270.93
  A 167.04 167.04 0.0 0 1 1270.93 1437.97
  A 167.04 167.04 0.0 0 1 1103.89 1270.93
  A 167.04 167.04 0.0 0 1 1270.93 1103.89
  A 167.04 167.04 0.0 0 1 1437.97 1270.93
  Z
  M 1297.83 1241.85
  C 1289.36 1254.90 1261.42 1253.80 1247.98 1253.78
  A 0.48 0.47 90.0 0 0 1247.50 1254.27
  L 1248.74 1294.04
  Q 1248.75 1294.52 1249.23 1294.52
  L 1277.75 1294.49
  Q 1278.25 1294.49 1278.27 1294.00
  L 1279.18 1277.15
  A 1.33 1.33 0.0 0 1 1280.54 1275.89
  C 1313.65 1276.65 1337.15 1256.39 1334.15 1222.05
  C 1332.24 1200.22 1318.79 1185.02 1298.21 1179.54
  C 1263.54 1170.28 1223.24 1185.85 1224.19 1227.16
  Q 1224.20 1227.49 1224.53 1227.49
  L 1255.28 1227.52
  Q 1255.80 1227.52 1255.80 1227.00
  C 1255.54 1199.97 1295.10 1197.03 1301.00 1221.47
  Q 1303.73 1232.77 1297.83 1241.85
  Z
  M 1283.8999 1332.2076
  A 20.74 19.77 -0.2 0 0 1263.0910 1312.5101
  A 20.74 19.77 -0.2 0 0 1242.4201 1332.3524
  A 20.74 19.77 -0.2 0 0 1263.2290 1352.0499
  A 20.74 19.77 -0.2 0 0 1283.8999 1332.2076
  Z"
/>
<path fill="#00aa68" d="
  M 301.76 1378.21
  L 186.06 1273.75
  A 0.94 0.92 21.5 0 1 185.75 1273.06
  L 185.75 1106.98
  Q 185.75 1106.35 186.37 1106.37
  C 233.15 1107.89 279.24 1134.45 307.21 1171.34
  C 354.01 1233.08 352.52 1318.28 302.45 1378.17
  Q 302.13 1378.55 301.76 1378.21
  Z"
/>
<path fill="#00aa68" d="
  M 626.81 1405.96
  Q 626.41 1405.67 626.73 1405.30
  Q 677.68 1345.82 728.80 1286.05
  C 733.24 1280.85 733.76 1277.95 733.76 1270.64
  Q 733.72 1188.94 733.77 1107.25
  Q 733.77 1106.71 734.30 1106.75
  C 831.38 1113.49 900.13 1197.39 887.79 1294.38
  C 878.45 1367.77 816.09 1428.56 742.57 1436.33
  Q 679.57 1443.00 626.81 1405.96
  Z"
/>
<path fill="#ffffff" d="
  M 1297.83 1241.85
  Q 1303.73 1232.77 1301.00 1221.47
  C 1295.10 1197.03 1255.54 1199.97 1255.80 1227.00
  Q 1255.80 1227.52 1255.28 1227.52
  L 1224.53 1227.49
  Q 1224.20 1227.49 1224.19 1227.16
  C 1223.24 1185.85 1263.54 1170.28 1298.21 1179.54
  C 1318.79 1185.02 1332.24 1200.22 1334.15 1222.05
  C 1337.15 1256.39 1313.65 1276.65 1280.54 1275.89
  A 1.33 1.33 0.0 0 0 1279.18 1277.15
  L 1278.27 1294.00
  Q 1278.25 1294.49 1277.75 1294.49
  L 1249.23 1294.52
  Q 1248.75 1294.52 1248.74 1294.04
  L 1247.50 1254.27
  A 0.48 0.47 90.0 0 1 1247.98 1253.78
  C 1261.42 1253.80 1289.36 1254.90 1297.83 1241.85
  Z"
/>
<ellipse fill="#ffffff" cx="0.00" cy="0.00" transform="translate(1263.16,1332.28) rotate(-0.2)" rx="20.74" ry="19.77"/>
</svg>
