<?xml version="1.0" encoding="UTF-8" standalone="no"?>
<svg
   version="1.1"
   viewBox="0.00 0.00 1448.00 1448.00"
   id="svg150"
   sodipodi:docname="question.svg"
   inkscape:version="1.3 (0e150ed6c4, 2023-07-21)"
   xmlns:inkscape="http://www.inkscape.org/namespaces/inkscape"
   xmlns:sodipodi="http://sodipodi.sourceforge.net/DTD/sodipodi-0.dtd"
   xmlns="http://www.w3.org/2000/svg"
   xmlns:svg="http://www.w3.org/2000/svg">
  <defs
     id="defs150" />
  <sodipodi:namedview
     id="namedview150"
     pagecolor="#ffffff"
     bordercolor="#000000"
     borderopacity="0.25"
     inkscape:showpageshadow="2"
     inkscape:pageopacity="0.0"
     inkscape:pagecheckerboard="0"
     inkscape:deskcolor="#d1d1d1"
     inkscape:zoom="0.5621547"
     inkscape:cx="723.11057"
     inkscape:cy="724"
     inkscape:window-width="1920"
     inkscape:window-height="1010"
     inkscape:window-x="-6"
     inkscape:window-y="-6"
     inkscape:window-maximized="1"
     inkscape:current-layer="svg150" />
  <g
     stroke-width="2.00"
     fill="none"
     stroke-linecap="butt"
     id="g75">
    <path
       stroke="#989898"
       vector-effect="non-scaling-stroke"
       d="   M 116.25 22.52   A 0.27 0.27 0.0 0 0 115.98 22.25   L 22.52 22.25   A 0.27 0.27 0.0 0 0 22.25 22.52   L 22.25 115.98   A 0.27 0.27 0.0 0 0 22.52 116.25   L 115.98 116.25   A 0.27 0.27 0.0 0 0 116.25 115.98   L 116.25 22.52"
       id="path1" />
    <path
       stroke="#989898"
       vector-effect="non-scaling-stroke"
       d="   M 224.00 23.01   A 0.76 0.76 0.0 0 0 223.24 22.25   L 129.26 22.25   A 0.76 0.76 0.0 0 0 128.50 23.01   L 128.50 115.49   A 0.76 0.76 0.0 0 0 129.26 116.25   L 223.24 116.25   A 0.76 0.76 0.0 0 0 224.00 115.49   L 224.00 23.01"
       id="path2" />
    <path
       stroke="#18553c"
       vector-effect="non-scaling-stroke"
       d="   M 330.23 23.22   A 0.97 0.97 0.0 0 0 329.26 22.25   L 237.22 22.25   A 0.97 0.97 0.0 0 0 236.25 23.22   L 236.25 115.28   A 0.97 0.97 0.0 0 0 237.22 116.25   L 329.26 116.25   A 0.97 0.97 0.0 0 0 330.23 115.28   L 330.23 23.22"
       id="path3" />
    <path
       stroke="#989898"
       vector-effect="non-scaling-stroke"
       d="   M 116.25 129.10   A 0.62 0.62 0.0 0 0 115.63 128.48   L 22.87 128.48   A 0.62 0.62 0.0 0 0 22.25 129.10   L 22.25 223.38   A 0.62 0.62 0.0 0 0 22.87 224.00   L 115.63 224.00   A 0.62 0.62 0.0 0 0 116.25 223.38   L 116.25 129.10"
       id="path4" />
    <path
       stroke="#18553c"
       vector-effect="non-scaling-stroke"
       d="   M 224.0814 129.6335   A 1.05 1.05 0.0 0 0 223.0332 128.5817   L 129.5334 128.4185   A 1.05 1.05 0.0 0 0 128.4815 129.4666   L 128.3186 222.8265   A 1.05 1.05 0.0 0 0 129.3668 223.8783   L 222.8666 224.0415   A 1.05 1.05 0.0 0 0 223.9185 222.9934   L 224.0814 129.6335"
       id="path5" />
    <path
       stroke="#989898"
       vector-effect="non-scaling-stroke"
       d="   M 330.23 128.76   A 0.26 0.26 0.0 0 0 329.97 128.50   L 236.51 128.50   A 0.26 0.26 0.0 0 0 236.25 128.76   L 236.25 223.74   A 0.26 0.26 0.0 0 0 236.51 224.00   L 329.97 224.00   A 0.26 0.26 0.0 0 0 330.23 223.74   L 330.23 128.76"
       id="path6" />
    <path
       stroke="#989898"
       vector-effect="non-scaling-stroke"
       d="   M 116.25 236.52   A 0.27 0.27 0.0 0 0 115.98 236.25   L 22.52 236.25   A 0.27 0.27 0.0 0 0 22.25 236.52   L 22.25 329.98   A 0.27 0.27 0.0 0 0 22.52 330.25   L 115.98 330.25   A 0.27 0.27 0.0 0 0 116.25 329.98   L 116.25 236.52"
       id="path7" />
    <path
       stroke="#989898"
       vector-effect="non-scaling-stroke"
       d="   M 224.00 236.52   A 0.27 0.27 0.0 0 0 223.73 236.25   L 128.77 236.25   A 0.27 0.27 0.0 0 0 128.50 236.52   L 128.50 329.98   A 0.27 0.27 0.0 0 0 128.77 330.25   L 223.73 330.25   A 0.27 0.27 0.0 0 0 224.00 329.98   L 224.00 236.52"
       id="path8" />
    <path
       stroke="#989898"
       vector-effect="non-scaling-stroke"
       d="   M 330.25 236.51   A 0.26 0.26 0.0 0 0 329.99 236.25   L 236.51 236.25   A 0.26 0.26 0.0 0 0 236.25 236.51   L 236.25 329.99   A 0.26 0.26 0.0 0 0 236.51 330.25   L 329.99 330.25   A 0.26 0.26 0.0 0 0 330.25 329.99   L 330.25 236.51"
       id="path9" />
    <path
       stroke="#989898"
       vector-effect="non-scaling-stroke"
       d="   M 664.00 22.66   A 0.41 0.41 0.0 0 0 663.59 22.25   L 570.63 22.25   A 0.41 0.41 0.0 0 0 570.22 22.66   L 570.22 115.84   A 0.41 0.41 0.0 0 0 570.63 116.25   L 663.59 116.25   A 0.41 0.41 0.0 0 0 664.00 115.84   L 664.00 22.66"
       id="path10" />
    <path
       stroke="#989898"
       vector-effect="non-scaling-stroke"
       d="   M 771.75 22.52   A 0.27 0.27 0.0 0 0 771.48 22.25   L 676.52 22.25   A 0.27 0.27 0.0 0 0 676.25 22.52   L 676.25 115.98   A 0.27 0.27 0.0 0 0 676.52 116.25   L 771.48 116.25   A 0.27 0.27 0.0 0 0 771.75 115.98   L 771.75 22.52"
       id="path11" />
    <path
       stroke="#989898"
       vector-effect="non-scaling-stroke"
       d="   M 877.98 22.83   A 0.58 0.58 0.0 0 0 877.40 22.25   L 784.58 22.25   A 0.58 0.58 0.0 0 0 784.00 22.83   L 784.00 115.67   A 0.58 0.58 0.0 0 0 784.58 116.25   L 877.40 116.25   A 0.58 0.58 0.0 0 0 877.98 115.67   L 877.98 22.83"
       id="path12" />
    <path
       stroke="#989898"
       vector-effect="non-scaling-stroke"
       d="   M 664.00 128.75   A 0.26 0.26 0.0 0 0 663.74 128.49   L 570.48 128.49   A 0.26 0.26 0.0 0 0 570.22 128.75   L 570.22 223.71   A 0.26 0.26 0.0 0 0 570.48 223.97   L 663.74 223.97   A 0.26 0.26 0.0 0 0 664.00 223.71   L 664.00 128.75"
       id="path13" />
    <path
       stroke="#18553c"
       vector-effect="non-scaling-stroke"
       d="   M 771.75 129.48   A 0.98 0.98 0.0 0 0 770.77 128.50   L 677.23 128.50   A 0.98 0.98 0.0 0 0 676.25 129.48   L 676.25 223.02   A 0.98 0.98 0.0 0 0 677.23 224.00   L 770.77 224.00   A 0.98 0.98 0.0 0 0 771.75 223.02   L 771.75 129.48"
       id="path14" />
    <path
       stroke="#18553c"
       vector-effect="non-scaling-stroke"
       d="   M 878.00 129.29   A 0.79 0.79 0.0 0 0 877.21 128.50   L 784.79 128.50   A 0.79 0.79 0.0 0 0 784.00 129.29   L 784.00 223.17   A 0.79 0.79 0.0 0 0 784.79 223.96   L 877.21 223.96   A 0.79 0.79 0.0 0 0 878.00 223.17   L 878.00 129.29"
       id="path15" />
    <path
       stroke="#989898"
       vector-effect="non-scaling-stroke"
       d="   M 664.00 236.51   A 0.26 0.26 0.0 0 0 663.74 236.25   L 570.48 236.25   A 0.26 0.26 0.0 0 0 570.22 236.51   L 570.22 329.99   A 0.26 0.26 0.0 0 0 570.48 330.25   L 663.74 330.25   A 0.26 0.26 0.0 0 0 664.00 329.99   L 664.00 236.51"
       id="path16" />
    <path
       stroke="#989898"
       vector-effect="non-scaling-stroke"
       d="   M 771.75 236.51   A 0.26 0.26 0.0 0 0 771.49 236.25   L 676.51 236.25   A 0.26 0.26 0.0 0 0 676.25 236.51   L 676.25 329.99   A 0.26 0.26 0.0 0 0 676.51 330.25   L 771.49 330.25   A 0.26 0.26 0.0 0 0 771.75 329.99   L 771.75 236.51"
       id="path17" />
    <path
       stroke="#989898"
       vector-effect="non-scaling-stroke"
       d="   M 877.96 236.52   A 0.27 0.27 0.0 0 0 877.69 236.25   L 784.27 236.25   A 0.27 0.27 0.0 0 0 784.00 236.52   L 784.00 329.98   A 0.27 0.27 0.0 0 0 784.27 330.25   L 877.69 330.25   A 0.27 0.27 0.0 0 0 877.96 329.98   L 877.96 236.52"
       id="path18" />
    <path
       stroke="#989898"
       vector-effect="non-scaling-stroke"
       d="   M 1211.75 22.52   A 0.27 0.27 0.0 0 0 1211.48 22.25   L 1118.02 22.25   A 0.27 0.27 0.0 0 0 1117.75 22.52   L 1117.75 115.98   A 0.27 0.27 0.0 0 0 1118.02 116.25   L 1211.48 116.25   A 0.27 0.27 0.0 0 0 1211.75 115.98   L 1211.75 22.52"
       id="path19" />
    <path
       stroke="#989898"
       vector-effect="non-scaling-stroke"
       d="   M 1319.54 22.90   A 0.65 0.65 0.0 0 0 1318.89 22.25   L 1224.65 22.25   A 0.65 0.65 0.0 0 0 1224.00 22.90   L 1224.00 115.60   A 0.65 0.65 0.0 0 0 1224.65 116.25   L 1318.89 116.25   A 0.65 0.65 0.0 0 0 1319.54 115.60   L 1319.54 22.90"
       id="path20" />
    <path
       stroke="#989898"
       vector-effect="non-scaling-stroke"
       d="   M 1425.75 22.81   A 0.56 0.56 0.0 0 0 1425.19 22.25   L 1332.31 22.25   A 0.56 0.56 0.0 0 0 1331.75 22.81   L 1331.75 115.69   A 0.56 0.56 0.0 0 0 1332.31 116.25   L 1425.19 116.25   A 0.56 0.56 0.0 0 0 1425.75 115.69   L 1425.75 22.81"
       id="path21" />
    <path
       stroke="#989898"
       vector-effect="non-scaling-stroke"
       d="   M 1211.75 128.80   A 0.32 0.32 0.0 0 0 1211.43 128.48   L 1118.11 128.48   A 0.32 0.32 0.0 0 0 1117.79 128.80   L 1117.79 223.68   A 0.32 0.32 0.0 0 0 1118.11 224.00   L 1211.43 224.00   A 0.32 0.32 0.0 0 0 1211.75 223.68   L 1211.75 128.80"
       id="path22" />
    <path
       stroke="#989898"
       vector-effect="non-scaling-stroke"
       d="   M 1425.75 129.10   A 0.62 0.62 0.0 0 0 1425.13 128.48   L 1332.37 128.48   A 0.62 0.62 0.0 0 0 1331.75 129.10   L 1331.75 223.38   A 0.62 0.62 0.0 0 0 1332.37 224.00   L 1425.13 224.00   A 0.62 0.62 0.0 0 0 1425.75 223.38   L 1425.75 129.10"
       id="path23" />
    <path
       stroke="#18553c"
       vector-effect="non-scaling-stroke"
       d="   M 1319.50 129.46   A 0.96 0.96 0.0 0 0 1318.54 128.50   L 1224.96 128.50   A 0.96 0.96 0.0 0 0 1224.00 129.46   L 1224.00 223.02   A 0.96 0.96 0.0 0 0 1224.96 223.98   L 1318.54 223.98   A 0.96 0.96 0.0 0 0 1319.50 223.02   L 1319.50 129.46"
       id="path24" />
    <path
       stroke="#989898"
       vector-effect="non-scaling-stroke"
       d="   M 1211.75 236.51   A 0.26 0.26 0.0 0 0 1211.49 236.25   L 1118.01 236.25   A 0.26 0.26 0.0 0 0 1117.75 236.51   L 1117.75 329.99   A 0.26 0.26 0.0 0 0 1118.01 330.25   L 1211.49 330.25   A 0.26 0.26 0.0 0 0 1211.75 329.99   L 1211.75 236.51"
       id="path25" />
    <path
       stroke="#989898"
       vector-effect="non-scaling-stroke"
       d="   M 1319.50 236.51   A 0.26 0.26 0.0 0 0 1319.24 236.25   L 1224.26 236.25   A 0.26 0.26 0.0 0 0 1224.00 236.51   L 1224.00 329.99   A 0.26 0.26 0.0 0 0 1224.26 330.25   L 1319.24 330.25   A 0.26 0.26 0.0 0 0 1319.50 329.99   L 1319.50 236.51"
       id="path26" />
    <path
       stroke="#18553c"
       vector-effect="non-scaling-stroke"
       d="   M 1425.75 237.10   A 0.85 0.85 0.0 0 0 1424.90 236.25   L 1332.60 236.25   A 0.85 0.85 0.0 0 0 1331.75 237.10   L 1331.75 329.40   A 0.85 0.85 0.0 0 0 1332.60 330.25   L 1424.90 330.25   A 0.85 0.85 0.0 0 0 1425.75 329.40   L 1425.75 237.10"
       id="path27" />
    <path
       stroke="#989898"
       vector-effect="non-scaling-stroke"
       d="   M 116.3314 570.4821   A 0.26 0.26 0.0 0 0 116.0718 570.2216   L 22.5920 570.0585   A 0.26 0.26 0.0 0 0 22.3315 570.3180   L 22.1686 663.6579   A 0.26 0.26 0.0 0 0 22.4282 663.9184   L 115.9080 664.0815   A 0.26 0.26 0.0 0 0 116.1685 663.8220   L 116.3314 570.4821"
       id="path28" />
    <path
       stroke="#989898"
       vector-effect="non-scaling-stroke"
       d="   M 224.00 570.70   A 0.56 0.56 0.0 0 0 223.44 570.14   L 129.06 570.14   A 0.56 0.56 0.0 0 0 128.50 570.70   L 128.50 663.44   A 0.56 0.56 0.0 0 0 129.06 664.00   L 223.44 664.00   A 0.56 0.56 0.0 0 0 224.00 663.44   L 224.00 570.70"
       id="path29" />
    <path
       stroke="#989898"
       vector-effect="non-scaling-stroke"
       d="   M 330.19 570.48   A 0.30 0.30 0.0 0 0 329.89 570.18   L 236.55 570.18   A 0.30 0.30 0.0 0 0 236.25 570.48   L 236.25 663.70   A 0.30 0.30 0.0 0 0 236.55 664.00   L 329.89 664.00   A 0.30 0.30 0.0 0 0 330.19 663.70   L 330.19 570.48"
       id="path30" />
    <path
       stroke="#989898"
       vector-effect="non-scaling-stroke"
       d="   M 116.25 676.82   A 0.57 0.57 0.0 0 0 115.68 676.25   L 22.82 676.25   A 0.57 0.57 0.0 0 0 22.25 676.82   L 22.25 771.18   A 0.57 0.57 0.0 0 0 22.82 771.75   L 115.68 771.75   A 0.57 0.57 0.0 0 0 116.25 771.18   L 116.25 676.82"
       id="path31" />
    <path
       stroke="#18553c"
       vector-effect="non-scaling-stroke"
       d="   M 224.00 677.27   A 1.02 1.02 0.0 0 0 222.98 676.25   L 129.46 676.25   A 1.02 1.02 0.0 0 0 128.44 677.27   L 128.44 770.73   A 1.02 1.02 0.0 0 0 129.46 771.75   L 222.98 771.75   A 1.02 1.02 0.0 0 0 224.00 770.73   L 224.00 677.27"
       id="path32" />
    <path
       stroke="#989898"
       vector-effect="non-scaling-stroke"
       d="   M 330.25 676.66   A 0.41 0.41 0.0 0 0 329.84 676.25   L 236.66 676.25   A 0.41 0.41 0.0 0 0 236.25 676.66   L 236.25 771.34   A 0.41 0.41 0.0 0 0 236.66 771.75   L 329.84 771.75   A 0.41 0.41 0.0 0 0 330.25 771.34   L 330.25 676.66"
       id="path33" />
    <path
       stroke="#989898"
       vector-effect="non-scaling-stroke"
       d="   M 116.3310 784.5921   A 0.51 0.51 0.0 0 0 115.8219 784.0812   L 22.8420 783.9189   A 0.51 0.51 0.0 0 0 22.3311 784.4280   L 22.1690 877.3279   A 0.51 0.51 0.0 0 0 22.6781 877.8388   L 115.6580 878.0011   A 0.51 0.51 0.0 0 0 116.1689 877.4920   L 116.3310 784.5921"
       id="path34" />
    <path
       stroke="#18553c"
       vector-effect="non-scaling-stroke"
       d="   M 128.99 877.76   C 160.19 877.62 191.04 878.31 222.65 877.66   Q 224.00 877.64 224.00 876.28   L 224.00 785.00   A 1.00 1.00 0.0 0 0 223.00 784.00   L 129.10 784.00   A 0.66 0.65 0.0 0 0 128.44 784.65   L 128.41 877.17   A 0.59 0.58 -90.0 0 0 128.99 877.76"
       id="path35" />
    <path
       stroke="#989898"
       vector-effect="non-scaling-stroke"
       d="   M 330.3113 784.4121   A 0.33 0.33 0.0 0 0 329.9819 784.0815   L 236.6620 783.9186   A 0.33 0.33 0.0 0 0 236.3314 784.2481   L 236.1687 877.4879   A 0.33 0.33 0.0 0 0 236.4981 877.8185   L 329.8180 877.9814   A 0.33 0.33 0.0 0 0 330.1486 877.6519   L 330.3113 784.4121"
       id="path36" />
    <path
       stroke="#989898"
       vector-effect="non-scaling-stroke"
       d="   M 664.00 570.55   A 0.45 0.45 0.0 0 0 663.55 570.10   L 570.65 570.10   A 0.45 0.45 0.0 0 0 570.20 570.55   L 570.20 663.55   A 0.45 0.45 0.0 0 0 570.65 664.00   L 663.55 664.00   A 0.45 0.45 0.0 0 0 664.00 663.55   L 664.00 570.55"
       id="path37" />
    <path
       stroke="#989898"
       vector-effect="non-scaling-stroke"
       d="   M 771.8306 570.9034   A 0.68 0.68 0.0 0 0 771.1518 570.2222   L 677.0120 570.0579   A 0.68 0.68 0.0 0 0 676.3308 570.7367   L 676.1694 663.2366   A 0.68 0.68 0.0 0 0 676.8482 663.9178   L 770.9880 664.0821   A 0.68 0.68 0.0 0 0 771.6692 663.4033   L 771.8306 570.9034"
       id="path38" />
    <path
       stroke="#989898"
       vector-effect="non-scaling-stroke"
       d="   M 878.00 570.49   A 0.31 0.31 0.0 0 0 877.69 570.18   L 784.31 570.18   A 0.31 0.31 0.0 0 0 784.00 570.49   L 784.00 663.69   A 0.31 0.31 0.0 0 0 784.31 664.00   L 877.69 664.00   A 0.31 0.31 0.0 0 0 878.00 663.69   L 878.00 570.49"
       id="path39" />
    <path
       stroke="#989898"
       vector-effect="non-scaling-stroke"
       d="   M 570.06 770.83   Q 569.88 771.22 570.15 771.57   A 0.47 0.47 0.0 0 0 570.52 771.75   L 663.50 771.75   Q 664.00 771.75 664.00 771.25   L 664.00 676.75   A 0.50 0.50 0.0 0 0 663.50 676.25   L 570.72 676.25   Q 570.25 676.25 570.25 676.72   L 570.18 770.26   Q 570.18 770.56 570.06 770.83"
       id="path40" />
    <path
       stroke="#18553c"
       vector-effect="non-scaling-stroke"
       d="   M 771.75 677.09   A 0.84 0.84 0.0 0 0 770.91 676.25   L 677.09 676.25   A 0.84 0.84 0.0 0 0 676.25 677.09   L 676.25 770.91   A 0.84 0.84 0.0 0 0 677.09 771.75   L 770.91 771.75   A 0.84 0.84 0.0 0 0 771.75 770.91   L 771.75 677.09"
       id="path41" />
    <path
       stroke="#989898"
       vector-effect="non-scaling-stroke"
       d="   M 877.8374 676.6181   A 0.45 0.45 0.0 0 0 877.3866 676.1689   L 784.3667 676.3312   A 0.45 0.45 0.0 0 0 783.9175 676.7820   L 784.0826 771.3819   A 0.45 0.45 0.0 0 0 784.5334 771.8311   L 877.5533 771.6688   A 0.45 0.45 0.0 0 0 878.0025 771.2180   L 877.8374 676.6181"
       id="path42" />
    <path
       stroke="#18553c"
       vector-effect="non-scaling-stroke"
       d="   M 664.00 784.78   A 0.78 0.78 0.0 0 0 663.22 784.00   L 570.78 784.00   A 0.78 0.78 0.0 0 0 570.00 784.78   L 570.00 877.08   A 0.78 0.78 0.0 0 0 570.78 877.86   L 663.22 877.86   A 0.78 0.78 0.0 0 0 664.00 877.08   L 664.00 784.78"
       id="path43" />
    <path
       stroke="#989898"
       vector-effect="non-scaling-stroke"
       d="   M 771.8309 784.6434   A 0.56 0.56 0.0 0 0 771.2719 784.0824   L 676.8920 783.9177   A 0.56 0.56 0.0 0 0 676.3310 784.4767   L 676.1691 877.2366   A 0.56 0.56 0.0 0 0 676.7281 877.7976   L 771.1080 877.9623   A 0.56 0.56 0.0 0 0 771.6690 877.4033   L 771.8309 784.6434"
       id="path44" />
    <path
       stroke="#989898"
       vector-effect="non-scaling-stroke"
       d="   M 877.94 784.67   A 0.67 0.67 0.0 0 0 877.27 784.00   L 784.67 784.00   A 0.67 0.67 0.0 0 0 784.00 784.67   L 784.00 877.27   A 0.67 0.67 0.0 0 0 784.67 877.94   L 877.27 877.94   A 0.67 0.67 0.0 0 0 877.94 877.27   L 877.94 784.67"
       id="path45" />
    <path
       stroke="#989898"
       vector-effect="non-scaling-stroke"
       d="   M 1211.8314 570.4921   A 0.27 0.27 0.0 0 0 1211.5618 570.2216   L 1118.1020 570.0585   A 0.27 0.27 0.0 0 0 1117.8315 570.3280   L 1117.6686 663.6479   A 0.27 0.27 0.0 0 0 1117.9382 663.9184   L 1211.3980 664.0815   A 0.27 0.27 0.0 0 0 1211.6685 663.8120   L 1211.8314 570.4921"
       id="path46" />
    <path
       stroke="#989898"
       vector-effect="non-scaling-stroke"
       d="   M 1319.54 570.46   A 0.28 0.28 0.0 0 0 1319.26 570.18   L 1224.28 570.18   A 0.28 0.28 0.0 0 0 1224.00 570.46   L 1224.00 663.72   A 0.28 0.28 0.0 0 0 1224.28 664.00   L 1319.26 664.00   A 0.28 0.28 0.0 0 0 1319.54 663.72   L 1319.54 570.46"
       id="path47" />
    <path
       stroke="#989898"
       vector-effect="non-scaling-stroke"
       d="   M 1425.75 570.50   A 0.32 0.32 0.0 0 0 1425.43 570.18   L 1332.07 570.18   A 0.32 0.32 0.0 0 0 1331.75 570.50   L 1331.75 663.68   A 0.32 0.32 0.0 0 0 1332.07 664.00   L 1425.43 664.00   A 0.32 0.32 0.0 0 0 1425.75 663.68   L 1425.75 570.50"
       id="path48" />
    <path
       stroke="#18553c"
       vector-effect="non-scaling-stroke"
       d="   M 1211.75 677.09   A 0.84 0.84 0.0 0 0 1210.91 676.25   L 1118.59 676.25   A 0.84 0.84 0.0 0 0 1117.75 677.09   L 1117.75 770.91   A 0.84 0.84 0.0 0 0 1118.59 771.75   L 1210.91 771.75   A 0.84 0.84 0.0 0 0 1211.75 770.91   L 1211.75 677.09"
       id="path49" />
    <path
       stroke="#18553c"
       vector-effect="non-scaling-stroke"
       d="   M 1319.50 677.34   A 1.09 1.09 0.0 0 0 1318.41 676.25   L 1225.09 676.25   A 1.09 1.09 0.0 0 0 1224.00 677.34   L 1224.00 770.66   A 1.09 1.09 0.0 0 0 1225.09 771.75   L 1318.41 771.75   A 1.09 1.09 0.0 0 0 1319.50 770.66   L 1319.50 677.34"
       id="path50" />
    <path
       stroke="#989898"
       vector-effect="non-scaling-stroke"
       d="   M 1425.75 676.66   A 0.41 0.41 0.0 0 0 1425.34 676.25   L 1332.16 676.25   A 0.41 0.41 0.0 0 0 1331.75 676.66   L 1331.75 771.34   A 0.41 0.41 0.0 0 0 1332.16 771.75   L 1425.34 771.75   A 0.41 0.41 0.0 0 0 1425.75 771.34   L 1425.75 676.66"
       id="path51" />
    <path
       stroke="#989898"
       vector-effect="non-scaling-stroke"
       d="   M 1211.75 784.55   A 0.55 0.55 0.0 0 0 1211.20 784.00   L 1118.30 784.00   A 0.55 0.55 0.0 0 0 1117.75 784.55   L 1117.75 877.31   A 0.55 0.55 0.0 0 0 1118.30 877.86   L 1211.20 877.86   A 0.55 0.55 0.0 0 0 1211.75 877.31   L 1211.75 784.55"
       id="path52" />
    <path
       stroke="#989898"
       vector-effect="non-scaling-stroke"
       d="   M 1319.54 784.60   A 0.60 0.60 0.0 0 0 1318.94 784.00   L 1224.60 784.00   A 0.60 0.60 0.0 0 0 1224.00 784.60   L 1224.00 877.32   A 0.60 0.60 0.0 0 0 1224.60 877.92   L 1318.94 877.92   A 0.60 0.60 0.0 0 0 1319.54 877.32   L 1319.54 784.60"
       id="path53" />
    <path
       stroke="#989898"
       vector-effect="non-scaling-stroke"
       d="   M 1425.8313 784.4221   A 0.33 0.33 0.0 0 0 1425.5019 784.0915   L 1332.1620 783.9286   A 0.33 0.33 0.0 0 0 1331.8314 784.2580   L 1331.6687 877.4779   A 0.33 0.33 0.0 0 0 1331.9981 877.8085   L 1425.3380 877.9714   A 0.33 0.33 0.0 0 0 1425.6686 877.6420   L 1425.8313 784.4221"
       id="path54" />
    <path
       stroke="#989898"
       vector-effect="non-scaling-stroke"
       d="   M 664.00 1118.20   A 0.43 0.43 0.0 0 0 663.57 1117.77   L 570.61 1117.77   A 0.43 0.43 0.0 0 0 570.18 1118.20   L 570.18 1211.32   A 0.43 0.43 0.0 0 0 570.61 1211.75   L 663.57 1211.75   A 0.43 0.43 0.0 0 0 664.00 1211.32   L 664.00 1118.20"
       id="path55" />
    <path
       stroke="#18553c"
       vector-effect="non-scaling-stroke"
       d="   M 771.75 1118.18   A 0.43 0.43 0.0 0 0 771.32 1117.75   L 676.68 1117.75   A 0.43 0.43 0.0 0 0 676.25 1118.18   L 676.25 1211.32   A 0.43 0.43 0.0 0 0 676.68 1211.75   L 771.32 1211.75   A 0.43 0.43 0.0 0 0 771.75 1211.32   L 771.75 1118.18"
       id="path56" />
    <path
       stroke="#989898"
       vector-effect="non-scaling-stroke"
       d="   M 878.00 1118.29   A 0.54 0.54 0.0 0 0 877.46 1117.75   L 784.54 1117.75   A 0.54 0.54 0.0 0 0 784.00 1118.29   L 784.00 1211.21   A 0.54 0.54 0.0 0 0 784.54 1211.75   L 877.46 1211.75   A 0.54 0.54 0.0 0 0 878.00 1211.21   L 878.00 1118.29"
       id="path57" />
    <path
       stroke="#989898"
       vector-effect="non-scaling-stroke"
       d="   M 664.00 1224.46   A 0.46 0.46 0.0 0 0 663.54 1224.00   L 570.68 1224.00   A 0.46 0.46 0.0 0 0 570.22 1224.46   L 570.22 1319.04   A 0.46 0.46 0.0 0 0 570.68 1319.50   L 663.54 1319.50   A 0.46 0.46 0.0 0 0 664.00 1319.04   L 664.00 1224.46"
       id="path58" />
    <path
       stroke="#18553c"
       vector-effect="non-scaling-stroke"
       d="   M 771.75 1224.92   A 0.92 0.92 0.0 0 0 770.83 1224.00   L 677.17 1224.00   A 0.92 0.92 0.0 0 0 676.25 1224.92   L 676.25 1318.58   A 0.92 0.92 0.0 0 0 677.17 1319.50   L 770.83 1319.50   A 0.92 0.92 0.0 0 0 771.75 1318.58   L 771.75 1224.92"
       id="path59" />
    <path
       stroke="#989898"
       vector-effect="non-scaling-stroke"
       d="   M 877.8576 1224.5181   A 0.60 0.60 0.0 0 0 877.2566 1223.9191   L 784.5167 1224.0810   A 0.60 0.60 0.0 0 0 783.9178 1224.6820   L 784.0824 1318.9819   A 0.60 0.60 0.0 0 0 784.6834 1319.5809   L 877.4233 1319.4190   A 0.60 0.60 0.0 0 0 878.0222 1318.8180   L 877.8576 1224.5181"
       id="path60" />
    <path
       stroke="#989898"
       vector-effect="non-scaling-stroke"
       d="   M 664.00 1332.02   A 0.27 0.27 0.0 0 0 663.73 1331.75   L 570.49 1331.75   A 0.27 0.27 0.0 0 0 570.22 1332.02   L 570.22 1425.48   A 0.27 0.27 0.0 0 0 570.49 1425.75   L 663.73 1425.75   A 0.27 0.27 0.0 0 0 664.00 1425.48   L 664.00 1332.02"
       id="path61" />
    <path
       stroke="#989898"
       vector-effect="non-scaling-stroke"
       d="   M 771.75 1332.01   A 0.26 0.26 0.0 0 0 771.49 1331.75   L 676.51 1331.75   A 0.26 0.26 0.0 0 0 676.25 1332.01   L 676.25 1425.49   A 0.26 0.26 0.0 0 0 676.51 1425.75   L 771.49 1425.75   A 0.26 0.26 0.0 0 0 771.75 1425.49   L 771.75 1332.01"
       id="path62" />
    <path
       stroke="#989898"
       vector-effect="non-scaling-stroke"
       d="   M 877.8588 1332.2081   A 0.54 0.54 0.0 0 0 877.3179 1331.6690   L 784.4580 1331.8311   A 0.54 0.54 0.0 0 0 783.9190 1332.3720   L 784.0812 1425.2919   A 0.54 0.54 0.0 0 0 784.6221 1425.8310   L 877.4820 1425.6689   A 0.54 0.54 0.0 0 0 878.0210 1425.1280   L 877.8588 1332.2081"
       id="path63" />
    <path
       stroke="#18553c"
       vector-effect="non-scaling-stroke"
       d="   M 116.25 1118.80   A 1.04 1.04 0.0 0 0 115.21 1117.76   L 23.29 1117.76   A 1.04 1.04 0.0 0 0 22.25 1118.80   L 22.25 1210.72   A 1.04 1.04 0.0 0 0 23.29 1211.76   L 115.21 1211.76   A 1.04 1.04 0.0 0 0 116.25 1210.72   L 116.25 1118.80"
       id="path64" />
    <path
       stroke="#989898"
       vector-effect="non-scaling-stroke"
       d="   M 224.00 1118.25   A 0.46 0.46 0.0 0 0 223.54 1117.79   L 128.94 1117.79   A 0.46 0.46 0.0 0 0 128.48 1118.25   L 128.48 1211.29   A 0.46 0.46 0.0 0 0 128.94 1211.75   L 223.54 1211.75   A 0.46 0.46 0.0 0 0 224.00 1211.29   L 224.00 1118.25"
       id="path65" />
    <path
       stroke="#989898"
       vector-effect="non-scaling-stroke"
       d="   M 330.3302 1118.8421   A 0.96 0.96 0.0 0 0 329.3719 1117.8804   L 237.2921 1117.7197   A 0.96 0.96 0.0 0 0 236.3304 1118.6780   L 236.1698 1210.7179   A 0.96 0.96 0.0 0 0 237.1281 1211.6796   L 329.2079 1211.8403   A 0.96 0.96 0.0 0 0 330.1696 1210.8820   L 330.3302 1118.8421"
       id="path66" />
    <path
       stroke="#989898"
       vector-effect="non-scaling-stroke"
       d="   M 116.25 1224.57   A 0.57 0.57 0.0 0 0 115.68 1224.00   L 22.82 1224.00   A 0.57 0.57 0.0 0 0 22.25 1224.57   L 22.25 1318.93   A 0.57 0.57 0.0 0 0 22.82 1319.50   L 115.68 1319.50   A 0.57 0.57 0.0 0 0 116.25 1318.93   L 116.25 1224.57"
       id="path67" />
    <path
       stroke="#18553c"
       vector-effect="non-scaling-stroke"
       d="   M 224.00 1224.89   A 0.89 0.89 0.0 0 0 223.11 1224.00   L 129.39 1224.00   A 0.89 0.89 0.0 0 0 128.50 1224.89   L 128.50 1318.61   A 0.89 0.89 0.0 0 0 129.39 1319.50   L 223.11 1319.50   A 0.89 0.89 0.0 0 0 224.00 1318.61   L 224.00 1224.89"
       id="path68" />
    <path
       stroke="#989898"
       vector-effect="non-scaling-stroke"
       d="   M 330.1274 1224.4081   A 0.49 0.49 0.0 0 0 329.6366 1223.9189   L 236.6567 1224.0812   A 0.49 0.49 0.0 0 0 236.1676 1224.5721   L 236.3326 1319.0919   A 0.49 0.49 0.0 0 0 236.8234 1319.5811   L 329.8033 1319.4188   A 0.49 0.49 0.0 0 0 330.2924 1318.9279   L 330.1274 1224.4081"
       id="path69" />
    <path
       stroke="#989898"
       vector-effect="non-scaling-stroke"
       d="   M 116.25 1332.18   A 0.43 0.43 0.0 0 0 115.82 1331.75   L 22.68 1331.75   A 0.43 0.43 0.0 0 0 22.25 1332.18   L 22.25 1425.32   A 0.43 0.43 0.0 0 0 22.68 1425.75   L 115.82 1425.75   A 0.43 0.43 0.0 0 0 116.25 1425.32   L 116.25 1332.18"
       id="path70" />
    <path
       stroke="#989898"
       vector-effect="non-scaling-stroke"
       d="   M 224.00 1332.01   A 0.26 0.26 0.0 0 0 223.74 1331.75   L 128.76 1331.75   A 0.26 0.26 0.0 0 0 128.50 1332.01   L 128.50 1425.49   A 0.26 0.26 0.0 0 0 128.76 1425.75   L 223.74 1425.75   A 0.26 0.26 0.0 0 0 224.00 1425.49   L 224.00 1332.01"
       id="path71" />
    <path
       stroke="#989898"
       vector-effect="non-scaling-stroke"
       d="   M 330.23 1332.01   A 0.26 0.26 0.0 0 0 329.97 1331.75   L 236.51 1331.75   A 0.26 0.26 0.0 0 0 236.25 1332.01   L 236.25 1425.49   A 0.26 0.26 0.0 0 0 236.51 1425.75   L 329.97 1425.75   A 0.26 0.26 0.0 0 0 330.23 1425.49   L 330.23 1332.01"
       id="path72" />
    <path
       stroke="#18553c"
       vector-effect="non-scaling-stroke"
       d="   M 1427.25 1117.94   A 0.44 0.44 0.0 0 0 1426.81 1117.50   L 1117.93 1117.50   A 0.44 0.44 0.0 0 0 1117.49 1117.94   L 1117.49 1426.82   A 0.44 0.44 0.0 0 0 1117.93 1427.26   L 1426.81 1427.26   A 0.44 0.44 0.0 0 0 1427.25 1426.82   L 1427.25 1117.94"
       id="path73" />
    <path
       stroke="#80bca4"
       vector-effect="non-scaling-stroke"
       d="   M 1282.44 1210.56   C 1296.87 1212.01 1302.81 1225.59 1300.06 1238.59   C 1295.82 1258.68 1264.54 1257.43 1249.15 1257.23   Q 1248.62 1257.22 1248.64 1257.75   L 1249.77 1296.02   Q 1249.79 1296.50 1250.27 1296.50   L 1277.59 1296.50   Q 1278.18 1296.50 1278.21 1295.91   L 1279.06 1279.26   Q 1279.10 1278.55 1279.81 1278.55   C 1304.51 1278.59 1327.18 1267.75 1331.52 1241.26   C 1335.67 1215.90 1322.99 1192.25 1297.49 1185.72   C 1262.88 1176.84 1227.35 1191.18 1225.96 1231.43   Q 1225.94 1232.00 1226.50 1232.00   L 1255.75 1232.00   Q 1256.26 1232.00 1256.31 1231.49   Q 1258.64 1208.18 1282.44 1210.56"
       id="path74" />
    <path
       stroke="#80bca4"
       vector-effect="non-scaling-stroke"
       d="   M 1283.6199 1332.5704   A 19.95 19.04 -0.2 0 0 1263.6035 1313.6001   A 19.95 19.04 -0.2 0 0 1243.7201 1332.7096   A 19.95 19.04 -0.2 0 0 1263.7365 1351.6799   A 19.95 19.04 -0.2 0 0 1283.6199 1332.5704"
       id="path75" />
  </g>
  <path
     fill="#303030"
     d="   M 351.75 350.84   A 0.91 0.91 0.0 0 1 350.84 351.75   L 1.66 351.75   A 0.91 0.91 0.0 0 1 0.75 350.84   L 0.75 1.66   A 0.91 0.91 0.0 0 1 1.66 0.75   L 350.84 0.75   A 0.91 0.91 0.0 0 1 351.75 1.66   L 351.75 350.84   Z   M 116.25 22.52   A 0.27 0.27 0.0 0 0 115.98 22.25   L 22.52 22.25   A 0.27 0.27 0.0 0 0 22.25 22.52   L 22.25 115.98   A 0.27 0.27 0.0 0 0 22.52 116.25   L 115.98 116.25   A 0.27 0.27 0.0 0 0 116.25 115.98   L 116.25 22.52   Z   M 224.00 23.01   A 0.76 0.76 0.0 0 0 223.24 22.25   L 129.26 22.25   A 0.76 0.76 0.0 0 0 128.50 23.01   L 128.50 115.49   A 0.76 0.76 0.0 0 0 129.26 116.25   L 223.24 116.25   A 0.76 0.76 0.0 0 0 224.00 115.49   L 224.00 23.01   Z   M 330.23 23.22   A 0.97 0.97 0.0 0 0 329.26 22.25   L 237.22 22.25   A 0.97 0.97 0.0 0 0 236.25 23.22   L 236.25 115.28   A 0.97 0.97 0.0 0 0 237.22 116.25   L 329.26 116.25   A 0.97 0.97 0.0 0 0 330.23 115.28   L 330.23 23.22   Z   M 116.25 129.10   A 0.62 0.62 0.0 0 0 115.63 128.48   L 22.87 128.48   A 0.62 0.62 0.0 0 0 22.25 129.10   L 22.25 223.38   A 0.62 0.62 0.0 0 0 22.87 224.00   L 115.63 224.00   A 0.62 0.62 0.0 0 0 116.25 223.38   L 116.25 129.10   Z   M 224.0814 129.6335   A 1.05 1.05 0.0 0 0 223.0332 128.5817   L 129.5334 128.4185   A 1.05 1.05 0.0 0 0 128.4815 129.4666   L 128.3186 222.8265   A 1.05 1.05 0.0 0 0 129.3668 223.8783   L 222.8666 224.0415   A 1.05 1.05 0.0 0 0 223.9185 222.9934   L 224.0814 129.6335   Z   M 330.23 128.76   A 0.26 0.26 0.0 0 0 329.97 128.50   L 236.51 128.50   A 0.26 0.26 0.0 0 0 236.25 128.76   L 236.25 223.74   A 0.26 0.26 0.0 0 0 236.51 224.00   L 329.97 224.00   A 0.26 0.26 0.0 0 0 330.23 223.74   L 330.23 128.76   Z   M 116.25 236.52   A 0.27 0.27 0.0 0 0 115.98 236.25   L 22.52 236.25   A 0.27 0.27 0.0 0 0 22.25 236.52   L 22.25 329.98   A 0.27 0.27 0.0 0 0 22.52 330.25   L 115.98 330.25   A 0.27 0.27 0.0 0 0 116.25 329.98   L 116.25 236.52   Z   M 224.00 236.52   A 0.27 0.27 0.0 0 0 223.73 236.25   L 128.77 236.25   A 0.27 0.27 0.0 0 0 128.50 236.52   L 128.50 329.98   A 0.27 0.27 0.0 0 0 128.77 330.25   L 223.73 330.25   A 0.27 0.27 0.0 0 0 224.00 329.98   L 224.00 236.52   Z   M 330.25 236.51   A 0.26 0.26 0.0 0 0 329.99 236.25   L 236.51 236.25   A 0.26 0.26 0.0 0 0 236.25 236.51   L 236.25 329.99   A 0.26 0.26 0.0 0 0 236.51 330.25   L 329.99 330.25   A 0.26 0.26 0.0 0 0 330.25 329.99   L 330.25 236.51   Z"
     id="path76" />
  <path
     fill="#303030"
     d="   M 899.50 350.84   A 0.91 0.91 0.0 0 1 898.59 351.75   L 549.41 351.75   A 0.91 0.91 0.0 0 1 548.50 350.84   L 548.50 1.66   A 0.91 0.91 0.0 0 1 549.41 0.75   L 898.59 0.75   A 0.91 0.91 0.0 0 1 899.50 1.66   L 899.50 350.84   Z   M 664.00 22.66   A 0.41 0.41 0.0 0 0 663.59 22.25   L 570.63 22.25   A 0.41 0.41 0.0 0 0 570.22 22.66   L 570.22 115.84   A 0.41 0.41 0.0 0 0 570.63 116.25   L 663.59 116.25   A 0.41 0.41 0.0 0 0 664.00 115.84   L 664.00 22.66   Z   M 771.75 22.52   A 0.27 0.27 0.0 0 0 771.48 22.25   L 676.52 22.25   A 0.27 0.27 0.0 0 0 676.25 22.52   L 676.25 115.98   A 0.27 0.27 0.0 0 0 676.52 116.25   L 771.48 116.25   A 0.27 0.27 0.0 0 0 771.75 115.98   L 771.75 22.52   Z   M 877.98 22.83   A 0.58 0.58 0.0 0 0 877.40 22.25   L 784.58 22.25   A 0.58 0.58 0.0 0 0 784.00 22.83   L 784.00 115.67   A 0.58 0.58 0.0 0 0 784.58 116.25   L 877.40 116.25   A 0.58 0.58 0.0 0 0 877.98 115.67   L 877.98 22.83   Z   M 664.00 128.75   A 0.26 0.26 0.0 0 0 663.74 128.49   L 570.48 128.49   A 0.26 0.26 0.0 0 0 570.22 128.75   L 570.22 223.71   A 0.26 0.26 0.0 0 0 570.48 223.97   L 663.74 223.97   A 0.26 0.26 0.0 0 0 664.00 223.71   L 664.00 128.75   Z   M 771.75 129.48   A 0.98 0.98 0.0 0 0 770.77 128.50   L 677.23 128.50   A 0.98 0.98 0.0 0 0 676.25 129.48   L 676.25 223.02   A 0.98 0.98 0.0 0 0 677.23 224.00   L 770.77 224.00   A 0.98 0.98 0.0 0 0 771.75 223.02   L 771.75 129.48   Z   M 878.00 129.29   A 0.79 0.79 0.0 0 0 877.21 128.50   L 784.79 128.50   A 0.79 0.79 0.0 0 0 784.00 129.29   L 784.00 223.17   A 0.79 0.79 0.0 0 0 784.79 223.96   L 877.21 223.96   A 0.79 0.79 0.0 0 0 878.00 223.17   L 878.00 129.29   Z   M 664.00 236.51   A 0.26 0.26 0.0 0 0 663.74 236.25   L 570.48 236.25   A 0.26 0.26 0.0 0 0 570.22 236.51   L 570.22 329.99   A 0.26 0.26 0.0 0 0 570.48 330.25   L 663.74 330.25   A 0.26 0.26 0.0 0 0 664.00 329.99   L 664.00 236.51   Z   M 771.75 236.51   A 0.26 0.26 0.0 0 0 771.49 236.25   L 676.51 236.25   A 0.26 0.26 0.0 0 0 676.25 236.51   L 676.25 329.99   A 0.26 0.26 0.0 0 0 676.51 330.25   L 771.49 330.25   A 0.26 0.26 0.0 0 0 771.75 329.99   L 771.75 236.51   Z   M 877.96 236.52   A 0.27 0.27 0.0 0 0 877.69 236.25   L 784.27 236.25   A 0.27 0.27 0.0 0 0 784.00 236.52   L 784.00 329.98   A 0.27 0.27 0.0 0 0 784.27 330.25   L 877.69 330.25   A 0.27 0.27 0.0 0 0 877.96 329.98   L 877.96 236.52   Z"
     id="path77" />
  <path
     fill="#303030"
     d="   M 1447.25 351.13   A 0.36 0.36 0.0 0 1 1446.89 351.49   L 1096.77 351.49   A 0.36 0.36 0.0 0 1 1096.41 351.13   L 1096.41 1.11   A 0.36 0.36 0.0 0 1 1096.77 0.75   L 1446.89 0.75   A 0.36 0.36 0.0 0 1 1447.25 1.11   L 1447.25 351.13   Z   M 1211.75 22.52   A 0.27 0.27 0.0 0 0 1211.48 22.25   L 1118.02 22.25   A 0.27 0.27 0.0 0 0 1117.75 22.52   L 1117.75 115.98   A 0.27 0.27 0.0 0 0 1118.02 116.25   L 1211.48 116.25   A 0.27 0.27 0.0 0 0 1211.75 115.98   L 1211.75 22.52   Z   M 1319.54 22.90   A 0.65 0.65 0.0 0 0 1318.89 22.25   L 1224.65 22.25   A 0.65 0.65 0.0 0 0 1224.00 22.90   L 1224.00 115.60   A 0.65 0.65 0.0 0 0 1224.65 116.25   L 1318.89 116.25   A 0.65 0.65 0.0 0 0 1319.54 115.60   L 1319.54 22.90   Z   M 1425.75 22.81   A 0.56 0.56 0.0 0 0 1425.19 22.25   L 1332.31 22.25   A 0.56 0.56 0.0 0 0 1331.75 22.81   L 1331.75 115.69   A 0.56 0.56 0.0 0 0 1332.31 116.25   L 1425.19 116.25   A 0.56 0.56 0.0 0 0 1425.75 115.69   L 1425.75 22.81   Z   M 1211.75 128.80   A 0.32 0.32 0.0 0 0 1211.43 128.48   L 1118.11 128.48   A 0.32 0.32 0.0 0 0 1117.79 128.80   L 1117.79 223.68   A 0.32 0.32 0.0 0 0 1118.11 224.00   L 1211.43 224.00   A 0.32 0.32 0.0 0 0 1211.75 223.68   L 1211.75 128.80   Z   M 1425.75 129.10   A 0.62 0.62 0.0 0 0 1425.13 128.48   L 1332.37 128.48   A 0.62 0.62 0.0 0 0 1331.75 129.10   L 1331.75 223.38   A 0.62 0.62 0.0 0 0 1332.37 224.00   L 1425.13 224.00   A 0.62 0.62 0.0 0 0 1425.75 223.38   L 1425.75 129.10   Z   M 1319.50 129.46   A 0.96 0.96 0.0 0 0 1318.54 128.50   L 1224.96 128.50   A 0.96 0.96 0.0 0 0 1224.00 129.46   L 1224.00 223.02   A 0.96 0.96 0.0 0 0 1224.96 223.98   L 1318.54 223.98   A 0.96 0.96 0.0 0 0 1319.50 223.02   L 1319.50 129.46   Z   M 1211.75 236.51   A 0.26 0.26 0.0 0 0 1211.49 236.25   L 1118.01 236.25   A 0.26 0.26 0.0 0 0 1117.75 236.51   L 1117.75 329.99   A 0.26 0.26 0.0 0 0 1118.01 330.25   L 1211.49 330.25   A 0.26 0.26 0.0 0 0 1211.75 329.99   L 1211.75 236.51   Z   M 1319.50 236.51   A 0.26 0.26 0.0 0 0 1319.24 236.25   L 1224.26 236.25   A 0.26 0.26 0.0 0 0 1224.00 236.51   L 1224.00 329.99   A 0.26 0.26 0.0 0 0 1224.26 330.25   L 1319.24 330.25   A 0.26 0.26 0.0 0 0 1319.50 329.99   L 1319.50 236.51   Z   M 1425.75 237.10   A 0.85 0.85 0.0 0 0 1424.90 236.25   L 1332.60 236.25   A 0.85 0.85 0.0 0 0 1331.75 237.10   L 1331.75 329.40   A 0.85 0.85 0.0 0 0 1332.60 330.25   L 1424.90 330.25   A 0.85 0.85 0.0 0 0 1425.75 329.40   L 1425.75 237.10   Z"
     id="path78" />
  <rect
     fill="#ffffff"
     x="22.25"
     y="22.25"
     width="94.00"
     height="94.00"
     rx="0.27"
     id="rect78" />
  <rect
     fill="#ffffff"
     x="128.50"
     y="22.25"
     width="95.50"
     height="94.00"
     rx="0.76"
     id="rect79" />
  <rect
     fill="#007948"
     x="236.25"
     y="22.25"
     width="93.98"
     height="94.00"
     rx="0.97"
     id="rect80"
     style="fill:#00a86b;fill-opacity:1" />
  <rect
     fill="#ffffff"
     x="570.22"
     y="22.25"
     width="93.78"
     height="94.00"
     rx="0.41"
     id="rect81" />
  <rect
     fill="#ffffff"
     x="676.25"
     y="22.25"
     width="95.50"
     height="94.00"
     rx="0.27"
     id="rect82" />
  <rect
     fill="#ffffff"
     x="784.00"
     y="22.25"
     width="93.98"
     height="94.00"
     rx="0.58"
     id="rect83" />
  <rect
     fill="#ffffff"
     x="1117.75"
     y="22.25"
     width="94.00"
     height="94.00"
     rx="0.27"
     id="rect84" />
  <rect
     fill="#ffffff"
     x="1224.00"
     y="22.25"
     width="95.54"
     height="94.00"
     rx="0.65"
     id="rect85" />
  <rect
     fill="#ffffff"
     x="1331.75"
     y="22.25"
     width="94.00"
     height="94.00"
     rx="0.56"
     id="rect86" />
  <rect
     fill="#ffffff"
     x="22.25"
     y="128.48"
     width="94.00"
     height="95.52"
     rx="0.62"
     id="rect87" />
  <rect
     fill="#ffffff"
     x="570.22"
     y="128.49"
     width="93.78"
     height="95.48"
     rx="0.26"
     id="rect88" />
  <rect
     fill="#ffffff"
     x="1117.79"
     y="128.48"
     width="93.96"
     height="95.52"
     rx="0.32"
     id="rect89" />
  <rect
     fill="#ffffff"
     x="1331.75"
     y="128.48"
     width="94.00"
     height="95.52"
     rx="0.62"
     id="rect90" />
  <rect
     fill="#007948"
     x="-47.80"
     y="-47.73"
     transform="translate(176.20,176.23) rotate(0.1)"
     width="95.60"
     height="95.46"
     rx="1.05"
     id="rect91"
     style="fill:#00a86b;fill-opacity:1" />
  <rect
     fill="#ffffff"
     x="236.25"
     y="128.50"
     width="93.98"
     height="95.50"
     rx="0.26"
     id="rect92" />
  <rect
     fill="#007948"
     x="676.25"
     y="128.50"
     width="95.50"
     height="95.50"
     rx="0.98"
     id="rect93"
     style="fill:#00a86b;fill-opacity:1" />
  <rect
     fill="#007948"
     x="784.00"
     y="128.50"
     width="94.00"
     height="95.46"
     rx="0.79"
     id="rect94"
     style="fill:#00a86b;fill-opacity:1" />
  <rect
     fill="#007948"
     x="1224.00"
     y="128.50"
     width="95.50"
     height="95.48"
     rx="0.96"
     id="rect95"
     style="fill:#00a86b;fill-opacity:1" />
  <rect
     fill="#ffffff"
     x="22.25"
     y="236.25"
     width="94.00"
     height="94.00"
     rx="0.27"
     id="rect96" />
  <rect
     fill="#ffffff"
     x="128.50"
     y="236.25"
     width="95.50"
     height="94.00"
     rx="0.27"
     id="rect97" />
  <rect
     fill="#ffffff"
     x="236.25"
     y="236.25"
     width="94.00"
     height="94.00"
     rx="0.26"
     id="rect98" />
  <rect
     fill="#ffffff"
     x="570.22"
     y="236.25"
     width="93.78"
     height="94.00"
     rx="0.26"
     id="rect99" />
  <rect
     fill="#ffffff"
     x="676.25"
     y="236.25"
     width="95.50"
     height="94.00"
     rx="0.26"
     id="rect100" />
  <rect
     fill="#ffffff"
     x="784.00"
     y="236.25"
     width="93.96"
     height="94.00"
     rx="0.27"
     id="rect101" />
  <rect
     fill="#ffffff"
     x="1117.75"
     y="236.25"
     width="94.00"
     height="94.00"
     rx="0.26"
     id="rect102" />
  <rect
     fill="#ffffff"
     x="1224.00"
     y="236.25"
     width="95.50"
     height="94.00"
     rx="0.26"
     id="rect103" />
  <rect
     fill="#007948"
     x="1331.75"
     y="236.25"
     width="94.00"
     height="94.00"
     rx="0.85"
     id="rect104"
     style="fill:#00a86b;fill-opacity:1" />
  <path
     fill="#303030"
     d="   M 351.75 898.64   A 0.86 0.86 0.0 0 1 350.89 899.50   L 1.61 899.50   A 0.86 0.86 0.0 0 1 0.75 898.64   L 0.75 549.36   A 0.86 0.86 0.0 0 1 1.61 548.50   L 350.89 548.50   A 0.86 0.86 0.0 0 1 351.75 549.36   L 351.75 898.64   Z   M 116.3314 570.4821   A 0.26 0.26 0.0 0 0 116.0718 570.2216   L 22.5920 570.0585   A 0.26 0.26 0.0 0 0 22.3315 570.3180   L 22.1686 663.6579   A 0.26 0.26 0.0 0 0 22.4282 663.9184   L 115.9080 664.0815   A 0.26 0.26 0.0 0 0 116.1685 663.8220   L 116.3314 570.4821   Z   M 224.00 570.70   A 0.56 0.56 0.0 0 0 223.44 570.14   L 129.06 570.14   A 0.56 0.56 0.0 0 0 128.50 570.70   L 128.50 663.44   A 0.56 0.56 0.0 0 0 129.06 664.00   L 223.44 664.00   A 0.56 0.56 0.0 0 0 224.00 663.44   L 224.00 570.70   Z   M 330.19 570.48   A 0.30 0.30 0.0 0 0 329.89 570.18   L 236.55 570.18   A 0.30 0.30 0.0 0 0 236.25 570.48   L 236.25 663.70   A 0.30 0.30 0.0 0 0 236.55 664.00   L 329.89 664.00   A 0.30 0.30 0.0 0 0 330.19 663.70   L 330.19 570.48   Z   M 116.25 676.82   A 0.57 0.57 0.0 0 0 115.68 676.25   L 22.82 676.25   A 0.57 0.57 0.0 0 0 22.25 676.82   L 22.25 771.18   A 0.57 0.57 0.0 0 0 22.82 771.75   L 115.68 771.75   A 0.57 0.57 0.0 0 0 116.25 771.18   L 116.25 676.82   Z   M 224.00 677.27   A 1.02 1.02 0.0 0 0 222.98 676.25   L 129.46 676.25   A 1.02 1.02 0.0 0 0 128.44 677.27   L 128.44 770.73   A 1.02 1.02 0.0 0 0 129.46 771.75   L 222.98 771.75   A 1.02 1.02 0.0 0 0 224.00 770.73   L 224.00 677.27   Z   M 330.25 676.66   A 0.41 0.41 0.0 0 0 329.84 676.25   L 236.66 676.25   A 0.41 0.41 0.0 0 0 236.25 676.66   L 236.25 771.34   A 0.41 0.41 0.0 0 0 236.66 771.75   L 329.84 771.75   A 0.41 0.41 0.0 0 0 330.25 771.34   L 330.25 676.66   Z   M 116.3310 784.5921   A 0.51 0.51 0.0 0 0 115.8219 784.0812   L 22.8420 783.9189   A 0.51 0.51 0.0 0 0 22.3311 784.4280   L 22.1690 877.3279   A 0.51 0.51 0.0 0 0 22.6781 877.8388   L 115.6580 878.0011   A 0.51 0.51 0.0 0 0 116.1689 877.4920   L 116.3310 784.5921   Z   M 128.99 877.76   C 160.19 877.62 191.04 878.31 222.65 877.66   Q 224.00 877.64 224.00 876.28   L 224.00 785.00   A 1.00 1.00 0.0 0 0 223.00 784.00   L 129.10 784.00   A 0.66 0.65 0.0 0 0 128.44 784.65   L 128.41 877.17   A 0.59 0.58 -90.0 0 0 128.99 877.76   Z   M 330.3113 784.4121   A 0.33 0.33 0.0 0 0 329.9819 784.0815   L 236.6620 783.9186   A 0.33 0.33 0.0 0 0 236.3314 784.2481   L 236.1687 877.4879   A 0.33 0.33 0.0 0 0 236.4981 877.8185   L 329.8180 877.9814   A 0.33 0.33 0.0 0 0 330.1486 877.6519   L 330.3113 784.4121   Z"
     id="path104" />
  <path
     fill="#303030"
     d="   M 899.50 898.68   A 0.82 0.82 0.0 0 1 898.68 899.50   L 549.32 899.50   A 0.82 0.82 0.0 0 1 548.50 898.68   L 548.50 549.32   A 0.82 0.82 0.0 0 1 549.32 548.50   L 898.68 548.50   A 0.82 0.82 0.0 0 1 899.50 549.32   L 899.50 898.68   Z   M 664.00 570.55   A 0.45 0.45 0.0 0 0 663.55 570.10   L 570.65 570.10   A 0.45 0.45 0.0 0 0 570.20 570.55   L 570.20 663.55   A 0.45 0.45 0.0 0 0 570.65 664.00   L 663.55 664.00   A 0.45 0.45 0.0 0 0 664.00 663.55   L 664.00 570.55   Z   M 771.8306 570.9034   A 0.68 0.68 0.0 0 0 771.1518 570.2222   L 677.0120 570.0579   A 0.68 0.68 0.0 0 0 676.3308 570.7367   L 676.1694 663.2366   A 0.68 0.68 0.0 0 0 676.8482 663.9178   L 770.9880 664.0821   A 0.68 0.68 0.0 0 0 771.6692 663.4033   L 771.8306 570.9034   Z   M 878.00 570.49   A 0.31 0.31 0.0 0 0 877.69 570.18   L 784.31 570.18   A 0.31 0.31 0.0 0 0 784.00 570.49   L 784.00 663.69   A 0.31 0.31 0.0 0 0 784.31 664.00   L 877.69 664.00   A 0.31 0.31 0.0 0 0 878.00 663.69   L 878.00 570.49   Z   M 570.06 770.83   Q 569.88 771.22 570.15 771.57   A 0.47 0.47 0.0 0 0 570.52 771.75   L 663.50 771.75   Q 664.00 771.75 664.00 771.25   L 664.00 676.75   A 0.50 0.50 0.0 0 0 663.50 676.25   L 570.72 676.25   Q 570.25 676.25 570.25 676.72   L 570.18 770.26   Q 570.18 770.56 570.06 770.83   Z   M 771.75 677.09   A 0.84 0.84 0.0 0 0 770.91 676.25   L 677.09 676.25   A 0.84 0.84 0.0 0 0 676.25 677.09   L 676.25 770.91   A 0.84 0.84 0.0 0 0 677.09 771.75   L 770.91 771.75   A 0.84 0.84 0.0 0 0 771.75 770.91   L 771.75 677.09   Z   M 877.8374 676.6181   A 0.45 0.45 0.0 0 0 877.3866 676.1689   L 784.3667 676.3312   A 0.45 0.45 0.0 0 0 783.9175 676.7820   L 784.0826 771.3819   A 0.45 0.45 0.0 0 0 784.5334 771.8311   L 877.5533 771.6688   A 0.45 0.45 0.0 0 0 878.0025 771.2180   L 877.8374 676.6181   Z   M 664.00 784.78   A 0.78 0.78 0.0 0 0 663.22 784.00   L 570.78 784.00   A 0.78 0.78 0.0 0 0 570.00 784.78   L 570.00 877.08   A 0.78 0.78 0.0 0 0 570.78 877.86   L 663.22 877.86   A 0.78 0.78 0.0 0 0 664.00 877.08   L 664.00 784.78   Z   M 771.8309 784.6434   A 0.56 0.56 0.0 0 0 771.2719 784.0824   L 676.8920 783.9177   A 0.56 0.56 0.0 0 0 676.3310 784.4767   L 676.1691 877.2366   A 0.56 0.56 0.0 0 0 676.7281 877.7976   L 771.1080 877.9623   A 0.56 0.56 0.0 0 0 771.6690 877.4033   L 771.8309 784.6434   Z   M 877.94 784.67   A 0.67 0.67 0.0 0 0 877.27 784.00   L 784.67 784.00   A 0.67 0.67 0.0 0 0 784.00 784.67   L 784.00 877.27   A 0.67 0.67 0.0 0 0 784.67 877.94   L 877.27 877.94   A 0.67 0.67 0.0 0 0 877.94 877.27   L 877.94 784.67   Z"
     id="path105" />
  <path
     fill="#303030"
     d="   M 1447.25 898.57   A 0.93 0.93 0.0 0 1 1446.32 899.50   L 1097.26 899.50   A 0.93 0.93 0.0 0 1 1096.33 898.57   L 1096.33 549.43   A 0.93 0.93 0.0 0 1 1097.26 548.50   L 1446.32 548.50   A 0.93 0.93 0.0 0 1 1447.25 549.43   L 1447.25 898.57   Z   M 1211.8314 570.4921   A 0.27 0.27 0.0 0 0 1211.5618 570.2216   L 1118.1020 570.0585   A 0.27 0.27 0.0 0 0 1117.8315 570.3280   L 1117.6686 663.6479   A 0.27 0.27 0.0 0 0 1117.9382 663.9184   L 1211.3980 664.0815   A 0.27 0.27 0.0 0 0 1211.6685 663.8120   L 1211.8314 570.4921   Z   M 1319.54 570.46   A 0.28 0.28 0.0 0 0 1319.26 570.18   L 1224.28 570.18   A 0.28 0.28 0.0 0 0 1224.00 570.46   L 1224.00 663.72   A 0.28 0.28 0.0 0 0 1224.28 664.00   L 1319.26 664.00   A 0.28 0.28 0.0 0 0 1319.54 663.72   L 1319.54 570.46   Z   M 1425.75 570.50   A 0.32 0.32 0.0 0 0 1425.43 570.18   L 1332.07 570.18   A 0.32 0.32 0.0 0 0 1331.75 570.50   L 1331.75 663.68   A 0.32 0.32 0.0 0 0 1332.07 664.00   L 1425.43 664.00   A 0.32 0.32 0.0 0 0 1425.75 663.68   L 1425.75 570.50   Z   M 1211.75 677.09   A 0.84 0.84 0.0 0 0 1210.91 676.25   L 1118.59 676.25   A 0.84 0.84 0.0 0 0 1117.75 677.09   L 1117.75 770.91   A 0.84 0.84 0.0 0 0 1118.59 771.75   L 1210.91 771.75   A 0.84 0.84 0.0 0 0 1211.75 770.91   L 1211.75 677.09   Z   M 1319.50 677.34   A 1.09 1.09 0.0 0 0 1318.41 676.25   L 1225.09 676.25   A 1.09 1.09 0.0 0 0 1224.00 677.34   L 1224.00 770.66   A 1.09 1.09 0.0 0 0 1225.09 771.75   L 1318.41 771.75   A 1.09 1.09 0.0 0 0 1319.50 770.66   L 1319.50 677.34   Z   M 1425.75 676.66   A 0.41 0.41 0.0 0 0 1425.34 676.25   L 1332.16 676.25   A 0.41 0.41 0.0 0 0 1331.75 676.66   L 1331.75 771.34   A 0.41 0.41 0.0 0 0 1332.16 771.75   L 1425.34 771.75   A 0.41 0.41 0.0 0 0 1425.75 771.34   L 1425.75 676.66   Z   M 1211.75 784.55   A 0.55 0.55 0.0 0 0 1211.20 784.00   L 1118.30 784.00   A 0.55 0.55 0.0 0 0 1117.75 784.55   L 1117.75 877.31   A 0.55 0.55 0.0 0 0 1118.30 877.86   L 1211.20 877.86   A 0.55 0.55 0.0 0 0 1211.75 877.31   L 1211.75 784.55   Z   M 1319.54 784.60   A 0.60 0.60 0.0 0 0 1318.94 784.00   L 1224.60 784.00   A 0.60 0.60 0.0 0 0 1224.00 784.60   L 1224.00 877.32   A 0.60 0.60 0.0 0 0 1224.60 877.92   L 1318.94 877.92   A 0.60 0.60 0.0 0 0 1319.54 877.32   L 1319.54 784.60   Z   M 1425.8313 784.4221   A 0.33 0.33 0.0 0 0 1425.5019 784.0915   L 1332.1620 783.9286   A 0.33 0.33 0.0 0 0 1331.8314 784.2580   L 1331.6687 877.4779   A 0.33 0.33 0.0 0 0 1331.9981 877.8085   L 1425.3380 877.9714   A 0.33 0.33 0.0 0 0 1425.6686 877.6420   L 1425.8313 784.4221   Z"
     id="path106" />
  <rect
     fill="#ffffff"
     x="-47.00"
     y="-46.93"
     transform="translate(69.25,617.07) rotate(0.1)"
     width="94.00"
     height="93.86"
     rx="0.26"
     id="rect106" />
  <rect
     fill="#ffffff"
     x="128.50"
     y="570.14"
     width="95.50"
     height="93.86"
     rx="0.56"
     id="rect107" />
  <rect
     fill="#ffffff"
     x="236.25"
     y="570.18"
     width="93.94"
     height="93.82"
     rx="0.30"
     id="rect108" />
  <rect
     fill="#ffffff"
     x="570.20"
     y="570.10"
     width="93.80"
     height="93.90"
     rx="0.45"
     id="rect109" />
  <rect
     fill="#ffffff"
     x="-47.75"
     y="-46.93"
     transform="translate(724.00,617.07) rotate(0.1)"
     width="95.50"
     height="93.86"
     rx="0.68"
     id="rect110" />
  <rect
     fill="#ffffff"
     x="784.00"
     y="570.18"
     width="94.00"
     height="93.82"
     rx="0.31"
     id="rect111" />
  <rect
     fill="#ffffff"
     x="-47.00"
     y="-46.93"
     transform="translate(1164.75,617.07) rotate(0.1)"
     width="94.00"
     height="93.86"
     rx="0.27"
     id="rect112" />
  <rect
     fill="#ffffff"
     x="1224.00"
     y="570.18"
     width="95.54"
     height="93.82"
     rx="0.28"
     id="rect113" />
  <rect
     fill="#ffffff"
     x="1331.75"
     y="570.18"
     width="94.00"
     height="93.82"
     rx="0.32"
     id="rect114" />
  <rect
     fill="#ffffff"
     x="22.25"
     y="676.25"
     width="94.00"
     height="95.50"
     rx="0.57"
     id="rect115" />
  <rect
     fill="#007948"
     x="128.44"
     y="676.25"
     width="95.56"
     height="95.50"
     rx="1.02"
     id="rect116"
     style="fill:#00a86b;fill-opacity:1" />
  <rect
     fill="#ffffff"
     x="236.25"
     y="676.25"
     width="94.00"
     height="95.50"
     rx="0.41"
     id="rect117" />
  <path
     fill="#ffffff"
     d="   M 570.18 770.26   L 570.25 676.72   Q 570.25 676.25 570.72 676.25   L 663.50 676.25   A 0.50 0.50 0.0 0 1 664.00 676.75   L 664.00 771.25   Q 664.00 771.75 663.50 771.75   L 570.52 771.75   A 0.47 0.47 0.0 0 1 570.15 771.57   Q 569.88 771.22 570.06 770.83   Q 570.18 770.56 570.18 770.26   Z"
     id="path117" />
  <rect
     fill="#007948"
     x="676.25"
     y="676.25"
     width="95.50"
     height="95.50"
     rx="0.84"
     id="rect118"
     style="fill:#00a86b;fill-opacity:1" />
  <rect
     fill="#ffffff"
     x="-46.96"
     y="-47.75"
     transform="translate(830.96,724.00) rotate(-0.1)"
     width="93.92"
     height="95.50"
     rx="0.45"
     id="rect119" />
  <rect
     fill="#007948"
     x="1117.75"
     y="676.25"
     width="94.00"
     height="95.50"
     rx="0.84"
     id="rect120"
     style="fill:#00a86b;fill-opacity:1" />
  <rect
     fill="#007948"
     x="1224.00"
     y="676.25"
     width="95.50"
     height="95.50"
     rx="1.09"
     id="rect121"
     style="fill:#00a86b;fill-opacity:1" />
  <rect
     fill="#ffffff"
     x="1331.75"
     y="676.25"
     width="94.00"
     height="95.50"
     rx="0.41"
     id="rect122" />
  <rect
     fill="#ffffff"
     x="-47.00"
     y="-46.96"
     transform="translate(69.25,830.96) rotate(0.1)"
     width="94.00"
     height="93.92"
     rx="0.51"
     id="rect123" />
  <path
     fill="#007948"
     d="   M 222.65 877.66   C 191.04 878.31 160.19 877.62 128.99 877.76   A 0.59 0.58 -90.0 0 1 128.41 877.17   L 128.44 784.65   A 0.66 0.65 -0.0 0 1 129.10 784.00   L 223.00 784.00   A 1.00 1.00 0.0 0 1 224.00 785.00   L 224.00 876.28   Q 224.00 877.64 222.65 877.66   Z"
     id="path123"
     style="fill:#00a86b;fill-opacity:1" />
  <rect
     fill="#ffffff"
     x="-46.99"
     y="-46.95"
     transform="translate(283.24,830.95) rotate(0.1)"
     width="93.98"
     height="93.90"
     rx="0.33"
     id="rect124" />
  <rect
     fill="#007948"
     x="570.00"
     y="784.00"
     width="94.00"
     height="93.86"
     rx="0.78"
     id="rect125"
     style="fill:#00a86b;fill-opacity:1" />
  <rect
     fill="#ffffff"
     x="-47.75"
     y="-46.94"
     transform="translate(724.00,830.94) rotate(0.1)"
     width="95.50"
     height="93.88"
     rx="0.56"
     id="rect126" />
  <rect
     fill="#ffffff"
     x="784.00"
     y="784.00"
     width="93.94"
     height="93.94"
     rx="0.67"
     id="rect127" />
  <rect
     fill="#ffffff"
     x="1117.75"
     y="784.00"
     width="94.00"
     height="93.86"
     rx="0.55"
     id="rect128" />
  <rect
     fill="#ffffff"
     x="1224.00"
     y="784.00"
     width="95.54"
     height="93.92"
     rx="0.60"
     id="rect129" />
  <rect
     fill="#ffffff"
     x="-47.00"
     y="-46.94"
     transform="translate(1378.75,830.95) rotate(0.1)"
     width="94.00"
     height="93.88"
     rx="0.33"
     id="rect130" />
  <path
     fill="#303030"
     d="   M 899.50 1446.35   A 0.90 0.90 0.0 0 1 898.60 1447.25   L 549.40 1447.25   A 0.90 0.90 0.0 0 1 548.50 1446.35   L 548.50 1097.15   A 0.90 0.90 0.0 0 1 549.40 1096.25   L 898.60 1096.25   A 0.90 0.90 0.0 0 1 899.50 1097.15   L 899.50 1446.35   Z   M 664.00 1118.20   A 0.43 0.43 0.0 0 0 663.57 1117.77   L 570.61 1117.77   A 0.43 0.43 0.0 0 0 570.18 1118.20   L 570.18 1211.32   A 0.43 0.43 0.0 0 0 570.61 1211.75   L 663.57 1211.75   A 0.43 0.43 0.0 0 0 664.00 1211.32   L 664.00 1118.20   Z   M 771.75 1118.18   A 0.43 0.43 0.0 0 0 771.32 1117.75   L 676.68 1117.75   A 0.43 0.43 0.0 0 0 676.25 1118.18   L 676.25 1211.32   A 0.43 0.43 0.0 0 0 676.68 1211.75   L 771.32 1211.75   A 0.43 0.43 0.0 0 0 771.75 1211.32   L 771.75 1118.18   Z   M 878.00 1118.29   A 0.54 0.54 0.0 0 0 877.46 1117.75   L 784.54 1117.75   A 0.54 0.54 0.0 0 0 784.00 1118.29   L 784.00 1211.21   A 0.54 0.54 0.0 0 0 784.54 1211.75   L 877.46 1211.75   A 0.54 0.54 0.0 0 0 878.00 1211.21   L 878.00 1118.29   Z   M 664.00 1224.46   A 0.46 0.46 0.0 0 0 663.54 1224.00   L 570.68 1224.00   A 0.46 0.46 0.0 0 0 570.22 1224.46   L 570.22 1319.04   A 0.46 0.46 0.0 0 0 570.68 1319.50   L 663.54 1319.50   A 0.46 0.46 0.0 0 0 664.00 1319.04   L 664.00 1224.46   Z   M 771.75 1224.92   A 0.92 0.92 0.0 0 0 770.83 1224.00   L 677.17 1224.00   A 0.92 0.92 0.0 0 0 676.25 1224.92   L 676.25 1318.58   A 0.92 0.92 0.0 0 0 677.17 1319.50   L 770.83 1319.50   A 0.92 0.92 0.0 0 0 771.75 1318.58   L 771.75 1224.92   Z   M 877.8576 1224.5181   A 0.60 0.60 0.0 0 0 877.2566 1223.9191   L 784.5167 1224.0810   A 0.60 0.60 0.0 0 0 783.9178 1224.6820   L 784.0824 1318.9819   A 0.60 0.60 0.0 0 0 784.6834 1319.5809   L 877.4233 1319.4190   A 0.60 0.60 0.0 0 0 878.0222 1318.8180   L 877.8576 1224.5181   Z   M 664.00 1332.02   A 0.27 0.27 0.0 0 0 663.73 1331.75   L 570.49 1331.75   A 0.27 0.27 0.0 0 0 570.22 1332.02   L 570.22 1425.48   A 0.27 0.27 0.0 0 0 570.49 1425.75   L 663.73 1425.75   A 0.27 0.27 0.0 0 0 664.00 1425.48   L 664.00 1332.02   Z   M 771.75 1332.01   A 0.26 0.26 0.0 0 0 771.49 1331.75   L 676.51 1331.75   A 0.26 0.26 0.0 0 0 676.25 1332.01   L 676.25 1425.49   A 0.26 0.26 0.0 0 0 676.51 1425.75   L 771.49 1425.75   A 0.26 0.26 0.0 0 0 771.75 1425.49   L 771.75 1332.01   Z   M 877.8588 1332.2081   A 0.54 0.54 0.0 0 0 877.3179 1331.6690   L 784.4580 1331.8311   A 0.54 0.54 0.0 0 0 783.9190 1332.3720   L 784.0812 1425.2919   A 0.54 0.54 0.0 0 0 784.6221 1425.8310   L 877.4820 1425.6689   A 0.54 0.54 0.0 0 0 878.0210 1425.1280   L 877.8588 1332.2081   Z"
     id="path130" />
  <path
     fill="#303030"
     d="   M 351.75 1446.97   A 0.27 0.27 0.0 0 1 351.48 1447.24   L 1.02 1447.24   A 0.27 0.27 0.0 0 1 0.75 1446.97   L 0.75 1096.77   A 0.27 0.27 0.0 0 1 1.02 1096.50   L 351.48 1096.50   A 0.27 0.27 0.0 0 1 351.75 1096.77   L 351.75 1446.97   Z   M 116.25 1118.80   A 1.04 1.04 0.0 0 0 115.21 1117.76   L 23.29 1117.76   A 1.04 1.04 0.0 0 0 22.25 1118.80   L 22.25 1210.72   A 1.04 1.04 0.0 0 0 23.29 1211.76   L 115.21 1211.76   A 1.04 1.04 0.0 0 0 116.25 1210.72   L 116.25 1118.80   Z   M 224.00 1118.25   A 0.46 0.46 0.0 0 0 223.54 1117.79   L 128.94 1117.79   A 0.46 0.46 0.0 0 0 128.48 1118.25   L 128.48 1211.29   A 0.46 0.46 0.0 0 0 128.94 1211.75   L 223.54 1211.75   A 0.46 0.46 0.0 0 0 224.00 1211.29   L 224.00 1118.25   Z   M 330.3302 1118.8421   A 0.96 0.96 0.0 0 0 329.3719 1117.8804   L 237.2921 1117.7197   A 0.96 0.96 0.0 0 0 236.3304 1118.6780   L 236.1698 1210.7179   A 0.96 0.96 0.0 0 0 237.1281 1211.6796   L 329.2079 1211.8403   A 0.96 0.96 0.0 0 0 330.1696 1210.8820   L 330.3302 1118.8421   Z   M 116.25 1224.57   A 0.57 0.57 0.0 0 0 115.68 1224.00   L 22.82 1224.00   A 0.57 0.57 0.0 0 0 22.25 1224.57   L 22.25 1318.93   A 0.57 0.57 0.0 0 0 22.82 1319.50   L 115.68 1319.50   A 0.57 0.57 0.0 0 0 116.25 1318.93   L 116.25 1224.57   Z   M 224.00 1224.89   A 0.89 0.89 0.0 0 0 223.11 1224.00   L 129.39 1224.00   A 0.89 0.89 0.0 0 0 128.50 1224.89   L 128.50 1318.61   A 0.89 0.89 0.0 0 0 129.39 1319.50   L 223.11 1319.50   A 0.89 0.89 0.0 0 0 224.00 1318.61   L 224.00 1224.89   Z   M 330.1274 1224.4081   A 0.49 0.49 0.0 0 0 329.6366 1223.9189   L 236.6567 1224.0812   A 0.49 0.49 0.0 0 0 236.1676 1224.5721   L 236.3326 1319.0919   A 0.49 0.49 0.0 0 0 236.8234 1319.5811   L 329.8033 1319.4188   A 0.49 0.49 0.0 0 0 330.2924 1318.9279   L 330.1274 1224.4081   Z   M 116.25 1332.18   A 0.43 0.43 0.0 0 0 115.82 1331.75   L 22.68 1331.75   A 0.43 0.43 0.0 0 0 22.25 1332.18   L 22.25 1425.32   A 0.43 0.43 0.0 0 0 22.68 1425.75   L 115.82 1425.75   A 0.43 0.43 0.0 0 0 116.25 1425.32   L 116.25 1332.18   Z   M 224.00 1332.01   A 0.26 0.26 0.0 0 0 223.74 1331.75   L 128.76 1331.75   A 0.26 0.26 0.0 0 0 128.50 1332.01   L 128.50 1425.49   A 0.26 0.26 0.0 0 0 128.76 1425.75   L 223.74 1425.75   A 0.26 0.26 0.0 0 0 224.00 1425.49   L 224.00 1332.01   Z   M 330.23 1332.01   A 0.26 0.26 0.0 0 0 329.97 1331.75   L 236.51 1331.75   A 0.26 0.26 0.0 0 0 236.25 1332.01   L 236.25 1425.49   A 0.26 0.26 0.0 0 0 236.51 1425.75   L 329.97 1425.75   A 0.26 0.26 0.0 0 0 330.23 1425.49   L 330.23 1332.01   Z"
     id="path131" />
  <path
     fill="#303030"
     d="   M 1447.25 1446.68   A 0.57 0.57 0.0 0 1 1446.68 1447.25   L 1098.08 1447.25   A 0.57 0.57 0.0 0 1 1097.51 1446.68   L 1097.51 1098.08   A 0.57 0.57 0.0 0 1 1098.08 1097.51   L 1446.68 1097.51   A 0.57 0.57 0.0 0 1 1447.25 1098.08   L 1447.25 1446.68   Z   M 1427.25 1117.94   A 0.44 0.44 0.0 0 0 1426.81 1117.50   L 1117.93 1117.50   A 0.44 0.44 0.0 0 0 1117.49 1117.94   L 1117.49 1426.82   A 0.44 0.44 0.0 0 0 1117.93 1427.26   L 1426.81 1427.26   A 0.44 0.44 0.0 0 0 1427.25 1426.82   L 1427.25 1117.94   Z"
     id="path132" />
  <path
     fill="#007948"
     d="   M 1427.25 1426.82   A 0.44 0.44 0.0 0 1 1426.81 1427.26   L 1117.93 1427.26   A 0.44 0.44 0.0 0 1 1117.49 1426.82   L 1117.49 1117.94   A 0.44 0.44 0.0 0 1 1117.93 1117.50   L 1426.81 1117.50   A 0.44 0.44 0.0 0 1 1427.25 1117.94   L 1427.25 1426.82   Z   M 1282.44 1210.56   C 1296.87 1212.01 1302.81 1225.59 1300.06 1238.59   C 1295.82 1258.68 1264.54 1257.43 1249.15 1257.23   Q 1248.62 1257.22 1248.64 1257.75   L 1249.77 1296.02   Q 1249.79 1296.50 1250.27 1296.50   L 1277.59 1296.50   Q 1278.18 1296.50 1278.21 1295.91   L 1279.06 1279.26   Q 1279.10 1278.55 1279.81 1278.55   C 1304.51 1278.59 1327.18 1267.75 1331.52 1241.26   C 1335.67 1215.90 1322.99 1192.25 1297.49 1185.72   C 1262.88 1176.84 1227.35 1191.18 1225.96 1231.43   Q 1225.94 1232.00 1226.50 1232.00   L 1255.75 1232.00   Q 1256.26 1232.00 1256.31 1231.49   Q 1258.64 1208.18 1282.44 1210.56   Z   M 1283.6199 1332.5704   A 19.95 19.04 -0.2 0 0 1263.6035 1313.6001   A 19.95 19.04 -0.2 0 0 1243.7201 1332.7096   A 19.95 19.04 -0.2 0 0 1263.7365 1351.6799   A 19.95 19.04 -0.2 0 0 1283.6199 1332.5704   Z"
     id="path133"
     style="fill:#00a86b;fill-opacity:1" />
  <rect
     fill="#007948"
     x="22.25"
     y="1117.76"
     width="94.00"
     height="94.00"
     rx="1.04"
     id="rect133"
     style="fill:#00a86b;fill-opacity:1" />
  <rect
     fill="#ffffff"
     x="128.48"
     y="1117.79"
     width="95.52"
     height="93.96"
     rx="0.46"
     id="rect134" />
  <rect
     fill="#ffffff"
     x="-47.00"
     y="-46.98"
     transform="translate(283.25,1164.78) rotate(0.1)"
     width="94.00"
     height="93.96"
     rx="0.96"
     id="rect135" />
  <rect
     fill="#ffffff"
     x="570.18"
     y="1117.77"
     width="93.82"
     height="93.98"
     rx="0.43"
     id="rect136" />
  <rect
     fill="#007948"
     x="676.25"
     y="1117.75"
     width="95.50"
     height="94.00"
     rx="0.43"
     id="rect137"
     style="fill:#00a86b;fill-opacity:1" />
  <rect
     fill="#ffffff"
     x="784.00"
     y="1117.75"
     width="94.00"
     height="94.00"
     rx="0.54"
     id="rect138" />
  <path
     fill="#ffffff"
     d="   M 1282.44 1210.56   Q 1258.64 1208.18 1256.31 1231.49   Q 1256.26 1232.00 1255.75 1232.00   L 1226.50 1232.00   Q 1225.94 1232.00 1225.96 1231.43   C 1227.35 1191.18 1262.88 1176.84 1297.49 1185.72   C 1322.99 1192.25 1335.67 1215.90 1331.52 1241.26   C 1327.18 1267.75 1304.51 1278.59 1279.81 1278.55   Q 1279.10 1278.55 1279.06 1279.26   L 1278.21 1295.91   Q 1278.18 1296.50 1277.59 1296.50   L 1250.27 1296.50   Q 1249.79 1296.50 1249.77 1296.02   L 1248.64 1257.75   Q 1248.62 1257.22 1249.15 1257.23   C 1264.54 1257.43 1295.82 1258.68 1300.06 1238.59   C 1302.81 1225.59 1296.87 1212.01 1282.44 1210.56   Z"
     id="path138" />
  <rect
     fill="#ffffff"
     x="22.25"
     y="1224.00"
     width="94.00"
     height="95.50"
     rx="0.57"
     id="rect139" />
  <rect
     fill="#007948"
     x="128.50"
     y="1224.00"
     width="95.50"
     height="95.50"
     rx="0.89"
     id="rect140"
     style="fill:#00a86b;fill-opacity:1" />
  <rect
     fill="#ffffff"
     x="-46.98"
     y="-47.75"
     transform="translate(283.23,1271.75) rotate(-0.1)"
     width="93.96"
     height="95.50"
     rx="0.49"
     id="rect141" />
  <rect
     fill="#ffffff"
     x="570.22"
     y="1224.00"
     width="93.78"
     height="95.50"
     rx="0.46"
     id="rect142" />
  <rect
     fill="#007948"
     x="676.25"
     y="1224.00"
     width="95.50"
     height="95.50"
     rx="0.92"
     id="rect143"
     style="fill:#00a86b;fill-opacity:1" />
  <rect
     fill="#ffffff"
     x="-46.97"
     y="-47.75"
     transform="translate(830.97,1271.75) rotate(-0.1)"
     width="93.94"
     height="95.50"
     rx="0.60"
     id="rect144" />
  <ellipse
     fill="#ffffff"
     cx="0.00"
     cy="0.00"
     transform="translate(1263.67,1332.64) rotate(-0.2)"
     rx="19.95"
     ry="19.04"
     id="ellipse144" />
  <rect
     fill="#ffffff"
     x="22.25"
     y="1331.75"
     width="94.00"
     height="94.00"
     rx="0.43"
     id="rect145" />
  <rect
     fill="#ffffff"
     x="128.50"
     y="1331.75"
     width="95.50"
     height="94.00"
     rx="0.26"
     id="rect146" />
  <rect
     fill="#ffffff"
     x="236.25"
     y="1331.75"
     width="93.98"
     height="94.00"
     rx="0.26"
     id="rect147" />
  <rect
     fill="#ffffff"
     x="570.22"
     y="1331.75"
     width="93.78"
     height="94.00"
     rx="0.27"
     id="rect148" />
  <rect
     fill="#ffffff"
     x="676.25"
     y="1331.75"
     width="95.50"
     height="94.00"
     rx="0.26"
     id="rect149" />
  <rect
     fill="#ffffff"
     x="-46.97"
     y="-47.00"
     transform="translate(830.97,1378.75) rotate(-0.1)"
     width="93.94"
     height="94.00"
     rx="0.54"
     id="rect150" />
</svg>
