<?xml version="1.0" encoding="UTF-8" standalone="no"?>
<svg
   version="1.1"
   viewBox="0.00 0.00 949.00 949.00"
   id="svg3"
   sodipodi:docname="b.svg"
   inkscape:version="1.3 (0e150ed6c4, 2023-07-21)"
   xmlns:inkscape="http://www.inkscape.org/namespaces/inkscape"
   xmlns:sodipodi="http://sodipodi.sourceforge.net/DTD/sodipodi-0.dtd"
   xmlns="http://www.w3.org/2000/svg"
   xmlns:svg="http://www.w3.org/2000/svg">
  <defs
     id="defs3" />
  <sodipodi:namedview
     id="namedview3"
     pagecolor="#ffffff"
     bordercolor="#000000"
     borderopacity="0.25"
     inkscape:showpageshadow="2"
     inkscape:pageopacity="0.0"
     inkscape:pagecheckerboard="0"
     inkscape:deskcolor="#d1d1d1"
     inkscape:zoom="0.85774499"
     inkscape:cx="473.91708"
     inkscape:cy="474.5"
     inkscape:window-width="1920"
     inkscape:window-height="1010"
     inkscape:window-x="1913"
     inkscape:window-y="-6"
     inkscape:window-maximized="1"
     inkscape:current-layer="svg3" />
  <path
     stroke="#18764f"
     stroke-width="2.00"
     fill="none"
     stroke-linecap="butt"
     vector-effect="non-scaling-stroke"
     d="   M 778.92 606.91   C 777.16 604.99 773.91 605.35 771.75 603.74   Q 771.35 603.44 770.85 603.50   Q 770.10 603.60 769.68 603.34   Q 767.91 602.27 766.10 601.26   C 764.17 600.19 761.67 599.84 759.55 598.49   A 1.53 1.48 -27.6 0 0 758.73 598.25   L 757.70 598.25   A 1.40 1.38 63.8 0 1 756.84 597.95   C 754.13 595.81 750.74 595.18 748.05 593.90   Q 744.27 592.09 739.24 590.77   Q 735.15 589.70 731.01 586.57   A 1.51 1.48 -26.6 0 0 730.08 586.27   Q 727.75 586.33 725.94 584.84   Q 725.52 584.50 724.98 584.50   L 723.98 584.50   A 1.20 1.17 64.1 0 1 723.23 584.23   Q 720.62 582.12 717.44 581.26   C 715.75 580.80 714.66 579.80 713.01 579.35   C 709.38 578.34 706.78 576.33 702.94 575.58   Q 702.44 575.48 702.12 575.08   Q 701.42 574.18 700.27 574.52   A 0.85 0.84 56.2 0 1 699.49 574.36   C 696.58 571.96 692.16 571.08 689.44 569.48   Q 689.01 569.24 688.52 569.27   C 686.88 569.39 685.01 567.22 682.59 567.18   Q 682.09 567.18 681.72 566.86   C 679.98 565.39 678.17 565.54 676.44 564.52   C 674.66 563.47 673.37 562.75 671.12 562.19   Q 669.17 561.70 667.49 560.42   A 0.82 0.81 -25.9 0 0 666.99 560.25   L 665.69 560.25   A 1.34 1.30 -25.0 0 1 664.86 559.96   C 662.06 557.76 658.56 557.11 655.84 555.79   Q 652.96 554.40 649.92 553.41   C 647.17 552.52 644.61 550.69 641.52 550.07   Q 641.03 549.97 640.65 549.67   C 638.59 548.03 634.21 547.38 631.57 546.36   C 629.17 545.44 627.81 543.46 624.74 543.13   A 1.86 1.84 -22.1 0 1 623.78 542.73   Q 622.09 541.34 619.96 541.19   Q 619.36 541.14 618.87 540.78   Q 616.00 538.61 612.53 538.09   Q 612.09 538.03 611.74 537.76   Q 610.02 536.43 607.92 536.18   Q 607.40 536.12 607.01 535.79   Q 605.73 534.71 603.47 534.30   Q 601.12 533.86 598.17 531.65   A 1.42 1.39 -22.6 0 0 597.44 531.36   Q 594.91 531.09 592.77 529.64   Q 592.35 529.35 591.84 529.31   Q 589.67 529.13 587.88 527.79   Q 587.56 527.55 587.16 527.52   C 583.50 527.23 582.03 524.30 578.84 524.12   Q 578.32 524.09 577.91 523.78   Q 576.04 522.37 573.71 522.18   Q 573.16 522.13 572.70 521.82   C 570.52 520.36 569.03 519.45 566.22 519.09   C 562.70 518.64 560.57 515.65 558.41 515.39   Q 554.81 514.94 551.84 512.90   Q 551.44 512.62 550.96 512.55   C 548.67 512.18 547.14 510.55 545.17 510.05   C 539.40 508.57 535.39 509.33 530.99 513.14   C 526.95 516.63 527.78 523.54 530.01 527.72   Q 616.45 690.13 702.95 852.50   Q 703.58 853.67 705.72 854.39   Q 706.16 854.54 706.59 854.37   Q 708.94 853.41 711.06 852.07   Q 730.36 839.79 748.38 825.71   C 751.93 822.94 758.62 818.70 763.08 814.22   Q 763.42 813.88 763.90 813.81   Q 764.51 813.71 764.95 813.21   C 768.33 809.32 772.68 806.35 776.03 802.95   Q 778.43 800.52 780.90 798.16   Q 823.82 757.28 854.60 706.69   Q 854.71 706.52 858.37 701.17   C 860.79 697.65 861.79 693.60 864.35 690.15   Q 866.76 686.91 867.55 685.37   Q 878.34 664.46 882.01 656.47   Q 883.16 653.98 882.79 649.83   Q 882.75 649.31 882.30 649.06   Q 880.95 648.31 879.42 648.21   Q 878.94 648.17 878.53 647.94   Q 875.68 646.36 872.59 645.40   Q 868.28 644.06 866.46 643.22   Q 861.56 640.95 856.69 638.65   C 854.74 637.74 853.51 638.06 851.55 636.55   Q 850.87 636.02 849.84 636.29   A 0.85 0.83 -29.0 0 1 849.05 636.07   C 847.16 634.17 841.05 632.78 838.50 631.91   Q 838.04 631.75 837.70 631.41   C 835.68 629.37 832.95 629.31 830.90 628.24   Q 825.33 625.36 819.28 623.71   C 816.44 622.93 814.46 621.59 811.94 620.27   C 809.02 618.74 805.88 619.04 802.90 616.77   C 801.31 615.56 800.28 615.50 798.52 614.98   C 794.96 613.94 791.34 611.01 787.64 610.21   C 784.94 609.63 783.64 608.72 781.49 607.51   Q 781.03 607.25 780.50 607.25   L 779.69 607.25   Q 779.23 607.25 778.92 606.91"
     id="path1" />
  <path
     fill="#303030"
     d="   M 458.82 0.00   L 494.03 0.00   C 661.72 11.94 811.84 100.53 892.55 249.95   C 927.20 314.11 946.01 387.07 949.00 460.11   L 949.00 489.55   C 943.14 587.20 911.39 681.99 852.51 760.24   C 765.02 876.51 632.89 943.21 487.66 949.00   L 462.45 949.00   C 384.95 944.86 308.28 924.56 240.49 886.17   C 95.16 803.89 7.44 656.57 0.00 489.90   L 0.00 458.70   C 5.34 372.19 30.00 288.53 77.38 215.85   C 157.08 93.58 285.30 16.95 430.51 2.34   Q 444.63 0.92 458.82 0.00   Z   M 475.55 403.09   L 493.80 406.40   A 2.40 2.39 21.0 0 0 496.28 405.30   L 692.40 88.71   A 1.71 1.71 0.0 0 0 691.78 86.32   Q 563.95 14.65 417.38 33.12   A 1.42 1.41 81.7 0 0 416.17 34.75   L 474.79 402.32   A 0.95 0.94 0.5 0 0 475.55 403.09   Z   M 158.53 166.62   Q 293.11 292.59 427.73 418.16   A 2.87 2.86 -39.9 0 0 431.24 418.47   L 444.09 410.13   A 3.95 3.93 -21.1 0 0 445.84 406.20   Q 416.59 223.02 387.48 41.00   C 387.09 38.58 385.53 37.52 383.06 38.08   Q 251.74 68.06 156.39 162.77   Q 156.01 163.14 156.07 163.66   C 156.23 165.18 157.70 165.84 158.53 166.62   Z   M 533.34 433.63   Q 534.64 434.79 537.24 433.98   Q 714.09 379.08 890.85 324.19   Q 893.21 323.46 892.34 321.15   C 859.07 232.55 800.29 157.19 721.26 103.98   C 719.14 102.55 718.11 102.90 716.78 105.05   Q 619.24 262.41 522.06 419.22   A 2.92 2.91 40.2 0 0 522.35 422.67   Q 527.34 428.31 533.34 433.63   Z   M 409.26 441.02   C 319.24 356.73 229.18 272.09 138.53 188.06   C 136.93 186.58 135.34 185.72 133.72 187.70   C 95.13 234.77 64.22 290.59 47.04 349.05   Q 34.12 393.05 30.71 442.49   Q 30.59 444.29 31.13 445.27   Q 31.62 446.15 33.37 446.21   Q 217.42 452.84 402.91 459.54   A 2.70 2.69 11.0 0 0 405.54 457.77   L 410.19 444.91   Q 411.01 442.65 409.26 441.02   Z   M 547.35 480.47   Q 717.80 551.13 888.55 621.49   C 894.51 623.95 895.42 621.84 897.07 616.68   Q 938.75 486.17 903.57 353.26   A 2.03 2.02 -16.0 0 0 901.01 351.85   Q 725.21 406.41 549.16 461.06   C 545.77 462.11 544.61 461.90 544.75 465.74   Q 544.98 472.20 545.72 478.31   A 2.70 2.68 -82.3 0 0 547.35 480.47   Z   M 403.72 510.97   C 414.41 502.11 410.23 489.03 396.25 488.53   Q 215.00 481.98 33.75 475.46   C 29.97 475.33 29.07 476.39 29.14 480.13   Q 32.21 626.45 119.37 742.84   C 120.27 744.03 121.25 745.16 122.70 743.95   Q 263.19 627.44 403.72 510.97   Z   M 778.92 606.91   C 777.16 604.99 773.91 605.35 771.75 603.74   Q 771.35 603.44 770.85 603.50   Q 770.10 603.60 769.68 603.34   Q 767.91 602.27 766.10 601.26   C 764.17 600.19 761.67 599.84 759.55 598.49   A 1.53 1.48 -27.6 0 0 758.73 598.25   L 757.70 598.25   A 1.40 1.38 63.8 0 1 756.84 597.95   C 754.13 595.81 750.74 595.18 748.05 593.90   Q 744.27 592.09 739.24 590.77   Q 735.15 589.70 731.01 586.57   A 1.51 1.48 -26.6 0 0 730.08 586.27   Q 727.75 586.33 725.94 584.84   Q 725.52 584.50 724.98 584.50   L 723.98 584.50   A 1.20 1.17 64.1 0 1 723.23 584.23   Q 720.62 582.12 717.44 581.26   C 715.75 580.80 714.66 579.80 713.01 579.35   C 709.38 578.34 706.78 576.33 702.94 575.58   Q 702.44 575.48 702.12 575.08   Q 701.42 574.18 700.27 574.52   A 0.85 0.84 56.2 0 1 699.49 574.36   C 696.58 571.96 692.16 571.08 689.44 569.48   Q 689.01 569.24 688.52 569.27   C 686.88 569.39 685.01 567.22 682.59 567.18   Q 682.09 567.18 681.72 566.86   C 679.98 565.39 678.17 565.54 676.44 564.52   C 674.66 563.47 673.37 562.75 671.12 562.19   Q 669.17 561.70 667.49 560.42   A 0.82 0.81 -25.9 0 0 666.99 560.25   L 665.69 560.25   A 1.34 1.30 -25.0 0 1 664.86 559.96   C 662.06 557.76 658.56 557.11 655.84 555.79   Q 652.96 554.40 649.92 553.41   C 647.17 552.52 644.61 550.69 641.52 550.07   Q 641.03 549.97 640.65 549.67   C 638.59 548.03 634.21 547.38 631.57 546.36   C 629.17 545.44 627.81 543.46 624.74 543.13   A 1.86 1.84 -22.1 0 1 623.78 542.73   Q 622.09 541.34 619.96 541.19   Q 619.36 541.14 618.87 540.78   Q 616.00 538.61 612.53 538.09   Q 612.09 538.03 611.74 537.76   Q 610.02 536.43 607.92 536.18   Q 607.40 536.12 607.01 535.79   Q 605.73 534.71 603.47 534.30   Q 601.12 533.86 598.17 531.65   A 1.42 1.39 -22.6 0 0 597.44 531.36   Q 594.91 531.09 592.77 529.64   Q 592.35 529.35 591.84 529.31   Q 589.67 529.13 587.88 527.79   Q 587.56 527.55 587.16 527.52   C 583.50 527.23 582.03 524.30 578.84 524.12   Q 578.32 524.09 577.91 523.78   Q 576.04 522.37 573.71 522.18   Q 573.16 522.13 572.70 521.82   C 570.52 520.36 569.03 519.45 566.22 519.09   C 562.70 518.64 560.57 515.65 558.41 515.39   Q 554.81 514.94 551.84 512.90   Q 551.44 512.62 550.96 512.55   C 548.67 512.18 547.14 510.55 545.17 510.05   C 539.40 508.57 535.39 509.33 530.99 513.14   C 526.95 516.63 527.78 523.54 530.01 527.72   Q 616.45 690.13 702.95 852.50   Q 703.58 853.67 705.72 854.39   Q 706.16 854.54 706.59 854.37   Q 708.94 853.41 711.06 852.07   Q 730.36 839.79 748.38 825.71   C 751.93 822.94 758.62 818.70 763.08 814.22   Q 763.42 813.88 763.90 813.81   Q 764.51 813.71 764.95 813.21   C 768.33 809.32 772.68 806.35 776.03 802.95   Q 778.43 800.52 780.90 798.16   Q 823.82 757.28 854.60 706.69   Q 854.71 706.52 858.37 701.17   C 860.79 697.65 861.79 693.60 864.35 690.15   Q 866.76 686.91 867.55 685.37   Q 878.34 664.46 882.01 656.47   Q 883.16 653.98 882.79 649.83   Q 882.75 649.31 882.30 649.06   Q 880.95 648.31 879.42 648.21   Q 878.94 648.17 878.53 647.94   Q 875.68 646.36 872.59 645.40   Q 868.28 644.06 866.46 643.22   Q 861.56 640.95 856.69 638.65   C 854.74 637.74 853.51 638.06 851.55 636.55   Q 850.87 636.02 849.84 636.29   A 0.85 0.83 -29.0 0 1 849.05 636.07   C 847.16 634.17 841.05 632.78 838.50 631.91   Q 838.04 631.75 837.70 631.41   C 835.68 629.37 832.95 629.31 830.90 628.24   Q 825.33 625.36 819.28 623.71   C 816.44 622.93 814.46 621.59 811.94 620.27   C 809.02 618.74 805.88 619.04 802.90 616.77   C 801.31 615.56 800.28 615.50 798.52 614.98   C 794.96 613.94 791.34 611.01 787.64 610.21   C 784.94 609.63 783.64 608.72 781.49 607.51   Q 781.03 607.25 780.50 607.25   L 779.69 607.25   Q 779.23 607.25 778.92 606.91   Z   M 141.74 770.50   C 205.46 837.01 280.86 885.98 371.03 908.03   A 1.29 1.28 12.1 0 0 372.60 907.02   L 443.57 541.29   A 3.66 3.66 0.0 0 0 441.98 537.54   L 429.76 529.53   A 2.65 2.64 -48.1 0 0 426.62 529.71   Q 284.64 647.36 142.03 765.52   Q 140.93 766.43 140.39 767.75   Q 140.20 768.20 140.42 768.64   Q 140.94 769.67 141.74 770.50   Z   M 401.38 913.61   Q 401.43 914.11 401.92 914.19   C 493.42 928.58 584.17 915.99 667.73 876.09   C 669.81 875.10 674.14 873.30 676.96 871.59   A 3.85 3.85 0.0 0 0 678.35 866.50   L 505.81 541.91   A 3.60 3.60 0.0 0 0 501.89 540.08   L 474.00 545.93   A 3.02 3.01 89.6 0 0 471.66 548.31   Q 436.71 728.64 401.60 909.22   Q 401.17 911.44 401.38 913.61   Z"
     id="path2" />
  <path
     fill="#00bb6e"
     d="   M 779.69 607.25   L 780.50 607.25   Q 781.03 607.25 781.49 607.51   C 783.64 608.72 784.94 609.63 787.64 610.21   C 791.34 611.01 794.96 613.94 798.52 614.98   C 800.28 615.50 801.31 615.56 802.90 616.77   C 805.88 619.04 809.02 618.74 811.94 620.27   C 814.46 621.59 816.44 622.93 819.28 623.71   Q 825.33 625.36 830.90 628.24   C 832.95 629.31 835.68 629.37 837.70 631.41   Q 838.04 631.75 838.50 631.91   C 841.05 632.78 847.16 634.17 849.05 636.07   A 0.85 0.83 -29.0 0 0 849.84 636.29   Q 850.87 636.02 851.55 636.55   C 853.51 638.06 854.74 637.74 856.69 638.65   Q 861.56 640.95 866.46 643.22   Q 868.28 644.06 872.59 645.40   Q 875.68 646.36 878.53 647.94   Q 878.94 648.17 879.42 648.21   Q 880.95 648.31 882.30 649.06   Q 882.75 649.31 882.79 649.83   Q 883.16 653.98 882.01 656.47   Q 878.34 664.46 867.55 685.37   Q 866.76 686.91 864.35 690.15   C 861.79 693.60 860.79 697.65 858.37 701.17   Q 854.71 706.52 854.60 706.69   Q 823.82 757.28 780.90 798.16   Q 778.43 800.52 776.03 802.95   C 772.68 806.35 768.33 809.32 764.95 813.21   Q 764.51 813.71 763.90 813.81   Q 763.42 813.88 763.08 814.22   C 758.62 818.70 751.93 822.94 748.38 825.71   Q 730.36 839.79 711.06 852.07   Q 708.94 853.41 706.59 854.37   Q 706.16 854.54 705.72 854.39   Q 703.58 853.67 702.95 852.50   Q 616.45 690.13 530.01 527.72   C 527.78 523.54 526.95 516.63 530.99 513.14   C 535.39 509.33 539.40 508.57 545.17 510.05   C 547.14 510.55 548.67 512.18 550.96 512.55   Q 551.44 512.62 551.84 512.90   Q 554.81 514.94 558.41 515.39   C 560.57 515.65 562.70 518.64 566.22 519.09   C 569.03 519.45 570.52 520.36 572.70 521.82   Q 573.16 522.13 573.71 522.18   Q 576.04 522.37 577.91 523.78   Q 578.32 524.09 578.84 524.12   C 582.03 524.30 583.50 527.23 587.16 527.52   Q 587.56 527.55 587.88 527.79   Q 589.67 529.13 591.84 529.31   Q 592.35 529.35 592.77 529.64   Q 594.91 531.09 597.44 531.36   A 1.42 1.39 -22.6 0 1 598.17 531.65   Q 601.12 533.86 603.47 534.30   Q 605.73 534.71 607.01 535.79   Q 607.40 536.12 607.92 536.18   Q 610.02 536.43 611.74 537.76   Q 612.09 538.03 612.53 538.09   Q 616.00 538.61 618.87 540.78   Q 619.36 541.14 619.96 541.19   Q 622.09 541.34 623.78 542.73   A 1.86 1.84 -22.1 0 0 624.74 543.13   C 627.81 543.46 629.17 545.44 631.57 546.36   C 634.21 547.38 638.59 548.03 640.65 549.67   Q 641.03 549.97 641.52 550.07   C 644.61 550.69 647.17 552.52 649.92 553.41   Q 652.96 554.40 655.84 555.79   C 658.56 557.11 662.06 557.76 664.86 559.96   A 1.34 1.30 -25.0 0 0 665.69 560.25   L 666.99 560.25   A 0.82 0.81 -25.9 0 1 667.49 560.42   Q 669.17 561.70 671.12 562.19   C 673.37 562.75 674.66 563.47 676.44 564.52   C 678.17 565.54 679.98 565.39 681.72 566.86   Q 682.09 567.18 682.59 567.18   C 685.01 567.22 686.88 569.39 688.52 569.27   Q 689.01 569.24 689.44 569.48   C 692.16 571.08 696.58 571.96 699.49 574.36   A 0.85 0.84 56.2 0 0 700.27 574.52   Q 701.42 574.18 702.12 575.08   Q 702.44 575.48 702.94 575.58   C 706.78 576.33 709.38 578.34 713.01 579.35   C 714.66 579.80 715.75 580.80 717.44 581.26   Q 720.62 582.12 723.23 584.23   A 1.20 1.17 64.1 0 0 723.98 584.50   L 724.98 584.50   Q 725.52 584.50 725.94 584.84   Q 727.75 586.33 730.08 586.27   A 1.51 1.48 -26.6 0 1 731.01 586.57   Q 735.15 589.70 739.24 590.77   Q 744.27 592.09 748.05 593.90   C 750.74 595.18 754.13 595.81 756.84 597.95   A 1.40 1.38 63.8 0 0 757.70 598.25   L 758.73 598.25   A 1.53 1.48 -27.6 0 1 759.55 598.49   C 761.67 599.84 764.17 600.19 766.10 601.26   Q 767.91 602.27 769.68 603.34   Q 770.10 603.60 770.85 603.50   Q 771.35 603.44 771.75 603.74   C 773.91 605.35 777.16 604.99 778.92 606.91   Q 779.23 607.25 779.69 607.25   Z"
     id="path3"
     style="fill:#00a86b;fill-opacity:1" />
</svg>
