<?xml version="1.0" encoding="UTF-8" standalone="no"?>
<!DOCTYPE svg PUBLIC "-//W3C//DTD SVG 1.1//EN" "http://www.w3.org/Graphics/SVG/1.1/DTD/svg11.dtd">
<svg xmlns="http://www.w3.org/2000/svg" version="1.1" viewBox="0.00 0.00 228.00 228.00">
<g stroke-width="2.00" fill="none" stroke-linecap="butt">
<path stroke="#9ca5a0" vector-effect="non-scaling-stroke" d="
  M 150.70 111.33
  C 160.31 106.99 164.57 98.18 162.98 87.84
  C 159.98 68.28 135.18 64.72 120.50 71.49
  Q 107.45 77.51 106.75 93.13
  Q 106.72 93.75 107.33 93.75
  L 122.44 93.75
  Q 122.97 93.75 123.08 93.23
  Q 125.73 81.02 138.59 83.26
  Q 146.07 84.56 146.95 91.52
  C 148.54 104.06 136.25 105.29 127.04 104.99
  A 0.52 0.52 0.0 0 0 126.50 105.51
  L 126.50 118.49
  A 0.54 0.54 0.0 0 0 127.06 119.03
  C 137.86 118.63 150.60 120.02 148.32 134.73
  C 146.03 149.52 122.89 147.10 121.84 132.04
  Q 121.81 131.50 121.27 131.50
  L 106.01 131.50
  Q 105.35 131.50 105.39 132.17
  C 106.62 152.45 122.60 159.95 141.06 158.33
  C 148.69 157.66 155.95 154.56 160.38 148.30
  C 167.17 138.74 166.60 123.75 157.46 115.76
  C 155.62 114.15 153.06 113.06 150.70 111.96
  Q 150.01 111.64 150.70 111.33"
/>
<path stroke="#9ca5a0" vector-effect="non-scaling-stroke" d="
  M 60.25 85.68
  A 0.32 0.32 0.0 0 0 60.57 86.00
  L 71.64 86.00
  A 0.32 0.32 0.0 0 1 71.96 86.32
  L 71.99 157.68
  A 0.32 0.32 0.0 0 0 72.31 158.00
  L 88.93 158.00
  A 0.32 0.32 0.0 0 0 89.25 157.68
  L 89.25 70.82
  A 0.32 0.32 0.0 0 0 88.93 70.50
  L 60.57 70.50
  A 0.32 0.32 0.0 0 0 60.25 70.82
  L 60.25 85.68"
/>
</g>
<path fill="#394b41" d="
  M 109.82 0.00
  L 118.54 0.00
  C 179.12 3.35 224.71 49.58 228.00 110.05
  L 228.00 116.56
  C 225.82 178.03 178.95 224.82 117.69 228.00
  L 109.47 228.00
  C 48.64 224.82 3.84 178.59 0.00 117.97
  L 0.00 110.17
  C 3.22 49.55 49.07 3.13 109.82 0.00
  Z
  M 150.70 111.33
  C 160.31 106.99 164.57 98.18 162.98 87.84
  C 159.98 68.28 135.18 64.72 120.50 71.49
  Q 107.45 77.51 106.75 93.13
  Q 106.72 93.75 107.33 93.75
  L 122.44 93.75
  Q 122.97 93.75 123.08 93.23
  Q 125.73 81.02 138.59 83.26
  Q 146.07 84.56 146.95 91.52
  C 148.54 104.06 136.25 105.29 127.04 104.99
  A 0.52 0.52 0.0 0 0 126.50 105.51
  L 126.50 118.49
  A 0.54 0.54 0.0 0 0 127.06 119.03
  C 137.86 118.63 150.60 120.02 148.32 134.73
  C 146.03 149.52 122.89 147.10 121.84 132.04
  Q 121.81 131.50 121.27 131.50
  L 106.01 131.50
  Q 105.35 131.50 105.39 132.17
  C 106.62 152.45 122.60 159.95 141.06 158.33
  C 148.69 157.66 155.95 154.56 160.38 148.30
  C 167.17 138.74 166.60 123.75 157.46 115.76
  C 155.62 114.15 153.06 113.06 150.70 111.96
  Q 150.01 111.64 150.70 111.33
  Z
  M 60.25 85.68
  A 0.32 0.32 0.0 0 0 60.57 86.00
  L 71.64 86.00
  A 0.32 0.32 0.0 0 1 71.96 86.32
  L 71.99 157.68
  A 0.32 0.32 0.0 0 0 72.31 158.00
  L 88.93 158.00
  A 0.32 0.32 0.0 0 0 89.25 157.68
  L 89.25 70.82
  A 0.32 0.32 0.0 0 0 88.93 70.50
  L 60.57 70.50
  A 0.32 0.32 0.0 0 0 60.25 70.82
  L 60.25 85.68
  Z"
/>
<path fill="#ffffff" d="
  M 150.70 111.96
  C 153.06 113.06 155.62 114.15 157.46 115.76
  C 166.60 123.75 167.17 138.74 160.38 148.30
  C 155.95 154.56 148.69 157.66 141.06 158.33
  C 122.60 159.95 106.62 152.45 105.39 132.17
  Q 105.35 131.50 106.01 131.50
  L 121.27 131.50
  Q 121.81 131.50 121.84 132.04
  C 122.89 147.10 146.03 149.52 148.32 134.73
  C 150.60 120.02 137.86 118.63 127.06 119.03
  A 0.54 0.54 0.0 0 1 126.50 118.49
  L 126.50 105.51
  A 0.52 0.52 0.0 0 1 127.04 104.99
  C 136.25 105.29 148.54 104.06 146.95 91.52
  Q 146.07 84.56 138.59 83.26
  Q 125.73 81.02 123.08 93.23
  Q 122.97 93.75 122.44 93.75
  L 107.33 93.75
  Q 106.72 93.75 106.75 93.13
  Q 107.45 77.51 120.50 71.49
  C 135.18 64.72 159.98 68.28 162.98 87.84
  C 164.57 98.18 160.31 106.99 150.70 111.33
  Q 150.01 111.64 150.70 111.96
  Z"
/>
<path fill="#ffffff" d="
  M 60.25 85.68
  L 60.25 70.82
  A 0.32 0.32 0.0 0 1 60.57 70.50
  L 88.93 70.50
  A 0.32 0.32 0.0 0 1 89.25 70.82
  L 89.25 157.68
  A 0.32 0.32 0.0 0 1 88.93 158.00
  L 72.31 158.00
  A 0.32 0.32 0.0 0 1 71.99 157.68
  L 71.96 86.32
  A 0.32 0.32 0.0 0 0 71.64 86.00
  L 60.57 86.00
  A 0.32 0.32 0.0 0 1 60.25 85.68
  Z"
/>
</svg>
