<?xml version="1.0" encoding="UTF-8" standalone="no"?>
<!DOCTYPE svg PUBLIC "-//W3C//DTD SVG 1.1//EN" "http://www.w3.org/Graphics/SVG/1.1/DTD/svg11.dtd">
<svg xmlns="http://www.w3.org/2000/svg" version="1.1" viewBox="0.00 0.00 228.00 228.00">
<g stroke-width="2.00" fill="none" stroke-linecap="butt">
<path stroke="#9ca5a0" vector-effect="non-scaling-stroke" d="
  M 134.97 126.25
  A 0.47 0.47 0.0 0 1 134.50 125.78
  L 134.50 71.97
  A 0.47 0.47 0.0 0 0 134.03 71.50
  L 115.12 71.50
  A 0.47 0.47 0.0 0 0 114.74 71.70
  L 75.58 127.65
  A 0.47 0.47 0.0 0 0 75.50 127.92
  L 75.50 140.53
  A 0.47 0.47 0.0 0 0 75.97 141.00
  L 117.03 141.00
  A 0.47 0.47 0.0 0 1 117.50 141.47
  L 117.50 157.53
  A 0.47 0.47 0.0 0 0 117.97 158.00
  L 134.03 158.00
  A 0.47 0.47 0.0 0 0 134.50 157.53
  L 134.50 141.47
  A 0.47 0.47 0.0 0 1 134.97 141.00
  L 144.53 141.00
  A 0.47 0.47 0.0 0 0 145.00 140.53
  L 145.00 126.72
  A 0.47 0.47 0.0 0 0 144.53 126.25
  L 134.97 126.25"
/>
<path stroke="#9ca5a0" vector-effect="non-scaling-stroke" d="
  M 117.89 91.09
  L 94.68 125.67
  Q 94.29 126.25 94.99 126.25
  L 117.72 126.25
  Q 118.50 126.25 118.50 125.47
  L 118.50 91.27
  Q 118.50 90.18 117.89 91.09"
/>
</g>
<path fill="#394b41" d="
  M 109.82 0.00
  L 118.54 0.00
  C 179.12 3.35 224.71 49.58 228.00 110.05
  L 228.00 116.56
  C 225.82 178.03 178.95 224.82 117.69 228.00
  L 109.47 228.00
  C 48.64 224.82 3.84 178.59 0.00 117.97
  L 0.00 110.17
  C 3.22 49.55 49.07 3.13 109.82 0.00
  Z
  M 134.97 126.25
  A 0.47 0.47 0.0 0 1 134.50 125.78
  L 134.50 71.97
  A 0.47 0.47 0.0 0 0 134.03 71.50
  L 115.12 71.50
  A 0.47 0.47 0.0 0 0 114.74 71.70
  L 75.58 127.65
  A 0.47 0.47 0.0 0 0 75.50 127.92
  L 75.50 140.53
  A 0.47 0.47 0.0 0 0 75.97 141.00
  L 117.03 141.00
  A 0.47 0.47 0.0 0 1 117.50 141.47
  L 117.50 157.53
  A 0.47 0.47 0.0 0 0 117.97 158.00
  L 134.03 158.00
  A 0.47 0.47 0.0 0 0 134.50 157.53
  L 134.50 141.47
  A 0.47 0.47 0.0 0 1 134.97 141.00
  L 144.53 141.00
  A 0.47 0.47 0.0 0 0 145.00 140.53
  L 145.00 126.72
  A 0.47 0.47 0.0 0 0 144.53 126.25
  L 134.97 126.25
  Z"
/>
<path fill="#ffffff" d="
  M 134.97 126.25
  L 144.53 126.25
  A 0.47 0.47 0.0 0 1 145.00 126.72
  L 145.00 140.53
  A 0.47 0.47 0.0 0 1 144.53 141.00
  L 134.97 141.00
  A 0.47 0.47 0.0 0 0 134.50 141.47
  L 134.50 157.53
  A 0.47 0.47 0.0 0 1 134.03 158.00
  L 117.97 158.00
  A 0.47 0.47 0.0 0 1 117.50 157.53
  L 117.50 141.47
  A 0.47 0.47 0.0 0 0 117.03 141.00
  L 75.97 141.00
  A 0.47 0.47 0.0 0 1 75.50 140.53
  L 75.50 127.92
  A 0.47 0.47 0.0 0 1 75.58 127.65
  L 114.74 71.70
  A 0.47 0.47 0.0 0 1 115.12 71.50
  L 134.03 71.50
  A 0.47 0.47 0.0 0 1 134.50 71.97
  L 134.50 125.78
  A 0.47 0.47 0.0 0 0 134.97 126.25
  Z
  M 117.89 91.09
  L 94.68 125.67
  Q 94.29 126.25 94.99 126.25
  L 117.72 126.25
  Q 118.50 126.25 118.50 125.47
  L 118.50 91.27
  Q 118.50 90.18 117.89 91.09
  Z"
/>
<path fill="#394b41" d="
  M 118.50 91.27
  L 118.50 125.47
  Q 118.50 126.25 117.72 126.25
  L 94.99 126.25
  Q 94.29 126.25 94.68 125.67
  L 117.89 91.09
  Q 118.50 90.18 118.50 91.27
  Z"
/>
</svg>
