<?xml version="1.0" encoding="UTF-8" standalone="no"?>
<!DOCTYPE svg PUBLIC "-//W3C//DTD SVG 1.1//EN" "http://www.w3.org/Graphics/SVG/1.1/DTD/svg11.dtd">
<svg xmlns="http://www.w3.org/2000/svg" version="1.1" viewBox="0.00 0.00 830.00 830.00">
<path fill="#303030" d="
  M 0.00 0.00
  L 830.00 0.00
  L 830.00 830.00
  L 0.00 830.00
  L 0.00 0.00
  Z
  M 784.00 46.26
  A 0.26 0.26 0.0 0 0 783.74 46.00
  L 46.26 46.00
  A 0.26 0.26 0.0 0 0 46.00 46.26
  L 46.00 783.74
  A 0.26 0.26 0.0 0 0 46.26 784.00
  L 783.74 784.00
  A 0.26 0.26 0.0 0 0 784.00 783.74
  L 784.00 46.26
  Z"
/>
<path fill="#00aa68" d="
  M 412.9900 767.0100
  A 353.00 243.96 90.0 0 1 169.0300 414.0100
  A 353.00 243.96 90.0 0 1 412.9900 61.0100
  A 353.00 243.96 90.0 0 1 656.9500 414.0100
  A 353.00 243.96 90.0 0 1 412.9900 767.0100
  Z
  M 302.94 667.81
  Q 333.77 700.97 374.53 715.42
  Q 383.25 718.51 392.29 719.65
  C 411.19 722.03 433.51 721.97 451.64 715.38
  C 469.52 708.88 487.05 699.90 501.76 687.69
  C 521.71 671.13 540.00 651.18 553.55 628.98
  Q 582.11 582.18 597.11 529.39
  Q 599.76 520.06 601.70 509.94
  Q 619.69 416.54 602.70 322.54
  Q 600.67 311.31 596.58 297.19
  C 579.14 237.05 550.15 179.86 501.18 139.87
  C 486.08 127.53 468.17 118.41 449.83 112.03
  C 432.44 105.99 410.83 106.16 392.77 108.28
  Q 384.25 109.29 376.06 112.09
  C 355.25 119.20 335.72 129.97 319.18 144.54
  C 301.54 160.08 285.30 178.19 272.93 198.25
  C 248.56 237.79 229.56 283.89 222.01 330.00
  Q 208.09 415.04 222.21 499.41
  C 229.58 543.39 247.64 587.65 270.47 625.76
  C 279.91 641.53 290.01 653.91 302.94 667.81
  Z"
/>
</svg>
