<?xml version="1.0" encoding="UTF-8" standalone="no"?>
<!DOCTYPE svg PUBLIC "-//W3C//DTD SVG 1.1//EN" "http://www.w3.org/Graphics/SVG/1.1/DTD/svg11.dtd">
<svg xmlns="http://www.w3.org/2000/svg" version="1.1" viewBox="0.00 0.00 304.00 305.00">
<path fill="#303030" d="
  M 304.00 0.98
  L 304.00 304.73
  L 3.21 304.72
  A 2.46 2.46 0.0 0 1 0.75 302.26
  L 0.75 3.98
  A 3.29 3.29 0.0 0 1 4.04 0.69
  L 304.00 0.98
  Z
  M 285.01 22.33
  A 2.58 2.58 0.0 0 0 282.43 19.75
  L 22.33 19.75
  A 2.58 2.58 0.0 0 0 19.75 22.33
  L 19.75 283.67
  A 2.58 2.58 0.0 0 0 22.33 286.25
  L 282.43 286.25
  A 2.58 2.58 0.0 0 0 285.01 283.67
  L 285.01 22.33
  Z"
/>
<path fill="#007948" d="
  M 49.00 64.37
  A 1.94 1.94 0.0 0 1 49.00 61.62
  L 56.13 54.50
  A 1.24 1.24 0.0 0 1 57.88 54.50
  L 149.06 145.69
  Q 149.50 146.12 149.94 145.69
  L 227.94 67.69
  A 0.26 0.26 0.0 0 0 227.75 67.25
  L 142.63 67.25
  A 0.64 0.63 -0.5 0 1 141.99 66.63
  L 141.82 54.85
  Q 141.81 54.26 142.41 54.26
  Q 192.40 54.22 242.34 54.26
  C 247.55 54.26 250.74 56.30 250.74 61.68
  Q 250.77 155.28 250.74 248.89
  C 250.74 253.65 248.27 256.75 243.47 256.75
  Q 193.02 256.76 142.57 256.75
  Q 141.92 256.75 141.92 256.10
  L 141.80 244.85
  A 1.10 1.10 0.0 0 1 142.90 243.74
  L 227.93 243.76
  A 0.19 0.19 0.0 0 0 228.06 243.44
  L 149.69 165.06
  A 0.27 0.27 0.0 0 0 149.31 165.06
  L 57.99 256.39
  A 1.43 1.43 0.0 0 1 55.96 256.38
  L 48.65 248.92
  A 1.39 1.39 0.0 0 1 48.66 246.97
  L 139.75 155.88
  Q 140.13 155.50 139.75 155.13
  L 49.00 64.37
  Z
  M 237.22 233.85
  A 0.31 0.31 0.0 0 0 237.75 233.63
  L 237.75 77.37
  A 0.31 0.31 0.0 0 0 237.22 77.15
  L 159.09 155.28
  A 0.31 0.31 0.0 0 0 159.09 155.72
  L 237.22 233.85
  Z"
/>
</svg>
