<?xml version="1.0" encoding="UTF-8" standalone="no"?>
<!DOCTYPE svg PUBLIC "-//W3C//DTD SVG 1.1//EN" "http://www.w3.org/Graphics/SVG/1.1/DTD/svg11.dtd">
<svg xmlns="http://www.w3.org/2000/svg" version="1.1" viewBox="0.00 0.00 228.00 228.00">
<g stroke-width="2.00" fill="none" stroke-linecap="butt">
<path stroke="#9ca5a0" vector-effect="non-scaling-stroke" d="
  M 56.25 85.69
  A 0.31 0.31 0.0 0 0 56.56 86.00
  L 67.69 86.00
  A 0.31 0.31 0.0 0 1 68.00 86.31
  L 67.99 157.69
  A 0.31 0.31 0.0 0 0 68.30 158.00
  L 84.97 158.00
  A 0.31 0.31 0.0 0 0 85.28 157.69
  L 85.29 70.81
  A 0.31 0.31 0.0 0 0 84.98 70.50
  L 56.56 70.50
  A 0.31 0.31 0.0 0 0 56.25 70.81
  L 56.25 85.69"
/>
<path stroke="#9ca5a0" vector-effect="non-scaling-stroke" d="
  M 160.89 126.25
  A 0.39 0.39 0.0 0 1 160.50 125.86
  L 160.50 71.89
  A 0.39 0.39 0.0 0 0 160.11 71.50
  L 141.07 71.50
  A 0.39 0.39 0.0 0 0 140.75 71.67
  L 101.57 127.66
  A 0.39 0.39 0.0 0 0 101.50 127.88
  L 101.50 140.61
  A 0.39 0.39 0.0 0 0 101.89 141.00
  L 143.11 141.00
  A 0.39 0.39 0.0 0 1 143.50 141.39
  L 143.50 157.61
  A 0.39 0.39 0.0 0 0 143.89 158.00
  L 160.11 158.00
  A 0.39 0.39 0.0 0 0 160.50 157.61
  L 160.50 141.39
  A 0.39 0.39 0.0 0 1 160.89 141.00
  L 170.61 141.00
  A 0.39 0.39 0.0 0 0 171.00 140.61
  L 171.00 126.64
  A 0.39 0.39 0.0 0 0 170.61 126.25
  L 160.89 126.25"
/>
<path stroke="#9ca5a0" vector-effect="non-scaling-stroke" d="
  M 143.96 90.97
  L 120.70 125.69
  Q 120.33 126.25 121.00 126.25
  L 143.97 126.25
  Q 144.50 126.25 144.50 125.72
  Q 144.43 110.26 144.74 94.82
  Q 144.79 92.52 144.36 91.03
  Q 144.23 90.57 143.96 90.97"
/>
</g>
<path fill="#394b41" d="
  M 109.82 0.00
  L 118.54 0.00
  C 179.12 3.35 224.71 49.58 228.00 110.05
  L 228.00 116.56
  C 225.82 178.03 178.95 224.82 117.69 228.00
  L 109.47 228.00
  C 48.64 224.82 3.84 178.59 0.00 117.97
  L 0.00 110.17
  C 3.22 49.55 49.07 3.13 109.82 0.00
  Z
  M 56.25 85.69
  A 0.31 0.31 0.0 0 0 56.56 86.00
  L 67.69 86.00
  A 0.31 0.31 0.0 0 1 68.00 86.31
  L 67.99 157.69
  A 0.31 0.31 0.0 0 0 68.30 158.00
  L 84.97 158.00
  A 0.31 0.31 0.0 0 0 85.28 157.69
  L 85.29 70.81
  A 0.31 0.31 0.0 0 0 84.98 70.50
  L 56.56 70.50
  A 0.31 0.31 0.0 0 0 56.25 70.81
  L 56.25 85.69
  Z
  M 160.89 126.25
  A 0.39 0.39 0.0 0 1 160.50 125.86
  L 160.50 71.89
  A 0.39 0.39 0.0 0 0 160.11 71.50
  L 141.07 71.50
  A 0.39 0.39 0.0 0 0 140.75 71.67
  L 101.57 127.66
  A 0.39 0.39 0.0 0 0 101.50 127.88
  L 101.50 140.61
  A 0.39 0.39 0.0 0 0 101.89 141.00
  L 143.11 141.00
  A 0.39 0.39 0.0 0 1 143.50 141.39
  L 143.50 157.61
  A 0.39 0.39 0.0 0 0 143.89 158.00
  L 160.11 158.00
  A 0.39 0.39 0.0 0 0 160.50 157.61
  L 160.50 141.39
  A 0.39 0.39 0.0 0 1 160.89 141.00
  L 170.61 141.00
  A 0.39 0.39 0.0 0 0 171.00 140.61
  L 171.00 126.64
  A 0.39 0.39 0.0 0 0 170.61 126.25
  L 160.89 126.25
  Z"
/>
<path fill="#ffffff" d="
  M 56.25 85.69
  L 56.25 70.81
  A 0.31 0.31 0.0 0 1 56.56 70.50
  L 84.98 70.50
  A 0.31 0.31 0.0 0 1 85.29 70.81
  L 85.28 157.69
  A 0.31 0.31 0.0 0 1 84.97 158.00
  L 68.30 158.00
  A 0.31 0.31 0.0 0 1 67.99 157.69
  L 68.00 86.31
  A 0.31 0.31 0.0 0 0 67.69 86.00
  L 56.56 86.00
  A 0.31 0.31 0.0 0 1 56.25 85.69
  Z"
/>
<path fill="#ffffff" d="
  M 160.89 126.25
  L 170.61 126.25
  A 0.39 0.39 0.0 0 1 171.00 126.64
  L 171.00 140.61
  A 0.39 0.39 0.0 0 1 170.61 141.00
  L 160.89 141.00
  A 0.39 0.39 0.0 0 0 160.50 141.39
  L 160.50 157.61
  A 0.39 0.39 0.0 0 1 160.11 158.00
  L 143.89 158.00
  A 0.39 0.39 0.0 0 1 143.50 157.61
  L 143.50 141.39
  A 0.39 0.39 0.0 0 0 143.11 141.00
  L 101.89 141.00
  A 0.39 0.39 0.0 0 1 101.50 140.61
  L 101.50 127.88
  A 0.39 0.39 0.0 0 1 101.57 127.66
  L 140.75 71.67
  A 0.39 0.39 0.0 0 1 141.07 71.50
  L 160.11 71.50
  A 0.39 0.39 0.0 0 1 160.50 71.89
  L 160.50 125.86
  A 0.39 0.39 0.0 0 0 160.89 126.25
  Z
  M 143.96 90.97
  L 120.70 125.69
  Q 120.33 126.25 121.00 126.25
  L 143.97 126.25
  Q 144.50 126.25 144.50 125.72
  Q 144.43 110.26 144.74 94.82
  Q 144.79 92.52 144.36 91.03
  Q 144.23 90.57 143.96 90.97
  Z"
/>
<path fill="#394b41" d="
  M 143.96 90.97
  Q 144.23 90.57 144.36 91.03
  Q 144.79 92.52 144.74 94.82
  Q 144.43 110.26 144.50 125.72
  Q 144.50 126.25 143.97 126.25
  L 121.00 126.25
  Q 120.33 126.25 120.70 125.69
  L 143.96 90.97
  Z"
/>
</svg>
