<?xml version="1.0" encoding="UTF-8" standalone="no"?>
<!DOCTYPE svg PUBLIC "-//W3C//DTD SVG 1.1//EN" "http://www.w3.org/Graphics/SVG/1.1/DTD/svg11.dtd">
<svg xmlns="http://www.w3.org/2000/svg" version="1.1" viewBox="0.00 0.00 830.00 830.00">
<path fill="#303030" d="
  M 0.00 0.00
  L 830.00 0.00
  L 830.00 830.00
  L 0.00 830.00
  L 0.00 0.00
  Z
  M 784.00 46.26
  A 0.26 0.26 0.0 0 0 783.74 46.00
  L 46.26 46.00
  A 0.26 0.26 0.0 0 0 46.00 46.26
  L 46.00 783.74
  A 0.26 0.26 0.0 0 0 46.26 784.00
  L 783.74 784.00
  A 0.26 0.26 0.0 0 0 784.00 783.74
  L 784.00 46.26
  Z"
/>
<path fill="#00aa68" d="
  M 643.00 746.42
  A 0.58 0.58 0.0 0 1 642.42 747.00
  L 188.58 747.00
  A 0.58 0.58 0.0 0 1 188.00 746.42
  L 188.00 70.58
  A 0.58 0.58 0.0 0 1 188.58 70.00
  L 642.42 70.00
  A 0.58 0.58 0.0 0 1 643.00 70.58
  L 643.00 746.42
  Z
  M 597.00 116.27
  A 0.27 0.27 0.0 0 0 596.73 116.00
  L 234.27 116.00
  A 0.27 0.27 0.0 0 0 234.00 116.27
  L 234.00 700.73
  A 0.27 0.27 0.0 0 0 234.27 701.00
  L 596.73 701.00
  A 0.27 0.27 0.0 0 0 597.00 700.73
  L 597.00 116.27
  Z"
/>
</svg>
