<?xml version="1.0" encoding="UTF-8" standalone="no"?>
<!DOCTYPE svg PUBLIC "-//W3C//DTD SVG 1.1//EN" "http://www.w3.org/Graphics/SVG/1.1/DTD/svg11.dtd">
<svg xmlns="http://www.w3.org/2000/svg" version="1.1" viewBox="0.00 0.00 304.00 305.00">
<path fill="#303030" d="
  M 0.00 0.00
  L 301.55 0.00
  Q 303.25 0.95 303.25 2.00
  Q 303.25 152.34 303.25 301.90
  A 2.42 2.42 0.0 0 1 300.83 304.32
  L 0.00 304.03
  L 0.00 0.00
  Z
  M 284.25 21.00
  A 2.25 2.25 0.0 0 0 282.00 18.75
  L 21.24 18.75
  A 2.25 2.25 0.0 0 0 18.99 21.00
  L 18.99 283.00
  A 2.25 2.25 0.0 0 0 21.24 285.25
  L 282.00 285.25
  A 2.25 2.25 0.0 0 0 284.25 283.00
  L 284.25 21.00
  Z"
/>
<path fill="#007948" d="
  M 71.25 76.50
  L 71.25 154.85
  A 0.85 0.85 0.0 0 1 70.39 155.70
  L 58.95 155.59
  A 0.70 0.70 0.0 0 1 58.25 154.89
  Q 58.24 110.60 58.25 66.13
  C 58.25 59.40 57.38 53.21 66.49 53.22
  Q 115.64 53.27 166.25 53.24
  Q 167.00 53.24 167.00 53.99
  L 167.00 65.50
  A 0.75 0.75 0.0 0 1 166.25 66.25
  L 81.50 66.25
  A 0.26 0.26 0.0 0 0 81.32 66.69
  L 247.54 232.92
  A 0.14 0.13 22.6 0 0 247.77 232.83
  L 247.74 154.08
  Q 247.74 153.41 248.42 153.40
  L 260.11 153.27
  A 0.63 0.63 0.0 0 1 260.75 153.90
  Q 260.75 200.67 260.78 247.40
  C 260.79 255.34 256.49 255.75 249.90 255.75
  Q 201.32 255.75 152.54 255.75
  A 0.58 0.57 -0.5 0 1 151.96 255.19
  L 151.70 244.01
  A 1.24 1.23 89.3 0 1 152.93 242.74
  L 237.50 242.76
  Q 238.14 242.76 237.69 242.31
  L 71.69 76.31
  A 0.26 0.26 0.0 0 0 71.25 76.50
  Z"
/>
</svg>
