<?xml version="1.0" encoding="UTF-8" standalone="no"?>
<svg
   version="1.1"
   viewBox="0.00 0.00 590.00 615.00"
   id="svg7"
   sodipodi:docname="b.svg"
   inkscape:version="1.3 (0e150ed6c4, 2023-07-21)"
   xmlns:inkscape="http://www.inkscape.org/namespaces/inkscape"
   xmlns:sodipodi="http://sodipodi.sourceforge.net/DTD/sodipodi-0.dtd"
   xmlns="http://www.w3.org/2000/svg"
   xmlns:svg="http://www.w3.org/2000/svg">
  <defs
     id="defs7" />
  <sodipodi:namedview
     id="namedview7"
     pagecolor="#ffffff"
     bordercolor="#000000"
     borderopacity="0.25"
     inkscape:showpageshadow="2"
     inkscape:pageopacity="0.0"
     inkscape:pagecheckerboard="0"
     inkscape:deskcolor="#d1d1d1"
     inkscape:zoom="1.3235772"
     inkscape:cx="295.03379"
     inkscape:cy="307.50001"
     inkscape:window-width="1920"
     inkscape:window-height="1010"
     inkscape:window-x="-6"
     inkscape:window-y="-6"
     inkscape:window-maximized="1"
     inkscape:current-layer="svg7" />
  <g
     stroke-width="2.00"
     fill="none"
     stroke-linecap="butt"
     id="g3">
    <path
       stroke="#919795"
       vector-effect="non-scaling-stroke"
       d="   M 43.06 137.87   L 294.39 257.57   A 0.97 0.94 -44.2 0 0 295.20 257.57   L 546.21 137.91   Q 546.84 137.61 546.21 137.33   L 295.28 26.97   A 1.62 1.61 -45.2 0 0 293.98 26.98   L 43.06 137.52   A 0.19 0.19 0.0 0 0 43.06 137.87"
       id="path1" />
    <path
       stroke="#919795"
       vector-effect="non-scaling-stroke"
       d="   M 563.25 159.14   Q 563.25 158.83 562.97 158.96   L 307.58 280.33   Q 307.00 280.60 307.00 281.24   L 307.00 579.99   Q 307.00 580.62 307.57 580.35   L 562.78 458.94   Q 563.25 458.71 563.25 458.20   L 563.25 159.14"
       id="path2" />
    <path
       stroke="#18553c"
       vector-effect="non-scaling-stroke"
       d="   M 280.00 279.79   A 0.39 0.39 0.0 0 0 279.78 279.43   L 26.55 159.07   A 0.39 0.39 0.0 0 0 25.99 159.43   L 26.01 458.53   A 0.39 0.39 0.0 0 0 26.23 458.89   L 279.44 579.21   A 0.39 0.39 0.0 0 0 280.00 578.85   L 280.00 279.79"
       id="path3" />
  </g>
  <path
     fill="#303030"
     d="   M 293.31 0.00   L 296.05 0.00   Q 299.00 0.99 300.41 1.61   Q 437.55 61.89 574.59 122.40   C 580.01 124.79 588.46 126.99 590.00 133.07   L 590.00 470.31   C 589.29 473.92 587.49 475.87 584.02 477.52   Q 458.06 537.46 331.98 597.14   Q 315.43 604.97 298.72 612.51   C 296.51 613.51 294.18 614.55 292.02 613.54   Q 226.50 582.83 6.54 478.14   C 3.17 476.53 0.17 474.18 0.23 470.50   Q 0.44 457.71 0.00 444.94   L 0.00 226.94   C 0.11 195.95 -0.88 164.10 1.71 133.26   C 2.09 128.68 17.65 120.94 21.91 119.07   Q 156.35 60.08 290.68 0.84   C 291.47 0.50 292.47 0.42 293.31 0.00   Z   M 43.06 137.87   L 294.39 257.57   A 0.97 0.94 -44.2 0 0 295.20 257.57   L 546.21 137.91   Q 546.84 137.61 546.21 137.33   L 295.28 26.97   A 1.62 1.61 -45.2 0 0 293.98 26.98   L 43.06 137.52   A 0.19 0.19 0.0 0 0 43.06 137.87   Z   M 563.25 159.14   Q 563.25 158.83 562.97 158.96   L 307.58 280.33   Q 307.00 280.60 307.00 281.24   L 307.00 579.99   Q 307.00 580.62 307.57 580.35   L 562.78 458.94   Q 563.25 458.71 563.25 458.20   L 563.25 159.14   Z   M 280.00 279.79   A 0.39 0.39 0.0 0 0 279.78 279.43   L 26.55 159.07   A 0.39 0.39 0.0 0 0 25.99 159.43   L 26.01 458.53   A 0.39 0.39 0.0 0 0 26.23 458.89   L 279.44 579.21   A 0.39 0.39 0.0 0 0 280.00 578.85   L 280.00 279.79   Z"
     id="path4" />
  <path
     fill="#f1fdfa"
     d="   M 43.06 137.87   A 0.19 0.19 0.0 0 1 43.06 137.52   L 293.98 26.98   A 1.62 1.61 -45.2 0 1 295.28 26.97   L 546.21 137.33   Q 546.84 137.61 546.21 137.91   L 295.20 257.57   A 0.97 0.94 -44.2 0 1 294.39 257.57   L 43.06 137.87   Z"
     id="path5" />
  <path
     fill="#f1fdfa"
     d="   M 563.25 159.14   L 563.25 458.20   Q 563.25 458.71 562.78 458.94   L 307.57 580.35   Q 307.00 580.62 307.00 579.99   L 307.00 281.24   Q 307.00 280.60 307.58 280.33   L 562.97 158.96   Q 563.25 158.83 563.25 159.14   Z"
     id="path6" />
  <path
     fill="#007948"
     d="   M 280.00 279.79   L 280.00 578.85   A 0.39 0.39 0.0 0 1 279.44 579.21   L 26.23 458.89   A 0.39 0.39 0.0 0 1 26.01 458.53   L 25.99 159.43   A 0.39 0.39 0.0 0 1 26.55 159.07   L 279.78 279.43   A 0.39 0.39 0.0 0 1 280.00 279.79   Z"
     id="path7"
     style="fill:#00a86b;fill-opacity:1" />
</svg>
