<?xml version="1.0" encoding="UTF-8" standalone="no"?>
<svg
   version="1.1"
   viewBox="0.00 0.00 590.00 615.00"
   id="svg7"
   sodipodi:docname="e.svg"
   inkscape:version="1.3 (0e150ed6c4, 2023-07-21)"
   xmlns:inkscape="http://www.inkscape.org/namespaces/inkscape"
   xmlns:sodipodi="http://sodipodi.sourceforge.net/DTD/sodipodi-0.dtd"
   xmlns="http://www.w3.org/2000/svg"
   xmlns:svg="http://www.w3.org/2000/svg">
  <defs
     id="defs7" />
  <sodipodi:namedview
     id="namedview7"
     pagecolor="#ffffff"
     bordercolor="#000000"
     borderopacity="0.25"
     inkscape:showpageshadow="2"
     inkscape:pageopacity="0.0"
     inkscape:pagecheckerboard="0"
     inkscape:deskcolor="#d1d1d1"
     inkscape:zoom="1.3235772"
     inkscape:cx="295.03379"
     inkscape:cy="307.50001"
     inkscape:window-width="1920"
     inkscape:window-height="1010"
     inkscape:window-x="-6"
     inkscape:window-y="-6"
     inkscape:window-maximized="1"
     inkscape:current-layer="svg7" />
  <g
     stroke-width="2.00"
     fill="none"
     stroke-linecap="butt"
     id="g3">
    <path
       stroke="#919795"
       vector-effect="non-scaling-stroke"
       d="   M 307.39 334.58   L 562.91 456.01   Q 563.25 456.17 563.25 455.80   L 563.25 156.80   Q 563.25 156.27 562.78 156.05   L 307.77 34.74   Q 307.00 34.38 307.00 35.23   L 307.00 333.97   A 0.69 0.67 13.4 0 0 307.39 334.58"
       id="path1" />
    <path
       stroke="#919795"
       vector-effect="non-scaling-stroke"
       d="   M 26.07 156.69   L 25.81 455.92   Q 25.81 456.30 26.15 456.14   L 279.53 335.70   Q 280.00 335.48 280.00 334.96   L 280.00 36.04   A 0.33 0.33 0.0 0 0 279.53 35.74   L 26.54 155.94   Q 26.08 156.17 26.07 156.69"
       id="path2" />
    <path
       stroke="#18553c"
       vector-effect="non-scaling-stroke"
       d="   M 43.31 477.58   L 294.16 588.09   Q 294.61 588.28 295.06 588.09   L 546.20 477.65   Q 546.79 477.38 546.21 477.11   L 295.67 357.68   A 2.12 2.10 44.7 0 0 293.86 357.68   L 43.30 477.00   Q 42.68 477.30 43.31 477.58"
       id="path3" />
  </g>
  <path
     fill="#303030"
     d="   M 590.00 144.81   L 590.00 481.80   C 589.05 486.69 585.47 487.55 581.64 489.25   Q 440.25 551.91 298.58 613.93   Q 297.27 614.51 295.93 615.00   L 293.45 615.00   Q 291.19 614.35 289.07 613.42   Q 154.81 554.25 20.45 495.28   C 15.22 492.99 2.06 486.54 1.56 480.25   C -0.82 449.77 0.21 418.52 0.00 387.94   L 0.00 169.94   Q 0.44 157.23 0.23 144.50   C 0.17 140.96 3.05 138.53 6.31 136.97   Q 148.55 69.27 290.97 1.95   C 293.28 0.86 295.03 0.86 297.48 1.95   Q 321.12 12.44 344.48 23.55   Q 459.01 78.01 573.57 132.42   C 579.39 135.18 588.68 137.79 590.00 144.81   Z   M 307.39 334.58   L 562.91 456.01   Q 563.25 456.17 563.25 455.80   L 563.25 156.80   Q 563.25 156.27 562.78 156.05   L 307.77 34.74   Q 307.00 34.38 307.00 35.23   L 307.00 333.97   A 0.69 0.67 13.4 0 0 307.39 334.58   Z   M 26.07 156.69   L 25.81 455.92   Q 25.81 456.30 26.15 456.14   L 279.53 335.70   Q 280.00 335.48 280.00 334.96   L 280.00 36.04   A 0.33 0.33 0.0 0 0 279.53 35.74   L 26.54 155.94   Q 26.08 156.17 26.07 156.69   Z   M 43.31 477.58   L 294.16 588.09   Q 294.61 588.28 295.06 588.09   L 546.20 477.65   Q 546.79 477.38 546.21 477.11   L 295.67 357.68   A 2.12 2.10 44.7 0 0 293.86 357.68   L 43.30 477.00   Q 42.68 477.30 43.31 477.58   Z"
     id="path4" />
  <path
     fill="#f1fdfa"
     d="   M 307.39 334.58   A 0.69 0.67 13.4 0 1 307.00 333.97   L 307.00 35.23   Q 307.00 34.38 307.77 34.74   L 562.78 156.05   Q 563.25 156.27 563.25 156.80   L 563.25 455.80   Q 563.25 456.17 562.91 456.01   L 307.39 334.58   Z"
     id="path5" />
  <path
     fill="#f1fdfa"
     d="   M 25.81 455.92   L 26.07 156.69   Q 26.08 156.17 26.54 155.94   L 279.53 35.74   A 0.33 0.33 0.0 0 1 280.00 36.04   L 280.00 334.96   Q 280.00 335.48 279.53 335.70   L 26.15 456.14   Q 25.81 456.30 25.81 455.92   Z"
     id="path6" />
  <path
     fill="#007948"
     d="   M 294.16 588.09   L 43.31 477.58   Q 42.68 477.30 43.30 477.00   L 293.86 357.68   A 2.12 2.10 44.7 0 1 295.67 357.68   L 546.21 477.11   Q 546.79 477.38 546.20 477.65   L 295.06 588.09   Q 294.61 588.28 294.16 588.09   Z"
     id="path7"
     style="fill:#00a86b;fill-opacity:1" />
</svg>
