<?xml version="1.0" encoding="UTF-8" standalone="no"?>
<svg
   version="1.1"
   viewBox="0.00 0.00 134.00 134.00"
   id="svg3"
   sodipodi:docname="b.svg"
   inkscape:version="1.3 (0e150ed6c4, 2023-07-21)"
   xmlns:inkscape="http://www.inkscape.org/namespaces/inkscape"
   xmlns:sodipodi="http://sodipodi.sourceforge.net/DTD/sodipodi-0.dtd"
   xmlns="http://www.w3.org/2000/svg"
   xmlns:svg="http://www.w3.org/2000/svg">
  <defs
     id="defs3" />
  <sodipodi:namedview
     id="namedview3"
     pagecolor="#ffffff"
     bordercolor="#000000"
     borderopacity="0.25"
     inkscape:showpageshadow="2"
     inkscape:pageopacity="0.0"
     inkscape:pagecheckerboard="0"
     inkscape:deskcolor="#d1d1d1"
     inkscape:zoom="6.0746269"
     inkscape:cx="67.08231"
     inkscape:cy="67"
     inkscape:window-width="1920"
     inkscape:window-height="1010"
     inkscape:window-x="1913"
     inkscape:window-y="-6"
     inkscape:window-maximized="1"
     inkscape:current-layer="svg3" />
  <path
     fill="#004124"
     d="   M 64.30 0.00   L 70.06 0.00   C 105.42 2.70 132.07 28.87 134.00 64.33   L 134.00 69.58   C 131.80 104.82 105.49 131.71 70.17 134.00   L 63.69 134.00   C 28.77 131.33 2.40 105.42 0.00 70.42   L 0.00 63.47   C 2.44 28.29 29.22 2.31 64.30 0.00   Z   M 128.00 67.00   A 61.00 61.00 0.0 0 0 67.00 6.00   A 61.00 61.00 0.0 0 0 6.00 67.00   A 61.00 61.00 0.0 0 0 67.00 128.00   A 61.00 61.00 0.0 0 0 128.00 67.00   Z"
     id="path1"
     style="fill:#00a86b;fill-opacity:1" />
  <path
     fill="#004124"
     d="   M 44.47 53.01   L 39.78 52.99   A 0.53 0.53 0.0 0 1 39.25 52.46   L 39.25 45.78   A 0.53 0.53 0.0 0 1 39.78 45.25   L 52.97 45.25   A 0.53 0.53 0.0 0 1 53.50 45.78   L 53.50 88.46   A 0.53 0.53 0.0 0 1 52.97 88.99   L 45.53 89.00   A 0.53 0.53 0.0 0 1 45.00 88.47   L 45.00 53.54   A 0.53 0.53 0.0 0 0 44.47 53.01   Z"
     id="path2"
     style="fill:#333333;fill-opacity:1" />
  <path
     fill="#004124"
     d="   M 90.75 73.25   L 95.00 73.25   Q 95.50 73.25 95.50 73.75   L 95.50 80.03   Q 95.50 80.56 94.97 80.55   L 90.84 80.39   A 0.57 0.57 0.0 0 0 90.25 80.96   L 90.25 88.50   Q 90.25 89.00 89.75 89.00   L 82.50 89.00   Q 81.75 89.00 81.75 88.25   L 81.75 81.00   Q 81.75 80.50 81.25 80.50   L 61.46 80.50   Q 60.83 80.50 60.79 79.88   C 60.60 77.00 60.24 74.69 62.01 72.15   Q 71.09 59.17 80.16 46.19   A 1.04 1.04 0.0 0 1 81.01 45.75   L 89.50 45.75   Q 90.25 45.75 90.25 46.50   L 90.25 72.75   Q 90.25 73.25 90.75 73.25   Z   M 82.25 55.88   A 0.31 0.31 0.0 0 0 81.68 55.71   L 70.30 72.77   A 0.31 0.31 0.0 0 0 70.56 73.25   L 81.94 73.25   A 0.31 0.31 0.0 0 0 82.25 72.94   L 82.25 55.88   Z"
     id="path3"
     style="fill:#333333;fill-opacity:1" />
</svg>
