<?xml version="1.0" encoding="UTF-8" standalone="no"?>
<svg
   version="1.1"
   viewBox="0.00 0.00 134.00 134.00"
   id="svg2"
   sodipodi:docname="b.svg"
   inkscape:version="1.3 (0e150ed6c4, 2023-07-21)"
   xmlns:inkscape="http://www.inkscape.org/namespaces/inkscape"
   xmlns:sodipodi="http://sodipodi.sourceforge.net/DTD/sodipodi-0.dtd"
   xmlns="http://www.w3.org/2000/svg"
   xmlns:svg="http://www.w3.org/2000/svg">
  <defs
     id="defs2" />
  <sodipodi:namedview
     id="namedview2"
     pagecolor="#ffffff"
     bordercolor="#000000"
     borderopacity="0.25"
     inkscape:showpageshadow="2"
     inkscape:pageopacity="0.0"
     inkscape:pagecheckerboard="0"
     inkscape:deskcolor="#d1d1d1"
     inkscape:zoom="6.0746269"
     inkscape:cx="67.08231"
     inkscape:cy="67"
     inkscape:window-width="1920"
     inkscape:window-height="1010"
     inkscape:window-x="1913"
     inkscape:window-y="-6"
     inkscape:window-maximized="1"
     inkscape:current-layer="svg2" />
  <path
     fill="#004124"
     d="   M 64.30 0.00   L 70.06 0.00   C 105.42 2.70 132.07 28.87 134.00 64.33   L 134.00 69.56   C 132.06 104.83 105.36 131.56 70.18 134.00   L 63.69 134.00   C 28.77 131.33 2.40 105.42 0.00 70.42   L 0.00 63.47   C 2.44 28.29 29.22 2.31 64.30 0.00   Z   M 128.00 67.00   A 61.00 61.00 0.0 0 0 67.00 6.00   A 61.00 61.00 0.0 0 0 6.00 67.00   A 61.00 61.00 0.0 0 0 67.00 128.00   A 61.00 61.00 0.0 0 0 128.00 67.00   Z"
     id="path1"
     style="fill:#00a86b;fill-opacity:1" />
  <path
     fill="#004124"
     d="   M 61.25 52.95   L 61.25 61.74   Q 61.25 62.49 61.85 62.04   Q 67.05 58.14 73.41 59.66   C 88.63 63.29 86.45 88.04 69.00 88.93   Q 56.41 89.57 52.68 77.84   A 0.84 0.83 -8.9 0 1 53.48 76.75   L 60.20 76.75   Q 60.63 76.75 60.82 77.13   Q 63.32 81.96 67.95 81.94   C 76.93 81.88 78.01 67.96 70.15 66.44   Q 64.27 65.30 61.57 70.37   Q 61.37 70.75 60.95 70.75   L 54.25 70.75   Q 53.50 70.75 53.50 70.00   L 53.50 45.75   Q 53.50 45.25 54.00 45.25   L 80.00 45.25   Q 80.50 45.25 80.50 45.75   L 80.50 51.88   Q 80.50 52.52 79.87 52.52   L 61.74 52.46   Q 61.25 52.46 61.25 52.95   Z"
     id="path2"
     style="fill:#333333;fill-opacity:1" />
</svg>
