<?xml version="1.0" encoding="UTF-8" standalone="no"?>
<svg
   version="1.1"
   viewBox="0.00 0.00 134.00 134.00"
   id="svg3"
   sodipodi:docname="a.svg"
   inkscape:version="1.3 (0e150ed6c4, 2023-07-21)"
   xmlns:inkscape="http://www.inkscape.org/namespaces/inkscape"
   xmlns:sodipodi="http://sodipodi.sourceforge.net/DTD/sodipodi-0.dtd"
   xmlns="http://www.w3.org/2000/svg"
   xmlns:svg="http://www.w3.org/2000/svg">
  <defs
     id="defs3" />
  <sodipodi:namedview
     id="namedview3"
     pagecolor="#ffffff"
     bordercolor="#000000"
     borderopacity="0.25"
     inkscape:showpageshadow="2"
     inkscape:pageopacity="0.0"
     inkscape:pagecheckerboard="0"
     inkscape:deskcolor="#d1d1d1"
     inkscape:zoom="6.0746269"
     inkscape:cx="67.08231"
     inkscape:cy="67"
     inkscape:window-width="1920"
     inkscape:window-height="1010"
     inkscape:window-x="1913"
     inkscape:window-y="-6"
     inkscape:window-maximized="1"
     inkscape:current-layer="svg3" />
  <path
     fill="#004124"
     d="   M 64.30 0.00   L 70.06 0.00   C 105.42 2.70 132.07 28.87 134.00 64.33   L 134.00 69.58   C 131.80 104.82 105.49 131.71 70.17 134.00   L 63.68 134.00   C 28.52 130.67 2.54 106.06 0.00 70.41   L 0.00 63.47   C 2.44 28.29 29.22 2.31 64.30 0.00   Z   M 128.00 66.99   A 61.00 61.00 0.0 0 0 67.00 5.99   A 61.00 61.00 0.0 0 0 6.00 66.99   A 61.00 61.00 0.0 0 0 67.00 127.99   A 61.00 61.00 0.0 0 0 128.00 66.99   Z"
     id="path1"
     style="fill:#00a86b;fill-opacity:1" />
  <path
     fill="#004124"
     d="   M 46.04 81.01   A 0.30 0.30 0.0 0 0 46.22 81.54   L 62.61 81.48   Q 63.25 81.48 63.25 82.11   L 63.25 87.75   Q 63.25 88.50 62.50 88.50   L 34.25 88.50   Q 33.75 88.50 33.75 88.00   L 33.75 82.71   A 1.37 1.37 0.0 0 1 34.24 81.66   C 40.74 76.32 48.13 70.81 52.42 63.47   C 59.01 52.19 43.88 45.26 41.86 58.40   A 0.69 0.69 0.0 0 1 41.18 58.99   L 34.75 59.00   A 1.08 1.07 2.4 0 1 33.67 57.83   C 34.70 46.87 43.77 42.17 53.71 45.14   C 58.46 46.56 61.17 49.82 62.06 54.75   C 64.04 65.67 53.69 75.03 46.04 81.01   Z"
     id="path2"
     style="fill:#333333;fill-opacity:1" />
  <path
     fill="#004124"
     d="   M 87.57 44.65   C 101.75 46.59 101.45 65.49 99.48 75.99   Q 96.98 89.27 83.27 88.78   C 67.18 88.20 66.62 67.79 69.49 56.43   Q 72.98 42.65 87.57 44.65   Z   M 91.36 57.77   C 90.02 51.88 82.50 50.33 79.14 54.48   C 75.57 58.86 75.24 74.79 79.17 78.99   C 82.59 82.65 89.83 81.46 91.22 76.19   Q 93.53 67.34 91.36 57.77   Z"
     id="path3"
     style="fill:#333333;fill-opacity:1" />
</svg>
