<?xml version="1.0" encoding="UTF-8" standalone="no"?>
<svg
   version="1.1"
   viewBox="0.00 0.00 134.00 134.00"
   id="svg3"
   sodipodi:docname="a.svg"
   inkscape:version="1.3 (0e150ed6c4, 2023-07-21)"
   xmlns:inkscape="http://www.inkscape.org/namespaces/inkscape"
   xmlns:sodipodi="http://sodipodi.sourceforge.net/DTD/sodipodi-0.dtd"
   xmlns="http://www.w3.org/2000/svg"
   xmlns:svg="http://www.w3.org/2000/svg">
  <defs
     id="defs3" />
  <sodipodi:namedview
     id="namedview3"
     pagecolor="#ffffff"
     bordercolor="#000000"
     borderopacity="0.25"
     inkscape:showpageshadow="2"
     inkscape:pageopacity="0.0"
     inkscape:pagecheckerboard="0"
     inkscape:deskcolor="#d1d1d1"
     inkscape:zoom="6.0746269"
     inkscape:cx="66.91769"
     inkscape:cy="67"
     inkscape:window-width="1920"
     inkscape:window-height="1010"
     inkscape:window-x="-6"
     inkscape:window-y="-6"
     inkscape:window-maximized="1"
     inkscape:current-layer="svg3" />
  <path
     fill="#004124"
     d="   M 64.30 0.00   L 70.06 0.00   C 105.42 2.70 132.07 28.87 134.00 64.33   L 134.00 69.58   C 131.80 104.82 105.49 131.71 70.17 134.00   L 63.68 134.00   C 28.52 130.67 2.54 106.06 0.00 70.41   L 0.00 63.47   C 2.44 28.29 29.22 2.31 64.30 0.00   Z   M 128.00 67.00   A 61.00 61.00 0.0 0 0 67.00 6.00   A 61.00 61.00 0.0 0 0 6.00 67.00   A 61.00 61.00 0.0 0 0 67.00 128.00   A 61.00 61.00 0.0 0 0 128.00 67.00   Z"
     id="path1"
     style="fill:#00a86b;fill-opacity:1" />
  <path
     fill="#004124"
     d="   M 96.81 47.19   C 104.34 52.72 104.41 68.04 102.72 76.04   Q 99.84 89.58 85.76 88.69   Q 76.34 88.09 73.20 79.33   C 70.30 71.22 69.80 55.56 76.36 48.59   C 81.23 43.42 91.22 43.07 96.81 47.19   Z   M 93.43 55.66   C 90.75 51.39 84.64 50.80 81.73 55.02   C 78.64 59.53 78.27 75.02 82.26 79.09   C 85.75 82.64 92.81 81.41 94.22 76.18   C 95.66 70.82 96.13 59.96 93.43 55.66   Z"
     id="path2"
     style="fill:#333333;fill-opacity:1" />
  <path
     fill="#004124"
     d="   M 60.75 73.25   L 64.75 73.25   Q 65.50 73.25 65.50 74.00   L 65.50 80.03   A 0.52 0.52 0.0 0 1 64.97 80.55   L 60.84 80.39   A 0.57 0.57 0.0 0 0 60.25 80.96   L 60.25 88.50   Q 60.25 89.00 59.75 89.00   L 52.50 89.00   Q 51.75 89.00 51.75 88.25   L 51.75 81.00   Q 51.75 80.50 51.25 80.50   L 31.45 80.50   Q 30.83 80.50 30.79 79.87   C 30.61 76.99 30.22 74.69 32.01 72.14   Q 41.10 59.19 50.15 46.20   A 1.05 1.04 17.2 0 1 51.01 45.75   L 59.50 45.75   Q 60.25 45.75 60.25 46.50   L 60.25 72.75   Q 60.25 73.25 60.75 73.25   Z   M 52.25 55.90   A 0.31 0.31 0.0 0 0 51.68 55.73   L 40.30 72.77   A 0.31 0.31 0.0 0 0 40.56 73.25   L 51.94 73.25   A 0.31 0.31 0.0 0 0 52.25 72.94   L 52.25 55.90   Z"
     id="path3"
     style="fill:#333333;fill-opacity:1" />
</svg>
