<?xml version="1.0" encoding="UTF-8" standalone="no"?>
<!DOCTYPE svg PUBLIC "-//W3C//DTD SVG 1.1//EN" "http://www.w3.org/Graphics/SVG/1.1/DTD/svg11.dtd">
<svg xmlns="http://www.w3.org/2000/svg" version="1.1" viewBox="0.00 0.00 228.00 228.00">
<g stroke-width="2.00" fill="none" stroke-linecap="butt">
<path stroke="#9ca5a0" vector-effect="non-scaling-stroke" d="
  M 98.23 109.18
  C 97.59 98.11 100.43 81.75 115.03 82.45
  Q 124.50 82.91 126.44 92.04
  A 0.58 0.58 0.0 0 0 127.01 92.50
  L 141.75 92.50
  Q 142.31 92.50 142.25 91.94
  C 140.87 79.99 133.34 71.44 121.49 69.10
  C 111.04 67.03 98.05 69.60 91.56 78.57
  C 81.23 92.85 82.00 118.21 85.44 134.55
  C 88.32 148.25 96.80 156.39 110.48 158.02
  C 128.75 160.20 143.03 150.89 144.73 132.01
  C 146.22 115.49 137.79 101.76 120.26 100.50
  Q 106.94 99.54 98.56 109.30
  Q 98.25 109.66 98.23 109.18"
/>
<path stroke="#9ca5a0" vector-effect="non-scaling-stroke" d="
  M 128.6788 127.1614
  A 13.11 13.11 0.0 0 0 115.1857 114.4461
  L 112.4669 114.5268
  A 13.11 13.11 0.0 0 0 99.7516 128.0199
  L 99.8412 131.0386
  A 13.11 13.11 0.0 0 0 113.3343 143.7539
  L 116.0531 143.6732
  A 13.11 13.11 0.0 0 0 128.7684 130.1801
  L 128.6788 127.1614"
/>
</g>
<path fill="#394b41" d="
  M 109.82 0.00
  L 118.54 0.00
  C 179.12 3.35 224.71 49.58 228.00 110.05
  L 228.00 116.56
  C 225.82 178.03 178.95 224.82 117.69 228.00
  L 109.47 228.00
  C 48.64 224.82 3.84 178.59 0.00 117.97
  L 0.00 110.17
  C 3.22 49.55 49.07 3.13 109.82 0.00
  Z
  M 98.23 109.18
  C 97.59 98.11 100.43 81.75 115.03 82.45
  Q 124.50 82.91 126.44 92.04
  A 0.58 0.58 0.0 0 0 127.01 92.50
  L 141.75 92.50
  Q 142.31 92.50 142.25 91.94
  C 140.87 79.99 133.34 71.44 121.49 69.10
  C 111.04 67.03 98.05 69.60 91.56 78.57
  C 81.23 92.85 82.00 118.21 85.44 134.55
  C 88.32 148.25 96.80 156.39 110.48 158.02
  C 128.75 160.20 143.03 150.89 144.73 132.01
  C 146.22 115.49 137.79 101.76 120.26 100.50
  Q 106.94 99.54 98.56 109.30
  Q 98.25 109.66 98.23 109.18
  Z"
/>
<path fill="#ffffff" d="
  M 98.56 109.30
  Q 106.94 99.54 120.26 100.50
  C 137.79 101.76 146.22 115.49 144.73 132.01
  C 143.03 150.89 128.75 160.20 110.48 158.02
  C 96.80 156.39 88.32 148.25 85.44 134.55
  C 82.00 118.21 81.23 92.85 91.56 78.57
  C 98.05 69.60 111.04 67.03 121.49 69.10
  C 133.34 71.44 140.87 79.99 142.25 91.94
  Q 142.31 92.50 141.75 92.50
  L 127.01 92.50
  A 0.58 0.58 0.0 0 1 126.44 92.04
  Q 124.50 82.91 115.03 82.45
  C 100.43 81.75 97.59 98.11 98.23 109.18
  Q 98.25 109.66 98.56 109.30
  Z
  M 128.6788 127.1614
  A 13.11 13.11 0.0 0 0 115.1857 114.4461
  L 112.4669 114.5268
  A 13.11 13.11 0.0 0 0 99.7516 128.0199
  L 99.8412 131.0386
  A 13.11 13.11 0.0 0 0 113.3343 143.7539
  L 116.0531 143.6732
  A 13.11 13.11 0.0 0 0 128.7684 130.1801
  L 128.6788 127.1614
  Z"
/>
<rect fill="#394b41" x="-14.47" y="-14.62" transform="translate(114.26,129.10) rotate(-1.7)" width="28.94" height="29.24" rx="13.11"/>
</svg>
