<?xml version="1.0" encoding="UTF-8" standalone="no"?>
<!DOCTYPE svg PUBLIC "-//W3C//DTD SVG 1.1//EN" "http://www.w3.org/Graphics/SVG/1.1/DTD/svg11.dtd">
<svg xmlns="http://www.w3.org/2000/svg" version="1.1" viewBox="0.00 0.00 830.00 830.00">
<path fill="#303030" d="
  M 0.00 0.00
  L 830.00 0.00
  L 830.00 830.00
  L 0.00 830.00
  L 0.00 0.00
  Z
  M 784.00 46.26
  A 0.26 0.26 0.0 0 0 783.74 46.00
  L 46.26 46.00
  A 0.26 0.26 0.0 0 0 46.00 46.26
  L 46.00 783.74
  A 0.26 0.26 0.0 0 0 46.26 784.00
  L 783.74 784.00
  A 0.26 0.26 0.0 0 0 784.00 783.74
  L 784.00 46.26
  Z"
/>
<path fill="#00aa68" d="
  M 731.00 735.56
  A 0.44 0.44 0.0 0 1 730.56 736.00
  L 85.44 736.00
  A 0.44 0.44 0.0 0 1 85.00 735.56
  L 85.00 90.44
  A 0.44 0.44 0.0 0 1 85.44 90.00
  L 730.56 90.00
  A 0.44 0.44 0.0 0 1 731.00 90.44
  L 731.00 735.56
  Z
  M 685.00 136.26
  A 0.26 0.26 0.0 0 0 684.74 136.00
  L 131.26 136.00
  A 0.26 0.26 0.0 0 0 131.00 136.26
  L 131.00 689.74
  A 0.26 0.26 0.0 0 0 131.26 690.00
  L 684.74 690.00
  A 0.26 0.26 0.0 0 0 685.00 689.74
  L 685.00 136.26
  Z"
/>
</svg>
