<?xml version="1.0" encoding="UTF-8" standalone="no"?>
<svg
   version="1.1"
   viewBox="0.00 0.00 150.00 150.00"
   id="svg3"
   sodipodi:docname="25.svg"
   inkscape:version="1.3 (0e150ed6c4, 2023-07-21)"
   xmlns:inkscape="http://www.inkscape.org/namespaces/inkscape"
   xmlns:sodipodi="http://sodipodi.sourceforge.net/DTD/sodipodi-0.dtd"
   xmlns="http://www.w3.org/2000/svg"
   xmlns:svg="http://www.w3.org/2000/svg">
  <defs
     id="defs3" />
  <sodipodi:namedview
     id="namedview3"
     pagecolor="#ffffff"
     bordercolor="#000000"
     borderopacity="0.25"
     inkscape:showpageshadow="2"
     inkscape:pageopacity="0.0"
     inkscape:pagecheckerboard="0"
     inkscape:deskcolor="#d1d1d1"
     inkscape:zoom="5.4266667"
     inkscape:cx="74.907862"
     inkscape:cy="75"
     inkscape:window-width="1920"
     inkscape:window-height="1010"
     inkscape:window-x="1913"
     inkscape:window-y="-6"
     inkscape:window-maximized="1"
     inkscape:current-layer="svg3" />
  <path
     fill="#094065"
     d="   M 0.00 0.00   L 150.00 0.00   L 150.00 150.00   L 0.00 150.00   L 0.00 0.00   Z   M 140.75 9.52   A 0.27 0.27 0.0 0 0 140.48 9.25   L 9.52 9.25   A 0.27 0.27 0.0 0 0 9.25 9.52   L 9.25 140.48   A 0.27 0.27 0.0 0 0 9.52 140.75   L 140.48 140.75   A 0.27 0.27 0.0 0 0 140.75 140.48   L 140.75 9.52   Z"
     id="path1"
     style="fill:#333333;fill-opacity:1" />
  <path
     fill="#ff8811"
     d="   M 128.24 73.75   L 133.50 73.75   Q 134.25 73.75 134.25 74.50   L 134.25 75.62   Q 134.25 76.25 133.62 76.25   L 128.23 76.25   Q 127.57 76.25 127.53 76.91   C 125.37 115.11 85.90 139.75 51.04 121.68   Q 25.13 108.25 22.20 76.69   Q 22.16 76.24 21.71 76.25   L 16.53 76.26   A 0.78 0.77 -3.8 0 1 15.76 75.59   Q 15.51 73.89 16.49 73.89   Q 19.20 73.90 21.89 73.65   Q 22.39 73.60 22.42 73.10   C 25.03 26.65 81.30 4.56 113.58 39.19   Q 126.40 52.95 127.59 73.14   A 0.65 0.64 -1.4 0 0 128.24 73.75   Z   M 102.62 36.55   C 85.39 24.38 62.89 24.84 46.29 37.44   A 0.36 0.35 -63.3 0 0 46.50 38.08   L 103.18 37.59   A 0.32 0.32 0.0 0 0 103.44 37.08   Q 103.29 36.85 103.04 36.75   Q 102.72 36.62 102.62 36.55   Z   M 103.09 43.56   A 0.53 0.53 0.0 0 0 102.60 42.83   L 47.45 43.34   A 0.53 0.53 0.0 0 0 46.96 44.08   L 59.16 73.42   A 0.53 0.53 0.0 0 0 59.65 73.75   L 90.56 73.75   A 0.53 0.53 0.0 0 0 91.05 73.42   L 103.09 43.56   Z   M 109.81 43.00   A 0.54 0.54 0.0 0 0 108.91 43.16   L 96.84 73.08   A 0.49 0.49 0.0 0 0 97.29 73.75   L 121.52 73.75   Q 122.36 73.75 122.31 72.92   Q 121.30 55.68 109.81 43.00   Z   M 40.05 43.13   C 32.59 51.39 28.13 62.05 27.75 73.23   Q 27.73 73.75 28.25 73.75   L 53.01 73.75   A 0.40 0.40 0.0 0 0 53.38 73.20   L 40.95 43.28   A 0.54 0.54 0.0 0 0 40.05 43.13   Z   M 27.71 76.80   C 28.45 101.73 48.62 120.83 73.05 122.42   A 0.49 0.48 -9.4 0 0 73.53 121.75   L 54.83 76.65   Q 54.66 76.25 54.22 76.25   L 28.25 76.25   Q 27.69 76.25 27.71 76.80   Z   M 83.90 90.22   C 76.14 88.80 78.26 79.08 85.34 80.41   Q 85.75 80.49 86.05 80.76   Q 86.61 81.28 87.33 81.48   A 0.57 0.56 -71.2 0 0 88.00 81.15   L 89.69 76.94   A 0.51 0.51 0.0 0 0 89.22 76.25   L 61.01 76.25   Q 60.45 76.25 60.65 76.77   L 62.25 81.02   A 0.53 0.53 0.0 0 0 63.03 81.28   C 69.05 77.50 75.25 85.63 66.81 90.21   Q 66.25 90.51 66.50 91.09   L 75.01 111.50   A 0.40 0.39 -45.6 0 0 75.74 111.49   L 84.15 90.68   Q 84.30 90.30 83.90 90.22   Z   M 95.33 76.93   L 77.28 121.76   Q 77.05 122.34 77.67 122.30   C 102.39 120.65 120.79 101.46 122.33 76.86   Q 122.37 76.25 121.76 76.25   L 96.34 76.25   Q 95.60 76.25 95.33 76.93   Z"
     id="path2"
     style="fill:#00784c;fill-opacity:1" />
  <circle
     fill="#ff8811"
     cx="66.12"
     cy="66.14"
     r="4.89"
     id="circle2"
     style="fill:#00784c;fill-opacity:1" />
  <circle
     fill="#ff8811"
     cx="83.88"
     cy="66.14"
     r="4.89"
     id="circle3"
     style="fill:#00784c;fill-opacity:1" />
</svg>
