<?xml version="1.0" encoding="UTF-8" standalone="no"?>
<svg
   version="1.1"
   viewBox="0.00 0.00 134.00 134.00"
   id="svg3"
   sodipodi:docname="e.svg"
   inkscape:version="1.3 (0e150ed6c4, 2023-07-21)"
   xmlns:inkscape="http://www.inkscape.org/namespaces/inkscape"
   xmlns:sodipodi="http://sodipodi.sourceforge.net/DTD/sodipodi-0.dtd"
   xmlns="http://www.w3.org/2000/svg"
   xmlns:svg="http://www.w3.org/2000/svg">
  <defs
     id="defs3" />
  <sodipodi:namedview
     id="namedview3"
     pagecolor="#ffffff"
     bordercolor="#000000"
     borderopacity="0.25"
     inkscape:showpageshadow="2"
     inkscape:pageopacity="0.0"
     inkscape:pagecheckerboard="0"
     inkscape:deskcolor="#d1d1d1"
     inkscape:zoom="6.0746269"
     inkscape:cx="67.08231"
     inkscape:cy="67"
     inkscape:window-width="1920"
     inkscape:window-height="1010"
     inkscape:window-x="1913"
     inkscape:window-y="-6"
     inkscape:window-maximized="1"
     inkscape:current-layer="svg3" />
  <path
     fill="#004124"
     d="   M 64.30 0.00   L 70.06 0.00   C 105.42 2.70 132.07 28.87 134.00 64.33   L 134.00 69.58   C 131.80 104.82 105.49 131.71 70.17 134.00   L 63.69 134.00   C 28.77 131.33 2.40 105.42 0.00 70.42   L 0.00 63.47   C 2.44 28.29 29.22 2.31 64.30 0.00   Z   M 128.00 67.00   A 61.00 61.00 0.0 0 0 67.00 6.00   A 61.00 61.00 0.0 0 0 6.00 67.00   A 61.00 61.00 0.0 0 0 67.00 128.00   A 61.00 61.00 0.0 0 0 128.00 67.00   Z"
     id="path1"
     style="fill:#00a86b;fill-opacity:1" />
  <path
     fill="#004124"
     d="   M 76.21 81.54   L 92.74 81.48   Q 93.25 81.48 93.25 81.99   L 93.25 87.75   Q 93.25 88.50 92.50 88.50   L 64.25 88.50   Q 63.75 88.50 63.75 88.00   L 63.75 82.72   A 1.34 1.32 -20.5 0 1 64.22 81.71   C 72.09 75.15 78.17 70.76 82.42 63.48   C 89.01 52.19 73.88 45.26 71.86 58.40   A 0.69 0.69 0.0 0 1 71.18 58.99   L 64.75 59.00   A 1.08 1.07 2.4 0 1 63.67 57.83   Q 64.69 46.93 74.91 44.73   C 82.57 43.09 89.86 46.03 91.96 53.94   C 95.00 65.39 83.33 74.63 76.05 81.11   Q 75.57 81.54 76.21 81.54   Z"
     id="path2"
     style="fill:#333333;fill-opacity:1" />
  <path
     fill="#004124"
     d="   M 46.47 53.01   L 41.78 52.99   A 0.53 0.53 0.0 0 1 41.25 52.46   L 41.25 45.78   A 0.53 0.53 0.0 0 1 41.78 45.25   L 54.97 45.25   A 0.53 0.53 0.0 0 1 55.50 45.78   L 55.50 88.46   A 0.53 0.53 0.0 0 1 54.97 88.99   L 47.53 89.00   A 0.53 0.53 0.0 0 1 47.00 88.47   L 47.00 53.54   A 0.53 0.53 0.0 0 0 46.47 53.01   Z"
     id="path3"
     style="fill:#333333;fill-opacity:1" />
</svg>
