<?xml version="1.0" encoding="UTF-8" standalone="no"?>
<svg
   version="1.1"
   viewBox="0.00 0.00 949.00 949.00"
   id="svg2"
   sodipodi:docname="e.svg"
   inkscape:version="1.3 (0e150ed6c4, 2023-07-21)"
   xmlns:inkscape="http://www.inkscape.org/namespaces/inkscape"
   xmlns:sodipodi="http://sodipodi.sourceforge.net/DTD/sodipodi-0.dtd"
   xmlns="http://www.w3.org/2000/svg"
   xmlns:svg="http://www.w3.org/2000/svg">
  <defs
     id="defs2" />
  <sodipodi:namedview
     id="namedview2"
     pagecolor="#ffffff"
     bordercolor="#000000"
     borderopacity="0.25"
     inkscape:showpageshadow="2"
     inkscape:pageopacity="0.0"
     inkscape:pagecheckerboard="0"
     inkscape:deskcolor="#d1d1d1"
     inkscape:zoom="0.85774499"
     inkscape:cx="473.91708"
     inkscape:cy="474.5"
     inkscape:window-width="1920"
     inkscape:window-height="1010"
     inkscape:window-x="1913"
     inkscape:window-y="-6"
     inkscape:window-maximized="1"
     inkscape:current-layer="svg2" />
  <path
     fill="#303030"
     d="   M 0.00 0.00   L 949.00 0.00   L 949.00 949.00   L 0.00 949.00   L 0.00 0.00   Z   M 889.00 60.27   A 0.27 0.27 0.0 0 0 888.73 60.00   L 60.27 60.00   A 0.27 0.27 0.0 0 0 60.00 60.27   L 60.00 888.73   A 0.27 0.27 0.0 0 0 60.27 889.00   L 888.73 889.00   A 0.27 0.27 0.0 0 0 889.00 888.73   L 889.00 60.27   Z"
     id="path1" />
  <path
     fill="#007948"
     d="   M 327.00 300.84   A 21.16 21.16 0.0 0 1 305.84 322.00   L 111.16 322.00   A 21.16 21.16 0.0 0 1 90.00 300.84   L 90.00 106.16   A 21.16 21.16 0.0 0 1 111.16 85.00   L 305.84 85.00   A 21.16 21.16 0.0 0 1 327.00 106.16   L 327.00 300.84   Z   M 302.00 110.26   A 0.26 0.26 0.0 0 0 301.74 110.00   L 115.26 110.00   A 0.26 0.26 0.0 0 0 115.00 110.26   L 115.00 296.74   A 0.26 0.26 0.0 0 0 115.26 297.00   L 301.74 297.00   A 0.26 0.26 0.0 0 0 302.00 296.74   L 302.00 110.26   Z"
     id="path2"
     style="fill:#00a86b;fill-opacity:1" />
  <circle
     fill="#007948"
     cx="742.50"
     cy="734.50"
     r="118.60"
     id="circle2"
     style="fill:#00a86b;fill-opacity:1" />
</svg>
