<?xml version="1.0" encoding="UTF-8" standalone="no"?>
<svg
   version="1.1"
   viewBox="0.00 0.00 150.00 150.00"
   id="svg2"
   sodipodi:docname="22-1.svg"
   inkscape:version="1.3 (0e150ed6c4, 2023-07-21)"
   xmlns:inkscape="http://www.inkscape.org/namespaces/inkscape"
   xmlns:sodipodi="http://sodipodi.sourceforge.net/DTD/sodipodi-0.dtd"
   xmlns="http://www.w3.org/2000/svg"
   xmlns:svg="http://www.w3.org/2000/svg">
  <defs
     id="defs2" />
  <sodipodi:namedview
     id="namedview2"
     pagecolor="#ffffff"
     bordercolor="#000000"
     borderopacity="0.25"
     inkscape:showpageshadow="2"
     inkscape:pageopacity="0.0"
     inkscape:pagecheckerboard="0"
     inkscape:deskcolor="#d1d1d1"
     inkscape:zoom="5.4266667"
     inkscape:cx="74.907862"
     inkscape:cy="75"
     inkscape:window-width="1920"
     inkscape:window-height="1010"
     inkscape:window-x="1913"
     inkscape:window-y="-6"
     inkscape:window-maximized="1"
     inkscape:current-layer="svg2" />
  <path
     fill="#094065"
     d="   M 0.00 0.00   L 150.00 0.00   L 150.00 150.00   L 0.00 150.00   L 0.00 0.00   Z   M 140.75 9.52   A 0.27 0.27 0.0 0 0 140.48 9.25   L 9.52 9.25   A 0.27 0.27 0.0 0 0 9.25 9.52   L 9.25 140.48   A 0.27 0.27 0.0 0 0 9.52 140.75   L 140.48 140.75   A 0.27 0.27 0.0 0 0 140.75 140.48   L 140.75 9.52   Z"
     id="path1"
     style="fill:#333333;fill-opacity:1" />
  <path
     fill="#ff8811"
     d="   M 127.58 75.01   A 52.58 52.58 0.0 0 1 75.00 127.59   A 52.58 52.58 0.0 0 1 22.42 75.01   A 52.58 52.58 0.0 0 1 75.00 22.43   A 52.58 52.58 0.0 0 1 127.58 75.01   Z   M 102.62 36.55   C 85.39 24.38 62.89 24.84 46.29 37.44   A 0.36 0.35 -63.3 0 0 46.50 38.08   L 103.18 37.59   A 0.32 0.32 0.0 0 0 103.44 37.08   Q 103.29 36.85 103.04 36.75   Q 102.72 36.62 102.62 36.55   Z   M 103.17 43.52   A 0.43 0.43 0.0 0 0 102.77 42.93   L 47.36 43.22   A 0.43 0.43 0.0 0 0 46.97 43.82   L 75.03 111.47   A 0.43 0.43 0.0 0 0 75.83 111.47   L 103.17 43.52   Z   M 109.72 42.89   A 0.46 0.46 0.0 0 0 108.95 43.02   L 77.29 121.75   Q 77.02 122.41 77.72 122.34   C 117.98 118.31 136.66 73.65 109.72 42.89   Z   M 40.03 43.11   C 13.51 73.42 32.42 119.82 73.04 122.42   A 0.50 0.50 0.0 0 0 73.53 121.73   L 40.95 43.26   A 0.55 0.55 0.0 0 0 40.03 43.11   Z"
     id="path2"
     style="fill:#00784c;fill-opacity:1" />
</svg>
