<?xml version="1.0" encoding="UTF-8" standalone="no"?>
<!DOCTYPE svg PUBLIC "-//W3C//DTD SVG 1.1//EN" "http://www.w3.org/Graphics/SVG/1.1/DTD/svg11.dtd">
<svg xmlns="http://www.w3.org/2000/svg" version="1.1" viewBox="0.00 0.00 228.00 228.00">
<g stroke-width="2.00" fill="none" stroke-linecap="butt">
<path stroke="#9ca5a0" vector-effect="non-scaling-stroke" d="
  M 74.25 85.67
  A 0.33 0.33 0.0 0 0 74.58 86.00
  L 85.62 86.00
  A 0.33 0.33 0.0 0 1 85.95 86.33
  L 85.98 157.67
  A 0.33 0.33 0.0 0 0 86.31 158.00
  L 102.92 158.00
  A 0.33 0.33 0.0 0 0 103.25 157.67
  L 103.25 70.83
  A 0.33 0.33 0.0 0 0 102.92 70.50
  L 74.58 70.50
  A 0.33 0.33 0.0 0 0 74.25 70.83
  L 74.25 85.67"
/>
<path stroke="#9ca5a0" vector-effect="non-scaling-stroke" d="
  M 118.25 85.69
  A 0.31 0.31 0.0 0 0 118.56 86.00
  L 129.56 86.01
  A 0.31 0.31 0.0 0 1 129.87 86.32
  L 129.92 157.69
  A 0.31 0.31 0.0 0 0 130.23 158.00
  L 146.96 158.00
  A 0.31 0.31 0.0 0 0 147.27 157.69
  L 147.26 70.81
  A 0.31 0.31 0.0 0 0 146.95 70.50
  L 118.56 70.50
  A 0.31 0.31 0.0 0 0 118.25 70.81
  L 118.25 85.69"
/>
</g>
<path fill="#394b41" d="
  M 109.82 0.00
  L 118.54 0.00
  C 179.12 3.35 224.71 49.58 228.00 110.05
  L 228.00 116.56
  C 225.82 178.03 178.95 224.82 117.69 228.00
  L 109.47 228.00
  C 48.64 224.82 3.84 178.59 0.00 117.97
  L 0.00 110.17
  C 3.22 49.55 49.07 3.13 109.82 0.00
  Z
  M 74.25 85.67
  A 0.33 0.33 0.0 0 0 74.58 86.00
  L 85.62 86.00
  A 0.33 0.33 0.0 0 1 85.95 86.33
  L 85.98 157.67
  A 0.33 0.33 0.0 0 0 86.31 158.00
  L 102.92 158.00
  A 0.33 0.33 0.0 0 0 103.25 157.67
  L 103.25 70.83
  A 0.33 0.33 0.0 0 0 102.92 70.50
  L 74.58 70.50
  A 0.33 0.33 0.0 0 0 74.25 70.83
  L 74.25 85.67
  Z
  M 118.25 85.69
  A 0.31 0.31 0.0 0 0 118.56 86.00
  L 129.56 86.01
  A 0.31 0.31 0.0 0 1 129.87 86.32
  L 129.92 157.69
  A 0.31 0.31 0.0 0 0 130.23 158.00
  L 146.96 158.00
  A 0.31 0.31 0.0 0 0 147.27 157.69
  L 147.26 70.81
  A 0.31 0.31 0.0 0 0 146.95 70.50
  L 118.56 70.50
  A 0.31 0.31 0.0 0 0 118.25 70.81
  L 118.25 85.69
  Z"
/>
<path fill="#ffffff" d="
  M 74.25 85.67
  L 74.25 70.83
  A 0.33 0.33 0.0 0 1 74.58 70.50
  L 102.92 70.50
  A 0.33 0.33 0.0 0 1 103.25 70.83
  L 103.25 157.67
  A 0.33 0.33 0.0 0 1 102.92 158.00
  L 86.31 158.00
  A 0.33 0.33 0.0 0 1 85.98 157.67
  L 85.95 86.33
  A 0.33 0.33 0.0 0 0 85.62 86.00
  L 74.58 86.00
  A 0.33 0.33 0.0 0 1 74.25 85.67
  Z"
/>
<path fill="#ffffff" d="
  M 118.25 85.69
  L 118.25 70.81
  A 0.31 0.31 0.0 0 1 118.56 70.50
  L 146.95 70.50
  A 0.31 0.31 0.0 0 1 147.26 70.81
  L 147.27 157.69
  A 0.31 0.31 0.0 0 1 146.96 158.00
  L 130.23 158.00
  A 0.31 0.31 0.0 0 1 129.92 157.69
  L 129.87 86.32
  A 0.31 0.31 0.0 0 0 129.56 86.01
  L 118.56 86.00
  A 0.31 0.31 0.0 0 1 118.25 85.69
  Z"
/>
</svg>
