<?xml version="1.0" encoding="UTF-8" standalone="no"?>
<!DOCTYPE svg PUBLIC "-//W3C//DTD SVG 1.1//EN" "http://www.w3.org/Graphics/SVG/1.1/DTD/svg11.dtd">
<svg xmlns="http://www.w3.org/2000/svg" version="1.1" viewBox="0.00 0.00 1448.00 1448.00">
<path stroke="#186d4c" stroke-width="2.00" fill="none" stroke-linecap="butt" vector-effect="non-scaling-stroke" d="
  M 716.45 683.31
  C 724.36 683.31 737.60 685.85 744.22 690.31
  Q 752.54 695.91 758.05 704.25
  C 762.81 711.44 765.25 724.47 765.25 733.00
  Q 765.25 1065.75 765.25 1398.49
  C 765.25 1400.41 764.73 1402.40 764.47 1404.40
  Q 764.40 1404.98 764.98 1404.95
  Q 818.76 1402.26 871.47 1391.58
  Q 881.27 1389.60 890.94 1387.04
  C 978.30 1363.97 1064.75 1323.28 1136.31 1267.80
  Q 1210.54 1210.24 1268.13 1135.39
  Q 1274.24 1127.45 1279.97 1119.27
  Q 1352.03 1016.42 1385.38 894.91
  Q 1389.93 878.32 1393.16 861.44
  Q 1420.49 718.48 1391.27 576.34
  Q 1389.25 566.51 1386.68 556.87
  Q 1359.32 454.51 1303.56 364.23
  C 1259.29 292.58 1198.76 229.10 1131.83 178.41
  Q 1123.89 172.40 1115.62 166.71
  Q 1010.19 94.22 886.43 61.28
  Q 876.89 58.74 866.98 56.64
  C 772.69 36.71 676.89 36.54 581.83 56.46
  Q 572.07 58.51 562.36 61.02
  Q 451.16 89.78 353.91 151.13
  C 282.14 196.41 218.70 258.49 169.11 326.65
  Q 163.27 334.68 157.74 343.11
  Q 94.43 439.49 63.46 550.67
  C 51.48 593.69 44.80 639.06 42.17 683.81
  A 0.64 0.64 0.0 0 0 42.98 684.46
  C 45.98 683.62 48.70 683.27 52.05 683.27
  Q 384.25 683.19 716.45 683.31"
/>
<path fill="#303030" d="
  M 711.32 0.00
  L 741.81 0.00
  C 976.05 7.22 1193.03 128.51 1324.65 320.98
  C 1404.04 437.08 1445.52 573.86 1448.00 714.82
  L 1448.00 731.79
  Q 1445.90 875.63 1389.90 1007.25
  C 1268.44 1292.74 973.22 1474.33 663.30 1444.09
  C 505.16 1428.66 353.57 1365.44 236.04 1257.60
  Q 122.93 1153.83 61.70 1012.94
  C 22.18 921.99 2.51 824.27 0.00 725.18
  L 0.00 699.44
  C 7.49 507.06 92.27 320.43 235.00 190.62
  C 364.56 72.80 535.65 4.06 711.32 0.00
  Z
  M 716.45 683.31
  C 724.36 683.31 737.60 685.85 744.22 690.31
  Q 752.54 695.91 758.05 704.25
  C 762.81 711.44 765.25 724.47 765.25 733.00
  Q 765.25 1065.75 765.25 1398.49
  C 765.25 1400.41 764.73 1402.40 764.47 1404.40
  Q 764.40 1404.98 764.98 1404.95
  Q 818.76 1402.26 871.47 1391.58
  Q 881.27 1389.60 890.94 1387.04
  C 978.30 1363.97 1064.75 1323.28 1136.31 1267.80
  Q 1210.54 1210.24 1268.13 1135.39
  Q 1274.24 1127.45 1279.97 1119.27
  Q 1352.03 1016.42 1385.38 894.91
  Q 1389.93 878.32 1393.16 861.44
  Q 1420.49 718.48 1391.27 576.34
  Q 1389.25 566.51 1386.68 556.87
  Q 1359.32 454.51 1303.56 364.23
  C 1259.29 292.58 1198.76 229.10 1131.83 178.41
  Q 1123.89 172.40 1115.62 166.71
  Q 1010.19 94.22 886.43 61.28
  Q 876.89 58.74 866.98 56.64
  C 772.69 36.71 676.89 36.54 581.83 56.46
  Q 572.07 58.51 562.36 61.02
  Q 451.16 89.78 353.91 151.13
  C 282.14 196.41 218.70 258.49 169.11 326.65
  Q 163.27 334.68 157.74 343.11
  Q 94.43 439.49 63.46 550.67
  C 51.48 593.69 44.80 639.06 42.17 683.81
  A 0.64 0.64 0.0 0 0 42.98 684.46
  C 45.98 683.62 48.70 683.27 52.05 683.27
  Q 384.25 683.19 716.45 683.31
  Z
  M 256.44 1215.06
  C 381.35 1335.93 547.81 1401.03 721.74 1402.49
  A 1.99 1.99 0.0 0 0 723.75 1400.50
  L 723.75 727.76
  A 3.03 3.03 0.0 0 0 720.71 724.73
  Q 385.36 724.75 49.25 724.90
  Q 44.25 724.91 44.51 730.25
  Q 47.50 792.55 58.77 848.99
  C 86.57 988.16 154.29 1116.22 256.44 1215.06
  Z"
/>
<path fill="#00aa68" d="
  M 716.45 683.31
  Q 384.25 683.19 52.05 683.27
  C 48.70 683.27 45.98 683.62 42.98 684.46
  A 0.64 0.64 0.0 0 1 42.17 683.81
  C 44.80 639.06 51.48 593.69 63.46 550.67
  Q 94.43 439.49 157.74 343.11
  Q 163.27 334.68 169.11 326.65
  C 218.70 258.49 282.14 196.41 353.91 151.13
  Q 451.16 89.78 562.36 61.02
  Q 572.07 58.51 581.83 56.46
  C 676.89 36.54 772.69 36.71 866.98 56.64
  Q 876.89 58.74 886.43 61.28
  Q 1010.19 94.22 1115.62 166.71
  Q 1123.89 172.40 1131.83 178.41
  C 1198.76 229.10 1259.29 292.58 1303.56 364.23
  Q 1359.32 454.51 1386.68 556.87
  Q 1389.25 566.51 1391.27 576.34
  Q 1420.49 718.48 1393.16 861.44
  Q 1389.93 878.32 1385.38 894.91
  Q 1352.03 1016.42 1279.97 1119.27
  Q 1274.24 1127.45 1268.13 1135.39
  Q 1210.54 1210.24 1136.31 1267.80
  C 1064.75 1323.28 978.30 1363.97 890.94 1387.04
  Q 881.27 1389.60 871.47 1391.58
  Q 818.76 1402.26 764.98 1404.95
  Q 764.40 1404.98 764.47 1404.40
  C 764.73 1402.40 765.25 1400.41 765.25 1398.49
  Q 765.25 1065.75 765.25 733.00
  C 765.25 724.47 762.81 711.44 758.05 704.25
  Q 752.54 695.91 744.22 690.31
  C 737.60 685.85 724.36 683.31 716.45 683.31
  Z"
/>
</svg>
