<?xml version="1.0" encoding="UTF-8" standalone="no"?>
<!DOCTYPE svg PUBLIC "-//W3C//DTD SVG 1.1//EN" "http://www.w3.org/Graphics/SVG/1.1/DTD/svg11.dtd">
<svg xmlns="http://www.w3.org/2000/svg" version="1.1" viewBox="0.00 0.00 1447.00 1448.00">
<path stroke="#186d4c" stroke-width="2.00" fill="none" stroke-linecap="butt" vector-effect="non-scaling-stroke" d="
  M 682.56 49.42
  C 682.56 47.27 683.24 45.36 683.59 43.18
  Q 683.69 42.56 683.06 42.59
  C 641.18 44.94 597.42 50.26 556.81 60.96
  C 461.88 85.96 370.68 130.61 294.45 192.94
  C 240.46 237.08 191.26 289.42 153.79 347.39
  Q 96.03 436.76 66.10 539.15
  C 52.52 585.64 45.60 634.76 42.85 683.53
  Q 42.82 684.10 43.38 684.02
  C 46.44 683.62 49.45 683.00 52.41 683.00
  Q 367.05 683.00 681.51 683.00
  A 1.01 1.01 0.0 0 0 682.52 681.99
  Q 682.44 366.05 682.56 49.42"
/>
<path fill="#303030" d="
  M 707.09 0.00
  L 737.56 0.00
  C 923.32 4.83 1100.62 78.27 1232.46 209.68
  C 1366.99 343.75 1443.00 521.60 1447.00 712.08
  L 1447.00 735.55
  C 1442.52 957.23 1340.24 1162.77 1164.53 1297.52
  Q 1025.20 1404.36 853.45 1435.70
  C 700.29 1463.65 536.96 1440.32 397.30 1369.27
  C 92.95 1214.44 -62.13 870.14 23.73 539.50
  C 69.59 362.91 182.38 209.26 336.23 111.96
  Q 504.68 5.42 707.09 0.00
  Z
  M 682.56 49.42
  C 682.56 47.27 683.24 45.36 683.59 43.18
  Q 683.69 42.56 683.06 42.59
  C 641.18 44.94 597.42 50.26 556.81 60.96
  C 461.88 85.96 370.68 130.61 294.45 192.94
  C 240.46 237.08 191.26 289.42 153.79 347.39
  Q 96.03 436.76 66.10 539.15
  C 52.52 585.64 45.60 634.76 42.85 683.53
  Q 42.82 684.10 43.38 684.02
  C 46.44 683.62 49.45 683.00 52.41 683.00
  Q 367.05 683.00 681.51 683.00
  A 1.01 1.01 0.0 0 0 682.52 681.99
  Q 682.44 366.05 682.56 49.42
  Z
  M 1393.52 838.76
  C 1444.80 535.49 1276.18 221.75 992.69 99.81
  Q 866.91 45.71 727.48 45.89
  Q 724.00 45.89 724.00 48.75
  Q 724.00 385.09 724.00 720.94
  Q 724.00 724.50 720.44 724.50
  Q 385.75 724.50 51.01 724.50
  C 47.55 724.50 45.32 725.60 45.38 729.32
  C 48.77 939.95 144.58 1132.99 311.22 1261.55
  C 454.85 1372.36 637.44 1422.29 817.91 1396.15
  C 1107.81 1354.15 1344.58 1128.22 1393.52 838.76
  Z"
/>
<path fill="#00aa68" d="
  M 682.56 49.42
  Q 682.44 366.05 682.52 681.99
  A 1.01 1.01 0.0 0 1 681.51 683.00
  Q 367.05 683.00 52.41 683.00
  C 49.45 683.00 46.44 683.62 43.38 684.02
  Q 42.82 684.10 42.85 683.53
  C 45.60 634.76 52.52 585.64 66.10 539.15
  Q 96.03 436.76 153.79 347.39
  C 191.26 289.42 240.46 237.08 294.45 192.94
  C 370.68 130.61 461.88 85.96 556.81 60.96
  C 597.42 50.26 641.18 44.94 683.06 42.59
  Q 683.69 42.56 683.59 43.18
  C 683.24 45.36 682.56 47.27 682.56 49.42
  Z"
/>
</svg>
