<?xml version="1.0" encoding="UTF-8" standalone="no"?>
<svg
   version="1.1"
   viewBox="0.00 0.00 590.00 615.00"
   id="svg7"
   sodipodi:docname="a.svg"
   inkscape:version="1.3 (0e150ed6c4, 2023-07-21)"
   xmlns:inkscape="http://www.inkscape.org/namespaces/inkscape"
   xmlns:sodipodi="http://sodipodi.sourceforge.net/DTD/sodipodi-0.dtd"
   xmlns="http://www.w3.org/2000/svg"
   xmlns:svg="http://www.w3.org/2000/svg">
  <defs
     id="defs7" />
  <sodipodi:namedview
     id="namedview7"
     pagecolor="#ffffff"
     bordercolor="#000000"
     borderopacity="0.25"
     inkscape:showpageshadow="2"
     inkscape:pageopacity="0.0"
     inkscape:pagecheckerboard="0"
     inkscape:deskcolor="#d1d1d1"
     inkscape:zoom="1.3235772"
     inkscape:cx="295.03379"
     inkscape:cy="307.50001"
     inkscape:window-width="1920"
     inkscape:window-height="1010"
     inkscape:window-x="-6"
     inkscape:window-y="-6"
     inkscape:window-maximized="1"
     inkscape:current-layer="svg7" />
  <g
     stroke-width="2.00"
     fill="none"
     stroke-linecap="butt"
     id="g3">
    <path
       stroke="#18553c"
       vector-effect="non-scaling-stroke"
       d="   M 43.33 137.41   A 0.32 0.32 0.0 0 0 43.32 137.99   L 294.63 257.67   A 0.32 0.32 0.0 0 0 294.91 257.67   L 546.19 137.91   A 0.32 0.32 0.0 0 0 546.18 137.33   L 294.74 26.77   A 0.32 0.32 0.0 0 0 294.48 26.77   L 43.33 137.41"
       id="path1" />
    <path
       stroke="#919795"
       vector-effect="non-scaling-stroke"
       d="   M 279.52 279.28   L 26.15 158.86   Q 25.80 158.69 25.80 159.08   L 26.08 458.31   Q 26.08 458.83 26.54 459.05   L 279.22 579.11   A 0.55 0.54 12.7 0 0 280.00 578.62   L 280.00 280.03   Q 280.00 279.51 279.52 279.28"
       id="path2" />
    <path
       stroke="#919795"
       vector-effect="non-scaling-stroke"
       d="   M 563.25 159.14   Q 563.25 158.83 562.97 158.96   L 307.57 280.34   A 1.01 1.00 77.5 0 0 307.00 281.25   L 307.00 579.99   Q 307.00 580.62 307.57 580.35   L 562.78 458.94   Q 563.25 458.71 563.25 458.20   L 563.25 159.14"
       id="path3" />
  </g>
  <path
     fill="#303030"
     d="   M 293.31 0.00   L 296.05 0.00   Q 297.89 0.64 299.64 1.41   Q 436.98 61.64 574.17 122.22   C 579.79 124.70 588.31 126.86 590.00 133.06   L 590.00 470.31   C 589.29 473.92 587.49 475.87 584.02 477.52   Q 458.06 537.46 331.98 597.14   Q 315.42 604.97 298.71 612.52   C 296.49 613.52 294.19 614.54 292.02 613.53   Q 225.31 582.27 12.19 480.81   C 6.50 478.11 0.16 476.73 0.27 469.25   Q 0.46 457.08 0.00 444.94   L 0.00 226.94   C 0.21 196.37 -0.51 165.50 1.52 135.01   C 1.97 128.13 16.20 121.58 21.91 119.07   Q 156.35 60.08 290.67 0.84   C 291.47 0.49 292.47 0.43 293.31 0.00   Z   M 43.33 137.41   A 0.32 0.32 0.0 0 0 43.32 137.99   L 294.63 257.67   A 0.32 0.32 0.0 0 0 294.91 257.67   L 546.19 137.91   A 0.32 0.32 0.0 0 0 546.18 137.33   L 294.74 26.77   A 0.32 0.32 0.0 0 0 294.48 26.77   L 43.33 137.41   Z   M 279.52 279.28   L 26.15 158.86   Q 25.80 158.69 25.80 159.08   L 26.08 458.31   Q 26.08 458.83 26.54 459.05   L 279.22 579.11   A 0.55 0.54 12.7 0 0 280.00 578.62   L 280.00 280.03   Q 280.00 279.51 279.52 279.28   Z   M 563.25 159.14   Q 563.25 158.83 562.97 158.96   L 307.57 280.34   A 1.01 1.00 77.5 0 0 307.00 281.25   L 307.00 579.99   Q 307.00 580.62 307.57 580.35   L 562.78 458.94   Q 563.25 458.71 563.25 458.20   L 563.25 159.14   Z"
     id="path4" />
  <path
     fill="#007948"
     d="   M 43.33 137.41   L 294.48 26.77   A 0.32 0.32 0.0 0 1 294.74 26.77   L 546.18 137.33   A 0.32 0.32 0.0 0 1 546.19 137.91   L 294.91 257.67   A 0.32 0.32 0.0 0 1 294.63 257.67   L 43.32 137.99   A 0.32 0.32 0.0 0 1 43.33 137.41   Z"
     id="path5"
     style="fill:#00a86b;fill-opacity:1" />
  <path
     fill="#f1fdfa"
     d="   M 26.15 158.86   L 279.52 279.28   Q 280.00 279.51 280.00 280.03   L 280.00 578.62   A 0.55 0.54 12.7 0 1 279.22 579.11   L 26.54 459.05   Q 26.08 458.83 26.08 458.31   L 25.80 159.08   Q 25.80 158.69 26.15 158.86   Z"
     id="path6" />
  <path
     fill="#f1fdfa"
     d="   M 563.25 159.14   L 563.25 458.20   Q 563.25 458.71 562.78 458.94   L 307.57 580.35   Q 307.00 580.62 307.00 579.99   L 307.00 281.25   A 1.01 1.00 77.5 0 1 307.57 280.34   L 562.97 158.96   Q 563.25 158.83 563.25 159.14   Z"
     id="path7" />
</svg>
