<?xml version="1.0" encoding="UTF-8" standalone="no"?>
<svg
   version="1.1"
   viewBox="0.00 0.00 134.00 134.00"
   id="svg3"
   sodipodi:docname="d.svg"
   inkscape:version="1.3 (0e150ed6c4, 2023-07-21)"
   xmlns:inkscape="http://www.inkscape.org/namespaces/inkscape"
   xmlns:sodipodi="http://sodipodi.sourceforge.net/DTD/sodipodi-0.dtd"
   xmlns="http://www.w3.org/2000/svg"
   xmlns:svg="http://www.w3.org/2000/svg">
  <defs
     id="defs3" />
  <sodipodi:namedview
     id="namedview3"
     pagecolor="#ffffff"
     bordercolor="#000000"
     borderopacity="0.25"
     inkscape:showpageshadow="2"
     inkscape:pageopacity="0.0"
     inkscape:pagecheckerboard="0"
     inkscape:deskcolor="#d1d1d1"
     inkscape:zoom="6.0746269"
     inkscape:cx="67.08231"
     inkscape:cy="67"
     inkscape:window-width="1920"
     inkscape:window-height="1010"
     inkscape:window-x="1913"
     inkscape:window-y="-6"
     inkscape:window-maximized="1"
     inkscape:current-layer="svg3" />
  <path
     fill="#004124"
     d="   M 64.30 0.00   L 70.06 0.00   C 105.42 2.70 132.07 28.87 134.00 64.33   L 134.00 69.58   C 131.80 104.82 105.49 131.71 70.17 134.00   L 63.69 134.00   C 28.78 131.33 2.39 105.42 0.00 70.42   L 0.00 63.47   C 2.44 28.29 29.22 2.31 64.30 0.00   Z   M 128.00 67.00   A 61.00 61.00 0.0 0 0 67.00 6.00   A 61.00 61.00 0.0 0 0 6.00 67.00   A 61.00 61.00 0.0 0 0 67.00 128.00   A 61.00 61.00 0.0 0 0 128.00 67.00   Z"
     id="path1"
     style="fill:#00a86b;fill-opacity:1" />
  <path
     fill="#004124"
     d="   M 44.47 53.01   L 39.78 52.99   A 0.53 0.53 0.0 0 1 39.25 52.46   L 39.25 45.78   A 0.53 0.53 0.0 0 1 39.78 45.25   L 52.97 45.25   A 0.53 0.53 0.0 0 1 53.50 45.78   L 53.50 88.46   A 0.53 0.53 0.0 0 1 52.97 88.99   L 45.53 89.00   A 0.53 0.53 0.0 0 1 45.00 88.47   L 45.00 53.54   A 0.53 0.53 0.0 0 0 44.47 53.01   Z"
     id="path2"
     style="fill:#333333;fill-opacity:1" />
  <path
     fill="#004124"
     d="   M 72.25 52.95   L 72.25 61.76   Q 72.25 62.59 72.91 62.08   C 80.90 55.86 91.26 60.01 93.78 68.95   C 99.96 90.81 68.30 96.72 63.75 77.67   Q 63.53 76.75 64.47 76.75   L 71.24 76.75   Q 71.73 76.75 71.93 77.20   C 73.71 81.22 78.08 83.05 82.07 81.30   C 88.56 78.45 87.99 66.06 79.06 66.19   Q 74.83 66.25 72.57 70.40   A 0.67 0.67 0.0 0 1 71.98 70.75   L 65.25 70.75   Q 64.50 70.75 64.50 70.00   L 64.50 45.75   A 0.50 0.50 0.0 0 1 65.00 45.25   L 91.00 45.25   Q 91.50 45.25 91.50 45.75   L 91.50 51.88   Q 91.50 52.52 90.87 52.52   L 72.74 52.46   Q 72.25 52.46 72.25 52.95   Z"
     id="path3"
     style="fill:#333333;fill-opacity:1" />
</svg>
