<?xml version="1.0" encoding="UTF-8" standalone="no"?>
<svg
   version="1.1"
   viewBox="0.00 0.00 150.00 150.00"
   id="svg2"
   sodipodi:docname="24.svg"
   inkscape:version="1.3 (0e150ed6c4, 2023-07-21)"
   xmlns:inkscape="http://www.inkscape.org/namespaces/inkscape"
   xmlns:sodipodi="http://sodipodi.sourceforge.net/DTD/sodipodi-0.dtd"
   xmlns="http://www.w3.org/2000/svg"
   xmlns:svg="http://www.w3.org/2000/svg">
  <defs
     id="defs2" />
  <sodipodi:namedview
     id="namedview2"
     pagecolor="#ffffff"
     bordercolor="#000000"
     borderopacity="0.25"
     inkscape:showpageshadow="2"
     inkscape:pageopacity="0.0"
     inkscape:pagecheckerboard="0"
     inkscape:deskcolor="#d1d1d1"
     inkscape:zoom="5.4266667"
     inkscape:cx="74.907862"
     inkscape:cy="75"
     inkscape:window-width="1920"
     inkscape:window-height="1010"
     inkscape:window-x="1913"
     inkscape:window-y="-6"
     inkscape:window-maximized="1"
     inkscape:current-layer="svg2" />
  <path
     fill="#094065"
     d="   M 0.00 0.00   L 150.00 0.00   L 150.00 150.00   L 0.00 150.00   L 0.00 0.00   Z   M 140.75 9.51   A 0.26 0.26 0.0 0 0 140.49 9.25   L 9.51 9.25   A 0.26 0.26 0.0 0 0 9.25 9.51   L 9.25 140.49   A 0.26 0.26 0.0 0 0 9.51 140.75   L 140.49 140.75   A 0.26 0.26 0.0 0 0 140.75 140.49   L 140.75 9.51   Z"
     id="path1"
     style="fill:#333333;fill-opacity:1" />
  <path
     fill="#ff8811"
     d="   M 25.23 77.00   L 16.49 77.00   Q 15.88 77.00 15.77 76.39   Q 15.58 75.25 15.87 74.70   Q 16.13 74.23 17.26 74.24   Q 21.20 74.26 25.12 74.33   Q 25.64 74.34 25.68 73.81   C 27.56 49.33 44.86 28.99 69.77 26.62   C 98.43 23.91 122.91 45.02 124.26 73.77   Q 124.28 74.25 124.76 74.25   L 133.58 74.25   Q 134.21 74.25 134.23 74.89   L 134.26 76.36   Q 134.27 77.00 133.63 77.00   L 125.00 77.00   Q 124.37 77.00 124.32 77.63   C 122.16 104.17 101.87 125.46 74.75 125.00   C 48.07 124.55 27.00 104.14 25.75 77.50   Q 25.73 77.00 25.23 77.00   Z   M 102.56 41.44   C 75.67 20.34 38.27 35.04 31.56 68.14   Q 31.01 70.84 31.06 73.58   Q 31.07 74.25 31.74 74.25   L 118.49 74.25   Q 118.95 74.25 118.92 73.79   Q 117.81 53.40 102.56 41.44   Z   M 62.47 117.71   C 89.58 126.20 117.96 106.06 118.94 77.47   Q 118.95 77.00 118.49 77.00   L 31.51 77.00   Q 31.00 77.00 31.02 77.50   C 31.67 96.71 44.56 112.11 62.47 117.71   Z"
     id="path2"
     style="fill:#00784c;fill-opacity:1" />
</svg>
