<?xml version="1.0" encoding="UTF-8" standalone="no"?>
<svg
   version="1.1"
   viewBox="0.00 0.00 949.00 949.00"
   id="svg7"
   sodipodi:docname="a.svg"
   inkscape:version="1.3 (0e150ed6c4, 2023-07-21)"
   xmlns:inkscape="http://www.inkscape.org/namespaces/inkscape"
   xmlns:sodipodi="http://sodipodi.sourceforge.net/DTD/sodipodi-0.dtd"
   xmlns="http://www.w3.org/2000/svg"
   xmlns:svg="http://www.w3.org/2000/svg">
  <defs
     id="defs7" />
  <sodipodi:namedview
     id="namedview7"
     pagecolor="#ffffff"
     bordercolor="#000000"
     borderopacity="0.25"
     inkscape:showpageshadow="2"
     inkscape:pageopacity="0.0"
     inkscape:pagecheckerboard="0"
     inkscape:deskcolor="#d1d1d1"
     inkscape:zoom="0.85774499"
     inkscape:cx="473.91708"
     inkscape:cy="474.5"
     inkscape:window-width="1920"
     inkscape:window-height="1010"
     inkscape:window-x="1913"
     inkscape:window-y="-6"
     inkscape:window-maximized="1"
     inkscape:current-layer="svg7" />
  <g
     stroke-width="2.00"
     fill="none"
     stroke-linecap="butt"
     id="g3">
    <path
       stroke="#18764f"
       vector-effect="non-scaling-stroke"
       d="   M 409.63 441.34   C 319.20 356.66 228.80 271.83 137.95 187.54   C 136.10 185.82 134.88 186.34 133.41 188.14   C 74.34 260.33 36.79 347.79 30.83 440.56   Q 30.68 442.96 30.77 444.95   A 1.27 1.26 -0.2 0 0 32.00 446.16   L 402.75 459.54   A 2.95 2.94 -79.0 0 0 405.63 457.59   L 410.37 444.39   A 2.86 2.86 0.0 0 0 409.63 441.34"
       id="path1" />
    <path
       stroke="#18764f"
       vector-effect="non-scaling-stroke"
       d="   M 396.17 488.56   C 277.01 483.67 157.75 479.83 38.57 475.64   C 34.64 475.50 29.03 473.82 29.15 479.56   Q 32.09 626.84 119.97 743.56   A 1.97 1.96 51.6 0 0 122.79 743.89   Q 262.61 627.98 402.45 511.94   Q 407.03 508.13 408.20 506.25   C 411.44 501.01 409.32 493.30 404.03 490.25   Q 401.47 488.78 396.17 488.56"
       id="path2" />
    <path
       stroke="#18764f"
       vector-effect="non-scaling-stroke"
       d="   M 141.47 770.02   C 204.75 836.82 281.10 886.07 371.09 908.00   A 1.26 1.25 12.3 0 0 372.62 907.02   L 443.60 541.22   A 3.53 3.52 22.2 0 0 442.07 537.60   L 430.37 529.94   Q 428.10 528.46 426.01 530.19   Q 283.98 647.88 143.21 764.59   C 141.15 766.29 139.15 767.58 141.47 770.02"
       id="path3" />
  </g>
  <path
     fill="#303030"
     d="   M 458.82 0.00   L 494.03 0.00   C 661.72 11.94 811.84 100.53 892.55 249.95   C 927.20 314.11 946.01 387.07 949.00 460.11   L 949.00 489.55   C 943.16 586.86 911.69 680.88 853.36 759.09   C 766.25 875.91 633.19 943.29 487.64 949.00   L 462.45 949.00   C 342.85 942.61 228.89 897.21 142.81 813.44   C 54.96 727.95 5.55 612.82 0.00 489.92   L 0.00 459.20   C 12.91 218.78 188.25 26.71 430.51 2.34   Q 444.63 0.92 458.82 0.00   Z   M 475.55 403.09   L 493.80 406.40   A 2.40 2.39 21.0 0 0 496.28 405.30   L 692.40 88.71   A 1.71 1.71 0.0 0 0 691.78 86.32   Q 563.95 14.65 417.38 33.12   A 1.42 1.41 81.7 0 0 416.17 34.75   L 474.79 402.32   A 0.95 0.94 0.5 0 0 475.55 403.09   Z   M 158.53 166.62   Q 293.11 292.59 427.73 418.16   A 2.87 2.86 -39.9 0 0 431.24 418.47   L 444.09 410.13   A 3.95 3.93 -21.1 0 0 445.84 406.20   Q 416.59 223.02 387.48 41.00   C 387.09 38.58 385.53 37.52 383.06 38.08   Q 251.74 68.06 156.39 162.77   Q 156.01 163.14 156.07 163.66   C 156.23 165.18 157.71 165.84 158.53 166.62   Z   M 533.34 433.63   Q 534.64 434.79 537.24 433.98   Q 714.09 379.08 890.85 324.19   Q 893.21 323.46 892.34 321.15   C 859.07 232.55 800.29 157.19 721.26 103.98   C 719.14 102.55 718.11 102.90 716.78 105.05   Q 619.24 262.41 522.06 419.22   A 2.92 2.91 40.2 0 0 522.35 422.67   Q 527.34 428.31 533.34 433.63   Z   M 409.63 441.34   C 319.20 356.66 228.80 271.83 137.95 187.54   C 136.10 185.82 134.88 186.34 133.41 188.14   C 74.34 260.33 36.79 347.79 30.83 440.56   Q 30.68 442.96 30.77 444.95   A 1.27 1.26 -0.2 0 0 32.00 446.16   L 402.75 459.54   A 2.95 2.94 -79.0 0 0 405.63 457.59   L 410.37 444.39   A 2.86 2.86 0.0 0 0 409.63 441.34   Z   M 546.91 480.11   Q 550.35 481.98 553.92 483.45   Q 721.45 552.50 888.93 621.69   C 894.63 624.05 895.57 621.35 897.06 616.71   Q 938.76 486.18 903.57 353.26   A 2.03 2.02 -16.0 0 0 901.01 351.85   Q 725.21 406.41 549.16 461.06   C 545.77 462.11 544.61 461.90 544.75 465.74   Q 544.99 472.20 545.72 478.37   A 2.31 2.29 -79.6 0 0 546.91 480.11   Z   M 396.17 488.56   C 277.01 483.67 157.75 479.83 38.57 475.64   C 34.64 475.50 29.03 473.82 29.15 479.56   Q 32.09 626.84 119.97 743.56   A 1.97 1.96 51.6 0 0 122.79 743.89   Q 262.61 627.98 402.45 511.94   Q 407.03 508.13 408.20 506.25   C 411.44 501.01 409.32 493.30 404.03 490.25   Q 401.47 488.78 396.17 488.56   Z   M 703.02 852.08   C 705.00 855.80 707.14 854.37 709.76 852.73   Q 826.29 779.35 882.42 653.47   Q 883.78 650.43 881.17 649.35   Q 713.72 580.15 546.27 510.96   C 539.06 507.98 531.12 509.48 528.84 517.48   C 527.02 523.85 529.81 527.31 533.63 534.48   Q 618.20 693.35 703.02 852.08   Z   M 141.47 770.02   C 204.75 836.82 281.10 886.07 371.09 908.00   A 1.26 1.25 12.3 0 0 372.62 907.02   L 443.60 541.22   A 3.53 3.52 22.2 0 0 442.07 537.60   L 430.37 529.94   Q 428.10 528.46 426.01 530.19   Q 283.98 647.88 143.21 764.59   C 141.15 766.29 139.15 767.58 141.47 770.02   Z   M 401.61 914.21   Q 448.63 921.37 495.82 919.55   C 555.20 917.26 614.19 901.81 667.64 876.07   C 670.12 874.88 674.29 873.32 677.13 871.46   A 3.75 3.75 0.0 0 0 678.39 866.57   Q 592.22 704.49 506.23 542.69   C 504.34 539.13 502.46 540.01 499.18 540.68   Q 486.43 543.28 474.10 545.93   A 3.24 3.23 89.5 0 0 471.61 548.47   Q 437.29 725.66 402.83 903.55   C 402.15 907.07 401.31 910.29 401.34 913.89   A 0.32 0.32 0.0 0 0 401.61 914.21   Z"
     id="path4" />
  <path
     fill="#00bb6e"
     d="   M 137.95 187.54   C 228.80 271.83 319.20 356.66 409.63 441.34   A 2.86 2.86 0.0 0 1 410.37 444.39   L 405.63 457.59   A 2.95 2.94 -79.0 0 1 402.75 459.54   L 32.00 446.16   A 1.27 1.26 -0.2 0 1 30.77 444.95   Q 30.68 442.96 30.83 440.56   C 36.79 347.79 74.34 260.33 133.41 188.14   C 134.88 186.34 136.10 185.82 137.95 187.54   Z"
     id="path5"
     style="fill:#00a86b;fill-opacity:1" />
  <path
     fill="#00bb6e"
     d="   M 38.57 475.64   C 157.75 479.83 277.01 483.67 396.17 488.56   Q 401.47 488.78 404.03 490.25   C 409.32 493.30 411.44 501.01 408.20 506.25   Q 407.03 508.13 402.45 511.94   Q 262.61 627.98 122.79 743.89   A 1.97 1.96 51.6 0 1 119.97 743.56   Q 32.09 626.84 29.15 479.56   C 29.03 473.82 34.64 475.50 38.57 475.64   Z"
     id="path6"
     style="fill:#00a86b;fill-opacity:1" />
  <path
     fill="#00bb6e"
     d="   M 371.09 908.00   C 281.10 886.07 204.75 836.82 141.47 770.02   C 139.15 767.58 141.15 766.29 143.21 764.59   Q 283.98 647.88 426.01 530.19   Q 428.10 528.46 430.37 529.94   L 442.07 537.60   A 3.53 3.52 22.2 0 1 443.60 541.22   L 372.62 907.02   A 1.26 1.25 12.3 0 1 371.09 908.00   Z"
     id="path7"
     style="fill:#00a86b;fill-opacity:1" />
</svg>
