<?xml version="1.0" encoding="UTF-8" standalone="no"?>
<svg
   version="1.1"
   viewBox="0.00 0.00 1000.00 1000.00"
   id="svg7"
   sodipodi:docname="a.svg"
   inkscape:version="1.3 (0e150ed6c4, 2023-07-21)"
   xmlns:inkscape="http://www.inkscape.org/namespaces/inkscape"
   xmlns:sodipodi="http://sodipodi.sourceforge.net/DTD/sodipodi-0.dtd"
   xmlns="http://www.w3.org/2000/svg"
   xmlns:svg="http://www.w3.org/2000/svg">
  <defs
     id="defs7" />
  <sodipodi:namedview
     id="namedview7"
     pagecolor="#ffffff"
     bordercolor="#000000"
     borderopacity="0.25"
     inkscape:showpageshadow="2"
     inkscape:pageopacity="0.0"
     inkscape:pagecheckerboard="0"
     inkscape:deskcolor="#d1d1d1"
     inkscape:zoom="0.814"
     inkscape:cx="500.61425"
     inkscape:cy="500"
     inkscape:window-width="1920"
     inkscape:window-height="1010"
     inkscape:window-x="1913"
     inkscape:window-y="-6"
     inkscape:window-maximized="1"
     inkscape:current-layer="svg7" />
  <g
     stroke-width="2.00"
     fill="none"
     stroke-linecap="butt"
     id="g3">
    <path
       stroke="#6b4894"
       vector-effect="non-scaling-stroke"
       d="   M 127.64 261.15   C 250.99 332.14 374.45 403.26 497.70 474.12   A 3.13 3.12 44.8 0 0 500.83 474.11   L 871.02 260.28   A 2.92 2.91 44.9 0 0 871.01 255.23   L 499.72 41.45   A 1.80 1.79 44.6 0 0 497.93 41.46   Q 312.39 148.70 127.15 255.97   C 124.81 257.33 125.65 260.01 127.64 261.15"
       id="path1" />
    <path
       stroke="#96312f"
       vector-effect="non-scaling-stroke"
       d="   M 520.64 940.21   C 520.43 942.51 522.16 943.69 524.24 942.49   Q 709.94 835.29 895.61 728.02   A 1.77 1.76 -15.0 0 0 896.50 726.49   L 896.50 298.19   A 2.21 2.21 0.0 0 0 893.19 296.28   L 522.53 510.26   Q 520.51 511.43 520.51 513.76   Q 520.48 714.70 520.51 914.16   C 520.51 921.29 521.42 931.75 520.64 940.21"
       id="path2" />
    <path
       stroke="#968216"
       vector-effect="non-scaling-stroke"
       d="   M 103.04 727.42   A 2.36 2.36 0.0 0 0 104.22 729.46   L 475.21 942.99   A 2.36 2.36 0.0 0 0 478.75 940.95   L 478.75 513.11   A 2.36 2.36 0.0 0 0 477.57 511.07   L 105.92 297.07   A 2.36 2.36 0.0 0 0 102.39 299.12   L 103.04 727.42"
       id="path3" />
  </g>
  <path
     fill="#2c2c2c"
     d="   M 491.81 995.87   C 353.07 916.61 214.58 836.88 76.38 756.67   C 67.78 751.68 64.30 747.44 64.29 737.44   Q 64.06 497.47 64.85 257.50   C 64.88 250.42 67.31 246.82 73.54 243.22   Q 280.54 123.58 487.67 4.15   C 497.30 -1.41 505.34 1.69 515.11 7.30   C 651.89 85.85 788.56 164.62 925.37 243.14   Q 928.45 244.91 930.01 247.13   Q 933.74 252.48 933.74 258.56   Q 933.64 496.41 934.61 734.25   C 934.67 747.26 927.35 753.58 916.71 759.72   Q 711.45 878.21 506.20 996.71   C 500.79 999.83 497.31 999.01 491.81 995.87   Z   M 127.64 261.15   C 250.99 332.14 374.45 403.26 497.70 474.12   A 3.13 3.12 44.8 0 0 500.83 474.11   L 871.02 260.28   A 2.92 2.91 44.9 0 0 871.01 255.23   L 499.72 41.45   A 1.80 1.79 44.6 0 0 497.93 41.46   Q 312.39 148.70 127.15 255.97   C 124.81 257.33 125.65 260.01 127.64 261.15   Z   M 520.64 940.21   C 520.43 942.51 522.16 943.69 524.24 942.49   Q 709.94 835.29 895.61 728.02   A 1.77 1.76 -15.0 0 0 896.50 726.49   L 896.50 298.19   A 2.21 2.21 0.0 0 0 893.19 296.28   L 522.53 510.26   Q 520.51 511.43 520.51 513.76   Q 520.48 714.70 520.51 914.16   C 520.51 921.29 521.42 931.75 520.64 940.21   Z   M 103.04 727.42   A 2.36 2.36 0.0 0 0 104.22 729.46   L 475.21 942.99   A 2.36 2.36 0.0 0 0 478.75 940.95   L 478.75 513.11   A 2.36 2.36 0.0 0 0 477.57 511.07   L 105.92 297.07   A 2.36 2.36 0.0 0 0 102.39 299.12   L 103.04 727.42   Z"
     id="path4" />
  <path
     fill="#aa64fb"
     d="   M 497.70 474.12   C 374.45 403.26 250.99 332.14 127.64 261.15   C 125.65 260.01 124.81 257.33 127.15 255.97   Q 312.39 148.70 497.93 41.46   A 1.80 1.79 44.6 0 1 499.72 41.45   L 871.01 255.23   A 2.92 2.91 44.9 0 1 871.02 260.28   L 500.83 474.11   A 3.13 3.12 44.8 0 1 497.70 474.12   Z"
     id="path5"
     style="fill:#bebebe;fill-opacity:1" />
  <path
     fill="#ff3632"
     d="   M 524.24 942.49   C 522.16 943.69 520.43 942.51 520.64 940.21   C 521.42 931.75 520.51 921.29 520.51 914.16   Q 520.48 714.70 520.51 513.76   Q 520.51 511.43 522.53 510.26   L 893.19 296.28   A 2.21 2.21 0.0 0 1 896.50 298.19   L 896.50 726.49   A 1.77 1.76 -15.0 0 1 895.61 728.02   Q 709.94 835.29 524.24 942.49   Z"
     id="path6" />
  <path
     fill="#ffd700"
     d="   M 103.04 727.42   L 102.39 299.12   A 2.36 2.36 0.0 0 1 105.92 297.07   L 477.57 511.07   A 2.36 2.36 0.0 0 1 478.75 513.11   L 478.75 940.95   A 2.36 2.36 0.0 0 1 475.21 942.99   L 104.22 729.46   A 2.36 2.36 0.0 0 1 103.04 727.42   Z"
     id="path7" />
</svg>
