<?xml version="1.0" encoding="UTF-8" standalone="no"?>
<!DOCTYPE svg PUBLIC "-//W3C//DTD SVG 1.1//EN" "http://www.w3.org/Graphics/SVG/1.1/DTD/svg11.dtd">
<svg xmlns="http://www.w3.org/2000/svg" version="1.1" viewBox="0.00 0.00 228.00 228.00">
<g stroke-width="2.00" fill="none" stroke-linecap="butt">
<path stroke="#9ca5a0" vector-effect="non-scaling-stroke" d="
  M 167.42 100.68
  C 165.86 87.18 159.61 72.84 144.75 69.76
  C 135.89 67.93 125.00 68.53 117.42 73.79
  C 98.66 86.82 99.12 135.88 114.66 150.55
  C 124.57 159.91 144.60 160.25 155.14 152.01
  C 168.73 141.39 169.18 115.92 167.42 100.68"
/>
<path stroke="#9ca5a0" vector-effect="non-scaling-stroke" d="
  M 57.25 85.68
  A 0.32 0.32 0.0 0 0 57.57 86.00
  L 68.68 86.00
  A 0.32 0.32 0.0 0 1 69.00 86.32
  L 69.00 157.68
  A 0.32 0.32 0.0 0 0 69.32 158.00
  L 85.96 158.00
  A 0.32 0.32 0.0 0 0 86.28 157.68
  L 86.27 70.82
  A 0.32 0.32 0.0 0 0 85.95 70.50
  L 57.57 70.50
  A 0.32 0.32 0.0 0 0 57.25 70.82
  L 57.25 85.68"
/>
<path stroke="#9ca5a0" vector-effect="non-scaling-stroke" d="
  M 150.16 97.57
  C 147.18 79.82 124.05 80.36 121.17 97.58
  C 119.55 107.22 118.42 127.98 124.15 136.32
  C 130.90 146.17 147.16 142.97 149.74 131.23
  Q 153.18 115.58 150.16 97.57"
/>
</g>
<path fill="#394b41" d="
  M 109.82 0.00
  L 118.54 0.00
  C 179.12 3.35 224.71 49.58 228.00 110.05
  L 228.00 116.56
  C 225.82 178.03 178.95 224.82 117.69 228.00
  L 109.47 228.00
  C 48.64 224.82 3.84 178.59 0.00 117.97
  L 0.00 110.17
  C 3.22 49.55 49.07 3.13 109.82 0.00
  Z
  M 167.42 100.68
  C 165.86 87.18 159.61 72.84 144.75 69.76
  C 135.89 67.93 125.00 68.53 117.42 73.79
  C 98.66 86.82 99.12 135.88 114.66 150.55
  C 124.57 159.91 144.60 160.25 155.14 152.01
  C 168.73 141.39 169.18 115.92 167.42 100.68
  Z
  M 57.25 85.68
  A 0.32 0.32 0.0 0 0 57.57 86.00
  L 68.68 86.00
  A 0.32 0.32 0.0 0 1 69.00 86.32
  L 69.00 157.68
  A 0.32 0.32 0.0 0 0 69.32 158.00
  L 85.96 158.00
  A 0.32 0.32 0.0 0 0 86.28 157.68
  L 86.27 70.82
  A 0.32 0.32 0.0 0 0 85.95 70.50
  L 57.57 70.50
  A 0.32 0.32 0.0 0 0 57.25 70.82
  L 57.25 85.68
  Z"
/>
<path fill="#ffffff" d="
  M 144.75 69.76
  C 159.61 72.84 165.86 87.18 167.42 100.68
  C 169.18 115.92 168.73 141.39 155.14 152.01
  C 144.60 160.25 124.57 159.91 114.66 150.55
  C 99.12 135.88 98.66 86.82 117.42 73.79
  C 125.00 68.53 135.89 67.93 144.75 69.76
  Z
  M 150.16 97.57
  C 147.18 79.82 124.05 80.36 121.17 97.58
  C 119.55 107.22 118.42 127.98 124.15 136.32
  C 130.90 146.17 147.16 142.97 149.74 131.23
  Q 153.18 115.58 150.16 97.57
  Z"
/>
<path fill="#ffffff" d="
  M 57.25 85.68
  L 57.25 70.82
  A 0.32 0.32 0.0 0 1 57.57 70.50
  L 85.95 70.50
  A 0.32 0.32 0.0 0 1 86.27 70.82
  L 86.28 157.68
  A 0.32 0.32 0.0 0 1 85.96 158.00
  L 69.32 158.00
  A 0.32 0.32 0.0 0 1 69.00 157.68
  L 69.00 86.32
  A 0.32 0.32 0.0 0 0 68.68 86.00
  L 57.57 86.00
  A 0.32 0.32 0.0 0 1 57.25 85.68
  Z"
/>
<path fill="#394b41" d="
  M 121.17 97.58
  C 124.05 80.36 147.18 79.82 150.16 97.57
  Q 153.18 115.58 149.74 131.23
  C 147.16 142.97 130.90 146.17 124.15 136.32
  C 118.42 127.98 119.55 107.22 121.17 97.58
  Z"
/>
</svg>
