<?xml version="1.0" encoding="UTF-8" standalone="no"?>
<!DOCTYPE svg PUBLIC "-//W3C//DTD SVG 1.1//EN" "http://www.w3.org/Graphics/SVG/1.1/DTD/svg11.dtd">
<svg xmlns="http://www.w3.org/2000/svg" version="1.1" viewBox="0.00 0.00 228.00 228.00">
<g stroke-width="2.00" fill="none" stroke-linecap="butt">
<path stroke="#9ca5a0" vector-effect="non-scaling-stroke" d="
  M 131.04 142.33
  C 141.93 132.80 152.93 123.96 159.73 110.89
  C 167.27 96.37 164.66 75.78 147.00 70.24
  C 126.74 63.89 106.42 74.59 106.45 97.44
  Q 106.46 98.00 107.01 98.00
  L 122.02 98.00
  Q 122.67 98.00 122.70 97.36
  C 123.12 88.81 127.27 82.27 136.74 83.05
  C 149.12 84.06 148.23 99.14 143.79 107.06
  Q 139.32 115.06 130.86 122.86
  Q 119.08 133.72 106.64 143.94
  A 1.08 1.06 70.6 0 0 106.25 144.77
  L 106.25 156.25
  Q 106.25 156.75 106.75 156.75
  L 165.25 156.75
  Q 165.75 156.75 165.75 156.25
  L 165.75 144.15
  Q 165.75 142.79 164.40 142.80
  L 131.30 143.02
  Q 130.24 143.03 131.04 142.33"
/>
<path stroke="#9ca5a0" vector-effect="non-scaling-stroke" d="
  M 62.25 85.67
  A 0.33 0.33 0.0 0 0 62.58 86.00
  L 73.61 86.00
  A 0.33 0.33 0.0 0 1 73.94 86.33
  L 73.97 157.67
  A 0.33 0.33 0.0 0 0 74.30 158.00
  L 90.92 158.00
  A 0.33 0.33 0.0 0 0 91.25 157.67
  L 91.25 70.83
  A 0.33 0.33 0.0 0 0 90.92 70.50
  L 62.58 70.50
  A 0.33 0.33 0.0 0 0 62.25 70.83
  L 62.25 85.67"
/>
</g>
<path fill="#394b41" d="
  M 109.82 0.00
  L 118.54 0.00
  C 179.12 3.35 224.71 49.58 228.00 110.05
  L 228.00 116.56
  C 225.82 178.03 178.95 224.82 117.69 228.00
  L 109.47 228.00
  C 48.64 224.82 3.84 178.59 0.00 117.97
  L 0.00 110.17
  C 3.22 49.55 49.07 3.13 109.82 0.00
  Z
  M 131.04 142.33
  C 141.93 132.80 152.93 123.96 159.73 110.89
  C 167.27 96.37 164.66 75.78 147.00 70.24
  C 126.74 63.89 106.42 74.59 106.45 97.44
  Q 106.46 98.00 107.01 98.00
  L 122.02 98.00
  Q 122.67 98.00 122.70 97.36
  C 123.12 88.81 127.27 82.27 136.74 83.05
  C 149.12 84.06 148.23 99.14 143.79 107.06
  Q 139.32 115.06 130.86 122.86
  Q 119.08 133.72 106.64 143.94
  A 1.08 1.06 70.6 0 0 106.25 144.77
  L 106.25 156.25
  Q 106.25 156.75 106.75 156.75
  L 165.25 156.75
  Q 165.75 156.75 165.75 156.25
  L 165.75 144.15
  Q 165.75 142.79 164.40 142.80
  L 131.30 143.02
  Q 130.24 143.03 131.04 142.33
  Z
  M 62.25 85.67
  A 0.33 0.33 0.0 0 0 62.58 86.00
  L 73.61 86.00
  A 0.33 0.33 0.0 0 1 73.94 86.33
  L 73.97 157.67
  A 0.33 0.33 0.0 0 0 74.30 158.00
  L 90.92 158.00
  A 0.33 0.33 0.0 0 0 91.25 157.67
  L 91.25 70.83
  A 0.33 0.33 0.0 0 0 90.92 70.50
  L 62.58 70.50
  A 0.33 0.33 0.0 0 0 62.25 70.83
  L 62.25 85.67
  Z"
/>
<path fill="#ffffff" d="
  M 131.30 143.02
  L 164.40 142.80
  Q 165.75 142.79 165.75 144.15
  L 165.75 156.25
  Q 165.75 156.75 165.25 156.75
  L 106.75 156.75
  Q 106.25 156.75 106.25 156.25
  L 106.25 144.77
  A 1.08 1.06 70.6 0 1 106.64 143.94
  Q 119.08 133.72 130.86 122.86
  Q 139.32 115.06 143.79 107.06
  C 148.23 99.14 149.12 84.06 136.74 83.05
  C 127.27 82.27 123.12 88.81 122.70 97.36
  Q 122.67 98.00 122.02 98.00
  L 107.01 98.00
  Q 106.46 98.00 106.45 97.44
  C 106.42 74.59 126.74 63.89 147.00 70.24
  C 164.66 75.78 167.27 96.37 159.73 110.89
  C 152.93 123.96 141.93 132.80 131.04 142.33
  Q 130.24 143.03 131.30 143.02
  Z"
/>
<path fill="#ffffff" d="
  M 62.25 85.67
  L 62.25 70.83
  A 0.33 0.33 0.0 0 1 62.58 70.50
  L 90.92 70.50
  A 0.33 0.33 0.0 0 1 91.25 70.83
  L 91.25 157.67
  A 0.33 0.33 0.0 0 1 90.92 158.00
  L 74.30 158.00
  A 0.33 0.33 0.0 0 1 73.97 157.67
  L 73.94 86.33
  A 0.33 0.33 0.0 0 0 73.61 86.00
  L 62.58 86.00
  A 0.33 0.33 0.0 0 1 62.25 85.67
  Z"
/>
</svg>
