<?xml version="1.0" encoding="UTF-8" standalone="no"?>
<!DOCTYPE svg PUBLIC "-//W3C//DTD SVG 1.1//EN" "http://www.w3.org/Graphics/SVG/1.1/DTD/svg11.dtd">
<svg xmlns="http://www.w3.org/2000/svg" version="1.1" viewBox="0.00 0.00 1448.00 1448.00">
<path stroke="#186d4c" stroke-width="2.00" fill="none" stroke-linecap="butt" vector-effect="non-scaling-stroke" d="
  M 983.58 93.39
  Q 981.44 92.40 979.29 91.51
  C 944.10 77.04 907.26 64.78 870.06 56.69
  Q 817.69 45.29 764.08 42.19
  A 0.54 0.54 0.0 0 0 763.52 42.84
  C 764.09 45.60 764.75 48.00 764.75 50.64
  Q 764.75 383.86 764.75 717.08
  Q 764.75 721.44 763.73 725.68
  C 762.45 731.02 761.63 738.14 758.58 742.72
  C 753.23 750.76 749.78 754.21 741.69 759.36
  Q 739.11 761.00 735.94 761.72
  C 729.42 763.20 723.04 765.25 716.29 765.25
  Q 382.73 765.25 49.16 765.25
  C 47.46 765.25 45.53 764.71 43.68 764.55
  Q 43.04 764.50 43.07 765.14
  Q 45.81 820.63 57.17 874.91
  Q 59.21 884.65 61.84 894.35
  Q 95.11 1016.99 168.47 1120.58
  Q 174.23 1128.72 180.40 1136.63
  Q 240.55 1213.88 318.78 1272.75
  Q 326.78 1278.76 335.02 1284.40
  Q 431.16 1350.12 543.32 1382.65
  Q 562.57 1388.23 574.31 1390.69
  Q 715.15 1420.11 856.75 1394.23
  Q 877.11 1390.51 891.01 1386.77
  Q 1005.03 1356.10 1103.14 1291.02
  Q 1111.48 1285.49 1119.55 1279.58
  Q 1202.54 1218.82 1265.38 1137.39
  Q 1271.47 1129.50 1277.24 1121.29
  Q 1348.79 1019.57 1383.02 899.86
  Q 1385.83 890.04 1388.12 880.53
  C 1412.67 778.72 1412.26 671.97 1388.81 569.98
  Q 1386.60 560.35 1383.88 550.60
  Q 1351.85 435.46 1285.32 336.33
  Q 1279.72 327.99 1273.78 320.01
  Q 1210.76 235.35 1126.00 172.47
  C 1082.89 140.48 1033.39 114.05 983.90 93.39
  Q 983.88 93.38 983.71 93.42
  Q 983.66 93.43 983.58 93.39"
/>
<path fill="#303030" d="
  M 722.82 0.00
  L 748.56 0.00
  Q 776.23 0.87 800.18 3.62
  C 936.90 19.32 1070.46 73.25 1177.40 159.92
  C 1333.14 286.15 1427.90 468.26 1445.69 667.77
  C 1446.93 681.70 1447.42 696.63 1448.00 711.06
  L 1448.00 741.56
  Q 1447.20 772.54 1443.43 803.23
  C 1417.62 1013.40 1305.32 1200.86 1131.47 1321.59
  C 1014.30 1402.96 875.93 1445.49 732.94 1448.00
  L 716.20 1448.00
  C 597.59 1446.11 481.76 1416.38 378.04 1359.41
  C 186.52 1254.23 49.17 1068.06 11.32 851.99
  C -9.07 735.60 0.80 615.43 36.84 503.03
  C 75.86 381.31 145.23 271.30 240.56 186.19
  C 374.62 66.51 543.54 4.45 722.82 0.00
  Z
  M 983.58 93.39
  Q 981.44 92.40 979.29 91.51
  C 944.10 77.04 907.26 64.78 870.06 56.69
  Q 817.69 45.29 764.08 42.19
  A 0.54 0.54 0.0 0 0 763.52 42.84
  C 764.09 45.60 764.75 48.00 764.75 50.64
  Q 764.75 383.86 764.75 717.08
  Q 764.75 721.44 763.73 725.68
  C 762.45 731.02 761.63 738.14 758.58 742.72
  C 753.23 750.76 749.78 754.21 741.69 759.36
  Q 739.11 761.00 735.94 761.72
  C 729.42 763.20 723.04 765.25 716.29 765.25
  Q 382.73 765.25 49.16 765.25
  C 47.46 765.25 45.53 764.71 43.68 764.55
  Q 43.04 764.50 43.07 765.14
  Q 45.81 820.63 57.17 874.91
  Q 59.21 884.65 61.84 894.35
  Q 95.11 1016.99 168.47 1120.58
  Q 174.23 1128.72 180.40 1136.63
  Q 240.55 1213.88 318.78 1272.75
  Q 326.78 1278.76 335.02 1284.40
  Q 431.16 1350.12 543.32 1382.65
  Q 562.57 1388.23 574.31 1390.69
  Q 715.15 1420.11 856.75 1394.23
  Q 877.11 1390.51 891.01 1386.77
  Q 1005.03 1356.10 1103.14 1291.02
  Q 1111.48 1285.49 1119.55 1279.58
  Q 1202.54 1218.82 1265.38 1137.39
  Q 1271.47 1129.50 1277.24 1121.29
  Q 1348.79 1019.57 1383.02 899.86
  Q 1385.83 890.04 1388.12 880.53
  C 1412.67 778.72 1412.26 671.97 1388.81 569.98
  Q 1386.60 560.35 1383.88 550.60
  Q 1351.85 435.46 1285.32 336.33
  Q 1279.72 327.99 1273.78 320.01
  Q 1210.76 235.35 1126.00 172.47
  C 1082.89 140.48 1033.39 114.05 983.90 93.39
  Q 983.88 93.38 983.71 93.42
  Q 983.66 93.43 983.58 93.39
  Z
  M 46.33 723.29
  A 1.74 1.74 0.0 0 0 47.51 723.75
  L 720.25 723.75
  A 3.00 3.00 0.0 0 0 723.25 720.75
  Q 723.25 384.76 723.25 48.06
  C 723.25 45.42 720.53 44.44 718.09 44.54
  C 596.89 49.33 478.34 82.92 374.51 144.51
  C 168.71 266.58 48.19 482.57 45.34 721.25
  Q 45.33 722.34 46.33 723.29
  Z"
/>
<path fill="#00aa68" d="
  M 983.58 93.39
  Q 983.66 93.43 983.71 93.42
  Q 983.88 93.38 983.90 93.39
  C 1033.39 114.05 1082.89 140.48 1126.00 172.47
  Q 1210.76 235.35 1273.78 320.01
  Q 1279.72 327.99 1285.32 336.33
  Q 1351.85 435.46 1383.88 550.60
  Q 1386.60 560.35 1388.81 569.98
  C 1412.26 671.97 1412.67 778.72 1388.12 880.53
  Q 1385.83 890.04 1383.02 899.86
  Q 1348.79 1019.57 1277.24 1121.29
  Q 1271.47 1129.50 1265.38 1137.39
  Q 1202.54 1218.82 1119.55 1279.58
  Q 1111.48 1285.49 1103.14 1291.02
  Q 1005.03 1356.10 891.01 1386.77
  Q 877.11 1390.51 856.75 1394.23
  Q 715.15 1420.11 574.31 1390.69
  Q 562.57 1388.23 543.32 1382.65
  Q 431.16 1350.12 335.02 1284.40
  Q 326.78 1278.76 318.78 1272.75
  Q 240.55 1213.88 180.40 1136.63
  Q 174.23 1128.72 168.47 1120.58
  Q 95.11 1016.99 61.84 894.35
  Q 59.21 884.65 57.17 874.91
  Q 45.81 820.63 43.07 765.14
  Q 43.04 764.50 43.68 764.55
  C 45.53 764.71 47.46 765.25 49.16 765.25
  Q 382.73 765.25 716.29 765.25
  C 723.04 765.25 729.42 763.20 735.94 761.72
  Q 739.11 761.00 741.69 759.36
  C 749.78 754.21 753.23 750.76 758.58 742.72
  C 761.63 738.14 762.45 731.02 763.73 725.68
  Q 764.75 721.44 764.75 717.08
  Q 764.75 383.86 764.75 50.64
  C 764.75 48.00 764.09 45.60 763.52 42.84
  A 0.54 0.54 0.0 0 1 764.08 42.19
  Q 817.69 45.29 870.06 56.69
  C 907.26 64.78 944.10 77.04 979.29 91.51
  Q 981.44 92.40 983.58 93.39
  Z"
/>
</svg>
