<?xml version="1.0" encoding="UTF-8" standalone="no"?>
<!DOCTYPE svg PUBLIC "-//W3C//DTD SVG 1.1//EN" "http://www.w3.org/Graphics/SVG/1.1/DTD/svg11.dtd">
<svg xmlns="http://www.w3.org/2000/svg" version="1.1" viewBox="0.00 0.00 228.00 228.00">
<g stroke-width="2.00" fill="none" stroke-linecap="butt">
<path stroke="#9ca5a0" vector-effect="non-scaling-stroke" d="
  M 129.27 118.61
  C 129.58 127.68 128.70 142.76 116.78 144.07
  C 109.47 144.88 103.57 141.25 102.00 133.85
  Q 101.87 133.25 101.26 133.25
  L 86.75 133.25
  Q 86.17 133.25 86.23 133.82
  C 88.28 153.43 105.96 161.35 123.69 157.16
  C 138.60 153.63 142.69 138.72 143.76 125.50
  C 145.04 109.67 145.99 82.44 130.54 72.71
  C 122.74 67.80 110.42 67.30 101.51 70.27
  C 86.99 75.12 81.63 90.73 84.48 104.74
  C 88.70 125.57 113.90 132.10 128.94 118.47
  Q 129.26 118.19 129.27 118.61"
/>
<path stroke="#9ca5a0" vector-effect="non-scaling-stroke" d="
  M 127.7356 95.6982
  A 12.57 12.57 0.0 0 0 115.2096 83.0844
  L 112.7296 83.0758
  A 12.57 12.57 0.0 0 0 100.1158 95.6018
  L 100.1044 98.8818
  A 12.57 12.57 0.0 0 0 112.6304 111.4956
  L 115.1104 111.5042
  A 12.57 12.57 0.0 0 0 127.7242 98.9782
  L 127.7356 95.6982"
/>
</g>
<path fill="#394b41" d="
  M 109.82 0.00
  L 118.54 0.00
  C 179.12 3.35 224.71 49.58 228.00 110.05
  L 228.00 116.56
  C 225.82 178.03 178.95 224.82 117.69 228.00
  L 109.47 228.00
  C 48.64 224.82 3.84 178.59 0.00 117.97
  L 0.00 110.17
  C 3.22 49.55 49.07 3.13 109.82 0.00
  Z
  M 129.27 118.61
  C 129.58 127.68 128.70 142.76 116.78 144.07
  C 109.47 144.88 103.57 141.25 102.00 133.85
  Q 101.87 133.25 101.26 133.25
  L 86.75 133.25
  Q 86.17 133.25 86.23 133.82
  C 88.28 153.43 105.96 161.35 123.69 157.16
  C 138.60 153.63 142.69 138.72 143.76 125.50
  C 145.04 109.67 145.99 82.44 130.54 72.71
  C 122.74 67.80 110.42 67.30 101.51 70.27
  C 86.99 75.12 81.63 90.73 84.48 104.74
  C 88.70 125.57 113.90 132.10 128.94 118.47
  Q 129.26 118.19 129.27 118.61
  Z"
/>
<path fill="#ffffff" d="
  M 128.94 118.47
  C 113.90 132.10 88.70 125.57 84.48 104.74
  C 81.63 90.73 86.99 75.12 101.51 70.27
  C 110.42 67.30 122.74 67.80 130.54 72.71
  C 145.99 82.44 145.04 109.67 143.76 125.50
  C 142.69 138.72 138.60 153.63 123.69 157.16
  C 105.96 161.35 88.28 153.43 86.23 133.82
  Q 86.17 133.25 86.75 133.25
  L 101.26 133.25
  Q 101.87 133.25 102.00 133.85
  C 103.57 141.25 109.47 144.88 116.78 144.07
  C 128.70 142.76 129.58 127.68 129.27 118.61
  Q 129.26 118.19 128.94 118.47
  Z
  M 127.7356 95.6982
  A 12.57 12.57 0.0 0 0 115.2096 83.0844
  L 112.7296 83.0758
  A 12.57 12.57 0.0 0 0 100.1158 95.6018
  L 100.1044 98.8818
  A 12.57 12.57 0.0 0 0 112.6304 111.4956
  L 115.1104 111.5042
  A 12.57 12.57 0.0 0 0 127.7242 98.9782
  L 127.7356 95.6982
  Z"
/>
<rect fill="#394b41" x="-13.81" y="-14.21" transform="translate(113.92,97.29) rotate(0.2)" width="27.62" height="28.42" rx="12.57"/>
</svg>
