<?xml version="1.0" encoding="UTF-8" standalone="no"?>
<!DOCTYPE svg PUBLIC "-//W3C//DTD SVG 1.1//EN" "http://www.w3.org/Graphics/SVG/1.1/DTD/svg11.dtd">
<svg xmlns="http://www.w3.org/2000/svg" version="1.1" viewBox="0.00 0.00 1449.00 1447.00">
<path stroke="#186d4c" stroke-width="2.00" fill="none" stroke-linecap="butt" vector-effect="non-scaling-stroke" d="
  M 1188.08 225.04
  C 1106.64 148.56 1006.90 94.64 899.52 64.46
  C 863.05 54.21 825.04 48.00 787.39 44.27
  Q 777.35 43.28 767.46 42.69
  C 693.72 38.34 617.27 45.27 546.02 65.56
  Q 457.29 90.84 378.78 135.82
  C 303.43 178.99 238.12 237.53 184.79 306.05
  C 124.94 382.95 82.53 475.81 59.23 570.25
  C 54.51 589.37 51.21 609.92 48.49 628.75
  C 38.97 694.68 41.28 763.96 50.92 828.92
  C 55.91 862.50 63.39 894.85 73.54 927.24
  Q 74.46 930.18 75.68 933.01
  C 77.30 936.76 77.82 940.86 79.58 944.69
  C 80.77 947.29 81.31 949.71 82.23 952.30
  Q 88.32 969.41 95.74 985.98
  C 97.80 990.59 99.63 996.73 102.31 1002.25
  Q 115.62 1029.80 122.61 1043.19
  C 178.14 1149.48 264.74 1242.43 369.16 1304.60
  Q 454.04 1355.14 548.59 1381.42
  Q 558.28 1384.12 567.98 1386.33
  C 667.45 1409.06 771.46 1410.92 871.41 1390.73
  Q 881.19 1388.76 890.88 1386.21
  C 988.51 1360.48 1081.35 1314.12 1158.85 1248.86
  C 1206.79 1208.49 1251.38 1161.31 1286.36 1109.70
  Q 1353.86 1010.13 1385.56 893.69
  Q 1390.67 874.93 1393.76 858.50
  Q 1417.94 730.11 1396.19 601.10
  C 1380.98 510.91 1343.61 424.74 1293.64 348.39
  C 1263.96 303.06 1227.19 261.77 1188.08 225.04"
/>
<path fill="#303030" d="
  M 711.82 0.00
  L 742.06 0.00
  Q 797.40 1.57 857.00 13.02
  C 971.36 34.99 1077.78 82.16 1168.58 153.71
  Q 1323.01 275.39 1397.65 457.08
  C 1421.94 516.18 1437.21 583.34 1443.73 646.08
  Q 1462.77 829.05 1394.20 996.94
  C 1320.73 1176.83 1172.96 1324.17 991.71 1396.15
  Q 842.62 1455.37 682.82 1444.67
  C 551.06 1435.85 424.77 1393.40 315.57 1319.59
  C 129.96 1194.14 15.09 986.75 2.37 763.57
  C 0.13 724.21 0.30 684.97 4.92 645.77
  C 33.39 403.92 178.11 186.52 397.43 78.51
  C 495.26 30.33 602.82 2.78 711.82 0.00
  Z
  M 1188.08 225.04
  C 1106.64 148.56 1006.90 94.64 899.52 64.46
  C 863.05 54.21 825.04 48.00 787.39 44.27
  Q 777.35 43.28 767.46 42.69
  C 693.72 38.34 617.27 45.27 546.02 65.56
  Q 457.29 90.84 378.78 135.82
  C 303.43 178.99 238.12 237.53 184.79 306.05
  C 124.94 382.95 82.53 475.81 59.23 570.25
  C 54.51 589.37 51.21 609.92 48.49 628.75
  C 38.97 694.68 41.28 763.96 50.92 828.92
  C 55.91 862.50 63.39 894.85 73.54 927.24
  Q 74.46 930.18 75.68 933.01
  C 77.30 936.76 77.82 940.86 79.58 944.69
  C 80.77 947.29 81.31 949.71 82.23 952.30
  Q 88.32 969.41 95.74 985.98
  C 97.80 990.59 99.63 996.73 102.31 1002.25
  Q 115.62 1029.80 122.61 1043.19
  C 178.14 1149.48 264.74 1242.43 369.16 1304.60
  Q 454.04 1355.14 548.59 1381.42
  Q 558.28 1384.12 567.98 1386.33
  C 667.45 1409.06 771.46 1410.92 871.41 1390.73
  Q 881.19 1388.76 890.88 1386.21
  C 988.51 1360.48 1081.35 1314.12 1158.85 1248.86
  C 1206.79 1208.49 1251.38 1161.31 1286.36 1109.70
  Q 1353.86 1010.13 1385.56 893.69
  Q 1390.67 874.93 1393.76 858.50
  Q 1417.94 730.11 1396.19 601.10
  C 1380.98 510.91 1343.61 424.74 1293.64 348.39
  C 1263.96 303.06 1227.19 261.77 1188.08 225.04
  Z"
/>
<path fill="#00aa68" d="
  M 1188.08 225.04
  C 1227.19 261.77 1263.96 303.06 1293.64 348.39
  C 1343.61 424.74 1380.98 510.91 1396.19 601.10
  Q 1417.94 730.11 1393.76 858.50
  Q 1390.67 874.93 1385.56 893.69
  Q 1353.86 1010.13 1286.36 1109.70
  C 1251.38 1161.31 1206.79 1208.49 1158.85 1248.86
  C 1081.35 1314.12 988.51 1360.48 890.88 1386.21
  Q 881.19 1388.76 871.41 1390.73
  C 771.46 1410.92 667.45 1409.06 567.98 1386.33
  Q 558.28 1384.12 548.59 1381.42
  Q 454.04 1355.14 369.16 1304.60
  C 264.74 1242.43 178.14 1149.48 122.61 1043.19
  Q 115.62 1029.80 102.31 1002.25
  C 99.63 996.73 97.80 990.59 95.74 985.98
  Q 88.32 969.41 82.23 952.30
  C 81.31 949.71 80.77 947.29 79.58 944.69
  C 77.82 940.86 77.30 936.76 75.68 933.01
  Q 74.46 930.18 73.54 927.24
  C 63.39 894.85 55.91 862.50 50.92 828.92
  C 41.28 763.96 38.97 694.68 48.49 628.75
  C 51.21 609.92 54.51 589.37 59.23 570.25
  C 82.53 475.81 124.94 382.95 184.79 306.05
  C 238.12 237.53 303.43 178.99 378.78 135.82
  Q 457.29 90.84 546.02 65.56
  C 617.27 45.27 693.72 38.34 767.46 42.69
  Q 777.35 43.28 787.39 44.27
  C 825.04 48.00 863.05 54.21 899.52 64.46
  C 1006.90 94.64 1106.64 148.56 1188.08 225.04
  Z"
/>
</svg>
