<?xml version="1.0" encoding="UTF-8" standalone="no"?>
<!DOCTYPE svg PUBLIC "-//W3C//DTD SVG 1.1//EN" "http://www.w3.org/Graphics/SVG/1.1/DTD/svg11.dtd">
<svg xmlns="http://www.w3.org/2000/svg" version="1.1" viewBox="0.00 0.00 830.00 830.00">
<path fill="#303030" d="
  M 0.00 0.00
  L 830.00 0.00
  L 830.00 830.00
  L 0.00 830.00
  L 0.00 0.00
  Z
  M 784.00 46.26
  A 0.26 0.26 0.0 0 0 783.74 46.00
  L 46.26 46.00
  A 0.26 0.26 0.0 0 0 46.00 46.26
  L 46.00 783.74
  A 0.26 0.26 0.0 0 0 46.26 784.00
  L 783.74 784.00
  A 0.26 0.26 0.0 0 0 784.00 783.74
  L 784.00 46.26
  Z"
/>
<path fill="#00aa68" d="
  M 56.31 704.46
  L 411.69 89.54
  A 0.36 0.36 0.0 0 1 412.31 89.54
  L 767.69 704.46
  A 0.36 0.36 0.0 0 1 767.38 705.00
  L 56.62 705.00
  A 0.36 0.36 0.0 0 1 56.31 704.46
  Z
  M 411.34 181.83
  L 135.88 658.47
  A 0.35 0.35 0.0 0 0 136.18 659.00
  L 687.76 659.00
  A 0.38 0.38 0.0 0 0 688.09 658.43
  Q 550.44 420.24 412.67 181.86
  Q 412.61 181.76 412.54 181.48
  Q 412.38 180.90 411.57 181.56
  A 0.94 0.87 87.7 0 0 411.34 181.83
  Z"
/>
</svg>
