<?xml version="1.0" encoding="UTF-8" standalone="no"?>
<!DOCTYPE svg PUBLIC "-//W3C//DTD SVG 1.1//EN" "http://www.w3.org/Graphics/SVG/1.1/DTD/svg11.dtd">
<svg xmlns="http://www.w3.org/2000/svg" version="1.1" viewBox="0.00 0.00 228.00 228.00">
<path stroke="#9ca5a0" stroke-width="2.00" fill="none" stroke-linecap="butt" vector-effect="non-scaling-stroke" d="
  M 101.25 104.48
  L 101.30 85.63
  A 0.63 0.63 0.0 0 1 101.93 85.00
  L 139.75 85.00
  Q 140.25 85.00 140.25 84.50
  L 140.25 70.75
  Q 140.25 70.25 139.75 70.25
  L 86.25 70.25
  Q 85.75 70.25 85.75 70.75
  L 85.75 121.25
  A 0.50 0.50 0.0 0 0 86.25 121.75
  L 101.45 121.75
  Q 101.91 121.75 102.11 121.33
  Q 107.36 110.12 120.02 113.37
  C 133.57 116.85 132.57 140.40 119.07 143.10
  Q 105.64 145.78 100.76 133.75
  Q 100.56 133.25 100.02 133.25
  L 85.01 133.25
  A 0.61 0.61 0.0 0 0 84.41 133.96
  C 87.67 152.62 103.56 160.07 121.34 157.65
  C 142.53 154.76 149.96 133.73 143.67 115.28
  C 137.49 97.15 115.75 93.71 101.67 104.69
  Q 101.25 105.01 101.25 104.48"
/>
<path fill="#394b41" d="
  M 109.82 0.00
  L 118.54 0.00
  C 179.12 3.35 224.71 49.58 228.00 110.05
  L 228.00 116.56
  C 225.82 178.03 178.95 224.82 117.69 228.00
  L 109.47 228.00
  C 48.64 224.82 3.84 178.59 0.00 117.97
  L 0.00 110.17
  C 3.22 49.55 49.07 3.13 109.82 0.00
  Z
  M 101.25 104.48
  L 101.30 85.63
  A 0.63 0.63 0.0 0 1 101.93 85.00
  L 139.75 85.00
  Q 140.25 85.00 140.25 84.50
  L 140.25 70.75
  Q 140.25 70.25 139.75 70.25
  L 86.25 70.25
  Q 85.75 70.25 85.75 70.75
  L 85.75 121.25
  A 0.50 0.50 0.0 0 0 86.25 121.75
  L 101.45 121.75
  Q 101.91 121.75 102.11 121.33
  Q 107.36 110.12 120.02 113.37
  C 133.57 116.85 132.57 140.40 119.07 143.10
  Q 105.64 145.78 100.76 133.75
  Q 100.56 133.25 100.02 133.25
  L 85.01 133.25
  A 0.61 0.61 0.0 0 0 84.41 133.96
  C 87.67 152.62 103.56 160.07 121.34 157.65
  C 142.53 154.76 149.96 133.73 143.67 115.28
  C 137.49 97.15 115.75 93.71 101.67 104.69
  Q 101.25 105.01 101.25 104.48
  Z"
/>
<path fill="#ffffff" d="
  M 101.67 104.69
  C 115.75 93.71 137.49 97.15 143.67 115.28
  C 149.96 133.73 142.53 154.76 121.34 157.65
  C 103.56 160.07 87.67 152.62 84.41 133.96
  A 0.61 0.61 0.0 0 1 85.01 133.25
  L 100.02 133.25
  Q 100.56 133.25 100.76 133.75
  Q 105.64 145.78 119.07 143.10
  C 132.57 140.40 133.57 116.85 120.02 113.37
  Q 107.36 110.12 102.11 121.33
  Q 101.91 121.75 101.45 121.75
  L 86.25 121.75
  A 0.50 0.50 0.0 0 1 85.75 121.25
  L 85.75 70.75
  Q 85.75 70.25 86.25 70.25
  L 139.75 70.25
  Q 140.25 70.25 140.25 70.75
  L 140.25 84.50
  Q 140.25 85.00 139.75 85.00
  L 101.93 85.00
  A 0.63 0.63 0.0 0 0 101.30 85.63
  L 101.25 104.48
  Q 101.25 105.01 101.67 104.69
  Z"
/>
</svg>
