<?xml version="1.0" encoding="UTF-8" standalone="no"?>
<!DOCTYPE svg PUBLIC "-//W3C//DTD SVG 1.1//EN" "http://www.w3.org/Graphics/SVG/1.1/DTD/svg11.dtd">
<svg xmlns="http://www.w3.org/2000/svg" version="1.1" viewBox="0.00 0.00 304.00 303.00">
<path fill="#303030" d="
  M 0.81 0.00
  L 304.00 0.00
  L 304.00 301.06
  Q 303.16 302.25 302.25 302.25
  Q 152.50 302.25 2.79 302.25
  A 1.95 1.95 0.0 0 1 0.84 300.30
  L 0.81 0.00
  Z
  M 285.25 20.39
  A 2.64 2.64 0.0 0 0 282.61 17.75
  L 21.39 17.75
  A 2.64 2.64 0.0 0 0 18.75 20.39
  L 18.75 280.61
  A 2.64 2.64 0.0 0 0 21.39 283.25
  L 282.61 283.25
  A 2.64 2.64 0.0 0 0 285.25 280.61
  L 285.25 20.39
  Z"
/>
<path fill="#007948" d="
  M 282.56 150.38
  L 261.20 171.76
  A 0.68 0.68 0.0 0 0 261.00 172.24
  L 261.00 258.32
  A 0.68 0.68 0.0 0 1 260.32 259.00
  L 174.22 259.00
  A 0.68 0.68 0.0 0 0 173.74 259.20
  L 152.40 280.52
  A 0.68 0.68 0.0 0 1 151.44 280.52
  L 130.07 259.20
  A 0.68 0.68 0.0 0 0 129.59 259.00
  L 44.68 259.00
  A 0.68 0.68 0.0 0 1 44.00 258.32
  L 44.00 173.35
  A 0.68 0.68 0.0 0 0 43.80 172.87
  L 21.36 150.48
  A 0.68 0.68 0.0 0 1 21.36 149.52
  L 43.80 127.09
  A 0.68 0.68 0.0 0 0 44.00 126.61
  L 44.00 42.68
  A 0.68 0.68 0.0 0 1 44.68 42.00
  L 128.73 42.00
  A 0.68 0.68 0.0 0 0 129.21 41.80
  L 151.51 19.34
  A 0.68 0.68 0.0 0 1 152.47 19.34
  L 174.75 41.80
  A 0.68 0.68 0.0 0 0 175.23 42.00
  L 260.32 42.00
  A 0.68 0.68 0.0 0 1 261.00 42.68
  L 261.00 127.62
  A 0.68 0.68 0.0 0 0 261.20 128.10
  L 282.56 149.42
  A 0.68 0.68 0.0 0 1 282.56 150.38
  Z
  M 146.37 41.48
  A 0.31 0.31 0.0 0 0 146.59 42.01
  L 157.40 41.99
  A 0.31 0.31 0.0 0 0 157.61 41.46
  L 152.20 36.10
  A 0.31 0.31 0.0 0 0 151.76 36.10
  L 146.37 41.48
  Z
  M 56.00 114.12
  A 0.32 0.32 0.0 0 0 56.54 114.34
  L 116.33 54.55
  A 0.32 0.32 0.0 0 0 116.11 54.01
  L 56.32 54.01
  A 0.32 0.32 0.0 0 0 56.00 54.33
  L 56.00 114.12
  Z
  M 56.36 131.52
  A 1.24 1.24 0.0 0 0 56.00 132.39
  L 56.00 167.62
  A 1.24 1.24 0.0 0 0 56.36 168.49
  L 134.52 246.64
  A 1.24 1.24 0.0 0 0 135.39 247.00
  L 168.61 247.00
  A 1.24 1.24 0.0 0 0 169.48 246.64
  L 248.64 167.49
  A 1.24 1.24 0.0 0 0 249.00 166.62
  L 249.00 133.39
  A 1.24 1.24 0.0 0 0 248.64 132.52
  L 170.48 54.36
  A 1.24 1.24 0.0 0 0 169.61 54.00
  L 134.39 54.00
  A 1.24 1.24 0.0 0 0 133.52 54.36
  L 56.36 131.52
  Z
  M 187.58 54.47
  L 247.45 114.32
  A 0.81 0.76 -75.4 0 1 247.66 114.71
  Q 247.76 115.23 248.21 115.59
  A 0.49 0.49 0.0 0 0 249.00 115.21
  L 249.00 54.50
  Q 249.00 54.00 248.50 54.00
  L 187.78 54.00
  A 0.28 0.27 -22.3 0 0 187.58 54.47
  Z
  M 43.42 155.61
  A 0.34 0.34 0.0 0 0 44.00 155.38
  L 44.00 144.66
  A 0.34 0.34 0.0 0 0 43.42 144.43
  L 38.14 149.78
  A 0.34 0.34 0.0 0 0 38.14 150.26
  L 43.42 155.61
  Z
  M 261.54 145.36
  A 0.31 0.31 0.0 0 0 261.01 145.57
  L 261.00 154.38
  A 0.31 0.31 0.0 0 0 261.53 154.60
  L 265.91 150.20
  A 0.31 0.31 0.0 0 0 265.91 149.77
  L 261.54 145.36
  Z
  M 249.00 184.76
  A 0.34 0.34 0.0 0 0 248.42 184.52
  L 186.52 246.42
  A 0.34 0.34 0.0 0 0 186.76 247.00
  L 248.66 247.00
  A 0.34 0.34 0.0 0 0 249.00 246.66
  L 249.00 184.76
  Z
  M 117.10 246.99
  A 0.32 0.32 0.0 0 0 117.32 246.45
  L 56.54 185.67
  A 0.32 0.32 0.0 0 0 56.00 185.89
  L 56.00 246.67
  A 0.32 0.32 0.0 0 0 56.32 246.99
  L 117.10 246.99
  Z
  M 147.73 259.00
  A 0.40 0.40 0.0 0 0 147.46 259.69
  L 151.72 263.79
  A 0.40 0.40 0.0 0 0 152.28 263.79
  L 156.56 259.69
  A 0.40 0.40 0.0 0 0 156.28 259.00
  L 147.73 259.00
  Z"
/>
</svg>
