<?xml version="1.0" encoding="UTF-8" standalone="no"?>
<svg
   version="1.1"
   viewBox="0.00 0.00 150.00 150.00"
   id="svg2"
   sodipodi:docname="f.svg"
   inkscape:version="1.3 (0e150ed6c4, 2023-07-21)"
   xmlns:inkscape="http://www.inkscape.org/namespaces/inkscape"
   xmlns:sodipodi="http://sodipodi.sourceforge.net/DTD/sodipodi-0.dtd"
   xmlns="http://www.w3.org/2000/svg"
   xmlns:svg="http://www.w3.org/2000/svg">
  <defs
     id="defs2" />
  <sodipodi:namedview
     id="namedview2"
     pagecolor="#ffffff"
     bordercolor="#000000"
     borderopacity="0.25"
     inkscape:showpageshadow="2"
     inkscape:pageopacity="0.0"
     inkscape:pagecheckerboard="0"
     inkscape:deskcolor="#d1d1d1"
     inkscape:zoom="5.4266667"
     inkscape:cx="74.907862"
     inkscape:cy="75"
     inkscape:window-width="1920"
     inkscape:window-height="1010"
     inkscape:window-x="1913"
     inkscape:window-y="-6"
     inkscape:window-maximized="1"
     inkscape:current-layer="svg2" />
  <path
     fill="#094065"
     d="   M 73.83 0.00   L 76.04 0.00   Q 79.03 0.77 81.26 2.99   Q 114.50 36.12 147.68 69.32   Q 149.30 70.94 150.00 74.07   L 150.00 76.04   Q 149.24 78.94 148.47 79.71   Q 114.17 113.91 79.95 148.19   Q 78.72 149.42 75.92 150.00   L 74.20 150.00   Q 71.01 149.36 69.70 148.05   Q 36.01 114.36 2.32 80.69   Q 0.70 79.07 0.00 75.93   L 0.00 73.71   Q 1.00 70.63 2.06 69.57   Q 35.43 36.18 68.81 2.82   Q 70.74 0.89 73.83 0.00   Z   M 70.67 7.55   C 60.84 17.02 51.34 26.88 41.69 36.55   A 0.12 0.12 0.0 0 0 41.78 36.76   L 108.07 36.76   A 0.16 0.16 0.0 0 0 108.18 36.48   Q 93.16 21.58 78.25 6.42   C 74.84 2.95 73.30 5.00 70.67 7.55   Z   M 36.95 41.20   L 5.28 72.96   A 2.79 2.78 -45.1 0 0 5.28 76.89   L 37.04 108.70   A 0.27 0.27 0.0 0 0 37.50 108.51   L 37.50 41.47   A 0.34 0.32 69.0 0 0 36.95 41.20   Z   M 108.50 42.09   A 0.59 0.59 0.0 0 0 107.91 41.50   L 42.59 41.50   A 0.59 0.59 0.0 0 0 42.00 42.09   L 42.00 107.41   A 0.59 0.59 0.0 0 0 42.59 108.00   L 107.91 108.00   A 0.59 0.59 0.0 0 0 108.50 107.41   L 108.50 42.09   Z   M 113.91 107.80   Q 128.17 93.52 141.77 79.85   C 144.68 76.93 147.16 75.47 143.45 71.79   Q 128.51 56.96 113.75 42.06   A 0.28 0.28 0.0 0 0 113.27 42.26   L 113.21 107.51   Q 113.21 108.50 113.91 107.80   Z   M 76.92 144.67   L 108.74 112.99   A 0.29 0.28 -66.6 0 0 108.55 112.49   L 41.49 112.50   A 0.28 0.28 0.0 0 0 41.29 112.98   L 73.07 144.67   A 2.73 2.72 44.9 0 0 76.92 144.67   Z"
     id="path1"
     style="fill:#2c4a3e;fill-opacity:1" />
  <path
     fill="#094065"
     d="   M 49.03 93.51   L 74.74 53.08   A 0.32 0.32 0.0 0 1 75.28 53.08   L 100.99 93.51   A 0.32 0.32 0.0 0 1 100.72 94.00   L 49.30 94.00   A 0.32 0.32 0.0 0 1 49.03 93.51   Z"
     id="path2"
     style="fill:#2c4a3e;fill-opacity:1" />
</svg>
