<?xml version="1.0" encoding="UTF-8" standalone="no"?>
<svg
   version="1.1"
   viewBox="0.00 0.00 1000.00 1000.00"
   id="svg7"
   sodipodi:docname="c.svg"
   inkscape:version="1.3 (0e150ed6c4, 2023-07-21)"
   xmlns:inkscape="http://www.inkscape.org/namespaces/inkscape"
   xmlns:sodipodi="http://sodipodi.sourceforge.net/DTD/sodipodi-0.dtd"
   xmlns="http://www.w3.org/2000/svg"
   xmlns:svg="http://www.w3.org/2000/svg">
  <defs
     id="defs7" />
  <sodipodi:namedview
     id="namedview7"
     pagecolor="#ffffff"
     bordercolor="#000000"
     borderopacity="0.25"
     inkscape:showpageshadow="2"
     inkscape:pageopacity="0.0"
     inkscape:pagecheckerboard="0"
     inkscape:deskcolor="#d1d1d1"
     inkscape:zoom="0.814"
     inkscape:cx="500.61425"
     inkscape:cy="500"
     inkscape:window-width="1920"
     inkscape:window-height="1010"
     inkscape:window-x="1913"
     inkscape:window-y="-6"
     inkscape:window-maximized="1"
     inkscape:current-layer="svg7" />
  <g
     stroke-width="2.00"
     fill="none"
     stroke-linecap="butt"
     id="g3">
    <path
       stroke="#968216"
       vector-effect="non-scaling-stroke"
       d="   M 127.04 256.58   A 2.12 2.12 0.0 0 0 127.05 260.25   L 498.12 473.87   A 2.12 2.12 0.0 0 0 500.24 473.87   L 871.16 259.68   A 2.12 2.12 0.0 0 0 871.15 256.01   L 499.93 42.31   A 2.12 2.12 0.0 0 0 497.81 42.31   L 127.04 256.58"
       id="path1" />
    <path
       stroke="#6b4894"
       vector-effect="non-scaling-stroke"
       d="   M 894.94 297.42   A 1.88 1.88 0.0 0 0 892.49 296.91   Q 707.93 403.44 523.47 509.97   C 520.76 511.53 520.51 512.49 520.51 515.50   Q 520.49 718.23 520.51 920.95   C 520.51 926.66 520.95 934.94 520.69 941.92   A 1.39 1.39 0.0 0 0 522.77 943.18   Q 707.68 836.43 892.63 729.58   C 895.89 727.70 896.15 726.60 896.17 723.00   Q 897.19 512.50 896.35 302.00   Q 896.34 299.32 894.94 297.42"
       id="path2" />
    <path
       stroke="#166c92"
       vector-effect="non-scaling-stroke"
       d="   M 103.00 727.46   A 1.89 1.89 0.0 0 0 103.95 729.10   L 475.92 943.15   A 1.89 1.89 0.0 0 0 478.75 941.50   L 477.83 512.70   A 1.89 1.89 0.0 0 0 476.89 511.07   L 105.83 297.47   A 1.89 1.89 0.0 0 0 103.00 299.11   L 103.00 727.46"
       id="path3" />
  </g>
  <path
     fill="#2c2c2c"
     d="   M 492.85 996.40   C 367.12 924.68 204.63 831.20 77.93 757.57   C 68.90 752.32 64.32 748.87 64.31 737.44   Q 64.01 497.35 64.75 257.25   C 64.78 249.59 68.16 246.06 74.87 242.19   Q 277.43 125.45 480.02 8.74   C 493.79 0.81 499.48 -1.56 514.16 6.85   Q 718.81 124.05 922.97 242.09   C 929.95 246.13 933.72 250.28 933.72 258.25   Q 933.78 494.59 934.51 730.94   C 934.54 739.17 932.64 748.87 926.13 754.16   Q 925.09 755.01 918.86 758.75   C 900.97 769.49 882.63 779.29 864.58 789.73   Q 748.83 856.66 510.44 994.18   C 503.59 998.13 500.34 1000.68 492.85 996.40   Z   M 127.04 256.58   A 2.12 2.12 0.0 0 0 127.05 260.25   L 498.12 473.87   A 2.12 2.12 0.0 0 0 500.24 473.87   L 871.16 259.68   A 2.12 2.12 0.0 0 0 871.15 256.01   L 499.93 42.31   A 2.12 2.12 0.0 0 0 497.81 42.31   L 127.04 256.58   Z   M 894.94 297.42   A 1.88 1.88 0.0 0 0 892.49 296.91   Q 707.93 403.44 523.47 509.97   C 520.76 511.53 520.51 512.49 520.51 515.50   Q 520.49 718.23 520.51 920.95   C 520.51 926.66 520.95 934.94 520.69 941.92   A 1.39 1.39 0.0 0 0 522.77 943.18   Q 707.68 836.43 892.63 729.58   C 895.89 727.70 896.15 726.60 896.17 723.00   Q 897.19 512.50 896.35 302.00   Q 896.34 299.32 894.94 297.42   Z   M 103.00 727.46   A 1.89 1.89 0.0 0 0 103.95 729.10   L 475.92 943.15   A 1.89 1.89 0.0 0 0 478.75 941.50   L 477.83 512.70   A 1.89 1.89 0.0 0 0 476.89 511.07   L 105.83 297.47   A 1.89 1.89 0.0 0 0 103.00 299.11   L 103.00 727.46   Z"
     id="path4" />
  <path
     fill="#ffd700"
     d="   M 127.04 256.58   L 497.81 42.31   A 2.12 2.12 0.0 0 1 499.93 42.31   L 871.15 256.01   A 2.12 2.12 0.0 0 1 871.16 259.68   L 500.24 473.87   A 2.12 2.12 0.0 0 1 498.12 473.87   L 127.05 260.25   A 2.12 2.12 0.0 0 1 127.04 256.58   Z"
     id="path5" />
  <path
     fill="#aa64fb"
     d="   M 894.94 297.42   Q 896.34 299.32 896.35 302.00   Q 897.19 512.50 896.17 723.00   C 896.15 726.60 895.89 727.70 892.63 729.58   Q 707.68 836.43 522.77 943.18   A 1.39 1.39 0.0 0 1 520.69 941.92   C 520.95 934.94 520.51 926.66 520.51 920.95   Q 520.49 718.23 520.51 515.50   C 520.51 512.49 520.76 511.53 523.47 509.97   Q 707.93 403.44 892.49 296.91   A 1.88 1.88 0.0 0 1 894.94 297.42   Z"
     id="path6"
     style="fill:#bebebe;fill-opacity:1" />
  <path
     fill="#00abf7"
     d="   M 103.00 727.46   L 103.00 299.11   A 1.89 1.89 0.0 0 1 105.83 297.47   L 476.89 511.07   A 1.89 1.89 0.0 0 1 477.83 512.70   L 478.75 941.50   A 1.89 1.89 0.0 0 1 475.92 943.15   L 103.95 729.10   A 1.89 1.89 0.0 0 1 103.00 727.46   Z"
     id="path7" />
</svg>
