<?xml version="1.0" encoding="UTF-8" standalone="no"?>
<!DOCTYPE svg PUBLIC "-//W3C//DTD SVG 1.1//EN" "http://www.w3.org/Graphics/SVG/1.1/DTD/svg11.dtd">
<svg xmlns="http://www.w3.org/2000/svg" version="1.1" viewBox="0.00 0.00 228.00 228.00">
<g stroke-width="2.00" fill="none" stroke-linecap="butt">
<path stroke="#9ca5a0" vector-effect="non-scaling-stroke" d="
  M 135.89 126.25
  A 0.39 0.39 0.0 0 1 135.50 125.86
  L 135.50 71.89
  A 0.39 0.39 0.0 0 0 135.11 71.50
  L 116.06 71.50
  A 0.39 0.39 0.0 0 0 115.74 71.67
  L 76.57 127.67
  A 0.39 0.39 0.0 0 0 76.50 127.89
  L 76.50 140.61
  A 0.39 0.39 0.0 0 0 76.89 141.00
  L 118.11 141.00
  A 0.39 0.39 0.0 0 1 118.50 141.39
  L 118.50 157.61
  A 0.39 0.39 0.0 0 0 118.89 158.00
  L 135.11 158.00
  A 0.39 0.39 0.0 0 0 135.50 157.61
  L 135.50 141.39
  A 0.39 0.39 0.0 0 1 135.89 141.00
  L 145.61 141.00
  A 0.39 0.39 0.0 0 0 146.00 140.61
  L 146.00 126.64
  A 0.39 0.39 0.0 0 0 145.61 126.25
  L 135.89 126.25"
/>
<path stroke="#9ca5a0" vector-effect="non-scaling-stroke" d="
  M 119.29 90.48
  L 95.70 125.69
  Q 95.32 126.25 96.00 126.25
  L 119.14 126.25
  Q 119.53 126.25 119.53 125.86
  L 119.49 90.54
  Q 119.49 90.19 119.29 90.48"
/>
</g>
<path fill="#394b41" d="
  M 109.82 0.00
  L 118.54 0.00
  C 179.12 3.35 224.71 49.58 228.00 110.05
  L 228.00 116.56
  C 225.82 178.03 178.95 224.82 117.69 228.00
  L 109.47 228.00
  C 48.64 224.82 3.84 178.59 0.00 117.97
  L 0.00 110.17
  C 3.22 49.55 49.07 3.13 109.82 0.00
  Z
  M 135.89 126.25
  A 0.39 0.39 0.0 0 1 135.50 125.86
  L 135.50 71.89
  A 0.39 0.39 0.0 0 0 135.11 71.50
  L 116.06 71.50
  A 0.39 0.39 0.0 0 0 115.74 71.67
  L 76.57 127.67
  A 0.39 0.39 0.0 0 0 76.50 127.89
  L 76.50 140.61
  A 0.39 0.39 0.0 0 0 76.89 141.00
  L 118.11 141.00
  A 0.39 0.39 0.0 0 1 118.50 141.39
  L 118.50 157.61
  A 0.39 0.39 0.0 0 0 118.89 158.00
  L 135.11 158.00
  A 0.39 0.39 0.0 0 0 135.50 157.61
  L 135.50 141.39
  A 0.39 0.39 0.0 0 1 135.89 141.00
  L 145.61 141.00
  A 0.39 0.39 0.0 0 0 146.00 140.61
  L 146.00 126.64
  A 0.39 0.39 0.0 0 0 145.61 126.25
  L 135.89 126.25
  Z"
/>
<path fill="#ffffff" d="
  M 135.89 126.25
  L 145.61 126.25
  A 0.39 0.39 0.0 0 1 146.00 126.64
  L 146.00 140.61
  A 0.39 0.39 0.0 0 1 145.61 141.00
  L 135.89 141.00
  A 0.39 0.39 0.0 0 0 135.50 141.39
  L 135.50 157.61
  A 0.39 0.39 0.0 0 1 135.11 158.00
  L 118.89 158.00
  A 0.39 0.39 0.0 0 1 118.50 157.61
  L 118.50 141.39
  A 0.39 0.39 0.0 0 0 118.11 141.00
  L 76.89 141.00
  A 0.39 0.39 0.0 0 1 76.50 140.61
  L 76.50 127.89
  A 0.39 0.39 0.0 0 1 76.57 127.67
  L 115.74 71.67
  A 0.39 0.39 0.0 0 1 116.06 71.50
  L 135.11 71.50
  A 0.39 0.39 0.0 0 1 135.50 71.89
  L 135.50 125.86
  A 0.39 0.39 0.0 0 0 135.89 126.25
  Z
  M 119.29 90.48
  L 95.70 125.69
  Q 95.32 126.25 96.00 126.25
  L 119.14 126.25
  Q 119.53 126.25 119.53 125.86
  L 119.49 90.54
  Q 119.49 90.19 119.29 90.48
  Z"
/>
<path fill="#394b41" d="
  M 119.29 90.48
  Q 119.49 90.19 119.49 90.54
  L 119.53 125.86
  Q 119.53 126.25 119.14 126.25
  L 96.00 126.25
  Q 95.32 126.25 95.70 125.69
  L 119.29 90.48
  Z"
/>
</svg>
