<?xml version="1.0" encoding="UTF-8" standalone="no"?>
<svg
   version="1.1"
   viewBox="0.00 0.00 150.00 150.00"
   id="svg3"
   sodipodi:docname="b.svg"
   inkscape:version="1.3 (0e150ed6c4, 2023-07-21)"
   xmlns:inkscape="http://www.inkscape.org/namespaces/inkscape"
   xmlns:sodipodi="http://sodipodi.sourceforge.net/DTD/sodipodi-0.dtd"
   xmlns="http://www.w3.org/2000/svg"
   xmlns:svg="http://www.w3.org/2000/svg">
  <defs
     id="defs3" />
  <sodipodi:namedview
     id="namedview3"
     pagecolor="#ffffff"
     bordercolor="#000000"
     borderopacity="0.25"
     inkscape:showpageshadow="2"
     inkscape:pageopacity="0.0"
     inkscape:pagecheckerboard="0"
     inkscape:deskcolor="#d1d1d1"
     inkscape:zoom="5.4266667"
     inkscape:cx="74.907862"
     inkscape:cy="75"
     inkscape:window-width="1920"
     inkscape:window-height="1010"
     inkscape:window-x="1913"
     inkscape:window-y="-6"
     inkscape:window-maximized="1"
     inkscape:current-layer="svg3" />
  <path
     fill="#094065"
     d="   M 71.34 0.00   L 79.05 0.00   C 118.85 3.81 147.04 31.70 150.00 71.82   L 150.00 78.60   Q 145.91 124.30 105.69 143.44   Q 93.82 149.08 78.17 150.00   L 71.43 150.00   C 32.05 146.96 2.41 117.87 0.00 78.43   L 0.00 71.22   C 2.53 31.74 32.19 3.36 71.34 0.00   Z   M 145.36 75.01   A 70.37 70.37 0.0 0 0 74.99 4.64   A 70.37 70.37 0.0 0 0 4.62 75.01   A 70.37 70.37 0.0 0 0 74.99 145.38   A 70.37 70.37 0.0 0 0 145.36 75.01   Z"
     id="path1"
     style="fill:#2c4a3e;fill-opacity:1" />
  <path
     fill="#094065"
     d="   M 113.24 111.90   A 0.60 0.60 0.0 0 1 112.64 112.50   L 38.10 112.50   A 0.60 0.60 0.0 0 1 37.50 111.90   L 37.50 37.36   A 0.60 0.60 0.0 0 1 38.10 36.76   L 112.64 36.76   A 0.60 0.60 0.0 0 1 113.24 37.36   L 113.24 111.90   Z   M 108.51 42.18   A 0.68 0.68 0.0 0 0 107.83 41.50   L 42.69 41.50   A 0.68 0.68 0.0 0 0 42.01 42.18   L 42.01 107.32   A 0.68 0.68 0.0 0 0 42.69 108.00   L 107.83 108.00   A 0.68 0.68 0.0 0 0 108.51 107.32   L 108.51 42.18   Z"
     id="path2"
     style="fill:#2c4a3e;fill-opacity:1" />
  <path
     fill="#094065"
     d="   M 49.03 93.51   L 74.74 53.08   A 0.32 0.32 0.0 0 1 75.28 53.08   L 100.99 93.51   A 0.32 0.32 0.0 0 1 100.72 94.00   L 49.30 94.00   A 0.32 0.32 0.0 0 1 49.03 93.51   Z"
     id="path3"
     style="fill:#2c4a3e;fill-opacity:1" />
</svg>
