<?xml version="1.0" encoding="UTF-8" standalone="no"?>
<svg
   version="1.1"
   viewBox="0.00 0.00 150.00 150.00"
   id="svg2"
   sodipodi:docname="23.svg"
   inkscape:version="1.3 (0e150ed6c4, 2023-07-21)"
   xmlns:inkscape="http://www.inkscape.org/namespaces/inkscape"
   xmlns:sodipodi="http://sodipodi.sourceforge.net/DTD/sodipodi-0.dtd"
   xmlns="http://www.w3.org/2000/svg"
   xmlns:svg="http://www.w3.org/2000/svg">
  <defs
     id="defs2" />
  <sodipodi:namedview
     id="namedview2"
     pagecolor="#ffffff"
     bordercolor="#000000"
     borderopacity="0.25"
     inkscape:showpageshadow="2"
     inkscape:pageopacity="0.0"
     inkscape:pagecheckerboard="0"
     inkscape:deskcolor="#d1d1d1"
     inkscape:zoom="5.4266667"
     inkscape:cx="74.907862"
     inkscape:cy="75"
     inkscape:window-width="1920"
     inkscape:window-height="1010"
     inkscape:window-x="1913"
     inkscape:window-y="-6"
     inkscape:window-maximized="1"
     inkscape:current-layer="svg2" />
  <path
     fill="#094065"
     d="   M 0.00 0.00   L 150.00 0.00   L 150.00 150.00   L 0.00 150.00   L 0.00 0.00   Z   M 140.75 9.52   A 0.27 0.27 0.0 0 0 140.48 9.25   L 9.52 9.25   A 0.27 0.27 0.0 0 0 9.25 9.52   L 9.25 140.48   A 0.27 0.27 0.0 0 0 9.52 140.75   L 140.48 140.75   A 0.27 0.27 0.0 0 0 140.75 140.48   L 140.75 9.52   Z"
     id="path1"
     style="fill:#333333;fill-opacity:1" />
  <path
     fill="#ff8811"
     d="   M 128.05 74.34   L 133.55 74.21   Q 134.21 74.19 134.23 74.86   L 134.26 76.36   Q 134.27 77.00 133.63 77.00   L 128.28 77.00   Q 127.69 77.00 127.64 77.59   C 122.25 143.58 28.52 144.14 22.31 77.55   Q 22.25 77.00 21.71 77.00   L 16.38 77.00   Q 15.75 77.00 15.75 76.37   L 15.75 75.00   Q 15.75 74.25 16.50 74.25   L 21.75 74.25   Q 22.38 74.25 22.41 73.62   C 24.58 27.02 80.60 4.53 113.30 38.94   Q 126.86 53.21 127.53 73.85   Q 127.55 74.35 128.05 74.34   Z   M 102.61 36.54   C 85.38 24.38 62.88 24.85 46.29 37.44   A 0.36 0.35 -63.6 0 0 46.50 38.08   L 103.20 37.58   A 0.31 0.31 0.0 0 0 103.44 37.07   Q 103.27 36.86 103.05 36.76   Q 102.68 36.59 102.61 36.54   Z   M 59.37 73.97   A 0.49 0.49 0.0 0 0 59.83 74.27   L 90.40 74.24   A 0.49 0.49 0.0 0 0 90.85 73.93   L 103.10 43.50   A 0.49 0.49 0.0 0 0 102.64 42.83   L 47.43 43.33   A 0.49 0.49 0.0 0 0 46.98 44.01   L 59.37 73.97   Z   M 96.72 74.27   L 121.78 74.24   A 0.54 0.53 -1.5 0 0 122.32 73.68   Q 121.60 56.07 109.91 43.11   A 0.65 0.65 0.0 0 0 108.82 43.30   L 96.53 73.98   A 0.21 0.21 0.0 0 0 96.72 74.27   Z   M 40.02 43.11   C 32.52 51.54 27.99 62.32 27.73 73.68   Q 27.72 74.24 28.28 74.24   L 53.24 74.28   Q 53.80 74.28 53.59 73.76   L 40.95 43.27   A 0.56 0.56 0.0 0 0 40.02 43.11   Z   M 27.59 78.01   C 30.42 102.54 47.77 120.77 73.02 122.43   A 0.51 0.51 0.0 0 0 73.52 121.73   L 55.19 77.49   Q 54.99 77.00 54.46 77.00   L 28.49 77.00   A 0.91 0.90 -3.4 0 0 27.59 78.01   Z   M 74.96 111.41   A 0.45 0.45 0.0 0 0 75.79 111.41   L 89.36 77.62   A 0.45 0.45 0.0 0 0 88.94 77.00   L 61.33 77.00   A 0.45 0.45 0.0 0 0 60.92 77.62   L 74.96 111.41   Z   M 95.10 77.47   L 77.29 121.74   Q 77.11 122.20 77.61 122.18   C 102.31 121.12 119.53 101.95 122.36 78.25   A 1.12 1.11 -86.6 0 0 121.26 77.00   L 95.80 77.00   A 0.76 0.75 10.9 0 0 95.10 77.47   Z"
     id="path2"
     style="fill:#00784c;fill-opacity:1" />
</svg>
