<?xml version="1.0" encoding="UTF-8" standalone="no"?>
<svg
   version="1.1"
   viewBox="0.00 0.00 228.00 228.00"
   id="svg1"
   sodipodi:docname="b.svg"
   inkscape:version="1.3 (0e150ed6c4, 2023-07-21)"
   xmlns:inkscape="http://www.inkscape.org/namespaces/inkscape"
   xmlns:sodipodi="http://sodipodi.sourceforge.net/DTD/sodipodi-0.dtd"
   xmlns="http://www.w3.org/2000/svg"
   xmlns:svg="http://www.w3.org/2000/svg">
  <defs
     id="defs1" />
  <sodipodi:namedview
     id="namedview1"
     pagecolor="#ffffff"
     bordercolor="#000000"
     borderopacity="0.25"
     inkscape:showpageshadow="2"
     inkscape:pageopacity="0.0"
     inkscape:pagecheckerboard="0"
     inkscape:deskcolor="#d1d1d1"
     inkscape:zoom="3.5701754"
     inkscape:cx="105.457"
     inkscape:cy="146.7715"
     inkscape:window-width="1920"
     inkscape:window-height="1010"
     inkscape:window-x="1913"
     inkscape:window-y="-6"
     inkscape:window-maximized="1"
     inkscape:current-layer="svg1" />
  <path
     fill="#094065"
     d="   M 0.00 0.00   L 228.00 0.00   L 228.00 228.00   L 0.00 228.00   L 0.00 0.00   Z   M 7.22 73.24   Q 27.62 25.67 73.47 7.36   A 0.19 0.19 0.0 0 0 73.40 7.00   L 7.50 7.00   Q 7.00 7.00 7.00 7.50   L 7.00 73.19   A 0.12 0.11 57.1 0 0 7.22 73.24   Z   M 219.3543 117.6740   A 5.22 5.22 0.0 0 0 219.3543 110.2918   L 117.6582 8.5957   A 5.22 5.22 0.0 0 0 110.2760 8.5957   L 8.5657 110.3060   A 5.22 5.22 0.0 0 0 8.5657 117.6882   L 110.2618 219.3843   A 5.22 5.22 0.0 0 0 117.6440 219.3843   L 219.3543 117.6740   Z   M 157.30 8.57   Q 201.65 27.57 220.11 72.26   C 220.27 72.66 220.23 73.16 220.29 73.58   Q 220.31 73.75 220.48 73.75   Q 220.61 73.75 220.75 73.75   Q 221.00 73.76 221.00 73.51   L 221.00 7.50   Q 221.00 7.00 220.50 7.00   L 155.05 7.00   A 0.42 0.42 0.0 0 0 154.82 7.77   C 155.48 8.21 156.61 8.28 157.30 8.57   Z   M 8.09 100.84   L 100.81 8.07   A 0.27 0.27 0.0 0 0 100.58 7.61   C 52.54 14.88 13.95 51.25 7.71 100.66   Q 7.63 101.30 8.09 100.84   Z   M 220.19 100.42   C 214.48 51.80 175.33 14.83 127.83 7.75   Q 126.42 7.55 127.43 8.55   L 219.58 100.71   Q 220.31 101.43 220.19 100.42   Z   M 100.47 219.44   L 8.29 127.19   Q 7.73 126.63 7.81 127.41   C 12.83 174.49 51.17 211.75 96.75 219.71   Q 98.55 220.03 100.25 219.98   Q 101.00 219.96 100.47 219.44   Z   M 127.60 220.14   Q 131.35 219.94 135.82 218.89   C 180.96 208.28 213.91 173.60 220.26 127.66   A 0.41 0.41 0.0 0 0 219.56 127.31   L 127.33 219.54   Q 126.69 220.19 127.60 220.14   Z   M 73.63 220.25   Q 71.11 219.68 69.00 218.75   Q 29.62 201.22 10.75 162.47   Q 8.87 158.59 7.80 154.69   A 0.41 0.41 0.0 0 0 7.00 154.80   L 7.00 220.50   Q 7.00 221.00 7.50 221.00   L 72.53 221.00   Q 72.95 221.00 73.29 220.75   L 73.67 220.47   A 0.12 0.12 0.0 0 0 73.63 220.25   Z   M 219.83 155.96   Q 200.90 202.15 154.41 220.57   A 0.22 0.22 0.0 0 0 154.49 221.00   L 220.50 221.00   Q 221.00 221.00 221.00 220.50   L 221.00 155.25   Q 221.00 154.27 220.14 154.85   Q 219.99 154.96 219.95 155.41   Q 219.92 155.72 219.83 155.96   Z"
     id="path1"
     style="fill:#2c4a3e;fill-opacity:1" />
</svg>
