<?xml version="1.0" encoding="UTF-8" standalone="no"?>
<svg
   version="1.1"
   viewBox="0.00 0.00 134.00 134.00"
   id="svg3"
   sodipodi:docname="c.svg"
   inkscape:version="1.3 (0e150ed6c4, 2023-07-21)"
   xmlns:inkscape="http://www.inkscape.org/namespaces/inkscape"
   xmlns:sodipodi="http://sodipodi.sourceforge.net/DTD/sodipodi-0.dtd"
   xmlns="http://www.w3.org/2000/svg"
   xmlns:svg="http://www.w3.org/2000/svg">
  <defs
     id="defs3" />
  <sodipodi:namedview
     id="namedview3"
     pagecolor="#ffffff"
     bordercolor="#000000"
     borderopacity="0.25"
     inkscape:showpageshadow="2"
     inkscape:pageopacity="0.0"
     inkscape:pagecheckerboard="0"
     inkscape:deskcolor="#d1d1d1"
     inkscape:zoom="6.0746269"
     inkscape:cx="67.08231"
     inkscape:cy="67"
     inkscape:window-width="1920"
     inkscape:window-height="1010"
     inkscape:window-x="1913"
     inkscape:window-y="-6"
     inkscape:window-maximized="1"
     inkscape:current-layer="svg3" />
  <path
     fill="#004124"
     d="   M 64.30 0.00   L 70.06 0.00   C 105.42 2.70 132.07 28.87 134.00 64.33   L 134.00 69.58   C 131.80 104.82 105.49 131.71 70.17 134.00   L 63.69 134.00   C 28.78 131.33 2.39 105.42 0.00 70.42   L 0.00 63.47   C 2.44 28.29 29.22 2.31 64.30 0.00   Z   M 128.00 67.00   A 61.00 61.00 0.0 0 0 67.00 6.00   A 61.00 61.00 0.0 0 0 6.00 67.00   A 61.00 61.00 0.0 0 0 67.00 128.00   A 61.00 61.00 0.0 0 0 128.00 67.00   Z"
     id="path1"
     style="fill:#00a86b;fill-opacity:1" />
  <path
     fill="#004124"
     d="   M 70.85 64.47   C 78.11 57.27 90.17 59.43 93.21 69.24   C 96.86 81.03 88.74 90.53 76.14 88.82   C 63.77 87.15 62.98 74.41 63.31 64.50   C 63.54 57.65 64.57 50.61 70.38 46.58   C 78.39 41.02 91.09 44.76 92.48 55.69   Q 92.55 56.25 91.98 56.25   L 85.46 56.25   Q 84.80 56.25 84.65 55.61   Q 83.79 52.05 80.69 51.36   C 72.11 49.45 70.75 57.76 70.40 64.27   Q 70.37 64.96 70.85 64.47   Z   M 86.18 74.54   A 7.53 7.53 0.0 0 0 78.65 67.01   A 7.53 7.53 0.0 0 0 71.12 74.54   A 7.53 7.53 0.0 0 0 78.65 82.07   A 7.53 7.53 0.0 0 0 86.18 74.54   Z"
     id="path2"
     style="fill:#333333;fill-opacity:1" />
  <path
     fill="#004124"
     d="   M 44.47 53.01   L 39.78 52.99   A 0.53 0.53 0.0 0 1 39.25 52.46   L 39.25 45.78   A 0.53 0.53 0.0 0 1 39.78 45.25   L 52.97 45.25   A 0.53 0.53 0.0 0 1 53.50 45.78   L 53.50 88.46   A 0.53 0.53 0.0 0 1 52.97 88.99   L 45.53 89.00   A 0.53 0.53 0.0 0 1 45.00 88.47   L 45.00 53.54   A 0.53 0.53 0.0 0 0 44.47 53.01   Z"
     id="path3"
     style="fill:#333333;fill-opacity:1" />
</svg>
