<?xml version="1.0" encoding="UTF-8" standalone="no"?>
<svg
   version="1.1"
   viewBox="0.00 0.00 134.00 134.00"
   id="svg2"
   sodipodi:docname="f.svg"
   inkscape:version="1.3 (0e150ed6c4, 2023-07-21)"
   xmlns:inkscape="http://www.inkscape.org/namespaces/inkscape"
   xmlns:sodipodi="http://sodipodi.sourceforge.net/DTD/sodipodi-0.dtd"
   xmlns="http://www.w3.org/2000/svg"
   xmlns:svg="http://www.w3.org/2000/svg">
  <defs
     id="defs2" />
  <sodipodi:namedview
     id="namedview2"
     pagecolor="#ffffff"
     bordercolor="#000000"
     borderopacity="0.25"
     inkscape:showpageshadow="2"
     inkscape:pageopacity="0.0"
     inkscape:pagecheckerboard="0"
     inkscape:deskcolor="#d1d1d1"
     inkscape:zoom="6.0746269"
     inkscape:cx="67.08231"
     inkscape:cy="67"
     inkscape:window-width="1920"
     inkscape:window-height="1010"
     inkscape:window-x="1913"
     inkscape:window-y="-6"
     inkscape:window-maximized="1"
     inkscape:current-layer="svg2" />
  <path
     fill="#004124"
     d="   M 64.30 0.00   L 70.06 0.00   C 105.42 2.70 132.07 28.87 134.00 64.33   L 134.00 69.57   C 131.93 104.80 105.42 131.67 70.17 134.00   L 63.69 134.00   C 28.77 131.33 2.40 105.42 0.00 70.42   L 0.00 63.47   C 2.44 28.29 29.22 2.31 64.30 0.00   Z   M 128.00 67.00   A 61.00 61.00 0.0 0 0 67.00 6.00   A 61.00 61.00 0.0 0 0 6.00 67.00   A 61.00 61.00 0.0 0 0 67.00 128.00   A 61.00 61.00 0.0 0 0 128.00 67.00   Z"
     id="path1"
     style="fill:#00a86b;fill-opacity:1" />
  <path
     fill="#004124"
     d="   M 67.81 82.19   C 74.98 82.99 75.77 74.58 75.87 69.62   A 0.40 0.40 0.0 0 0 75.19 69.33   C 69.09 75.30 57.86 73.07 54.30 65.70   C 50.33 57.52 54.15 46.13 64.52 44.65   C 85.66 41.63 85.01 66.02 81.66 79.23   C 78.04 93.52 55.58 92.04 54.32 77.22   Q 54.28 76.75 54.75 76.75   L 61.25 76.75   Q 61.84 76.75 62.01 77.32   Q 63.32 81.69 67.81 82.19   Z   M 68.6460 66.0108   A 7.38 7.14 84.9 0 0 75.1017 58.0253   A 7.38 7.14 84.9 0 0 67.3340 51.3092   A 7.38 7.14 84.9 0 0 60.8783 59.2947   A 7.38 7.14 84.9 0 0 68.6460 66.0108   Z"
     id="path2"
     style="fill:#333333;fill-opacity:1" />
</svg>
