<?xml version="1.0" encoding="UTF-8" standalone="no"?>
<svg
   version="1.1"
   viewBox="0.00 0.00 134.00 134.00"
   id="svg3"
   sodipodi:docname="c.svg"
   inkscape:version="1.3 (0e150ed6c4, 2023-07-21)"
   xmlns:inkscape="http://www.inkscape.org/namespaces/inkscape"
   xmlns:sodipodi="http://sodipodi.sourceforge.net/DTD/sodipodi-0.dtd"
   xmlns="http://www.w3.org/2000/svg"
   xmlns:svg="http://www.w3.org/2000/svg">
  <defs
     id="defs3" />
  <sodipodi:namedview
     id="namedview3"
     pagecolor="#ffffff"
     bordercolor="#000000"
     borderopacity="0.25"
     inkscape:showpageshadow="2"
     inkscape:pageopacity="0.0"
     inkscape:pagecheckerboard="0"
     inkscape:deskcolor="#d1d1d1"
     inkscape:zoom="6.0746269"
     inkscape:cx="67.08231"
     inkscape:cy="67"
     inkscape:window-width="1920"
     inkscape:window-height="1010"
     inkscape:window-x="1913"
     inkscape:window-y="-6"
     inkscape:window-maximized="1"
     inkscape:current-layer="svg3" />
  <path
     fill="#004124"
     d="   M 64.30 0.00   L 70.06 0.00   C 105.42 2.70 132.07 28.87 134.00 64.33   L 134.00 69.58   C 131.80 104.82 105.49 131.71 70.17 134.00   L 63.69 134.00   C 28.77 131.33 2.40 105.42 0.00 70.42   L 0.00 63.47   C 2.44 28.29 29.22 2.31 64.30 0.00   Z   M 128.00 67.00   A 61.00 61.00 0.0 0 0 67.00 6.00   A 61.00 61.00 0.0 0 0 6.00 67.00   A 61.00 61.00 0.0 0 0 67.00 128.00   A 61.00 61.00 0.0 0 0 128.00 67.00   Z"
     id="path1"
     style="fill:#00a86b;fill-opacity:1" />
  <path
     fill="#004124"
     d="   M 85.66 66.11   Q 92.60 69.31 92.50 76.98   C 92.28 93.81 63.59 93.58 62.80 76.28   Q 62.78 75.75 63.31 75.75   L 70.24 75.75   Q 70.76 75.75 70.86 76.26   Q 72.07 82.69 78.78 82.16   C 86.14 81.59 86.52 71.54 79.24 69.78   Q 78.02 69.48 73.75 69.48   Q 73.25 69.48 73.25 68.98   L 73.25 63.02   A 0.55 0.55 0.0 0 1 73.86 62.47   C 77.04 62.79 82.21 62.37 83.18 58.54   C 85.31 50.18 73.54 48.49 71.63 56.25   A 0.65 0.65 0.0 0 1 71.00 56.75   L 63.97 56.75   Q 63.41 56.75 63.45 56.19   C 64.53 40.83 89.72 40.13 91.52 54.15   Q 92.49 61.70 85.64 65.48   Q 85.03 65.82 85.66 66.11   Z"
     id="path2"
     style="fill:#333333;fill-opacity:1" />
  <path
     fill="#004124"
     d="   M 46.47 53.01   L 41.78 52.99   A 0.53 0.53 0.0 0 1 41.25 52.46   L 41.25 45.78   A 0.53 0.53 0.0 0 1 41.78 45.25   L 54.97 45.25   A 0.53 0.53 0.0 0 1 55.50 45.78   L 55.50 88.46   A 0.53 0.53 0.0 0 1 54.97 88.99   L 47.53 89.00   A 0.53 0.53 0.0 0 1 47.00 88.47   L 47.00 53.54   A 0.53 0.53 0.0 0 0 46.47 53.01   Z"
     id="path3"
     style="fill:#333333;fill-opacity:1" />
</svg>
