<?xml version="1.0" encoding="UTF-8" standalone="no"?>
<svg
   version="1.1"
   viewBox="0.00 0.00 1000.00 1000.00"
   id="svg7"
   sodipodi:docname="f.svg"
   inkscape:version="1.3 (0e150ed6c4, 2023-07-21)"
   xmlns:inkscape="http://www.inkscape.org/namespaces/inkscape"
   xmlns:sodipodi="http://sodipodi.sourceforge.net/DTD/sodipodi-0.dtd"
   xmlns="http://www.w3.org/2000/svg"
   xmlns:svg="http://www.w3.org/2000/svg">
  <defs
     id="defs7" />
  <sodipodi:namedview
     id="namedview7"
     pagecolor="#ffffff"
     bordercolor="#000000"
     borderopacity="0.25"
     inkscape:showpageshadow="2"
     inkscape:pageopacity="0.0"
     inkscape:pagecheckerboard="0"
     inkscape:deskcolor="#d1d1d1"
     inkscape:zoom="0.814"
     inkscape:cx="500.61425"
     inkscape:cy="500"
     inkscape:window-width="1920"
     inkscape:window-height="1010"
     inkscape:window-x="1913"
     inkscape:window-y="-6"
     inkscape:window-maximized="1"
     inkscape:current-layer="svg7" />
  <g
     stroke-width="2.00"
     fill="none"
     stroke-linecap="butt"
     id="g3">
    <path
       stroke="#6b4894"
       vector-effect="non-scaling-stroke"
       d="   M 126.99 256.66   A 1.98 1.98 0.0 0 0 127.00 260.09   L 499.05 474.18   A 1.98 1.98 0.0 0 0 501.03 474.18   L 872.73 259.60   A 1.98 1.98 0.0 0 0 872.72 256.17   L 500.62 41.97   A 1.98 1.98 0.0 0 0 498.64 41.97   L 126.99 256.66"
       id="path1" />
    <path
       stroke="#968216"
       vector-effect="non-scaling-stroke"
       d="   M 521.58 512.35   Q 521.36 512.90 521.36 513.50   Q 521.25 727.24 521.23 941.05   A 2.05 2.05 0.0 0 0 524.31 942.82   L 895.10 728.85   A 3.90 3.89 -15.1 0 0 897.05 725.46   C 896.67 586.34 898.23 447.22 896.52 308.06   Q 896.45 302.48 896.44 297.18   A 0.99 0.99 0.0 0 0 894.95 296.32   L 522.42 511.38   Q 521.84 511.72 521.58 512.35"
       id="path2" />
    <path
       stroke="#96312f"
       vector-effect="non-scaling-stroke"
       d="   M 106.43 730.57   C 229.74 801.77 353.28 872.77 476.73 943.54   A 1.33 1.33 0.0 0 0 478.73 942.41   Q 479.01 927.96 479.43 913.94   C 480.24 886.99 479.06 840.99 479.04 789.95   Q 479.02 699.38 478.81 608.82   C 478.74 576.92 479.14 545.01 478.93 513.22   A 2.36 2.34 -75.3 0 0 477.76 511.20   Q 292.30 404.40 106.34 297.40   Q 105.07 296.67 104.40 297.20   A 2.98 2.05 -25.6 0 0 103.25 299.20   Q 103.25 512.01 103.25 725.02   C 103.25 727.94 104.04 729.19 106.43 730.57"
       id="path3" />
  </g>
  <path
     fill="#2c2c2c"
     d="   M 490.86 995.20   C 364.13 922.90 207.41 832.83 77.22 757.11   C 68.63 752.12 64.96 748.69 64.89 738.81   C 63.83 578.79 64.47 418.78 65.09 258.75   C 65.13 248.91 69.46 245.95 77.96 241.03   Q 277.92 125.45 478.09 10.23   C 490.81 2.91 498.51 -2.49 510.95 4.54   Q 596.67 52.97 744.15 138.68   C 804.21 173.59 864.79 207.65 924.97 242.37   C 931.42 246.09 934.60 250.83 934.66 258.19   C 935.05 306.04 935.13 353.90 935.22 401.75   Q 935.53 567.00 935.66 732.25   C 935.67 746.18 930.79 752.41 919.17 759.12   Q 715.37 876.89 511.43 994.43   C 503.13 999.21 499.69 1000.24 490.86 995.20   Z   M 126.99 256.66   A 1.98 1.98 0.0 0 0 127.00 260.09   L 499.05 474.18   A 1.98 1.98 0.0 0 0 501.03 474.18   L 872.73 259.60   A 1.98 1.98 0.0 0 0 872.72 256.17   L 500.62 41.97   A 1.98 1.98 0.0 0 0 498.64 41.97   L 126.99 256.66   Z   M 521.58 512.35   Q 521.36 512.90 521.36 513.50   Q 521.25 727.24 521.23 941.05   A 2.05 2.05 0.0 0 0 524.31 942.82   L 895.10 728.85   A 3.90 3.89 -15.1 0 0 897.05 725.46   C 896.67 586.34 898.23 447.22 896.52 308.06   Q 896.45 302.48 896.44 297.18   A 0.99 0.99 0.0 0 0 894.95 296.32   L 522.42 511.38   Q 521.84 511.72 521.58 512.35   Z   M 106.43 730.57   C 229.74 801.77 353.28 872.77 476.73 943.54   A 1.33 1.33 0.0 0 0 478.73 942.41   Q 479.01 927.96 479.43 913.94   C 480.24 886.99 479.06 840.99 479.04 789.95   Q 479.02 699.38 478.81 608.82   C 478.74 576.92 479.14 545.01 478.93 513.22   A 2.36 2.34 -75.3 0 0 477.76 511.20   Q 292.30 404.40 106.34 297.40   Q 105.07 296.67 104.40 297.20   A 2.98 2.05 -25.6 0 0 103.25 299.20   Q 103.25 512.01 103.25 725.02   C 103.25 727.94 104.04 729.19 106.43 730.57   Z"
     id="path4" />
  <path
     fill="#aa64fb"
     d="   M 126.99 256.66   L 498.64 41.97   A 1.98 1.98 0.0 0 1 500.62 41.97   L 872.72 256.17   A 1.98 1.98 0.0 0 1 872.73 259.60   L 501.03 474.18   A 1.98 1.98 0.0 0 1 499.05 474.18   L 127.00 260.09   A 1.98 1.98 0.0 0 1 126.99 256.66   Z"
     id="path5"
     style="fill:#bebebe;fill-opacity:1" />
  <path
     fill="#ffd700"
     d="   M 521.58 512.35   Q 521.84 511.72 522.42 511.38   L 894.95 296.32   A 0.99 0.99 0.0 0 1 896.44 297.18   Q 896.45 302.48 896.52 308.06   C 898.23 447.22 896.67 586.34 897.05 725.46   A 3.90 3.89 -15.1 0 1 895.10 728.85   L 524.31 942.82   A 2.05 2.05 0.0 0 1 521.23 941.05   Q 521.25 727.24 521.36 513.50   Q 521.36 512.90 521.58 512.35   Z"
     id="path6" />
  <path
     fill="#ff3632"
     d="   M 476.73 943.54   C 353.28 872.77 229.74 801.77 106.43 730.57   C 104.04 729.19 103.25 727.94 103.25 725.02   Q 103.25 512.01 103.25 299.20   A 2.98 2.05 -25.6 0 1 104.40 297.20   Q 105.07 296.67 106.34 297.40   Q 292.30 404.40 477.76 511.20   A 2.36 2.34 -75.3 0 1 478.93 513.22   C 479.14 545.01 478.74 576.92 478.81 608.82   Q 479.02 699.38 479.04 789.95   C 479.06 840.99 480.24 886.99 479.43 913.94   Q 479.01 927.96 478.73 942.41   A 1.33 1.33 0.0 0 1 476.73 943.54   Z"
     id="path7" />
</svg>
