<?xml version="1.0" encoding="UTF-8" standalone="no"?>
<svg
   version="1.1"
   viewBox="0.00 0.00 228.00 228.00"
   id="svg1"
   sodipodi:docname="e.svg"
   inkscape:version="1.3 (0e150ed6c4, 2023-07-21)"
   xmlns:inkscape="http://www.inkscape.org/namespaces/inkscape"
   xmlns:sodipodi="http://sodipodi.sourceforge.net/DTD/sodipodi-0.dtd"
   xmlns="http://www.w3.org/2000/svg"
   xmlns:svg="http://www.w3.org/2000/svg">
  <defs
     id="defs1" />
  <sodipodi:namedview
     id="namedview1"
     pagecolor="#ffffff"
     bordercolor="#000000"
     borderopacity="0.25"
     inkscape:showpageshadow="2"
     inkscape:pageopacity="0.0"
     inkscape:pagecheckerboard="0"
     inkscape:deskcolor="#d1d1d1"
     inkscape:zoom="3.5701754"
     inkscape:cx="113.85995"
     inkscape:cy="114"
     inkscape:window-width="1920"
     inkscape:window-height="1010"
     inkscape:window-x="1913"
     inkscape:window-y="-6"
     inkscape:window-maximized="1"
     inkscape:current-layer="svg1" />
  <path
     fill="#094065"
     d="   M 109.81 0.00   L 118.52 0.00   C 179.29 3.26 224.68 49.73 228.00 110.30   L 228.00 117.55   C 225.24 178.70 178.44 224.98 117.44 228.00   L 110.42 228.00   C 49.57 224.58 2.82 179.05 0.00 117.93   L 0.00 110.68   C 2.68 49.71 48.97 3.41 109.81 0.00   Z   M 220.99 114.01   A 106.99 106.99 0.0 0 0 114.00 7.02   A 106.99 106.99 0.0 0 0 7.01 114.01   A 106.99 106.99 0.0 0 0 114.00 221.00   A 106.99 106.99 0.0 0 0 220.99 114.01   Z"
     id="path1"
     style="fill:#2c4a3e;fill-opacity:1" />
</svg>
