<?xml version="1.0" encoding="UTF-8" standalone="no"?>
<!DOCTYPE svg PUBLIC "-//W3C//DTD SVG 1.1//EN" "http://www.w3.org/Graphics/SVG/1.1/DTD/svg11.dtd">
<svg xmlns="http://www.w3.org/2000/svg" version="1.1" viewBox="0.00 0.00 228.00 228.00">
<path stroke="#9ca5a0" stroke-width="2.00" fill="none" stroke-linecap="butt" vector-effect="non-scaling-stroke" d="
  M 125.81 85.78
  L 94.28 157.36
  Q 94.00 158.00 94.70 158.00
  L 110.73 158.00
  Q 111.21 158.00 111.40 157.56
  Q 126.73 121.78 141.95 85.96
  C 143.77 81.67 143.02 75.86 142.99 71.24
  Q 142.98 70.75 142.49 70.75
  L 85.75 70.75
  Q 85.25 70.75 85.25 71.25
  L 85.25 84.75
  Q 85.25 85.25 85.75 85.25
  L 125.47 85.25
  Q 126.04 85.25 125.81 85.78"
/>
<path fill="#394b41" d="
  M 109.82 0.00
  L 118.54 0.00
  C 179.12 3.35 224.71 49.58 228.00 110.05
  L 228.00 116.56
  C 225.82 178.03 178.95 224.82 117.69 228.00
  L 109.47 228.00
  C 48.64 224.82 3.84 178.59 0.00 117.97
  L 0.00 110.17
  C 3.22 49.55 49.07 3.13 109.82 0.00
  Z
  M 125.81 85.78
  L 94.28 157.36
  Q 94.00 158.00 94.70 158.00
  L 110.73 158.00
  Q 111.21 158.00 111.40 157.56
  Q 126.73 121.78 141.95 85.96
  C 143.77 81.67 143.02 75.86 142.99 71.24
  Q 142.98 70.75 142.49 70.75
  L 85.75 70.75
  Q 85.25 70.75 85.25 71.25
  L 85.25 84.75
  Q 85.25 85.25 85.75 85.25
  L 125.47 85.25
  Q 126.04 85.25 125.81 85.78
  Z"
/>
<path fill="#ffffff" d="
  M 125.47 85.25
  L 85.75 85.25
  Q 85.25 85.25 85.25 84.75
  L 85.25 71.25
  Q 85.25 70.75 85.75 70.75
  L 142.49 70.75
  Q 142.98 70.75 142.99 71.24
  C 143.02 75.86 143.77 81.67 141.95 85.96
  Q 126.73 121.78 111.40 157.56
  Q 111.21 158.00 110.73 158.00
  L 94.70 158.00
  Q 94.00 158.00 94.28 157.36
  L 125.81 85.78
  Q 126.04 85.25 125.47 85.25
  Z"
/>
</svg>
