<?xml version="1.0" encoding="UTF-8" standalone="no"?>
<svg
   version="1.1"
   viewBox="0.00 0.00 1000.00 1000.00"
   id="svg7"
   sodipodi:docname="b.svg"
   inkscape:version="1.3 (0e150ed6c4, 2023-07-21)"
   xmlns:inkscape="http://www.inkscape.org/namespaces/inkscape"
   xmlns:sodipodi="http://sodipodi.sourceforge.net/DTD/sodipodi-0.dtd"
   xmlns="http://www.w3.org/2000/svg"
   xmlns:svg="http://www.w3.org/2000/svg">
  <defs
     id="defs7" />
  <sodipodi:namedview
     id="namedview7"
     pagecolor="#ffffff"
     bordercolor="#000000"
     borderopacity="0.25"
     inkscape:showpageshadow="2"
     inkscape:pageopacity="0.0"
     inkscape:pagecheckerboard="0"
     inkscape:deskcolor="#d1d1d1"
     inkscape:zoom="0.814"
     inkscape:cx="499.38575"
     inkscape:cy="500"
     inkscape:window-width="1920"
     inkscape:window-height="1010"
     inkscape:window-x="1913"
     inkscape:window-y="-6"
     inkscape:window-maximized="1"
     inkscape:current-layer="svg7" />
  <g
     stroke-width="2.00"
     fill="none"
     stroke-linecap="butt"
     id="g3">
    <path
       stroke="#757575"
       vector-effect="non-scaling-stroke"
       d="   M 126.80 260.20   L 499.10 474.37   A 1.46 1.46 0.0 0 0 500.54 474.37   L 872.88 259.55   A 1.81 1.80 -45.1 0 0 872.88 256.42   L 500.53 42.22   A 1.98 1.97 -44.8 0 0 498.54 42.22   Q 313.14 149.23 127.37 256.27   Q 125.51 257.34 126.16 259.38   A 1.52 1.30 -87.5 0 0 126.80 260.20"
       id="path1" />
    <path
       stroke="#166c92"
       vector-effect="non-scaling-stroke"
       d="   M 895.10 297.10   C 891.40 298.08 888.23 300.08 884.90 302.00   Q 703.48 406.64 522.06 511.34   A 1.63 1.61 -15.2 0 0 521.25 512.74   L 521.25 942.45   A 1.42 1.41 -15.1 0 0 523.38 943.67   L 896.20 728.55   A 2.60 2.60 0.0 0 0 897.50 726.30   L 897.50 298.94   A 1.91 1.91 0.0 0 0 895.10 297.10"
       id="path2" />
    <path
       stroke="#16744d"
       vector-effect="non-scaling-stroke"
       d="   M 103.95 729.41   L 476.71 943.82   A 1.81 1.81 0.0 0 0 479.43 942.25   L 479.53 513.33   A 1.81 1.81 0.0 0 0 478.62 511.76   L 105.73 297.25   A 1.57 1.57 0.0 0 0 103.37 298.52   C 102.56 312.10 103.02 326.45 103.01 340.17   Q 102.97 518.93 103.27 697.69   Q 103.30 713.08 103.09 727.90   Q 103.08 728.90 103.95 729.41"
       id="path3" />
  </g>
  <path
     fill="#2c2c2c"
     d="   M 487.96 993.70   C 349.67 914.61 195.10 826.16 73.55 755.21   Q 64.34 749.84 64.33 738.44   Q 64.09 502.18 64.42 265.93   C 64.43 259.63 65.35 254.16 66.96 248.42   A 3.06 3.05 83.1 0 1 68.39 246.59   Q 275.93 126.70 483.89 6.81   Q 491.64 2.34 495.79 1.65   C 504.65 0.17 513.41 5.47 520.94 9.80   Q 825.84 185.02 927.26 243.99   C 933.87 247.83 934.74 254.44 934.78 262.33   Q 935.58 444.54 935.51 626.75   Q 935.51 626.91 935.61 626.99   Q 935.74 627.11 935.74 627.28   Q 935.78 680.27 935.72 733.26   Q 935.70 749.98 921.53 757.81   Q 717.04 875.91 512.42 993.80   C 501.33 1000.19 498.80 999.90 487.96 993.70   Z   M 126.80 260.20   L 499.10 474.37   A 1.46 1.46 0.0 0 0 500.54 474.37   L 872.88 259.55   A 1.81 1.80 -45.1 0 0 872.88 256.42   L 500.53 42.22   A 1.98 1.97 -44.8 0 0 498.54 42.22   Q 313.14 149.23 127.37 256.27   Q 125.51 257.34 126.16 259.38   A 1.52 1.30 -87.5 0 0 126.80 260.20   Z   M 895.10 297.10   C 891.40 298.08 888.23 300.08 884.90 302.00   Q 703.48 406.64 522.06 511.34   A 1.63 1.61 -15.2 0 0 521.25 512.74   L 521.25 942.45   A 1.42 1.41 -15.1 0 0 523.38 943.67   L 896.20 728.55   A 2.60 2.60 0.0 0 0 897.50 726.30   L 897.50 298.94   A 1.91 1.91 0.0 0 0 895.10 297.10   Z   M 103.95 729.41   L 476.71 943.82   A 1.81 1.81 0.0 0 0 479.43 942.25   L 479.53 513.33   A 1.81 1.81 0.0 0 0 478.62 511.76   L 105.73 297.25   A 1.57 1.57 0.0 0 0 103.37 298.52   C 102.56 312.10 103.02 326.45 103.01 340.17   Q 102.97 518.93 103.27 697.69   Q 103.30 713.08 103.09 727.90   Q 103.08 728.90 103.95 729.41   Z"
     id="path4" />
  <path
     fill="#bebebe"
     d="   M 499.10 474.37   L 126.80 260.20   A 1.52 1.30 -87.5 0 1 126.16 259.38   Q 125.51 257.34 127.37 256.27   Q 313.14 149.23 498.54 42.22   A 1.98 1.97 -44.8 0 1 500.53 42.22   L 872.88 256.42   A 1.81 1.80 -45.1 0 1 872.88 259.55   L 500.54 474.37   A 1.46 1.46 0.0 0 1 499.10 474.37   Z"
     id="path5"
     style="fill:#ff32b6;fill-opacity:1" />
  <path
     fill="#00abf7"
     d="   M 895.10 297.10   A 1.91 1.91 0.0 0 1 897.50 298.94   L 897.50 726.30   A 2.60 2.60 0.0 0 1 896.20 728.55   L 523.38 943.67   A 1.42 1.41 -15.1 0 1 521.25 942.45   L 521.25 512.74   A 1.63 1.61 -15.2 0 1 522.06 511.34   Q 703.48 406.64 884.90 302.00   C 888.23 300.08 891.40 298.08 895.10 297.10   Z"
     id="path6" />
  <path
     fill="#00bb6e"
     d="   M 476.71 943.82   L 103.95 729.41   Q 103.08 728.90 103.09 727.90   Q 103.30 713.08 103.27 697.69   Q 102.97 518.93 103.01 340.17   C 103.02 326.45 102.56 312.10 103.37 298.52   A 1.57 1.57 0.0 0 1 105.73 297.25   L 478.62 511.76   A 1.81 1.81 0.0 0 1 479.53 513.33   L 479.43 942.25   A 1.81 1.81 0.0 0 1 476.71 943.82   Z"
     id="path7" />
</svg>
