<?xml version="1.0" encoding="UTF-8" standalone="no"?>
<svg
   version="1.1"
   viewBox="0.00 0.00 150.00 150.00"
   id="svg4"
   sodipodi:docname="26.svg"
   inkscape:version="1.3 (0e150ed6c4, 2023-07-21)"
   xmlns:inkscape="http://www.inkscape.org/namespaces/inkscape"
   xmlns:sodipodi="http://sodipodi.sourceforge.net/DTD/sodipodi-0.dtd"
   xmlns="http://www.w3.org/2000/svg"
   xmlns:svg="http://www.w3.org/2000/svg">
  <defs
     id="defs4" />
  <sodipodi:namedview
     id="namedview4"
     pagecolor="#ffffff"
     bordercolor="#000000"
     borderopacity="0.25"
     inkscape:showpageshadow="2"
     inkscape:pageopacity="0.0"
     inkscape:pagecheckerboard="0"
     inkscape:deskcolor="#d1d1d1"
     inkscape:zoom="1.9186164"
     inkscape:cx="-7.5575295"
     inkscape:cy="53.163311"
     inkscape:window-width="1920"
     inkscape:window-height="1010"
     inkscape:window-x="-6"
     inkscape:window-y="-6"
     inkscape:window-maximized="1"
     inkscape:current-layer="svg4" />
  <path
     fill="#094065"
     d="   M 0.00 0.00   L 150.00 0.00   L 150.00 150.00   L 0.00 150.00   L 0.00 0.00   Z   M 140.75 9.51   A 0.26 0.26 0.0 0 0 140.49 9.25   L 9.51 9.25   A 0.26 0.26 0.0 0 0 9.25 9.51   L 9.25 140.49   A 0.26 0.26 0.0 0 0 9.51 140.75   L 140.49 140.75   A 0.26 0.26 0.0 0 0 140.75 140.49   L 140.75 9.51   Z"
     id="path1"
     style="fill:#333333;fill-opacity:1" />
  <circle
     fill="#ff8811"
     cx="66.11"
     cy="66.12"
     r="4.88"
     id="circle1"
     style="fill:#00784c;fill-opacity:1" />
  <circle
     fill="#ff8811"
     cx="83.87"
     cy="66.12"
     r="4.88"
     id="circle2"
     style="fill:#00784c;fill-opacity:1" />
  <rect
     fill="#ff8811"
     x="21.75"
     y="74.25"
     width="108.50"
     height="2.76"
     rx="0.60"
     id="rect2"
     style="fill:#00784c;fill-opacity:1" />
  <circle
     fill="#ff8811"
     cx="66.12"
     cy="85.17"
     r="4.86"
     id="circle3"
     style="fill:#00784c;fill-opacity:1" />
  <circle
     fill="#ff8811"
     cx="83.89"
     cy="85.18"
     r="4.87"
     id="circle4"
     style="fill:#00784c;fill-opacity:1" />
</svg>
