<?xml version="1.0" encoding="UTF-8" standalone="no"?>
<!DOCTYPE svg PUBLIC "-//W3C//DTD SVG 1.1//EN" "http://www.w3.org/Graphics/SVG/1.1/DTD/svg11.dtd">
<svg xmlns="http://www.w3.org/2000/svg" version="1.1" viewBox="0.00 0.00 228.00 228.00">
<path stroke="#9ca5a0" stroke-width="2.00" fill="none" stroke-linecap="butt" vector-effect="non-scaling-stroke" d="
  M 128.67 111.34
  C 138.29 107.01 142.58 98.19 140.98 87.84
  C 138.10 69.08 115.26 65.08 100.47 70.69
  Q 85.55 76.36 84.72 93.18
  Q 84.69 93.75 85.25 93.75
  L 100.44 93.75
  Q 100.94 93.75 101.05 93.26
  Q 103.66 81.12 116.44 83.20
  Q 124.04 84.44 124.97 91.52
  C 126.61 104.06 114.20 105.30 105.04 104.99
  A 0.52 0.52 0.0 0 0 104.50 105.51
  L 104.50 118.50
  A 0.54 0.54 0.0 0 0 105.06 119.04
  C 114.86 118.72 127.03 119.79 126.77 131.95
  C 126.64 138.17 123.51 143.37 117.04 144.25
  Q 102.24 146.26 99.58 131.98
  Q 99.49 131.50 99.00 131.50
  L 83.99 131.50
  Q 83.43 131.50 83.46 132.06
  Q 84.42 152.27 103.75 157.30
  C 123.78 162.52 145.67 153.48 142.52 129.18
  C 141.34 120.12 136.66 115.41 128.67 112.02
  Q 127.90 111.69 128.67 111.34"
/>
<path fill="#394b41" d="
  M 109.82 0.00
  L 118.54 0.00
  C 179.12 3.35 224.71 49.58 228.00 110.05
  L 228.00 116.56
  C 225.82 178.03 178.95 224.82 117.69 228.00
  L 109.47 228.00
  C 48.64 224.82 3.84 178.59 0.00 117.97
  L 0.00 110.17
  C 3.22 49.55 49.07 3.13 109.82 0.00
  Z
  M 128.67 111.34
  C 138.29 107.01 142.58 98.19 140.98 87.84
  C 138.10 69.08 115.26 65.08 100.47 70.69
  Q 85.55 76.36 84.72 93.18
  Q 84.69 93.75 85.25 93.75
  L 100.44 93.75
  Q 100.94 93.75 101.05 93.26
  Q 103.66 81.12 116.44 83.20
  Q 124.04 84.44 124.97 91.52
  C 126.61 104.06 114.20 105.30 105.04 104.99
  A 0.52 0.52 0.0 0 0 104.50 105.51
  L 104.50 118.50
  A 0.54 0.54 0.0 0 0 105.06 119.04
  C 114.86 118.72 127.03 119.79 126.77 131.95
  C 126.64 138.17 123.51 143.37 117.04 144.25
  Q 102.24 146.26 99.58 131.98
  Q 99.49 131.50 99.00 131.50
  L 83.99 131.50
  Q 83.43 131.50 83.46 132.06
  Q 84.42 152.27 103.75 157.30
  C 123.78 162.52 145.67 153.48 142.52 129.18
  C 141.34 120.12 136.66 115.41 128.67 112.02
  Q 127.90 111.69 128.67 111.34
  Z"
/>
<path fill="#ffffff" d="
  M 128.67 112.02
  C 136.66 115.41 141.34 120.12 142.52 129.18
  C 145.67 153.48 123.78 162.52 103.75 157.30
  Q 84.42 152.27 83.46 132.06
  Q 83.43 131.50 83.99 131.50
  L 99.00 131.50
  Q 99.49 131.50 99.58 131.98
  Q 102.24 146.26 117.04 144.25
  C 123.51 143.37 126.64 138.17 126.77 131.95
  C 127.03 119.79 114.86 118.72 105.06 119.04
  A 0.54 0.54 0.0 0 1 104.50 118.50
  L 104.50 105.51
  A 0.52 0.52 0.0 0 1 105.04 104.99
  C 114.20 105.30 126.61 104.06 124.97 91.52
  Q 124.04 84.44 116.44 83.20
  Q 103.66 81.12 101.05 93.26
  Q 100.94 93.75 100.44 93.75
  L 85.25 93.75
  Q 84.69 93.75 84.72 93.18
  Q 85.55 76.36 100.47 70.69
  C 115.26 65.08 138.10 69.08 140.98 87.84
  C 142.58 98.19 138.29 107.01 128.67 111.34
  Q 127.90 111.69 128.67 112.02
  Z"
/>
</svg>
