<?xml version="1.0" encoding="UTF-8" standalone="no"?>
<svg
   version="1.1"
   viewBox="0.00 0.00 590.00 615.00"
   id="svg7"
   sodipodi:docname="c.svg"
   inkscape:version="1.3 (0e150ed6c4, 2023-07-21)"
   xmlns:inkscape="http://www.inkscape.org/namespaces/inkscape"
   xmlns:sodipodi="http://sodipodi.sourceforge.net/DTD/sodipodi-0.dtd"
   xmlns="http://www.w3.org/2000/svg"
   xmlns:svg="http://www.w3.org/2000/svg">
  <defs
     id="defs7" />
  <sodipodi:namedview
     id="namedview7"
     pagecolor="#ffffff"
     bordercolor="#000000"
     borderopacity="0.25"
     inkscape:showpageshadow="2"
     inkscape:pageopacity="0.0"
     inkscape:pagecheckerboard="0"
     inkscape:deskcolor="#d1d1d1"
     inkscape:zoom="1.3235772"
     inkscape:cx="295.03379"
     inkscape:cy="307.50001"
     inkscape:window-width="1920"
     inkscape:window-height="1010"
     inkscape:window-x="-6"
     inkscape:window-y="-6"
     inkscape:window-maximized="1"
     inkscape:current-layer="svg7" />
  <g
     stroke-width="2.00"
     fill="none"
     stroke-linecap="butt"
     id="g3">
    <path
       stroke="#18553c"
       vector-effect="non-scaling-stroke"
       d="   M 43.35 137.40   A 0.33 0.33 0.0 0 0 43.34 138.00   L 294.67 257.69   A 0.33 0.33 0.0 0 0 294.95 257.69   L 546.19 137.93   A 0.33 0.33 0.0 0 0 546.18 137.33   L 294.74 26.77   A 0.33 0.33 0.0 0 0 294.48 26.77   L 43.35 137.40"
       id="path1" />
    <path
       stroke="#18553c"
       vector-effect="non-scaling-stroke"
       d="   M 563.51 458.40   L 563.57 159.14   Q 563.57 158.62 563.10 158.84   L 307.88 280.15   A 1.55 1.54 -12.8 0 0 307.00 281.54   L 307.00 580.06   A 0.39 0.39 0.0 0 0 307.55 580.41   L 563.32 458.71   Q 563.51 458.62 563.51 458.40"
       id="path2" />
    <path
       stroke="#18553c"
       vector-effect="non-scaling-stroke"
       d="   M 280.00 279.75   A 0.35 0.35 0.0 0 0 279.80 279.44   L 26.49 159.04   A 0.35 0.35 0.0 0 0 25.99 159.35   L 26.01 458.56   A 0.35 0.35 0.0 0 0 26.21 458.87   L 279.50 579.23   A 0.35 0.35 0.0 0 0 280.00 578.92   L 280.00 279.75"
       id="path3" />
  </g>
  <path
     fill="#303030"
     d="   M 293.31 0.00   L 296.05 0.00   Q 297.89 0.64 299.64 1.41   Q 436.98 61.64 574.17 122.22   C 579.79 124.70 588.31 126.86 590.00 133.06   L 590.00 470.31   C 589.29 473.96 587.53 475.85 584.03 477.51   Q 460.47 536.33 336.86 595.04   C 324.26 601.03 311.44 606.75 298.70 612.53   C 296.50 613.52 294.14 614.54 292.02 613.54   Q 227.82 583.45 6.54 478.14   C 3.17 476.53 0.17 474.18 0.23 470.50   Q 0.44 457.71 0.00 444.94   L 0.00 226.94   C 0.11 195.95 -0.88 164.10 1.71 133.26   C 2.09 128.68 17.65 120.94 21.91 119.07   Q 156.35 60.08 290.67 0.84   C 291.47 0.49 292.47 0.43 293.31 0.00   Z   M 43.35 137.40   A 0.33 0.33 0.0 0 0 43.34 138.00   L 294.67 257.69   A 0.33 0.33 0.0 0 0 294.95 257.69   L 546.19 137.93   A 0.33 0.33 0.0 0 0 546.18 137.33   L 294.74 26.77   A 0.33 0.33 0.0 0 0 294.48 26.77   L 43.35 137.40   Z   M 563.51 458.40   L 563.57 159.14   Q 563.57 158.62 563.10 158.84   L 307.88 280.15   A 1.55 1.54 -12.8 0 0 307.00 281.54   L 307.00 580.06   A 0.39 0.39 0.0 0 0 307.55 580.41   L 563.32 458.71   Q 563.51 458.62 563.51 458.40   Z   M 280.00 279.75   A 0.35 0.35 0.0 0 0 279.80 279.44   L 26.49 159.04   A 0.35 0.35 0.0 0 0 25.99 159.35   L 26.01 458.56   A 0.35 0.35 0.0 0 0 26.21 458.87   L 279.50 579.23   A 0.35 0.35 0.0 0 0 280.00 578.92   L 280.00 279.75   Z"
     id="path4" />
  <path
     fill="#007948"
     d="   M 43.35 137.40   L 294.48 26.77   A 0.33 0.33 0.0 0 1 294.74 26.77   L 546.18 137.33   A 0.33 0.33 0.0 0 1 546.19 137.93   L 294.95 257.69   A 0.33 0.33 0.0 0 1 294.67 257.69   L 43.34 138.00   A 0.33 0.33 0.0 0 1 43.35 137.40   Z"
     id="path5"
     style="fill:#00a86b;fill-opacity:1" />
  <path
     fill="#007948"
     d="   M 563.57 159.14   L 563.51 458.40   Q 563.51 458.62 563.32 458.71   L 307.55 580.41   A 0.39 0.39 0.0 0 1 307.00 580.06   L 307.00 281.54   A 1.55 1.54 -12.8 0 1 307.88 280.15   L 563.10 158.84   Q 563.57 158.62 563.57 159.14   Z"
     id="path6"
     style="fill:#00a86b;fill-opacity:1" />
  <path
     fill="#007948"
     d="   M 280.00 279.75   L 280.00 578.92   A 0.35 0.35 0.0 0 1 279.50 579.23   L 26.21 458.87   A 0.35 0.35 0.0 0 1 26.01 458.56   L 25.99 159.35   A 0.35 0.35 0.0 0 1 26.49 159.04   L 279.80 279.44   A 0.35 0.35 0.0 0 1 280.00 279.75   Z"
     id="path7"
     style="fill:#00a86b;fill-opacity:1" />
</svg>
