<?xml version="1.0" encoding="UTF-8" standalone="no"?>
<!DOCTYPE svg PUBLIC "-//W3C//DTD SVG 1.1//EN" "http://www.w3.org/Graphics/SVG/1.1/DTD/svg11.dtd">
<svg xmlns="http://www.w3.org/2000/svg" version="1.1" viewBox="0.00 0.00 830.00 830.00">
<path fill="#303030" d="
  M 0.00 0.00
  L 830.00 0.00
  L 830.00 830.00
  L 0.00 830.00
  L 0.00 0.00
  Z
  M 784.00 46.26
  A 0.26 0.26 0.0 0 0 783.74 46.00
  L 46.26 46.00
  A 0.26 0.26 0.0 0 0 46.00 46.26
  L 46.00 783.74
  A 0.26 0.26 0.0 0 0 46.26 784.00
  L 783.74 784.00
  A 0.26 0.26 0.0 0 0 784.00 783.74
  L 784.00 46.26
  Z"
/>
<path fill="#00aa68" d="
  M 754.00 639.56
  A 0.44 0.44 0.0 0 1 753.56 640.00
  L 77.44 640.00
  A 0.44 0.44 0.0 0 1 77.00 639.56
  L 77.00 185.44
  A 0.44 0.44 0.0 0 1 77.44 185.00
  L 753.56 185.00
  A 0.44 0.44 0.0 0 1 754.00 185.44
  L 754.00 639.56
  Z
  M 708.00 231.57
  A 0.57 0.57 0.0 0 0 707.43 231.00
  L 123.57 231.00
  A 0.57 0.57 0.0 0 0 123.00 231.57
  L 123.00 593.43
  A 0.57 0.57 0.0 0 0 123.57 594.00
  L 707.43 594.00
  A 0.57 0.57 0.0 0 0 708.00 593.43
  L 708.00 231.57
  Z"
/>
</svg>
