<?xml version="1.0" encoding="UTF-8" standalone="no"?>
<svg
   version="1.1"
   viewBox="0.00 0.00 590.00 615.00"
   id="svg7"
   sodipodi:docname="d.svg"
   inkscape:version="1.3 (0e150ed6c4, 2023-07-21)"
   xmlns:inkscape="http://www.inkscape.org/namespaces/inkscape"
   xmlns:sodipodi="http://sodipodi.sourceforge.net/DTD/sodipodi-0.dtd"
   xmlns="http://www.w3.org/2000/svg"
   xmlns:svg="http://www.w3.org/2000/svg">
  <defs
     id="defs7" />
  <sodipodi:namedview
     id="namedview7"
     pagecolor="#ffffff"
     bordercolor="#000000"
     borderopacity="0.25"
     inkscape:showpageshadow="2"
     inkscape:pageopacity="0.0"
     inkscape:pagecheckerboard="0"
     inkscape:deskcolor="#d1d1d1"
     inkscape:zoom="1.3235772"
     inkscape:cx="295.03379"
     inkscape:cy="307.50001"
     inkscape:window-width="1920"
     inkscape:window-height="1010"
     inkscape:window-x="-6"
     inkscape:window-y="-6"
     inkscape:window-maximized="1"
     inkscape:current-layer="svg7" />
  <g
     stroke-width="2.00"
     fill="none"
     stroke-linecap="butt"
     id="g3">
    <path
       stroke="#919795"
       vector-effect="non-scaling-stroke"
       d="   M 43.29 137.42   A 0.31 0.31 0.0 0 0 43.28 137.98   L 294.64 257.70   A 0.31 0.31 0.0 0 0 294.90 257.70   L 546.23 137.90   A 0.31 0.31 0.0 0 0 546.22 137.34   L 294.75 26.74   A 0.31 0.31 0.0 0 0 294.51 26.75   L 43.29 137.42"
       id="path1" />
    <path
       stroke="#919795"
       vector-effect="non-scaling-stroke"
       d="   M 279.52 279.28   L 26.15 158.86   Q 25.80 158.69 25.80 159.08   L 26.08 458.42   Q 26.08 458.83 26.45 459.01   L 279.22 579.11   A 0.55 0.54 12.7 0 0 280.00 578.62   L 280.00 280.03   Q 280.00 279.50 279.52 279.28"
       id="path2" />
    <path
       stroke="#18553c"
       vector-effect="non-scaling-stroke"
       d="   M 563.51 458.40   L 563.57 159.15   Q 563.57 158.67 563.13 158.88   L 307.78 280.24   A 1.37 1.36 -12.7 0 0 307.00 281.47   L 307.00 579.77   Q 307.00 580.67 307.82 580.28   L 563.32 458.72   Q 563.51 458.62 563.51 458.40"
       id="path3" />
  </g>
  <path
     fill="#303030"
     d="   M 293.31 0.00   L 296.05 0.00   Q 299.00 0.99 300.41 1.61   Q 437.55 61.89 574.59 122.40   C 580.01 124.79 588.46 126.99 590.00 133.07   L 590.00 470.31   C 589.29 473.96 587.53 475.85 584.03 477.51   Q 460.47 536.33 336.86 595.04   C 324.26 601.03 311.45 606.74 298.71 612.52   C 296.50 613.52 294.17 614.54 292.02 613.53   Q 224.86 582.05 6.54 478.14   C 3.16 476.53 0.17 474.18 0.23 470.50   Q 0.44 457.71 0.00 444.94   L 0.00 226.94   C 0.21 196.37 -0.51 165.50 1.52 135.01   C 1.97 128.13 16.19 121.58 21.91 119.07   Q 156.35 60.08 290.68 0.84   C 291.47 0.50 292.47 0.42 293.31 0.00   Z   M 43.29 137.42   A 0.31 0.31 0.0 0 0 43.28 137.98   L 294.64 257.70   A 0.31 0.31 0.0 0 0 294.90 257.70   L 546.23 137.90   A 0.31 0.31 0.0 0 0 546.22 137.34   L 294.75 26.74   A 0.31 0.31 0.0 0 0 294.51 26.75   L 43.29 137.42   Z   M 279.52 279.28   L 26.15 158.86   Q 25.80 158.69 25.80 159.08   L 26.08 458.42   Q 26.08 458.83 26.45 459.01   L 279.22 579.11   A 0.55 0.54 12.7 0 0 280.00 578.62   L 280.00 280.03   Q 280.00 279.50 279.52 279.28   Z   M 563.51 458.40   L 563.57 159.15   Q 563.57 158.67 563.13 158.88   L 307.78 280.24   A 1.37 1.36 -12.7 0 0 307.00 281.47   L 307.00 579.77   Q 307.00 580.67 307.82 580.28   L 563.32 458.72   Q 563.51 458.62 563.51 458.40   Z"
     id="path4" />
  <path
     fill="#f1fdfa"
     d="   M 43.29 137.42   L 294.51 26.75   A 0.31 0.31 0.0 0 1 294.75 26.74   L 546.22 137.34   A 0.31 0.31 0.0 0 1 546.23 137.90   L 294.90 257.70   A 0.31 0.31 0.0 0 1 294.64 257.70   L 43.28 137.98   A 0.31 0.31 0.0 0 1 43.29 137.42   Z"
     id="path5" />
  <path
     fill="#f1fdfa"
     d="   M 26.15 158.86   L 279.52 279.28   Q 280.00 279.50 280.00 280.03   L 280.00 578.62   A 0.55 0.54 12.7 0 1 279.22 579.11   L 26.45 459.01   Q 26.08 458.83 26.08 458.42   L 25.80 159.08   Q 25.80 158.69 26.15 158.86   Z"
     id="path6" />
  <path
     fill="#007948"
     d="   M 563.57 159.15   L 563.51 458.40   Q 563.51 458.62 563.32 458.72   L 307.82 580.28   Q 307.00 580.67 307.00 579.77   L 307.00 281.47   A 1.37 1.36 -12.7 0 1 307.78 280.24   L 563.13 158.88   Q 563.57 158.67 563.57 159.15   Z"
     id="path7"
     style="fill:#00a86b;fill-opacity:1" />
</svg>
