<?xml version="1.0" encoding="UTF-8" standalone="no"?>
<svg
   version="1.1"
   viewBox="0.00 0.00 1000.00 1000.00"
   id="svg7"
   sodipodi:docname="e.svg"
   inkscape:version="1.3 (0e150ed6c4, 2023-07-21)"
   xmlns:inkscape="http://www.inkscape.org/namespaces/inkscape"
   xmlns:sodipodi="http://sodipodi.sourceforge.net/DTD/sodipodi-0.dtd"
   xmlns="http://www.w3.org/2000/svg"
   xmlns:svg="http://www.w3.org/2000/svg">
  <defs
     id="defs7" />
  <sodipodi:namedview
     id="namedview7"
     pagecolor="#ffffff"
     bordercolor="#000000"
     borderopacity="0.25"
     inkscape:showpageshadow="2"
     inkscape:pageopacity="0.0"
     inkscape:pagecheckerboard="0"
     inkscape:deskcolor="#d1d1d1"
     inkscape:zoom="0.814"
     inkscape:cx="499.38575"
     inkscape:cy="500"
     inkscape:window-width="1920"
     inkscape:window-height="1010"
     inkscape:window-x="1913"
     inkscape:window-y="-6"
     inkscape:window-maximized="1"
     inkscape:current-layer="svg7" />
  <g
     stroke-width="2.00"
     fill="none"
     stroke-linecap="butt"
     id="g3">
    <path
       stroke="#757575"
       vector-effect="non-scaling-stroke"
       d="   M 128.54 261.73   C 250.89 332.22 373.27 402.66 495.67 473.05   C 498.83 474.87 499.79 474.83 502.82 473.08   Q 686.50 367.03 870.16 260.95   C 871.04 260.44 871.79 259.65 872.39 258.95   Q 873.96 257.16 871.90 255.97   Q 688.88 150.58 505.74 45.21   C 502.14 43.14 499.51 40.91 495.32 43.33   Q 312.27 149.10 129.23 254.90   C 126.37 256.55 125.04 259.72 128.54 261.73"
       id="path1" />
    <path
       stroke="#16744d"
       vector-effect="non-scaling-stroke"
       d="   M 521.97 943.08   C 524.12 942.97 525.89 941.62 527.72 940.56   Q 711.81 834.34 895.69 728.13   A 1.60 1.60 0.0 0 0 896.50 726.74   L 896.50 297.87   A 1.95 1.94 75.0 0 0 893.59 296.18   L 521.86 510.77   Q 520.75 511.41 520.75 512.69   L 520.75 941.92   A 1.16 1.16 0.0 0 0 521.97 943.08"
       id="path2" />
    <path
       stroke="#166c92"
       vector-effect="non-scaling-stroke"
       d="   M 102.69 383.19   Q 103.35 476.05 102.94 711.73   C 102.93 716.47 102.56 721.44 102.46 726.34   A 1.18 1.15 25.9 0 0 102.74 727.12   Q 105.06 729.94 109.67 732.59   Q 292.25 837.86 475.92 943.37   A 1.89 1.89 0.0 0 0 478.75 941.73   L 478.75 514.23   A 4.16 4.16 0.0 0 0 476.67 510.63   Q 291.95 404.24 106.95 297.79   C 102.92 295.47 102.24 300.51 102.24 303.01   Q 102.25 321.70 102.69 383.19"
       id="path3" />
  </g>
  <path
     fill="#2c2c2c"
     d="   M 493.38 996.96   C 352.93 916.58 204.20 831.30 73.07 754.68   C 65.43 750.21 64.60 743.95 64.58 734.91   Q 64.00 441.50 64.27 263.25   C 64.29 253.01 66.24 247.73 75.36 242.46   Q 279.89 124.25 484.56 6.30   C 494.23 0.73 500.87 -0.57 511.03 5.21   C 648.63 83.46 785.64 162.77 922.75 241.89   Q 928.19 245.03 930.27 247.80   Q 933.74 252.43 933.74 258.31   Q 933.65 495.91 934.80 733.50   C 934.88 751.45 921.03 757.38 908.24 764.77   Q 706.60 881.10 505.00 997.50   Q 499.68 1000.57 493.38 996.96   Z   M 128.54 261.73   C 250.89 332.22 373.27 402.66 495.67 473.05   C 498.83 474.87 499.79 474.83 502.82 473.08   Q 686.50 367.03 870.16 260.95   C 871.04 260.44 871.79 259.65 872.39 258.95   Q 873.96 257.16 871.90 255.97   Q 688.88 150.58 505.74 45.21   C 502.14 43.14 499.51 40.91 495.32 43.33   Q 312.27 149.10 129.23 254.90   C 126.37 256.55 125.04 259.72 128.54 261.73   Z   M 521.97 943.08   C 524.12 942.97 525.89 941.62 527.72 940.56   Q 711.81 834.34 895.69 728.13   A 1.60 1.60 0.0 0 0 896.50 726.74   L 896.50 297.87   A 1.95 1.94 75.0 0 0 893.59 296.18   L 521.86 510.77   Q 520.75 511.41 520.75 512.69   L 520.75 941.92   A 1.16 1.16 0.0 0 0 521.97 943.08   Z   M 102.69 383.19   Q 103.35 476.05 102.94 711.73   C 102.93 716.47 102.56 721.44 102.46 726.34   A 1.18 1.15 25.9 0 0 102.74 727.12   Q 105.06 729.94 109.67 732.59   Q 292.25 837.86 475.92 943.37   A 1.89 1.89 0.0 0 0 478.75 941.73   L 478.75 514.23   A 4.16 4.16 0.0 0 0 476.67 510.63   Q 291.95 404.24 106.95 297.79   C 102.92 295.47 102.24 300.51 102.24 303.01   Q 102.25 321.70 102.69 383.19   Z"
     id="path4" />
  <path
     fill="#bebebe"
     d="   M 495.67 473.05   C 373.27 402.66 250.89 332.22 128.54 261.73   C 125.04 259.72 126.37 256.55 129.23 254.90   Q 312.27 149.10 495.32 43.33   C 499.51 40.91 502.14 43.14 505.74 45.21   Q 688.88 150.58 871.90 255.97   Q 873.96 257.16 872.39 258.95   C 871.79 259.65 871.04 260.44 870.16 260.95   Q 686.50 367.03 502.82 473.08   C 499.79 474.83 498.83 474.87 495.67 473.05   Z"
     id="path5"
     style="fill:#ff32b6;fill-opacity:1" />
  <path
     fill="#00bb6e"
     d="   M 521.97 943.08   A 1.16 1.16 0.0 0 1 520.75 941.92   L 520.75 512.69   Q 520.75 511.41 521.86 510.77   L 893.59 296.18   A 1.95 1.94 75.0 0 1 896.50 297.87   L 896.50 726.74   A 1.60 1.60 0.0 0 1 895.69 728.13   Q 711.81 834.34 527.72 940.56   C 525.89 941.62 524.12 942.97 521.97 943.08   Z"
     id="path6" />
  <path
     fill="#00abf7"
     d="   M 102.69 383.19   Q 102.25 321.70 102.24 303.01   C 102.24 300.51 102.92 295.47 106.95 297.79   Q 291.95 404.24 476.67 510.63   A 4.16 4.16 0.0 0 1 478.75 514.23   L 478.75 941.73   A 1.89 1.89 0.0 0 1 475.92 943.37   Q 292.25 837.86 109.67 732.59   Q 105.06 729.94 102.74 727.12   A 1.18 1.15 25.9 0 1 102.46 726.34   C 102.56 721.44 102.93 716.47 102.94 711.73   Q 103.35 476.05 102.69 383.19   Z"
     id="path7" />
</svg>
