<?xml version="1.0" encoding="UTF-8" standalone="no"?>
<!DOCTYPE svg PUBLIC "-//W3C//DTD SVG 1.1//EN" "http://www.w3.org/Graphics/SVG/1.1/DTD/svg11.dtd">
<svg xmlns="http://www.w3.org/2000/svg" version="1.1" viewBox="0.00 0.00 228.00 228.00">
<g stroke-width="2.00" fill="none" stroke-linecap="butt">
<path stroke="#9ca5a0" vector-effect="non-scaling-stroke" d="
  M 95.26 111.24
  A 0.35 0.35 0.0 0 1 95.26 111.87
  Q 80.73 119.33 82.24 135.94
  C 84.73 163.37 125.04 166.72 139.86 149.06
  C 149.53 137.53 146.26 118.88 131.81 112.01
  A 0.37 0.37 0.0 0 1 131.78 111.35
  C 143.90 104.41 146.90 88.56 138.07 78.28
  C 127.77 66.29 103.26 65.72 91.53 75.70
  C 80.25 85.29 81.59 104.27 95.26 111.24"
/>
<path stroke="#9ca5a0" vector-effect="non-scaling-stroke" d="
  M 126.3836 93.5247
  A 10.83 10.83 0.0 0 0 115.5914 82.6569
  L 111.6714 82.6432
  A 10.83 10.83 0.0 0 0 100.8037 93.4354
  L 100.7964 95.5153
  A 10.83 10.83 0.0 0 0 111.5886 106.3831
  L 115.5086 106.3968
  A 10.83 10.83 0.0 0 0 126.3763 95.6046
  L 126.3836 93.5247"
/>
<path stroke="#9ca5a0" vector-effect="non-scaling-stroke" d="
  M 116.42 145.69
  C 136.15 142.18 130.70 115.35 109.99 119.51
  C 90.12 123.50 97.29 149.10 116.42 145.69"
/>
</g>
<path fill="#394b41" d="
  M 109.82 0.00
  L 118.54 0.00
  C 179.12 3.35 224.71 49.58 228.00 110.05
  L 228.00 116.56
  C 225.82 178.03 178.95 224.82 117.69 228.00
  L 109.47 228.00
  C 48.64 224.82 3.84 178.59 0.00 117.97
  L 0.00 110.17
  C 3.22 49.55 49.07 3.13 109.82 0.00
  Z
  M 95.26 111.24
  A 0.35 0.35 0.0 0 1 95.26 111.87
  Q 80.73 119.33 82.24 135.94
  C 84.73 163.37 125.04 166.72 139.86 149.06
  C 149.53 137.53 146.26 118.88 131.81 112.01
  A 0.37 0.37 0.0 0 1 131.78 111.35
  C 143.90 104.41 146.90 88.56 138.07 78.28
  C 127.77 66.29 103.26 65.72 91.53 75.70
  C 80.25 85.29 81.59 104.27 95.26 111.24
  Z"
/>
<path fill="#ffffff" d="
  M 95.26 111.24
  C 81.59 104.27 80.25 85.29 91.53 75.70
  C 103.26 65.72 127.77 66.29 138.07 78.28
  C 146.90 88.56 143.90 104.41 131.78 111.35
  A 0.37 0.37 0.0 0 0 131.81 112.01
  C 146.26 118.88 149.53 137.53 139.86 149.06
  C 125.04 166.72 84.73 163.37 82.24 135.94
  Q 80.73 119.33 95.26 111.87
  A 0.35 0.35 0.0 0 0 95.26 111.24
  Z
  M 126.3836 93.5247
  A 10.83 10.83 0.0 0 0 115.5914 82.6569
  L 111.6714 82.6432
  A 10.83 10.83 0.0 0 0 100.8037 93.4354
  L 100.7964 95.5153
  A 10.83 10.83 0.0 0 0 111.5886 106.3831
  L 115.5086 106.3968
  A 10.83 10.83 0.0 0 0 126.3763 95.6046
  L 126.3836 93.5247
  Z
  M 116.42 145.69
  C 136.15 142.18 130.70 115.35 109.99 119.51
  C 90.12 123.50 97.29 149.10 116.42 145.69
  Z"
/>
<rect fill="#394b41" x="-12.79" y="-11.87" transform="translate(113.59,94.52) rotate(0.2)" width="25.58" height="23.74" rx="10.83"/>
<path fill="#394b41" d="
  M 109.99 119.51
  C 130.70 115.35 136.15 142.18 116.42 145.69
  C 97.29 149.10 90.12 123.50 109.99 119.51
  Z"
/>
</svg>
