<?xml version="1.0" encoding="UTF-8" standalone="no"?>
<!DOCTYPE svg PUBLIC "-//W3C//DTD SVG 1.1//EN" "http://www.w3.org/Graphics/SVG/1.1/DTD/svg11.dtd">
<svg xmlns="http://www.w3.org/2000/svg" version="1.1" viewBox="0.00 0.00 1448.00 1448.00">
<path stroke="#186d4c" stroke-width="2.00" fill="none" stroke-linecap="butt" vector-effect="non-scaling-stroke" d="
  M 1205.00 240.88
  C 1178.28 214.72 1150.35 190.03 1121.82 169.43
  Q 1018.86 95.06 893.95 61.47
  Q 884.27 58.87 874.50 56.85
  Q 820.08 45.63 764.50 42.81
  Q 763.95 42.79 764.05 43.33
  C 764.45 45.51 765.00 47.60 765.00 49.76
  Q 765.00 724.03 765.00 1398.29
  C 765.00 1400.12 764.58 1402.09 764.31 1404.01
  Q 764.22 1404.65 764.86 1404.62
  C 814.90 1401.90 865.66 1394.70 913.78 1380.36
  Q 1026.55 1346.77 1122.32 1279.03
  Q 1130.45 1273.28 1138.37 1267.10
  Q 1196.60 1221.66 1244.88 1165.62
  C 1311.37 1088.46 1358.49 994.59 1385.06 895.90
  Q 1389.95 877.73 1393.66 857.43
  Q 1419.04 718.75 1392.25 580.75
  Q 1389.13 564.70 1384.83 548.94
  Q 1353.81 435.25 1287.86 338.04
  C 1264.17 303.14 1235.11 270.35 1205.00 240.88"
/>
<path fill="#303030" d="
  M 207.65 1230.59
  C 80.34 1100.49 3.63 925.86 0.60 743.06
  C -1.74 601.51 33.75 463.24 108.46 342.77
  C 265.18 90.05 571.68 -42.16 863.00 12.98
  C 1028.21 44.25 1174.85 135.43 1282.91 264.07
  C 1447.84 460.39 1490.16 733.19 1404.17 972.17
  C 1334.24 1166.49 1179.01 1325.59 985.66 1399.39
  C 856.84 1448.56 717.83 1459.62 582.52 1432.92
  Q 363.32 1389.67 207.65 1230.59
  Z
  M 1205.00 240.88
  C 1178.28 214.72 1150.35 190.03 1121.82 169.43
  Q 1018.86 95.06 893.95 61.47
  Q 884.27 58.87 874.50 56.85
  Q 820.08 45.63 764.50 42.81
  Q 763.95 42.79 764.05 43.33
  C 764.45 45.51 765.00 47.60 765.00 49.76
  Q 765.00 724.03 765.00 1398.29
  C 765.00 1400.12 764.58 1402.09 764.31 1404.01
  Q 764.22 1404.65 764.86 1404.62
  C 814.90 1401.90 865.66 1394.70 913.78 1380.36
  Q 1026.55 1346.77 1122.32 1279.03
  Q 1130.45 1273.28 1138.37 1267.10
  Q 1196.60 1221.66 1244.88 1165.62
  C 1311.37 1088.46 1358.49 994.59 1385.06 895.90
  Q 1389.95 877.73 1393.66 857.43
  Q 1419.04 718.75 1392.25 580.75
  Q 1389.13 564.70 1384.83 548.94
  Q 1353.81 435.25 1287.86 338.04
  C 1264.17 303.14 1235.11 270.35 1205.00 240.88
  Z
  M 50.10 805.85
  C 96.28 1147.02 375.04 1400.18 722.07 1402.14
  A 1.42 1.42 0.0 0 0 723.50 1400.72
  Q 723.50 725.50 723.50 49.80
  C 723.50 47.22 722.91 45.19 719.99 45.22
  C 586.11 46.80 458.72 85.43 348.42 160.91
  C 136.85 305.69 15.28 548.62 50.10 805.85
  Z"
/>
<path fill="#00aa68" d="
  M 1205.00 240.88
  C 1235.11 270.35 1264.17 303.14 1287.86 338.04
  Q 1353.81 435.25 1384.83 548.94
  Q 1389.13 564.70 1392.25 580.75
  Q 1419.04 718.75 1393.66 857.43
  Q 1389.95 877.73 1385.06 895.90
  C 1358.49 994.59 1311.37 1088.46 1244.88 1165.62
  Q 1196.60 1221.66 1138.37 1267.10
  Q 1130.45 1273.28 1122.32 1279.03
  Q 1026.55 1346.77 913.78 1380.36
  C 865.66 1394.70 814.90 1401.90 764.86 1404.62
  Q 764.22 1404.65 764.31 1404.01
  C 764.58 1402.09 765.00 1400.12 765.00 1398.29
  Q 765.00 724.03 765.00 49.76
  C 765.00 47.60 764.45 45.51 764.05 43.33
  Q 763.95 42.79 764.50 42.81
  Q 820.08 45.63 874.50 56.85
  Q 884.27 58.87 893.95 61.47
  Q 1018.86 95.06 1121.82 169.43
  C 1150.35 190.03 1178.28 214.72 1205.00 240.88
  Z"
/>
</svg>
