<?xml version="1.0" encoding="UTF-8" standalone="no"?>
<svg
   version="1.1"
   viewBox="0.00 0.00 134.00 134.00"
   id="svg2"
   sodipodi:docname="d.svg"
   inkscape:version="1.3 (0e150ed6c4, 2023-07-21)"
   xmlns:inkscape="http://www.inkscape.org/namespaces/inkscape"
   xmlns:sodipodi="http://sodipodi.sourceforge.net/DTD/sodipodi-0.dtd"
   xmlns="http://www.w3.org/2000/svg"
   xmlns:svg="http://www.w3.org/2000/svg">
  <defs
     id="defs2" />
  <sodipodi:namedview
     id="namedview2"
     pagecolor="#ffffff"
     bordercolor="#000000"
     borderopacity="0.25"
     inkscape:showpageshadow="2"
     inkscape:pageopacity="0.0"
     inkscape:pagecheckerboard="0"
     inkscape:deskcolor="#d1d1d1"
     inkscape:zoom="6.0746269"
     inkscape:cx="67.08231"
     inkscape:cy="67"
     inkscape:window-width="1920"
     inkscape:window-height="1010"
     inkscape:window-x="1913"
     inkscape:window-y="-6"
     inkscape:window-maximized="1"
     inkscape:current-layer="svg2" />
  <path
     fill="#004124"
     d="   M 64.30 0.00   L 70.06 0.00   C 105.42 2.70 132.07 28.87 134.00 64.33   L 134.00 69.57   C 131.93 104.80 105.42 131.67 70.17 134.00   L 63.69 134.00   C 28.77 131.33 2.40 105.42 0.00 70.42   L 0.00 63.47   C 2.44 28.29 29.22 2.31 64.30 0.00   Z   M 128.00 67.00   A 61.00 61.00 0.0 0 0 67.00 6.00   A 61.00 61.00 0.0 0 0 6.00 67.00   A 61.00 61.00 0.0 0 0 67.00 128.00   A 61.00 61.00 0.0 0 0 128.00 67.00   Z"
     id="path1"
     style="fill:#00a86b;fill-opacity:1" />
  <path
     fill="#004124"
     d="   M 78.75 73.25   L 83.00 73.25   Q 83.50 73.25 83.50 73.75   L 83.50 80.03   Q 83.50 80.56 82.97 80.55   L 78.84 80.39   A 0.57 0.57 0.0 0 0 78.25 80.96   L 78.25 88.50   Q 78.25 89.00 77.75 89.00   L 70.50 89.00   Q 69.75 89.00 69.75 88.25   L 69.75 81.00   Q 69.75 80.50 69.25 80.50   L 49.46 80.50   Q 48.83 80.50 48.79 79.87   C 48.61 76.99 48.22 74.69 50.01 72.14   Q 59.09 59.18 68.15 46.20   A 1.05 1.04 17.2 0 1 69.01 45.75   L 77.50 45.75   Q 78.25 45.75 78.25 46.50   L 78.25 72.75   Q 78.25 73.25 78.75 73.25   Z   M 70.25 55.99   A 0.34 0.34 0.0 0 0 69.63 55.80   L 58.32 72.72   A 0.34 0.34 0.0 0 0 58.61 73.25   L 69.91 73.25   A 0.34 0.34 0.0 0 0 70.25 72.91   L 70.25 55.99   Z"
     id="path2"
     style="fill:#333333;fill-opacity:1" />
</svg>
