<?xml version="1.0" encoding="UTF-8" standalone="no"?>
<svg
   version="1.1"
   viewBox="0.00 0.00 949.00 949.00"
   id="svg2"
   sodipodi:docname="b.svg"
   inkscape:version="1.3 (0e150ed6c4, 2023-07-21)"
   xmlns:inkscape="http://www.inkscape.org/namespaces/inkscape"
   xmlns:sodipodi="http://sodipodi.sourceforge.net/DTD/sodipodi-0.dtd"
   xmlns="http://www.w3.org/2000/svg"
   xmlns:svg="http://www.w3.org/2000/svg">
  <defs
     id="defs2" />
  <sodipodi:namedview
     id="namedview2"
     pagecolor="#ffffff"
     bordercolor="#000000"
     borderopacity="0.25"
     inkscape:showpageshadow="2"
     inkscape:pageopacity="0.0"
     inkscape:pagecheckerboard="0"
     inkscape:deskcolor="#d1d1d1"
     inkscape:zoom="0.85774499"
     inkscape:cx="473.91708"
     inkscape:cy="474.5"
     inkscape:window-width="1920"
     inkscape:window-height="1010"
     inkscape:window-x="1913"
     inkscape:window-y="-6"
     inkscape:window-maximized="1"
     inkscape:current-layer="svg2" />
  <path
     fill="#303030"
     d="   M 0.00 0.00   L 949.00 0.00   L 949.00 949.00   L 0.00 949.00   L 0.00 0.00   Z   M 889.00 60.27   A 0.27 0.27 0.0 0 0 888.73 60.00   L 60.27 60.00   A 0.27 0.27 0.0 0 0 60.00 60.27   L 60.00 888.73   A 0.27 0.27 0.0 0 0 60.27 889.00   L 888.73 889.00   A 0.27 0.27 0.0 0 0 889.00 888.73   L 889.00 60.27   Z"
     id="path1" />
  <rect
     fill="#007948"
     x="633.00"
     y="80.00"
     width="237.00"
     height="237.00"
     rx="21.15"
     id="rect1"
     style="fill:#00a86b;fill-opacity:1" />
  <path
     fill="#007948"
     d="   M 323.10 749.50   A 118.60 118.60 0.0 0 1 204.50 868.10   A 118.60 118.60 0.0 0 1 85.90 749.50   A 118.60 118.60 0.0 0 1 204.50 630.90   A 118.60 118.60 0.0 0 1 323.10 749.50   Z   M 292.86 718.01   C 282.81 691.34 263.73 672.25 237.45 661.71   C 222.56 655.74 206.15 654.95 190.41 656.82   C 167.75 659.52 147.14 672.72 132.34 689.60   C 125.20 697.73 119.93 708.50 115.98 718.63   C 108.82 737.01 109.21 762.80 116.22 781.16   Q 131.43 820.98 170.93 837.06   C 190.35 844.96 216.38 845.28 235.97 837.84   Q 276.65 822.38 292.53 781.83   C 299.99 762.78 300.06 737.14 292.86 718.01   Z"
     id="path2"
     style="fill:#00a86b;fill-opacity:1" />
</svg>
