<?xml version="1.0" encoding="UTF-8" standalone="no"?>
<svg
   version="1.1"
   viewBox="0.00 0.00 134.00 134.00"
   id="svg3"
   sodipodi:docname="f.svg"
   inkscape:version="1.3 (0e150ed6c4, 2023-07-21)"
   xmlns:inkscape="http://www.inkscape.org/namespaces/inkscape"
   xmlns:sodipodi="http://sodipodi.sourceforge.net/DTD/sodipodi-0.dtd"
   xmlns="http://www.w3.org/2000/svg"
   xmlns:svg="http://www.w3.org/2000/svg">
  <defs
     id="defs3" />
  <sodipodi:namedview
     id="namedview3"
     pagecolor="#ffffff"
     bordercolor="#000000"
     borderopacity="0.25"
     inkscape:showpageshadow="2"
     inkscape:pageopacity="0.0"
     inkscape:pagecheckerboard="0"
     inkscape:deskcolor="#d1d1d1"
     inkscape:zoom="6.0746269"
     inkscape:cx="67.08231"
     inkscape:cy="67"
     inkscape:window-width="1920"
     inkscape:window-height="1010"
     inkscape:window-x="1913"
     inkscape:window-y="-6"
     inkscape:window-maximized="1"
     inkscape:current-layer="svg3" />
  <path
     fill="#004124"
     d="   M 64.30 0.00   L 70.06 0.00   C 105.42 2.70 132.07 28.87 134.00 64.33   L 134.00 69.58   C 131.80 104.82 105.49 131.71 70.17 134.00   L 63.69 134.00   C 28.78 131.33 2.39 105.42 0.00 70.42   L 0.00 63.47   C 2.44 28.29 29.22 2.31 64.30 0.00   Z   M 128.00 67.00   A 61.00 61.00 0.0 0 0 67.00 6.00   A 61.00 61.00 0.0 0 0 6.00 67.00   A 61.00 61.00 0.0 0 0 67.00 128.00   A 61.00 61.00 0.0 0 0 128.00 67.00   Z"
     id="path1"
     style="fill:#00a86b;fill-opacity:1" />
  <path
     fill="#004124"
     d="   M 68.62 65.48   Q 60.43 58.85 65.07 50.78   C 70.72 40.98 91.18 42.20 92.94 55.04   Q 93.80 61.28 88.09 65.13   Q 87.55 65.50 88.06 65.92   Q 94.75 71.37 93.99 78.26   C 92.33 93.21 66.16 94.01 62.91 79.70   Q 60.97 71.16 68.59 66.14   Q 69.06 65.83 68.62 65.48   Z   M 84.9055 57.0363   A 6.65 6.17 -2.1 0 0 78.0339 51.1141   A 6.65 6.17 -2.1 0 0 71.6145 57.5237   A 6.65 6.17 -2.1 0 0 78.4861 63.4459   A 6.65 6.17 -2.1 0 0 84.9055 57.0363   Z   M 85.9692 76.3181   A 7.74 6.85 0.8 0 0 78.3256 69.3607   A 7.74 6.85 0.8 0 0 70.4908 76.1019   A 7.74 6.85 0.8 0 0 78.1344 83.0593   A 7.74 6.85 0.8 0 0 85.9692 76.3181   Z"
     id="path2"
     style="fill:#333333;fill-opacity:1" />
  <path
     fill="#004124"
     d="   M 44.47 53.01   L 39.78 52.99   A 0.53 0.53 0.0 0 1 39.25 52.46   L 39.25 45.78   A 0.53 0.53 0.0 0 1 39.78 45.25   L 52.97 45.25   A 0.53 0.53 0.0 0 1 53.50 45.78   L 53.50 88.46   A 0.53 0.53 0.0 0 1 52.97 88.99   L 45.53 89.00   A 0.53 0.53 0.0 0 1 45.00 88.47   L 45.00 53.54   A 0.53 0.53 0.0 0 0 44.47 53.01   Z"
     id="path3"
     style="fill:#333333;fill-opacity:1" />
</svg>
