<?xml version="1.0" encoding="UTF-8" standalone="no"?>
<svg
   version="1.1"
   viewBox="0.00 0.00 134.00 134.00"
   id="svg3"
   sodipodi:docname="d.svg"
   inkscape:version="1.3 (0e150ed6c4, 2023-07-21)"
   xmlns:inkscape="http://www.inkscape.org/namespaces/inkscape"
   xmlns:sodipodi="http://sodipodi.sourceforge.net/DTD/sodipodi-0.dtd"
   xmlns="http://www.w3.org/2000/svg"
   xmlns:svg="http://www.w3.org/2000/svg">
  <defs
     id="defs3" />
  <sodipodi:namedview
     id="namedview3"
     pagecolor="#ffffff"
     bordercolor="#000000"
     borderopacity="0.25"
     inkscape:showpageshadow="2"
     inkscape:pageopacity="0.0"
     inkscape:pagecheckerboard="0"
     inkscape:deskcolor="#d1d1d1"
     inkscape:zoom="6.0746269"
     inkscape:cx="67.08231"
     inkscape:cy="67"
     inkscape:window-width="1920"
     inkscape:window-height="1010"
     inkscape:window-x="1913"
     inkscape:window-y="-6"
     inkscape:window-maximized="1"
     inkscape:current-layer="svg3" />
  <path
     fill="#004124"
     d="   M 64.30 0.00   L 70.06 0.00   C 105.42 2.70 132.07 28.87 134.00 64.33   L 134.00 69.56   C 132.06 104.83 105.36 131.56 70.18 134.00   L 63.69 134.00   C 28.77 131.33 2.40 105.42 0.00 70.42   L 0.00 63.47   C 2.44 28.29 29.22 2.31 64.30 0.00   Z   M 128.00 67.00   A 61.00 61.00 0.0 0 0 67.00 6.00   A 61.00 61.00 0.0 0 0 6.00 67.00   A 61.00 61.00 0.0 0 0 67.00 128.00   A 61.00 61.00 0.0 0 0 128.00 67.00   Z"
     id="path1"
     style="fill:#00a86b;fill-opacity:1" />
  <path
     fill="#004124"
     d="   M 47.52 53.00   L 42.73 53.00   A 0.48 0.48 0.0 0 1 42.25 52.52   L 42.25 45.73   A 0.48 0.48 0.0 0 1 42.73 45.25   L 56.02 45.25   A 0.48 0.48 0.0 0 1 56.50 45.73   L 56.50 88.52   A 0.48 0.48 0.0 0 1 56.02 89.00   L 48.48 89.00   A 0.48 0.48 0.0 0 1 48.00 88.52   L 48.00 53.48   A 0.48 0.48 0.0 0 0 47.52 53.00   Z"
     id="path2"
     style="fill:#333333;fill-opacity:1" />
  <path
     fill="#004124"
     d="   M 83.97 52.50   L 64.63 52.50   Q 64.00 52.50 64.00 51.87   L 64.00 46.25   Q 64.00 45.50 64.75 45.50   L 92.24 45.50   Q 92.77 45.50 92.84 46.03   Q 93.46 50.64 92.77 52.25   Q 85.10 70.15 77.33 88.29   A 1.18 1.18 0.0 0 1 76.25 89.00   L 69.28 89.00   A 0.49 0.49 0.0 0 1 68.83 88.31   L 84.38 53.13   Q 84.66 52.50 83.97 52.50   Z"
     id="path3"
     style="fill:#333333;fill-opacity:1" />
</svg>
