<?xml version="1.0" encoding="UTF-8" standalone="no"?>
<!DOCTYPE svg PUBLIC "-//W3C//DTD SVG 1.1//EN" "http://www.w3.org/Graphics/SVG/1.1/DTD/svg11.dtd">
<svg xmlns="http://www.w3.org/2000/svg" version="1.1" viewBox="0.00 0.00 305.00 306.00">
<path fill="#303030" d="
  M 304.3599 301.7450
  A 3.09 3.09 0.0 0 1 301.2753 304.8404
  L 4.0758 305.3591
  A 3.09 3.09 0.0 0 1 0.9804 302.2745
  L 0.4601 4.1550
  A 3.09 3.09 0.0 0 1 3.5447 1.0596
  L 300.7442 0.5409
  A 3.09 3.09 0.0 0 1 303.8396 3.6255
  L 304.3599 301.7450
  Z
  M 285.25 22.88
  A 3.13 3.13 0.0 0 0 282.12 19.75
  L 21.88 19.75
  A 3.13 3.13 0.0 0 0 18.75 22.88
  L 18.75 283.12
  A 3.13 3.13 0.0 0 0 21.88 286.25
  L 282.12 286.25
  A 3.13 3.13 0.0 0 0 285.25 283.12
  L 285.25 22.88
  Z"
/>
<path fill="#007948" d="
  M 43.75 64.12
  A 1.60 1.59 -45.1 0 1 43.75 61.87
  L 51.06 54.56
  A 1.34 1.34 0.0 0 1 52.94 54.56
  L 232.33 233.96
  A 0.25 0.25 0.0 0 0 232.76 233.78
  L 232.74 155.03
  A 0.49 0.48 -0.6 0 1 233.22 154.55
  L 244.50 154.38
  A 1.23 1.23 0.0 0 1 245.75 155.61
  Q 245.75 201.69 245.75 248.40
  C 245.75 253.30 243.77 256.73 238.62 256.74
  Q 188.05 256.76 137.50 256.75
  A 0.51 0.50 90.0 0 1 137.00 256.24
  L 137.00 244.50
  A 0.76 0.75 -90.0 0 1 137.75 243.74
  L 222.78 243.76
  A 0.25 0.25 0.0 0 0 222.95 243.33
  L 43.75 64.12
  Z"
/>
</svg>
