<?xml version="1.0" encoding="UTF-8" standalone="no"?>
<!DOCTYPE svg PUBLIC "-//W3C//DTD SVG 1.1//EN" "http://www.w3.org/Graphics/SVG/1.1/DTD/svg11.dtd">
<svg xmlns="http://www.w3.org/2000/svg" version="1.1" viewBox="0.00 0.00 1000.00 1000.00">
<g stroke-width="2.00" fill="none" stroke-linecap="butt">
<path stroke="#968216" vector-effect="non-scaling-stroke" d="
  M 126.96 256.15
  A 2.64 2.64 0.0 0 0 126.97 260.72
  L 497.92 474.29
  A 2.64 2.64 0.0 0 0 500.56 474.29
  L 871.36 260.19
  A 2.64 2.64 0.0 0 0 871.36 255.62
  L 500.24 41.94
  A 2.64 2.64 0.0 0 0 497.60 41.94
  L 126.96 256.15"
/>
<path stroke="#16744d" vector-effect="non-scaling-stroke" d="
  M 520.84 512.21
  Q 520.53 514.75 520.53 517.50
  Q 520.49 715.71 520.51 913.92
  C 520.51 921.39 520.94 932.58 520.69 941.93
  A 1.56 1.56 0.0 0 0 523.03 943.32
  L 895.30 728.35
  A 2.39 2.38 -15.0 0 0 896.50 726.28
  L 896.50 298.25
  A 1.79 1.79 0.0 0 0 893.98 296.62
  C 892.93 297.08 891.44 297.41 890.46 297.97
  Q 706.09 404.21 521.64 510.99
  A 1.65 1.64 78.5 0 0 520.84 512.21"
/>
<path stroke="#96312f" vector-effect="non-scaling-stroke" d="
  M 106.28 730.65
  C 228.86 801.91 351.97 872.54 474.87 942.97
  A 2.59 2.59 0.0 0 0 478.75 940.73
  L 478.75 512.96
  A 2.23 2.23 0.0 0 0 477.62 511.02
  L 106.93 297.58
  A 3.15 3.15 0.0 0 0 102.20 300.32
  C 102.75 438.42 103.08 576.53 102.97 714.64
  C 102.97 720.45 99.82 726.90 106.28 730.65"
/>
</g>
<path fill="#2c2c2c" d="
  M 493.29 996.73
  C 354.71 917.64 216.41 838.05 78.47 757.84
  C 62.95 748.82 64.91 744.57 64.46 727.99
  Q 64.25 720.12 64.24 718.01
  Q 64.20 582.42 64.59 446.83
  Q 64.59 446.53 64.40 446.30
  Q 64.25 446.12 64.25 446.00
  Q 64.25 355.88 64.20 265.75
  Q 64.19 259.95 65.42 254.30
  C 67.02 246.93 70.82 245.01 77.79 240.98
  Q 282.17 122.82 486.72 4.95
  C 496.55 -0.71 503.66 1.03 513.00 6.34
  C 649.94 84.15 786.18 163.21 922.65 241.85
  C 929.71 245.92 933.72 250.24 933.72 258.31
  Q 933.73 496.40 934.65 734.50
  C 934.70 747.77 926.73 754.06 916.30 760.08
  Q 713.96 876.85 511.63 993.65
  C 504.35 997.86 500.42 1000.81 493.29 996.73
  Z
  M 126.96 256.15
  A 2.64 2.64 0.0 0 0 126.97 260.72
  L 497.92 474.29
  A 2.64 2.64 0.0 0 0 500.56 474.29
  L 871.36 260.19
  A 2.64 2.64 0.0 0 0 871.36 255.62
  L 500.24 41.94
  A 2.64 2.64 0.0 0 0 497.60 41.94
  L 126.96 256.15
  Z
  M 520.84 512.21
  Q 520.53 514.75 520.53 517.50
  Q 520.49 715.71 520.51 913.92
  C 520.51 921.39 520.94 932.58 520.69 941.93
  A 1.56 1.56 0.0 0 0 523.03 943.32
  L 895.30 728.35
  A 2.39 2.38 -15.0 0 0 896.50 726.28
  L 896.50 298.25
  A 1.79 1.79 0.0 0 0 893.98 296.62
  C 892.93 297.08 891.44 297.41 890.46 297.97
  Q 706.09 404.21 521.64 510.99
  A 1.65 1.64 78.5 0 0 520.84 512.21
  Z
  M 106.28 730.65
  C 228.86 801.91 351.97 872.54 474.87 942.97
  A 2.59 2.59 0.0 0 0 478.75 940.73
  L 478.75 512.96
  A 2.23 2.23 0.0 0 0 477.62 511.02
  L 106.93 297.58
  A 3.15 3.15 0.0 0 0 102.20 300.32
  C 102.75 438.42 103.08 576.53 102.97 714.64
  C 102.97 720.45 99.82 726.90 106.28 730.65
  Z"
/>
<path fill="#ffd700" d="
  M 126.96 256.15
  L 497.60 41.94
  A 2.64 2.64 0.0 0 1 500.24 41.94
  L 871.36 255.62
  A 2.64 2.64 0.0 0 1 871.36 260.19
  L 500.56 474.29
  A 2.64 2.64 0.0 0 1 497.92 474.29
  L 126.97 260.72
  A 2.64 2.64 0.0 0 1 126.96 256.15
  Z"
/>
<path fill="#00bb6e" d="
  M 520.84 512.21
  A 1.65 1.64 78.5 0 1 521.64 510.99
  Q 706.09 404.21 890.46 297.97
  C 891.44 297.41 892.93 297.08 893.98 296.62
  A 1.79 1.79 0.0 0 1 896.50 298.25
  L 896.50 726.28
  A 2.39 2.38 -15.0 0 1 895.30 728.35
  L 523.03 943.32
  A 1.56 1.56 0.0 0 1 520.69 941.93
  C 520.94 932.58 520.51 921.39 520.51 913.92
  Q 520.49 715.71 520.53 517.50
  Q 520.53 514.75 520.84 512.21
  Z"
/>
<path fill="#ff3632" d="
  M 474.87 942.97
  C 351.97 872.54 228.86 801.91 106.28 730.65
  C 99.82 726.90 102.97 720.45 102.97 714.64
  C 103.08 576.53 102.75 438.42 102.20 300.32
  A 3.15 3.15 0.0 0 1 106.93 297.58
  L 477.62 511.02
  A 2.23 2.23 0.0 0 1 478.75 512.96
  L 478.75 940.73
  A 2.59 2.59 0.0 0 1 474.87 942.97
  Z"
/>
</svg>
