<?xml version="1.0" encoding="UTF-8" standalone="no"?>
<!DOCTYPE svg PUBLIC "-//W3C//DTD SVG 1.1//EN" "http://www.w3.org/Graphics/SVG/1.1/DTD/svg11.dtd">
<svg xmlns="http://www.w3.org/2000/svg" version="1.1" viewBox="0.00 0.00 1447.00 1448.00">
<path stroke="#186d4c" stroke-width="2.00" fill="none" stroke-linecap="butt" vector-effect="non-scaling-stroke" d="
  M 1114.41 163.93
  C 1060.88 127.02 1000.18 96.08 938.01 75.37
  C 912.65 66.92 887.27 59.49 861.24 54.52
  Q 813.56 45.42 763.96 42.60
  Q 763.39 42.57 763.47 43.13
  C 763.78 45.46 764.50 47.62 764.50 49.84
  Q 764.50 366.26 764.50 682.32
  A 0.68 0.68 0.0 0 0 765.18 683.00
  Q 1080.78 683.00 1396.07 683.00
  C 1398.58 683.00 1401.06 683.68 1403.64 684.03
  Q 1404.23 684.11 1404.20 683.52
  C 1401.45 635.36 1394.57 586.58 1381.12 540.17
  Q 1347.31 423.46 1277.80 324.92
  Q 1272.04 316.76 1265.89 308.86
  Q 1207.02 233.33 1130.61 175.63
  Q 1122.50 169.51 1114.41 163.93"
/>
<path fill="#303030" d="
  M 709.32 0.00
  L 740.05 0.00
  Q 833.74 2.32 922.49 27.53
  C 1098.39 77.49 1252.03 195.38 1345.34 352.87
  C 1434.22 502.86 1466.81 682.13 1435.01 853.84
  C 1385.09 1123.40 1186.13 1344.42 921.83 1419.23
  C 705.73 1480.39 474.52 1439.59 293.82 1306.18
  C 111.42 1171.51 4.67 962.31 0.00 735.42
  L 0.00 711.97
  Q 3.85 528.69 91.79 371.31
  C 217.66 146.04 450.96 6.89 709.32 0.00
  Z
  M 1114.41 163.93
  C 1060.88 127.02 1000.18 96.08 938.01 75.37
  C 912.65 66.92 887.27 59.49 861.24 54.52
  Q 813.56 45.42 763.96 42.60
  Q 763.39 42.57 763.47 43.13
  C 763.78 45.46 764.50 47.62 764.50 49.84
  Q 764.50 366.26 764.50 682.32
  A 0.68 0.68 0.0 0 0 765.18 683.00
  Q 1080.78 683.00 1396.07 683.00
  C 1398.58 683.00 1401.06 683.68 1403.64 684.03
  Q 1404.23 684.11 1404.20 683.52
  C 1401.45 635.36 1394.57 586.58 1381.12 540.17
  Q 1347.31 423.46 1277.80 324.92
  Q 1272.04 316.76 1265.89 308.86
  Q 1207.02 233.33 1130.61 175.63
  Q 1122.50 169.51 1114.41 163.93
  Z
  M 106.18 1007.78
  C 206.09 1221.40 412.10 1371.61 647.50 1398.52
  C 877.91 1424.86 1101.17 1330.09 1248.40 1152.73
  C 1345.73 1035.47 1400.38 881.06 1401.68 728.56
  C 1401.71 725.95 1399.33 724.50 1396.78 724.50
  Q 1061.42 724.50 726.41 724.50
  A 3.41 3.41 0.0 0 1 723.00 721.09
  Q 723.00 385.87 723.00 50.25
  C 723.00 47.79 722.52 45.97 719.75 45.96
  C 633.58 45.81 546.69 61.86 467.02 94.50
  C 115.20 238.63 -56.09 660.85 106.18 1007.78
  Z"
/>
<path fill="#00aa68" d="
  M 938.01 75.37
  C 1000.18 96.08 1060.88 127.02 1114.41 163.93
  Q 1122.50 169.51 1130.61 175.63
  Q 1207.02 233.33 1265.89 308.86
  Q 1272.04 316.76 1277.80 324.92
  Q 1347.31 423.46 1381.12 540.17
  C 1394.57 586.58 1401.45 635.36 1404.20 683.52
  Q 1404.23 684.11 1403.64 684.03
  C 1401.06 683.68 1398.58 683.00 1396.07 683.00
  Q 1080.78 683.00 765.18 683.00
  A 0.68 0.68 0.0 0 1 764.50 682.32
  Q 764.50 366.26 764.50 49.84
  C 764.50 47.62 763.78 45.46 763.47 43.13
  Q 763.39 42.57 763.96 42.60
  Q 813.56 45.42 861.24 54.52
  C 887.27 59.49 912.65 66.92 938.01 75.37
  Z"
/>
</svg>
