<?xml version="1.0" encoding="UTF-8" standalone="no"?>
<!DOCTYPE svg PUBLIC "-//W3C//DTD SVG 1.1//EN" "http://www.w3.org/Graphics/SVG/1.1/DTD/svg11.dtd">
<svg xmlns="http://www.w3.org/2000/svg" version="1.1" viewBox="0.00 0.00 830.00 830.00">
<path fill="#303030" d="
  M 0.00 0.00
  L 830.00 0.00
  L 830.00 830.00
  L 0.00 830.00
  L 0.00 0.00
  Z
  M 784.00 46.26
  A 0.26 0.26 0.0 0 0 783.74 46.00
  L 46.26 46.00
  A 0.26 0.26 0.0 0 0 46.00 46.26
  L 46.00 783.74
  A 0.26 0.26 0.0 0 0 46.26 784.00
  L 783.74 784.00
  A 0.26 0.26 0.0 0 0 784.00 783.74
  L 784.00 46.26
  Z"
/>
<path fill="#00aa68" d="
  M 124.75 161.64
  C 111.56 148.42 97.80 135.04 84.55 121.48
  C 76.82 113.58 76.01 107.72 83.88 99.83
  Q 93.54 90.14 103.18 80.45
  Q 107.40 76.22 110.27 75.38
  C 115.81 73.74 118.91 76.51 122.93 80.52
  Q 265.44 223.14 408.05 365.65
  Q 408.40 366.00 408.75 365.65
  Q 552.34 221.97 695.97 78.48
  Q 701.59 72.86 708.34 75.93
  C 711.42 77.33 714.75 81.82 716.49 83.58
  Q 724.29 91.48 732.24 99.22
  Q 736.88 103.73 737.96 106.73
  Q 740.35 113.34 734.47 119.22
  Q 591.43 262.25 448.35 405.24
  Q 447.99 405.59 448.35 405.95
  Q 589.73 547.42 731.27 688.87
  C 736.66 694.26 740.65 698.34 737.78 705.44
  Q 736.74 708.03 733.07 711.63
  Q 724.55 720.00 716.14 728.49
  C 714.58 730.06 712.44 733.41 709.81 734.77
  C 698.88 740.43 691.19 728.28 684.70 721.80
  Q 548.22 585.28 411.87 448.63
  Q 410.32 447.08 408.72 445.55
  Q 408.39 445.24 408.07 445.56
  Q 265.59 588.02 123.13 730.51
  Q 118.59 735.06 115.64 735.91
  C 110.40 737.43 106.60 734.89 102.71 730.99
  Q 92.91 721.16 83.28 711.16
  C 75.72 703.31 77.25 697.13 84.41 689.96
  Q 226.29 548.09 368.16 406.21
  Q 368.53 405.85 368.17 405.48
  Q 364.24 401.44 360.40 397.60
  Q 242.46 279.73 124.75 161.64
  Z"
/>
</svg>
