<?xml version="1.0" encoding="UTF-8" standalone="no"?>
<svg
   version="1.1"
   viewBox="0.00 0.00 228.00 228.00"
   id="svg18"
   sodipodi:docname="f.svg"
   inkscape:version="1.3 (0e150ed6c4, 2023-07-21)"
   xmlns:inkscape="http://www.inkscape.org/namespaces/inkscape"
   xmlns:sodipodi="http://sodipodi.sourceforge.net/DTD/sodipodi-0.dtd"
   xmlns="http://www.w3.org/2000/svg"
   xmlns:svg="http://www.w3.org/2000/svg">
  <defs
     id="defs18" />
  <sodipodi:namedview
     id="namedview18"
     pagecolor="#ffffff"
     bordercolor="#000000"
     borderopacity="0.25"
     inkscape:showpageshadow="2"
     inkscape:pageopacity="0.0"
     inkscape:pagecheckerboard="0"
     inkscape:deskcolor="#d1d1d1"
     inkscape:zoom="3.5701754"
     inkscape:cx="113.85995"
     inkscape:cy="114"
     inkscape:window-width="1920"
     inkscape:window-height="1010"
     inkscape:window-x="-6"
     inkscape:window-y="-6"
     inkscape:window-maximized="1"
     inkscape:current-layer="svg18" />
  <g
     stroke-width="2.00"
     fill="none"
     stroke-linecap="butt"
     id="g9">
    <path
       stroke="#84a0b2"
       vector-effect="non-scaling-stroke"
       d="   M 75.00 14.26   A 0.26 0.26 0.0 0 0 74.74 14.00   L 14.26 14.00   A 0.26 0.26 0.0 0 0 14.00 14.26   L 14.00 74.74   A 0.26 0.26 0.0 0 0 14.26 75.00   L 74.74 75.00   A 0.26 0.26 0.0 0 0 75.00 74.74   L 75.00 14.26"
       id="path1" />
    <path
       stroke="#84a0b2"
       vector-effect="non-scaling-stroke"
       d="   M 145.00 14.26   A 0.26 0.26 0.0 0 0 144.74 14.00   L 83.26 14.00   A 0.26 0.26 0.0 0 0 83.00 14.26   L 83.00 74.74   A 0.26 0.26 0.0 0 0 83.26 75.00   L 144.74 75.00   A 0.26 0.26 0.0 0 0 145.00 74.74   L 145.00 14.26"
       id="path2" />
    <path
       stroke="#84643b"
       vector-effect="non-scaling-stroke"
       d="   M 214.00 14.54   A 0.54 0.54 0.0 0 0 213.46 14.00   L 153.54 14.00   A 0.54 0.54 0.0 0 0 153.00 14.54   L 153.00 74.46   A 0.54 0.54 0.0 0 0 153.54 75.00   L 213.46 75.00   A 0.54 0.54 0.0 0 0 214.00 74.46   L 214.00 14.54"
       id="path3" />
    <path
       stroke="#84a0b2"
       vector-effect="non-scaling-stroke"
       d="   M 75.00 83.26   A 0.26 0.26 0.0 0 0 74.74 83.00   L 14.26 83.00   A 0.26 0.26 0.0 0 0 14.00 83.26   L 14.00 144.74   A 0.26 0.26 0.0 0 0 14.26 145.00   L 74.74 145.00   A 0.26 0.26 0.0 0 0 75.00 144.74   L 75.00 83.26"
       id="path4" />
    <path
       stroke="#84643b"
       vector-effect="non-scaling-stroke"
       d="   M 145.00 83.54   A 0.54 0.54 0.0 0 0 144.46 83.00   L 83.54 83.00   A 0.54 0.54 0.0 0 0 83.00 83.54   L 83.00 144.46   A 0.54 0.54 0.0 0 0 83.54 145.00   L 144.46 145.00   A 0.54 0.54 0.0 0 0 145.00 144.46   L 145.00 83.54"
       id="path5" />
    <path
       stroke="#84a0b2"
       vector-effect="non-scaling-stroke"
       d="   M 214.00 83.26   A 0.26 0.26 0.0 0 0 213.74 83.00   L 153.26 83.00   A 0.26 0.26 0.0 0 0 153.00 83.26   L 153.00 144.74   A 0.26 0.26 0.0 0 0 153.26 145.00   L 213.74 145.00   A 0.26 0.26 0.0 0 0 214.00 144.74   L 214.00 83.26"
       id="path6" />
    <path
       stroke="#84a0b2"
       vector-effect="non-scaling-stroke"
       d="   M 75.00 153.26   A 0.26 0.26 0.0 0 0 74.74 153.00   L 14.26 153.00   A 0.26 0.26 0.0 0 0 14.00 153.26   L 14.00 213.74   A 0.26 0.26 0.0 0 0 14.26 214.00   L 74.74 214.00   A 0.26 0.26 0.0 0 0 75.00 213.74   L 75.00 153.26"
       id="path7" />
    <path
       stroke="#84a0b2"
       vector-effect="non-scaling-stroke"
       d="   M 145.00 153.26   A 0.26 0.26 0.0 0 0 144.74 153.00   L 83.26 153.00   A 0.26 0.26 0.0 0 0 83.00 153.26   L 83.00 213.74   A 0.26 0.26 0.0 0 0 83.26 214.00   L 144.74 214.00   A 0.26 0.26 0.0 0 0 145.00 213.74   L 145.00 153.26"
       id="path8" />
    <path
       stroke="#84a0b2"
       vector-effect="non-scaling-stroke"
       d="   M 214.00 153.27   A 0.27 0.27 0.0 0 0 213.73 153.00   L 153.27 153.00   A 0.27 0.27 0.0 0 0 153.00 153.27   L 153.00 213.73   A 0.27 0.27 0.0 0 0 153.27 214.00   L 213.73 214.00   A 0.27 0.27 0.0 0 0 214.00 213.73   L 214.00 153.27"
       id="path9" />
  </g>
  <path
     fill="#094065"
     d="   M 0.00 0.00   L 228.00 0.00   L 228.00 228.00   L 0.00 228.00   L 0.00 0.00   Z   M 75.00 14.26   A 0.26 0.26 0.0 0 0 74.74 14.00   L 14.26 14.00   A 0.26 0.26 0.0 0 0 14.00 14.26   L 14.00 74.74   A 0.26 0.26 0.0 0 0 14.26 75.00   L 74.74 75.00   A 0.26 0.26 0.0 0 0 75.00 74.74   L 75.00 14.26   Z   M 145.00 14.26   A 0.26 0.26 0.0 0 0 144.74 14.00   L 83.26 14.00   A 0.26 0.26 0.0 0 0 83.00 14.26   L 83.00 74.74   A 0.26 0.26 0.0 0 0 83.26 75.00   L 144.74 75.00   A 0.26 0.26 0.0 0 0 145.00 74.74   L 145.00 14.26   Z   M 214.00 14.54   A 0.54 0.54 0.0 0 0 213.46 14.00   L 153.54 14.00   A 0.54 0.54 0.0 0 0 153.00 14.54   L 153.00 74.46   A 0.54 0.54 0.0 0 0 153.54 75.00   L 213.46 75.00   A 0.54 0.54 0.0 0 0 214.00 74.46   L 214.00 14.54   Z   M 75.00 83.26   A 0.26 0.26 0.0 0 0 74.74 83.00   L 14.26 83.00   A 0.26 0.26 0.0 0 0 14.00 83.26   L 14.00 144.74   A 0.26 0.26 0.0 0 0 14.26 145.00   L 74.74 145.00   A 0.26 0.26 0.0 0 0 75.00 144.74   L 75.00 83.26   Z   M 145.00 83.54   A 0.54 0.54 0.0 0 0 144.46 83.00   L 83.54 83.00   A 0.54 0.54 0.0 0 0 83.00 83.54   L 83.00 144.46   A 0.54 0.54 0.0 0 0 83.54 145.00   L 144.46 145.00   A 0.54 0.54 0.0 0 0 145.00 144.46   L 145.00 83.54   Z   M 214.00 83.26   A 0.26 0.26 0.0 0 0 213.74 83.00   L 153.26 83.00   A 0.26 0.26 0.0 0 0 153.00 83.26   L 153.00 144.74   A 0.26 0.26 0.0 0 0 153.26 145.00   L 213.74 145.00   A 0.26 0.26 0.0 0 0 214.00 144.74   L 214.00 83.26   Z   M 75.00 153.26   A 0.26 0.26 0.0 0 0 74.74 153.00   L 14.26 153.00   A 0.26 0.26 0.0 0 0 14.00 153.26   L 14.00 213.74   A 0.26 0.26 0.0 0 0 14.26 214.00   L 74.74 214.00   A 0.26 0.26 0.0 0 0 75.00 213.74   L 75.00 153.26   Z   M 145.00 153.26   A 0.26 0.26 0.0 0 0 144.74 153.00   L 83.26 153.00   A 0.26 0.26 0.0 0 0 83.00 153.26   L 83.00 213.74   A 0.26 0.26 0.0 0 0 83.26 214.00   L 144.74 214.00   A 0.26 0.26 0.0 0 0 145.00 213.74   L 145.00 153.26   Z   M 214.00 153.27   A 0.27 0.27 0.0 0 0 213.73 153.00   L 153.27 153.00   A 0.27 0.27 0.0 0 0 153.00 153.27   L 153.00 213.73   A 0.27 0.27 0.0 0 0 153.27 214.00   L 213.73 214.00   A 0.27 0.27 0.0 0 0 214.00 213.73   L 214.00 153.27   Z"
     id="path10"
     style="fill:#333333;fill-opacity:1" />
  <rect
     fill="#ffffff"
     x="14.00"
     y="14.00"
     width="61.00"
     height="61.00"
     rx="0.26"
     id="rect10" />
  <rect
     fill="#ffffff"
     x="83.00"
     y="14.00"
     width="62.00"
     height="61.00"
     rx="0.26"
     id="rect11" />
  <rect
     fill="#ff8811"
     x="153.00"
     y="14.00"
     width="61.00"
     height="61.00"
     rx="0.54"
     id="rect12"
     style="fill:#00a86b;fill-opacity:1" />
  <rect
     fill="#ffffff"
     x="14.00"
     y="83.00"
     width="61.00"
     height="62.00"
     rx="0.26"
     id="rect13" />
  <rect
     fill="#ff8811"
     x="83.00"
     y="83.00"
     width="62.00"
     height="62.00"
     rx="0.54"
     id="rect14"
     style="fill:#00a86b;fill-opacity:1" />
  <rect
     fill="#ffffff"
     x="153.00"
     y="83.00"
     width="61.00"
     height="62.00"
     rx="0.26"
     id="rect15" />
  <rect
     fill="#ffffff"
     x="14.00"
     y="153.00"
     width="61.00"
     height="61.00"
     rx="0.26"
     id="rect16" />
  <rect
     fill="#ffffff"
     x="83.00"
     y="153.00"
     width="62.00"
     height="61.00"
     rx="0.26"
     id="rect17" />
  <rect
     fill="#ffffff"
     x="153.00"
     y="153.00"
     width="61.00"
     height="61.00"
     rx="0.27"
     id="rect18" />
</svg>
