<?xml version="1.0" encoding="UTF-8" standalone="no"?>
<!DOCTYPE svg PUBLIC "-//W3C//DTD SVG 1.1//EN" "http://www.w3.org/Graphics/SVG/1.1/DTD/svg11.dtd">
<svg xmlns="http://www.w3.org/2000/svg" version="1.1" viewBox="0.00 0.00 304.00 304.00">
<path fill="#303030" d="
  M 303.24 304.00
  L 0.00 304.00
  L 0.00 0.77
  L 301.60 0.78
  A 1.65 1.64 -0.0 0 1 303.25 2.42
  L 303.24 304.00
  Z
  M 284.24 21.53
  A 1.78 1.78 0.0 0 0 282.46 19.75
  L 20.78 19.75
  A 1.78 1.78 0.0 0 0 19.00 21.53
  L 19.00 283.21
  A 1.78 1.78 0.0 0 0 20.78 284.99
  L 282.46 284.99
  A 1.78 1.78 0.0 0 0 284.24 283.21
  L 284.24 21.53
  Z"
/>
<path fill="#007948" d="
  M 226.53 63.24
  L 141.63 63.25
  Q 141.00 63.25 141.00 62.63
  L 141.00 50.79
  Q 141.00 50.25 141.54 50.25
  Q 191.26 50.26 240.95 50.22
  C 249.53 50.21 249.75 54.44 249.75 61.57
  Q 249.75 106.78 249.75 151.38
  Q 249.75 152.74 248.39 152.73
  L 237.59 152.68
  A 0.85 0.84 -0.0 0 1 236.74 151.84
  L 236.76 73.44
  A 0.24 0.24 0.0 0 0 236.35 73.27
  L 70.24 239.39
  A 0.22 0.22 0.0 0 0 70.39 239.76
  L 155.61 239.74
  A 0.62 0.61 -90.0 0 1 156.22 240.36
  L 156.16 252.08
  Q 156.15 252.76 155.48 252.76
  Q 105.74 252.72 56.05 252.78
  C 47.47 252.80 47.25 248.55 47.25 241.42
  Q 47.25 196.41 47.25 151.51
  A 0.95 0.95 0.0 0 1 48.18 150.56
  L 58.76 150.36
  A 1.46 1.46 0.0 0 1 60.25 151.82
  L 60.24 229.53
  A 0.25 0.25 0.0 0 0 60.67 229.71
  L 226.71 63.67
  Q 227.13 63.24 226.53 63.24
  Z"
/>
</svg>
