<?xml version="1.0" encoding="UTF-8" standalone="no"?>
<svg
   version="1.1"
   viewBox="0.00 0.00 305.00 304.00"
   id="svg2"
   sodipodi:docname="f.svg"
   inkscape:version="1.3 (0e150ed6c4, 2023-07-21)"
   xmlns:inkscape="http://www.inkscape.org/namespaces/inkscape"
   xmlns:sodipodi="http://sodipodi.sourceforge.net/DTD/sodipodi-0.dtd"
   xmlns="http://www.w3.org/2000/svg"
   xmlns:svg="http://www.w3.org/2000/svg">
  <defs
     id="defs2" />
  <sodipodi:namedview
     id="namedview2"
     pagecolor="#ffffff"
     bordercolor="#000000"
     borderopacity="0.25"
     inkscape:showpageshadow="2"
     inkscape:pageopacity="0.0"
     inkscape:pagecheckerboard="0"
     inkscape:deskcolor="#d1d1d1"
     inkscape:zoom="2.6776316"
     inkscape:cx="152.5602"
     inkscape:cy="152"
     inkscape:window-width="1920"
     inkscape:window-height="1010"
     inkscape:window-x="1913"
     inkscape:window-y="-6"
     inkscape:window-maximized="1"
     inkscape:current-layer="svg2" />
  <path
     fill="#303030"
     d="   M 304.03 304.00   L 0.53 304.00   L 0.53 2.69   A 1.94 1.94 0.0 0 1 2.47 0.75   L 301.77 0.75   A 2.56 2.55 90.0 0 1 304.32 3.31   L 304.03 304.00   Z   M 285.25 22.58   A 2.83 2.83 0.0 0 0 282.42 19.75   L 21.58 19.75   A 2.83 2.83 0.0 0 0 18.75 22.58   L 18.75 282.18   A 2.83 2.83 0.0 0 0 21.58 285.01   L 282.42 285.01   A 2.83 2.83 0.0 0 0 285.25 282.18   L 285.25 22.58   Z"
     id="path1" />
  <path
     fill="#007948"
     d="m 50.59,244.84 a 1.28,1.28 0 0 1 0.01,-1.81 l 91.09,-91.09 q 0.44,-0.44 0,-0.88 L 63.89,73.27 a 0.38,0.38 0 0 0 -0.65,0.26 l 0.01,78.07 a 1.16,1.17 0.2 0 1 -1.17,1.17 l -10.53,-0.08 a 1.3,1.3 0 0 1 -1.29,-1.3 q -0.03,-46.17 0,-92.86 c 0.01,-5.56 2.42,-8.33 7.92,-8.31 62.12,0.22 124.27,0.11 186.39,0.03 5.06,0 8.16,2.25 8.17,7.39 q 0.03,47.22 0,94.13 a 0.89,0.89 0 0 1 -0.88,0.89 l -11.26,0.04 a 0.85,0.85 0 0 1 -0.85,-0.85 V 73.46 q 0,-0.84 -0.59,-0.25 l -77.91,77.91 q -0.37,0.38 0,0.75 l 91.06,91.07 a 1.5,1.5 0 0 1 0,2.12 l -7.18,7.19 q -1.13,1.13 -2.25,0 l -91.19,-91.19 a 0.27,0.27 0 0 0 -0.38,0 l -91.08,91.08 a 1.77,1.77 0 0 1 -2.52,-0.01 z M 73.37,63.25 a 0.31,0.31 0 0 0 -0.22,0.53 l 78.13,78.12 a 0.31,0.31 0 0 0 0.44,0 l 78.13,-78.12 a 0.31,0.31 0 0 0 -0.22,-0.53 z"
     id="path2" />
</svg>
