<?xml version="1.0" encoding="UTF-8" standalone="no"?>
<!DOCTYPE svg PUBLIC "-//W3C//DTD SVG 1.1//EN" "http://www.w3.org/Graphics/SVG/1.1/DTD/svg11.dtd">
<svg xmlns="http://www.w3.org/2000/svg" version="1.1" viewBox="0.00 0.00 512.00 512.00">
<path fill="#000000" d="
  M 249.78 0.00
  L 261.04 0.00
  Q 307.62 1.71 346.05 24.16
  Q 381.16 44.68 403.55 76.93
  Q 442.37 132.86 434.52 202.29
  Q 433.41 212.06 430.93 222.04
  Q 423.32 252.66 406.40 278.69
  Q 402.50 284.70 395.33 293.45
  Q 388.72 301.50 383.95 307.94
  Q 365.00 333.51 361.40 366.96
  Q 360.76 372.93 361.02 386.98
  Q 361.25 399.06 360.93 407.25
  C 360.18 426.19 348.41 442.17 330.49 448.49
  Q 329.95 448.67 329.84 449.23
  Q 323.63 479.92 299.65 497.65
  Q 281.76 510.88 258.45 512.00
  L 253.41 512.00
  C 217.59 510.20 188.64 484.29 182.19 449.34
  Q 182.08 448.76 181.54 448.53
  C 178.85 447.43 176.12 446.43 173.62 444.92
  Q 157.07 434.93 152.45 416.88
  Q 150.64 409.82 150.94 397.03
  Q 151.15 387.70 151.01 376.99
  Q 150.48 338.01 127.82 307.42
  C 122.90 300.77 115.53 292.83 110.21 285.42
  Q 74.45 235.53 76.16 173.71
  C 77.67 118.74 104.49 68.17 148.26 35.45
  Q 188.42 5.43 239.28 0.94
  Q 244.51 0.48 249.78 0.00
  Z
  M 191.27 44.37
  C 155.94 61.12 128.46 91.47 115.02 128.06
  C 105.43 154.15 103.65 183.29 109.09 210.03
  Q 115.67 242.32 135.56 269.26
  C 139.02 273.94 142.98 278.40 146.76 282.97
  C 165.22 305.32 176.60 331.78 180.12 360.63
  Q 180.16 361.00 180.53 361.00
  L 331.47 361.00
  A 0.42 0.40 -85.9 0 0 331.87 360.64
  Q 337.11 319.24 362.57 286.46
  C 368.76 278.49 375.72 270.78 381.26 262.25
  Q 409.52 218.74 405.35 166.07
  C 404.95 161.02 403.81 155.85 402.98 150.77
  Q 402.12 145.55 400.44 139.72
  Q 386.20 90.35 345.22 59.61
  Q 337.48 53.81 328.52 48.89
  Q 295.79 30.92 258.20 30.17
  Q 222.73 29.46 191.27 44.37
  Z
  M 330.21 391.00
  L 181.79 391.00
  A 0.89 0.89 0.0 0 0 180.90 391.89
  L 180.90 405.08
  A 16.39 16.00 -0.0 0 0 197.29 421.08
  L 314.71 421.08
  A 16.39 16.00 0.0 0 0 331.10 405.08
  L 331.10 391.89
  A 0.89 0.89 0.0 0 0 330.21 391.00
  Z
  M 298.21 451.24
  Q 298.35 450.88 297.96 450.88
  L 213.98 450.88
  A 0.23 0.23 0.0 0 0 213.76 451.19
  Q 218.87 465.00 230.50 473.43
  C 255.38 491.47 287.93 479.02 298.21 451.24
  Z"
/>
<path fill="#000000" d="
  M 303.01 69.66
  Q 318.62 76.32 331.53 86.96
  Q 364.33 113.99 373.33 155.27
  Q 375.18 163.77 375.86 175.23
  Q 376.31 182.83 374.47 186.50
  C 368.62 198.12 351.87 197.62 347.15 185.53
  Q 346.04 182.68 345.87 177.77
  Q 344.86 146.63 325.54 123.13
  Q 303.90 96.81 269.79 91.12
  C 265.16 90.35 260.51 90.24 255.79 89.99
  C 239.56 89.13 235.23 67.56 250.29 61.17
  Q 253.71 59.71 261.13 60.13
  Q 283.65 61.40 303.01 69.66
  Z"
/>
<rect fill="#000000" x="-14.92" y="-29.85" transform="translate(30.00,104.99) rotate(-45.0)" width="29.84" height="59.70" rx="14.40"/>
<rect fill="#000000" x="-29.85" y="-14.92" transform="translate(482.00,104.99) rotate(-45.0)" width="59.70" height="29.84" rx="14.40"/>
<path fill="#000000" d="
  M 0.00 196.19
  L 0.00 193.68
  Q 1.61 184.50 8.86 181.39
  Q 12.65 179.77 18.58 179.90
  Q 30.32 180.18 41.78 179.92
  Q 47.87 179.78 51.41 181.48
  C 63.10 187.08 62.59 203.66 50.86 208.73
  Q 47.42 210.22 41.89 210.08
  Q 30.80 209.81 19.82 210.10
  Q 12.77 210.28 8.77 208.56
  Q 1.60 205.46 0.00 196.19
  Z"
/>
<path fill="#000000" d="
  M 512.00 193.81
  L 512.00 196.29
  C 510.27 206.21 503.56 210.25 494.17 210.08
  Q 482.02 209.86 471.64 210.09
  Q 465.94 210.21 462.40 209.17
  C 449.07 205.25 448.63 186.19 461.48 181.12
  Q 464.91 179.76 469.65 179.90
  Q 480.72 180.23 491.92 179.91
  Q 499.22 179.70 503.23 181.42
  Q 510.41 184.51 512.00 193.81
  Z"
/>
<rect fill="#000000" x="-29.85" y="-14.92" transform="translate(30.00,284.99) rotate(-45.0)" width="59.70" height="29.84" rx="14.40"/>
<rect fill="#000000" x="-14.92" y="-29.85" transform="translate(482.00,284.99) rotate(-45.0)" width="29.84" height="59.70" rx="14.40"/>
</svg>
