<svg height="24" viewBox="0 0 24 24" width="24" xmlns="http://www.w3.org/2000/svg"><g clip-rule="evenodd" fill-rule="evenodd"><path d="m15.337 4a5.493 5.493 0 0 0 -2.337 4.5c0 1.33.472 2.55 1.257 3.5h-10.257a1 1 0 0 0 -1 1v1a1 1 0 0 0 1 1h16a1 1 0 0 0 1-1v-.6a5.526 5.526 0 0 0 2-1.737v6.337a2 2 0 0 1 -2 2h-18a2 2 0 0 1 -2-2v-12a2 2 0 0 1 2-2zm6.707.293c.239.202.46.424.662.663a2.01 2.01 0 0 0 -.662-.663z" opacity=".2"/><path d="m13.6 6a5.477 5.477 0 0 0 -.578 3h-12.022v-3z" opacity=".4"/><path d="m18.5 14a5.5 5.5 0 1 1 0-11 5.5 5.5 0 0 1 0 11zm-2.184-7.779h-.621l-1.516.77v.786l1.202-.628v3.63h.943v-4.559h-.008zm1.807.629c.448 0 .762.251.762.613 0 .393-.37.668-.904.668h-.235v.668h.283c.565 0 .95.282.95.691 0 .393-.377.66-.911.66-.393 0-.786-.126-1.194-.37v.786c.44.189.88.291 1.312.291 1.029 0 1.736-.526 1.736-1.288 0-.535-.33-.967-.88-1.14.472-.157.778-.573.778-1.045 0-.738-.652-1.241-1.595-1.241a3.143 3.143 0 0 0 -1.234.267v.77c.378-.212.763-.33 1.132-.33zm3.394 1.713c.574 0 .974.338.974.778 0 .463-.4.785-.974.785-.346 0-.707-.11-1.076-.337v.809c.385.173.778.26 1.163.26.204 0 .392-.032.573-.08a4.313 4.313 0 0 0 .644-2.262l-.015-.33a1.807 1.807 0 0 0 -.967-.252 3 3 0 0 0 -.448.032v-1.022h1.132a4.423 4.423 0 0 0 -.362-.723h-1.587v2.475a3.9 3.9 0 0 1 .943-.133z"/></g></svg>